<svg width="121" height="121" viewBox="0 0 121 121" fill="none" xmlns="http://www.w3.org/2000/svg">
<path d="M41.1542 18.1166C40.1584 18.5673 39.2516 18.7927 38.434 18.7874C37.6163 18.7874 36.9192 18.6197 36.3375 18.2948C35.7557 17.9698 35.3311 17.5453 35.0638 17.0159C35.0219 16.9268 35.0219 16.8219 35.0638 16.7171C35.1057 16.6071 35.1739 16.5337 35.2787 16.4865L36.154 16.0882C36.2903 16.0253 36.4108 16.0148 36.5104 16.0515C36.61 16.0882 36.6939 16.1511 36.7568 16.2297C36.9507 16.4708 37.218 16.6804 37.5587 16.8534C37.8994 17.0264 38.3134 17.105 38.8009 17.0997C39.2883 17.0945 39.8544 16.9477 40.4938 16.6542C41.4792 16.2087 42.1239 15.7055 42.4331 15.1447C42.7371 14.5839 42.7581 14.0126 42.496 13.4308C42.3126 13.0325 42.0453 12.7599 41.6889 12.6289C41.3325 12.4926 40.8555 12.4454 40.2632 12.4769C39.6709 12.5083 38.9214 12.5922 38.0147 12.7285C37.0712 12.8647 36.2536 12.9172 35.5775 12.8805C34.9013 12.8438 34.33 12.6708 33.8635 12.3721C33.4023 12.0681 33.0249 11.5911 32.7262 10.9412C32.4484 10.3227 32.3645 9.69373 32.4746 9.05953C32.5847 8.42009 32.8939 7.81733 33.3918 7.24603C33.895 6.67472 34.5816 6.18728 35.4674 5.78893C36.1802 5.46921 36.8406 5.28053 37.4591 5.22811C38.0776 5.1757 38.6384 5.22811 39.1311 5.38011C39.629 5.53211 40.0536 5.75225 40.3995 6.03004C40.7454 6.30783 41.0022 6.61707 41.1699 6.95251C41.2066 7.03113 41.2119 7.12548 41.1909 7.22506C41.17 7.32465 41.0914 7.40327 40.9656 7.46092L40.0536 7.87499C39.975 7.91168 39.8806 7.9274 39.7705 7.91692C39.6657 7.91168 39.5609 7.85402 39.4561 7.74919C39.173 7.30892 38.7327 7.03637 38.13 6.92106C37.5272 6.80575 36.8564 6.92106 36.1226 7.25127C35.3783 7.58671 34.8384 8.00602 34.503 8.50395C34.1675 9.00187 34.1413 9.55221 34.4139 10.1602C34.5921 10.5481 34.8437 10.8259 35.1791 10.9831C35.5146 11.1403 35.9601 11.2137 36.5157 11.1928C37.0765 11.177 37.7788 11.1037 38.6332 10.9779C39.6657 10.8154 40.5358 10.742 41.2486 10.7577C41.9614 10.7734 42.5484 10.9307 43.0202 11.219C43.4919 11.5125 43.8745 11.9842 44.168 12.6341C44.493 13.3574 44.5821 14.0598 44.4353 14.7411C44.2886 15.4225 43.9321 16.0515 43.3766 16.628C42.8157 17.2046 42.0715 17.7025 41.1437 18.127L41.1542 18.1166Z" fill="#F4F4F5"/>
<path d="M53.6549 14.2849C53.5291 14.3006 53.419 14.2744 53.3299 14.2011C53.2356 14.1329 53.1832 14.0333 53.1674 13.9075L51.7261 2.90598L48.1358 3.3777C48.01 3.39342 47.8999 3.36721 47.8108 3.29908C47.7217 3.23094 47.664 3.13135 47.6483 3.00556L47.5435 2.21936C47.5278 2.08309 47.554 1.96778 47.6221 1.87343C47.6902 1.78433 47.7898 1.72668 47.9156 1.71095L56.9307 0.536893C57.067 0.521169 57.1823 0.547376 57.2767 0.615513C57.3658 0.683651 57.4234 0.788477 57.4391 0.924752L57.544 1.71095C57.5597 1.83674 57.5335 1.94157 57.4653 2.03592C57.3972 2.13026 57.2924 2.18267 57.1561 2.1984L53.5815 2.66488L55.0229 13.6664C55.0386 13.7922 55.0124 13.8971 54.939 13.9914C54.8709 14.0857 54.7661 14.1382 54.6298 14.1539L53.6549 14.2797V14.2849Z" fill="#F4F4F5"/>
<path d="M64.1443 13.8028C64.008 13.7818 63.9084 13.7189 63.8508 13.6298C63.7931 13.5407 63.7721 13.4254 63.7931 13.3049L65.8687 1.16068C65.8896 1.0244 65.9473 0.919577 66.0364 0.856681C66.1255 0.788544 66.2356 0.767578 66.3718 0.788544L70.9108 1.56426C72.3103 1.80536 73.3638 2.32426 74.0714 3.12094C74.7789 3.91762 75.02 4.96065 74.7999 6.25002C74.6374 7.20394 74.2653 7.94297 73.6835 8.46186C73.1017 8.98075 72.3837 9.28999 71.5241 9.38433L73.542 14.8196C73.5682 14.8982 73.5734 14.9716 73.563 15.0345C73.5472 15.1341 73.4896 15.2127 73.3952 15.2756C73.3009 15.3385 73.2066 15.3595 73.107 15.3385L72.2159 15.1865C72.0063 15.1498 71.8595 15.0659 71.7809 14.9402C71.7023 14.8091 71.6341 14.6833 71.5765 14.5628L69.6896 9.37909L66.4347 8.82351L65.6171 13.6246C65.5961 13.7504 65.5384 13.8447 65.4441 13.9128C65.3498 13.981 65.2345 14.002 65.0982 13.9757L64.1495 13.8133L64.1443 13.8028ZM66.702 7.23539L69.7735 7.75952C70.7012 7.91676 71.4297 7.84338 71.9591 7.5289C72.4885 7.21442 72.8135 6.67456 72.9445 5.90933C73.0755 5.15458 72.9445 4.5361 72.5618 4.06438C72.1792 3.59266 71.5136 3.27294 70.5701 3.11046L67.504 2.58632L66.7073 7.23539H66.702Z" fill="#F4F4F5"/>
<path d="M77.3065 16.6696C77.2174 16.6224 77.1598 16.549 77.1283 16.4442C77.0969 16.3446 77.1074 16.245 77.1545 16.1559C77.186 16.0983 77.2227 16.0406 77.2699 15.9829L87.1498 7.4186C87.2546 7.3295 87.3594 7.27709 87.4747 7.25088C87.59 7.22467 87.7211 7.25088 87.8783 7.33998L89.0105 7.94274C89.1677 8.0266 89.262 8.12094 89.3092 8.23101C89.3511 8.34108 89.3668 8.46163 89.3511 8.5979L87.7106 21.5597C87.6948 21.6384 87.6739 21.7065 87.6477 21.7589C87.6005 21.848 87.5271 21.9057 87.4223 21.9371C87.3227 21.9686 87.2231 21.9581 87.1393 21.9109L86.2902 21.4549C86.1591 21.3815 86.0753 21.2977 86.0543 21.1981C86.0334 21.0985 86.0176 21.0146 86.0281 20.9465L86.3741 18.0952L80.9126 15.181L78.7374 17.0574C78.6955 17.1046 78.6273 17.1465 78.5225 17.178C78.4229 17.2094 78.3024 17.1885 78.1714 17.1203L77.3223 16.6643L77.3065 16.6696ZM82.1495 14.0122L86.6414 16.4127L87.5481 9.30548L82.1443 14.0122H82.1495Z" fill="#F4F4F5"/>
<path d="M92.2743 26.5236C92.1852 26.4345 92.1381 26.3349 92.1328 26.2196C92.1328 26.1043 92.1747 25.9995 92.2586 25.9104L99.9581 17.9226L97.3479 15.4067C97.2588 15.3176 97.2116 15.218 97.2116 15.1027C97.2116 14.9874 97.2536 14.8826 97.3374 14.7935L97.8878 14.2222C97.9821 14.1226 98.087 14.0702 98.2075 14.0702C98.3281 14.0702 98.4276 14.1121 98.5167 14.196L105.068 20.5066C105.168 20.6009 105.22 20.711 105.22 20.8263C105.22 20.9416 105.173 21.0516 105.079 21.1512L104.529 21.7225C104.439 21.8116 104.34 21.8588 104.225 21.8641C104.109 21.8693 103.999 21.8221 103.9 21.7225L101.305 19.2224L93.6056 27.2102C93.5165 27.2993 93.4169 27.3465 93.3016 27.3517C93.1863 27.3517 93.0762 27.3046 92.9767 27.2102L92.2691 26.5288L92.2743 26.5236Z" fill="#F4F4F5"/>
<path d="M99.1871 34.4745C99.1189 34.3539 99.1032 34.2386 99.1347 34.1338C99.1661 34.029 99.2395 33.9451 99.3496 33.8822L110.089 27.8442C110.21 27.7761 110.325 27.7551 110.435 27.7813C110.545 27.8075 110.629 27.8809 110.697 28.0014L114.513 34.7942C114.581 34.9148 114.597 35.0301 114.565 35.1349C114.528 35.2397 114.455 35.3288 114.335 35.397L113.711 35.7481C113.59 35.8163 113.48 35.8372 113.375 35.8058C113.271 35.7796 113.187 35.701 113.119 35.5804L109.974 29.9879L106.373 32.0111L109.313 37.2419C109.382 37.3625 109.397 37.4778 109.366 37.5826C109.329 37.6874 109.256 37.7765 109.135 37.8447L108.527 38.1854C108.417 38.2483 108.307 38.264 108.202 38.2378C108.097 38.2116 108.003 38.1382 107.94 38.0176L105 32.7868L101.268 34.8833L104.486 40.6069C104.554 40.7274 104.575 40.8375 104.544 40.9423C104.518 41.0471 104.439 41.131 104.318 41.1991L103.679 41.5608C103.569 41.6237 103.459 41.6394 103.354 41.6132C103.249 41.587 103.16 41.5136 103.092 41.3931L99.1976 34.4693L99.1871 34.4745Z" fill="#F4F4F5"/>
<path d="M105.806 51.1893C105.581 50.0938 105.596 49.1242 105.848 48.2803C106.1 47.4417 106.556 46.7446 107.216 46.1943C107.871 45.6439 108.699 45.2403 109.685 44.9887C110.224 44.8682 110.801 44.7424 111.409 44.6166C112.017 44.4908 112.604 44.3808 113.16 44.2812C114.166 44.1292 115.078 44.1763 115.896 44.4279C116.708 44.6795 117.395 45.146 117.95 45.8274C118.506 46.5087 118.894 47.3945 119.114 48.4795C119.287 49.3443 119.318 50.12 119.203 50.8119C119.088 51.5037 118.883 52.096 118.59 52.5834C118.296 53.0709 117.971 53.4587 117.604 53.747C117.237 54.0353 116.902 54.2135 116.598 54.2869C116.488 54.3236 116.394 54.3078 116.31 54.2502C116.226 54.1925 116.173 54.0982 116.147 53.9776L115.927 52.8874C115.901 52.7617 115.906 52.6673 115.948 52.6044C115.985 52.5415 116.063 52.4681 116.173 52.3948C116.472 52.2165 116.75 51.9755 117.007 51.6557C117.264 51.3412 117.452 50.9481 117.568 50.4817C117.683 50.0152 117.678 49.4544 117.541 48.7992C117.342 47.8138 116.912 47.0748 116.262 46.5874C115.613 46.0947 114.669 45.9532 113.437 46.1523C112.331 46.3358 111.236 46.5611 110.146 46.8232C108.925 47.122 108.107 47.6304 107.693 48.3432C107.279 49.056 107.174 49.8999 107.368 50.8748C107.499 51.5299 107.74 52.0855 108.091 52.5468C108.442 53.008 108.898 53.3382 109.454 53.5321C110.015 53.7261 110.68 53.747 111.456 53.5845L112.232 53.4273L111.666 50.6546C111.64 50.5288 111.661 50.4188 111.723 50.3244C111.786 50.2301 111.886 50.1672 112.022 50.141L112.614 50.0204C112.751 49.9942 112.866 50.0099 112.96 50.0728C113.055 50.1357 113.118 50.2301 113.144 50.3559L113.993 54.5332C114.019 54.6695 114.003 54.7796 113.935 54.8739C113.867 54.9683 113.768 55.0207 113.637 55.0521L111.86 55.4138C110.848 55.6182 109.926 55.592 109.087 55.3299C108.248 55.0678 107.546 54.5856 106.975 53.8833C106.403 53.181 106.005 52.2847 105.785 51.1997L105.806 51.1893Z" fill="#F4F4F5"/>
<path d="M106.704 65.0367C106.72 64.9109 106.767 64.8113 106.861 64.738C106.956 64.6646 107.06 64.6384 107.186 64.6489L111.615 65.1258L119.755 61.4307C119.792 61.4202 119.834 61.415 119.87 61.4045C119.907 61.394 119.954 61.394 120.001 61.4045C120.101 61.415 120.185 61.4621 120.253 61.546C120.321 61.6298 120.347 61.7189 120.337 61.8185L120.232 62.7934C120.221 62.9035 120.18 63.0031 120.117 63.0869C120.054 63.1708 119.965 63.2232 119.86 63.2494L113.387 66.2527L119.068 70.5663C119.163 70.6397 119.231 70.7183 119.278 70.8074C119.325 70.8965 119.341 70.9961 119.33 71.1062L119.226 72.0653C119.215 72.1754 119.168 72.2698 119.084 72.3327C119 72.3956 118.911 72.427 118.812 72.4165C118.759 72.4165 118.717 72.4008 118.681 72.3851C118.644 72.3693 118.607 72.3431 118.576 72.3169L111.406 66.9865L106.977 66.5095C106.851 66.4938 106.751 66.4466 106.683 66.3523C106.61 66.2632 106.584 66.1479 106.594 66.0116L106.699 65.0367H106.704Z" fill="#F4F4F5"/>
<path d="M110.231 76.7721C110.278 76.6568 110.351 76.573 110.456 76.5363C110.561 76.4943 110.671 76.4996 110.786 76.5415L111.457 76.7983C111.572 76.8455 111.656 76.9189 111.709 77.0185C111.756 77.1181 111.761 77.2281 111.709 77.3434L109.654 82.6372C109.607 82.7525 109.534 82.8364 109.429 82.8835C109.324 82.9307 109.209 82.9307 109.093 82.8835L108.422 82.6267C108.307 82.5795 108.223 82.5062 108.176 82.4013C108.129 82.2965 108.129 82.1812 108.176 82.0659L110.231 76.7721Z" fill="#F4F4F5"/>
<path d="M94.0553 92.3652C94.7996 91.579 95.5648 91.0339 96.3615 90.7299C97.1582 90.4259 97.9811 90.3892 98.8302 90.6198C99.6793 90.8504 100.544 91.3484 101.43 92.1136C101.844 92.4857 102.232 92.8474 102.604 93.1933C102.976 93.5445 103.359 93.9114 103.752 94.3045C104.559 95.1326 105.094 95.9765 105.361 96.8203C105.628 97.6642 105.633 98.5028 105.382 99.3309C105.13 100.159 104.648 100.945 103.94 101.695C103.243 102.434 102.483 102.958 101.676 103.257C100.869 103.555 100.03 103.597 99.1656 103.388C98.3008 103.178 97.436 102.685 96.5659 101.92C96.1466 101.558 95.7535 101.202 95.3813 100.851C95.0092 100.5 94.6319 100.128 94.2493 99.7292C93.4264 98.9011 92.876 98.0625 92.6035 97.2291C92.3309 96.3905 92.3204 95.5676 92.5772 94.7552C92.8341 93.9428 93.332 93.1461 94.0658 92.3704L94.0553 92.3652ZM95.2189 93.4659C94.5637 94.163 94.2335 94.9282 94.2388 95.772C94.2388 96.6107 94.6948 97.4964 95.6015 98.4242C95.9946 98.833 96.3562 99.1894 96.6812 99.4934C97.0061 99.7974 97.3783 100.133 97.7976 100.494C98.4475 101.071 99.066 101.438 99.6635 101.595C100.261 101.752 100.817 101.737 101.335 101.553C101.854 101.37 102.331 101.05 102.761 100.594C103.191 100.138 103.484 99.6454 103.642 99.116C103.799 98.5866 103.778 98.0258 103.589 97.444C103.401 96.857 103.002 96.2542 102.394 95.6305C102.001 95.2427 101.64 94.8915 101.315 94.5875C100.99 94.2835 100.617 93.9376 100.198 93.5602C99.2233 92.7059 98.3112 92.3075 97.4674 92.3599C96.6235 92.4123 95.8741 92.7845 95.2189 93.4763V93.4659Z" fill="#F4F4F5"/>
<path d="M85.9787 99.6088C86.0993 99.5407 86.2146 99.5249 86.3194 99.5616C86.4243 99.5983 86.5081 99.6717 86.5658 99.7818L92.4413 110.616C92.5042 110.736 92.5251 110.851 92.4989 110.962C92.4727 111.072 92.3994 111.155 92.2736 111.224L88.0595 113.509C87.2419 113.954 86.4609 114.206 85.7114 114.269C84.9619 114.332 84.2805 114.19 83.6673 113.844C83.0488 113.498 82.5299 112.932 82.1054 112.146C81.6808 111.36 81.4921 110.616 81.5393 109.919C81.5917 109.216 81.8433 108.571 82.3045 107.979C82.7658 107.387 83.4 106.868 84.2229 106.428L87.158 104.834L84.9095 100.689C84.8518 100.578 84.8361 100.468 84.8676 100.358C84.899 100.248 84.9776 100.159 85.0982 100.091L85.9787 99.614V99.6088ZM87.9285 106.213L85.0615 107.77C84.2438 108.215 83.7302 108.729 83.5153 109.316C83.3056 109.903 83.3895 110.542 83.7669 111.239C84.139 111.926 84.6264 112.35 85.2292 112.508C85.8319 112.665 86.5553 112.518 87.3939 112.062L90.2609 110.506L87.9337 106.208L87.9285 106.213Z" fill="#F4F4F5"/>
<path d="M69.863 106.134C69.9836 106.108 70.0937 106.134 70.1932 106.192C70.2876 106.255 70.3505 106.349 70.3767 106.475L72.5309 117.361L76.0845 116.659C76.2103 116.633 76.3151 116.659 76.4147 116.716C76.509 116.779 76.5719 116.874 76.5929 116.999L76.7449 117.775C76.7711 117.911 76.7554 118.027 76.6872 118.121C76.6191 118.215 76.53 118.278 76.4042 118.299L67.4834 120.066C67.3472 120.092 67.2319 120.076 67.1375 120.008C67.0432 119.945 66.9803 119.846 66.9541 119.709L66.8021 118.934C66.7759 118.808 66.8021 118.698 66.865 118.603C66.9279 118.509 67.0275 118.446 67.1637 118.42L70.7016 117.723L68.5527 106.837C68.5265 106.711 68.5527 106.601 68.6103 106.506C68.6732 106.412 68.7728 106.349 68.9091 106.323L69.8735 106.134H69.863Z" fill="#F4F4F5"/>
<path d="M59.2163 107.109C59.3526 107.109 59.4574 107.156 59.5308 107.24C59.6041 107.324 59.6408 107.429 59.6356 107.554L59.232 119.887C59.232 120.013 59.1848 120.113 59.1062 120.196C59.0276 120.275 58.9228 120.312 58.7813 120.307L57.7801 120.275C57.6439 120.275 57.5391 120.228 57.4657 120.144C57.3923 120.06 57.3556 119.955 57.3608 119.83L57.7644 107.497C57.7644 107.371 57.8116 107.266 57.8902 107.187C57.9688 107.109 58.0789 107.072 58.2152 107.077L59.2163 107.109Z" fill="#F4F4F5"/>
<path d="M51.47 106.611C51.5906 106.648 51.6797 106.721 51.7321 106.821C51.7845 106.925 51.795 107.035 51.7531 107.156L48.0684 118.912C48.0265 119.043 47.9531 119.138 47.8535 119.19C47.7487 119.243 47.6386 119.253 47.5181 119.211L46.6166 118.928C46.4698 118.881 46.3755 118.813 46.3283 118.718C46.2811 118.624 46.2497 118.551 46.2392 118.493L44.7192 110.028L38.6026 116.098C38.5659 116.14 38.4977 116.182 38.4086 116.234C38.3195 116.286 38.2042 116.286 38.0574 116.244L37.1769 115.967C37.0459 115.925 36.9515 115.851 36.8991 115.752C36.8467 115.647 36.8415 115.532 36.8781 115.401L40.5628 103.644C40.5995 103.524 40.6729 103.44 40.7725 103.382C40.8721 103.325 40.9926 103.325 41.1236 103.367L42.0042 103.644C42.1247 103.681 42.2086 103.754 42.2662 103.854C42.3187 103.959 42.3291 104.069 42.2924 104.189L39.5145 113.047L44.3628 108.12C44.4466 108.016 44.5515 107.947 44.6668 107.911C44.7821 107.874 44.9131 107.879 45.0599 107.926L45.6155 108.099C45.7727 108.147 45.8828 108.22 45.9457 108.309C46.0086 108.398 46.0505 108.519 46.0715 108.655L47.256 115.474L50.0339 106.616C50.0706 106.496 50.144 106.412 50.2435 106.354C50.3431 106.296 50.4585 106.291 50.579 106.328L51.4595 106.606L51.47 106.611Z" fill="#F4F4F5"/>
<path d="M35.3459 99.9071C35.4612 99.9805 35.5294 100.075 35.5504 100.185C35.5713 100.295 35.5451 100.4 35.477 100.51L28.7628 110.861C28.6947 110.966 28.6056 111.034 28.5008 111.061C28.3907 111.087 28.2806 111.061 28.1653 110.987L27.3267 110.442C27.2114 110.369 27.1432 110.274 27.1223 110.164C27.1013 110.054 27.1275 109.944 27.1957 109.839L33.9098 99.4878C33.978 99.3829 34.0671 99.3148 34.1719 99.2886C34.282 99.2624 34.392 99.2886 34.5073 99.362L35.3459 99.9071Z" fill="#F4F4F5"/>
<path d="M29.6077 95.8976C29.702 95.9972 29.744 96.1073 29.7335 96.2226C29.723 96.3379 29.6706 96.4375 29.5815 96.5266L28.9945 97.0874C28.8582 97.2184 28.7219 97.2971 28.5909 97.318C28.4598 97.339 28.3602 97.36 28.2973 97.3652L16.5043 98.9219L21.1325 103.765C21.2216 103.854 21.2635 103.959 21.2582 104.074C21.2582 104.189 21.2111 104.289 21.1167 104.378L20.5716 104.897C20.472 104.991 20.362 105.039 20.2467 105.039C20.1314 105.039 20.0318 104.991 19.9427 104.897L14.0409 98.7175C13.9466 98.6179 13.8994 98.5078 13.8994 98.3925C13.8994 98.2772 13.9518 98.1724 14.0514 98.078L14.6384 97.5172C14.7485 97.4124 14.8586 97.3442 14.9634 97.3128C15.0735 97.2813 15.1783 97.2551 15.2884 97.2394L27.0709 95.6146L22.2751 90.5934C22.1807 90.4938 22.1336 90.3837 22.1336 90.2684C22.1336 90.1531 22.186 90.0483 22.2856 89.954L22.8306 89.4351C22.9197 89.346 23.0246 89.304 23.1399 89.3093C23.2552 89.3145 23.36 89.3617 23.4544 89.4613L29.6025 95.9029L29.6077 95.8976Z" fill="#F4F4F5"/>
<path d="M20.7658 85.9025C20.8077 85.9916 20.813 86.0912 20.7815 86.1908C20.7448 86.2904 20.682 86.3637 20.5929 86.4109C20.5352 86.4371 20.4723 86.4633 20.3989 86.4843L7.37419 87.6321C7.23791 87.6426 7.11736 87.6216 7.01253 87.5797C6.90771 87.5325 6.81338 87.433 6.73476 87.2757L6.17393 86.1226C6.09531 85.9654 6.07434 85.8291 6.10055 85.719C6.12675 85.609 6.18966 85.4989 6.27877 85.3993L15.2047 75.8549C15.2624 75.7972 15.3201 75.7553 15.3725 75.7291C15.4616 75.6871 15.5612 75.6819 15.6607 75.7133C15.7603 75.75 15.8337 75.8129 15.8809 75.902L16.3002 76.7668C16.3683 76.9031 16.3788 77.0184 16.3421 77.1128C16.3054 77.2071 16.2635 77.2805 16.2163 77.3329L14.2613 79.4399L16.9763 85.001L19.8381 84.7599C19.901 84.7442 19.9796 84.7546 20.0844 84.7861C20.184 84.8228 20.2679 84.9066 20.336 85.0429L20.7553 85.9077L20.7658 85.9025ZM15.2886 85.2159L13.0558 80.6349L8.1499 85.8606L15.2886 85.2106V85.2159Z" fill="#F4F4F5"/>
<path d="M14.4292 69.146C14.4502 69.2718 14.4292 69.3818 14.3611 69.4762C14.2982 69.5705 14.1986 69.6282 14.078 69.6491L3.15508 71.5832L3.78405 75.1525C3.80502 75.2783 3.78405 75.3832 3.71591 75.4775C3.64777 75.5719 3.55341 75.6295 3.43286 75.6505L2.6519 75.7867C2.51563 75.813 2.40033 75.7867 2.30599 75.7239C2.21165 75.6557 2.15398 75.5614 2.13302 75.4408L0.550122 66.4834C0.523916 66.3471 0.550152 66.2318 0.613048 66.1374C0.681185 66.0431 0.780747 65.9854 0.917022 65.9592L1.69798 65.823C1.82377 65.802 1.9286 65.823 2.02818 65.8911C2.12253 65.9592 2.1802 66.0588 2.2064 66.1951L2.83537 69.7435L13.7583 67.8094C13.8841 67.7885 13.9889 67.8094 14.0833 67.8776C14.1776 67.9457 14.2353 68.0453 14.2615 68.1816L14.4344 69.146H14.4292Z" fill="#F4F4F5"/>
<path d="M13.6645 58.4747C13.6593 58.611 13.6121 58.7158 13.523 58.7892C13.4391 58.8573 13.3291 58.894 13.2085 58.8835L0.886149 58.2336C0.760357 58.2284 0.660762 58.1864 0.582142 58.1026C0.503522 58.0239 0.466859 57.9139 0.477341 57.7776L0.529742 56.7765C0.534983 56.6402 0.582165 56.5354 0.671268 56.462C0.755129 56.3887 0.86519 56.3572 0.990982 56.3677L13.3134 57.0176C13.4392 57.0229 13.5388 57.0648 13.6174 57.1486C13.696 57.2273 13.7327 57.3373 13.7222 57.4736L13.6698 58.4747H13.6645Z" fill="#F4F4F5"/>
<path d="M15.9069 46.6448C15.5871 47.6773 15.1311 48.5055 14.5493 49.1292C13.9676 49.7529 13.2443 50.146 12.3847 50.3137C11.5199 50.4814 10.524 50.4133 9.39189 50.1146C8.86251 49.9626 8.34884 49.8106 7.8614 49.6586C7.37395 49.5066 6.87078 49.3441 6.34664 49.1659C5.25644 48.7728 4.40735 48.2539 3.79411 47.6144C3.18612 46.9697 2.80877 46.2202 2.67249 45.3711C2.53622 44.522 2.62007 43.5996 2.92931 42.6142C3.23331 41.6393 3.68407 40.8426 4.27634 40.2189C4.87385 39.5952 5.60761 39.1864 6.47768 38.9977C7.34774 38.809 8.33838 38.8666 9.45478 39.1706C9.9894 39.3122 10.503 39.4589 10.9905 39.6057C11.4779 39.7577 11.9811 39.9254 12.5 40.1141C13.6059 40.4967 14.4655 41.0051 15.0787 41.6393C15.692 42.2735 16.0641 43.0073 16.1899 43.8512C16.3157 44.695 16.2213 45.628 15.9016 46.6448H15.9069ZM14.3764 46.1678C14.6594 45.2558 14.6175 44.4225 14.2453 43.6677C13.8732 42.913 13.0765 42.3207 11.8553 41.8857C11.3207 41.6917 10.8437 41.5292 10.4139 41.3982C9.98414 41.2672 9.50717 41.1309 8.97256 40.9894C8.13394 40.7535 7.41588 40.7011 6.81313 40.8217C6.21038 40.9422 5.71247 41.199 5.32985 41.5974C4.94199 41.9905 4.65895 42.4884 4.47027 43.0859C4.28158 43.6887 4.23964 44.26 4.33399 44.7998C4.42833 45.3449 4.6904 45.8376 5.12019 46.2779C5.54998 46.7234 6.1737 47.0903 6.99135 47.3838C7.51548 47.562 7.99243 47.714 8.41698 47.8451C8.84153 47.9761 9.32898 48.1228 9.87408 48.2801C11.1268 48.6155 12.1226 48.5788 12.8564 48.1595C13.5902 47.7402 14.1038 47.0798 14.3869 46.1626L14.3764 46.1678Z" fill="#F4F4F5"/>
<path d="M19.9383 36.6025C19.8545 36.7125 19.7601 36.7754 19.65 36.7912C19.54 36.8016 19.4351 36.7702 19.3303 36.6968L9.38226 29.4271C9.2722 29.3432 9.20406 29.2489 9.18309 29.1388C9.16213 29.0287 9.19356 28.9187 9.27218 28.8086L9.78586 28.1063C9.87496 27.9857 9.96929 27.9123 10.0689 27.8914C10.1685 27.8704 10.2366 27.8652 10.2785 27.8809L21.7466 28.4994L14.1257 22.9331C14.0156 22.8492 13.9475 22.7549 13.9265 22.6448C13.9055 22.5347 13.937 22.4247 14.0156 22.3146L14.5502 21.586C14.6341 21.476 14.7284 21.4078 14.8437 21.3921C14.959 21.3764 15.0691 21.4078 15.1844 21.4865L25.1168 28.7457C25.2164 28.8191 25.2792 28.9187 25.3054 29.034C25.3264 29.1545 25.3054 29.2594 25.2268 29.3642L24.6922 30.098C24.6083 30.208 24.5192 30.2709 24.4144 30.2814C24.3148 30.2919 24.2467 30.3024 24.21 30.3076L12.8311 29.7311L20.3891 35.2502C20.4887 35.3236 20.5515 35.4179 20.5673 35.5332C20.583 35.6486 20.5515 35.7586 20.4729 35.8739L19.9383 36.6077V36.6025Z" fill="#F4F4F5"/>
<path d="M26.2539 20.4328C26.1543 20.5114 26.0494 20.5376 25.9394 20.5166C25.8293 20.4957 25.735 20.438 25.6616 20.3384L25.2265 19.7671C25.1479 19.6675 25.1165 19.5627 25.127 19.4526C25.1374 19.3426 25.1951 19.2482 25.2947 19.1696L29.8127 15.7313C29.9123 15.6527 30.0171 15.6264 30.1324 15.6422C30.2477 15.6579 30.3421 15.7156 30.4207 15.8151L30.8557 16.3864C30.9344 16.486 30.9606 16.5961 30.9449 16.7114C30.9291 16.8267 30.8715 16.9211 30.7719 16.9997L26.2539 20.438V20.4328Z" fill="#F4F4F5"/>
<path fill-rule="evenodd" clip-rule="evenodd" d="M60.6233 34.7708C60.5163 33.6932 60.4615 33.1531 60.245 32.73C59.9683 32.1963 59.5077 31.7808 58.9483 31.5603C58.5078 31.3835 57.9653 31.3835 56.8801 31.3835H53.7343C52.6491 31.3835 52.1066 31.3835 51.6685 31.5578C51.1074 31.779 50.6458 32.1964 50.3694 32.7325C50.1528 33.1531 50.0981 33.6932 49.9911 34.7733C49.787 36.8142 49.6849 37.8346 49.2569 38.3946C48.9904 38.7443 48.6361 39.0171 48.23 39.1854C47.8239 39.3537 47.3804 39.4115 46.9447 39.3528C46.2479 39.2582 45.4514 38.6086 43.8636 37.3094C43.0248 36.6225 42.6042 36.2791 42.1538 36.1347C41.58 35.9514 40.9593 35.9823 40.4066 36.2218C39.9711 36.4085 39.5853 36.7942 38.8212 37.5608L36.5962 39.7833C35.8296 40.5499 35.4464 40.9357 35.2572 41.3687C35.0177 41.9214 34.9868 42.5421 35.1701 43.1159C35.3145 43.5688 35.6579 43.987 36.3448 44.8282C37.6465 46.4185 38.2961 47.2125 38.3906 47.9118C38.4489 48.3471 38.391 48.7901 38.2227 49.1957C38.0544 49.6014 37.7817 49.9552 37.4325 50.2215C36.8725 50.6495 35.852 50.7516 33.8087 50.9557C32.7286 51.0627 32.1885 51.1174 31.7679 51.334C31.2323 51.6098 30.8149 52.0705 30.5932 52.6306C30.4189 53.0712 30.4189 53.6137 30.4189 54.6989V57.8447C30.4189 58.9299 30.4189 59.4724 30.5932 59.9104C30.8144 60.4715 31.2318 60.9332 31.7679 61.2096C32.1885 61.4261 32.7286 61.4809 33.8087 61.5879C35.8496 61.792 36.87 61.894 37.4325 62.3221C37.7813 62.5886 38.0534 62.9426 38.2213 63.3483C38.3891 63.7539 38.4467 64.1967 38.3882 64.6318C38.2961 65.3311 37.6465 66.125 36.3473 67.7154C35.6579 68.5541 35.3145 68.9747 35.1701 69.4252C34.9868 69.999 35.0177 70.6197 35.2572 71.1724C35.4464 71.6079 35.8296 71.9937 36.5962 72.7578L38.8212 74.9828C39.5878 75.7493 39.9711 76.1326 40.4066 76.3218C40.9593 76.5612 41.58 76.5922 42.1538 76.4089C42.6042 76.2645 43.0248 75.9211 43.8636 75.2341C45.4539 73.9325 46.2479 73.2829 46.9472 73.1883C47.3825 73.1301 47.8255 73.188 48.2311 73.3563C48.6368 73.5246 48.9907 73.7972 49.2569 74.1465C49.6849 74.7065 49.787 75.7294 49.9911 77.7727C50.0981 78.8504 50.1528 79.3905 50.3694 79.8136C50.6461 80.3473 51.1067 80.7628 51.666 80.9833C52.1066 81.16 52.6491 81.16 53.7343 81.16H56.8801C57.9653 81.16 58.5078 81.16 58.9459 80.9858C59.5065 80.7652 59.9681 80.3487 60.245 79.8136C60.4615 79.3905 60.5163 78.8504 60.6233 77.7727C60.8274 75.7269 60.9294 74.7065 61.3575 74.1465C61.6239 73.7968 61.9782 73.524 62.3844 73.3556C62.7905 73.1873 63.234 73.1296 63.6696 73.1883C64.3665 73.2829 65.1629 73.9325 66.7508 75.2317C67.5895 75.9186 68.0101 76.262 68.4606 76.4064C69.0344 76.5897 69.6551 76.5588 70.2078 76.3193C70.6433 76.1326 71.0291 75.7468 71.7932 74.9803L74.0182 72.7578C74.7847 71.9912 75.168 71.6079 75.3572 71.1724C75.5966 70.6197 75.6276 69.999 75.4443 69.4252C75.2999 68.9723 74.9565 68.5541 74.2695 67.7154C72.9704 66.125 72.3208 65.3311 72.2262 64.6342C72.167 64.1982 72.2245 63.7542 72.3929 63.3476C72.5612 62.941 72.8343 62.5863 73.1844 62.3196C73.7444 61.8965 74.7648 61.792 76.8081 61.5879C77.8858 61.4809 78.4259 61.4261 78.849 61.2096C79.3836 60.9333 79.8001 60.4727 80.0212 59.9129C80.1954 59.4724 80.1954 58.9299 80.1954 57.8447V54.6989C80.1954 53.6137 80.1954 53.0712 80.0212 52.6331C79.8 52.072 79.3825 51.6104 78.8465 51.334C78.4259 51.1174 77.8858 51.0627 76.8057 50.9557C74.7648 50.7516 73.7444 50.6495 73.1819 50.2215C72.8331 49.955 72.5609 49.6009 72.3931 49.1953C72.2253 48.7897 72.1677 48.3469 72.2262 47.9118C72.3183 47.2125 72.9679 46.4185 74.2671 44.8282C74.9565 43.9894 75.2999 43.5688 75.4443 43.1184C75.6276 42.5446 75.5966 41.9239 75.3572 41.3712C75.168 40.9357 74.7847 40.5499 74.0182 39.7858L71.7932 37.5608C71.0266 36.7942 70.6433 36.411 70.2078 36.2218C69.6551 35.9823 69.0344 35.9514 68.4606 36.1347C68.0101 36.2791 67.5895 36.6225 66.7508 37.3094C65.1604 38.6111 64.3665 39.2607 63.6696 39.3528C63.2342 39.4118 62.7909 39.3544 62.3848 39.1865C61.9787 39.0187 61.6242 38.7463 61.3575 38.3971C60.9294 37.8371 60.8274 36.8142 60.6233 34.7708Z" fill="url(#paint0_linear_493_853)"/>
<g filter="url(#filter0_f_493_853)">
<path fill-rule="evenodd" clip-rule="evenodd" d="M60.6233 34.7708C60.5163 33.6932 60.4615 33.1531 60.245 32.73C59.9683 32.1963 59.5077 31.7808 58.9483 31.5603C58.5078 31.3835 57.9653 31.3835 56.8801 31.3835H53.7343C52.6491 31.3835 52.1066 31.3835 51.6685 31.5578C51.1074 31.779 50.6458 32.1964 50.3694 32.7325C50.1528 33.1531 50.0981 33.6932 49.9911 34.7733C49.787 36.8142 49.6849 37.8346 49.2569 38.3946C48.9904 38.7443 48.6361 39.0171 48.23 39.1854C47.8239 39.3537 47.3804 39.4115 46.9447 39.3528C46.2479 39.2582 45.4514 38.6086 43.8636 37.3094C43.0248 36.6225 42.6042 36.2791 42.1538 36.1347C41.58 35.9514 40.9593 35.9823 40.4066 36.2218C39.9711 36.4085 39.5853 36.7942 38.8212 37.5608L36.5962 39.7833C35.8296 40.5499 35.4464 40.9357 35.2572 41.3687C35.0177 41.9214 34.9868 42.5421 35.1701 43.1159C35.3145 43.5688 35.6579 43.987 36.3448 44.8282C37.6465 46.4185 38.2961 47.2125 38.3906 47.9118C38.4489 48.3471 38.391 48.7901 38.2227 49.1957C38.0544 49.6014 37.7817 49.9552 37.4325 50.2215C36.8725 50.6495 35.852 50.7516 33.8087 50.9557C32.7286 51.0627 32.1885 51.1174 31.7679 51.334C31.2323 51.6098 30.8149 52.0705 30.5932 52.6306C30.4189 53.0712 30.4189 53.6137 30.4189 54.6989V57.8447C30.4189 58.9299 30.4189 59.4724 30.5932 59.9104C30.8144 60.4715 31.2318 60.9332 31.7679 61.2096C32.1885 61.4261 32.7286 61.4809 33.8087 61.5879C35.8496 61.792 36.87 61.894 37.4325 62.3221C37.7813 62.5886 38.0534 62.9426 38.2213 63.3483C38.3891 63.7539 38.4467 64.1967 38.3882 64.6318C38.2961 65.3311 37.6465 66.125 36.3473 67.7154C35.6579 68.5541 35.3145 68.9747 35.1701 69.4252C34.9868 69.999 35.0177 70.6197 35.2572 71.1724C35.4464 71.6079 35.8296 71.9937 36.5962 72.7578L38.8212 74.9828C39.5878 75.7493 39.9711 76.1326 40.4066 76.3218C40.9593 76.5612 41.58 76.5922 42.1538 76.4089C42.6042 76.2645 43.0248 75.9211 43.8636 75.2341C45.4539 73.9325 46.2479 73.2829 46.9472 73.1883C47.3825 73.1301 47.8255 73.188 48.2311 73.3563C48.6368 73.5246 48.9907 73.7972 49.2569 74.1465C49.6849 74.7065 49.787 75.7294 49.9911 77.7727C50.0981 78.8504 50.1528 79.3905 50.3694 79.8136C50.6461 80.3473 51.1067 80.7628 51.666 80.9833C52.1066 81.16 52.6491 81.16 53.7343 81.16H56.8801C57.9653 81.16 58.5078 81.16 58.9459 80.9858C59.5065 80.7652 59.9681 80.3487 60.245 79.8136C60.4615 79.3905 60.5163 78.8504 60.6233 77.7727C60.8274 75.7269 60.9294 74.7065 61.3575 74.1465C61.6239 73.7968 61.9782 73.524 62.3844 73.3556C62.7905 73.1873 63.234 73.1296 63.6696 73.1883C64.3665 73.2829 65.1629 73.9325 66.7508 75.2317C67.5895 75.9186 68.0101 76.262 68.4606 76.4064C69.0344 76.5897 69.6551 76.5588 70.2078 76.3193C70.6433 76.1326 71.0291 75.7468 71.7932 74.9803L74.0182 72.7578C74.7847 71.9912 75.168 71.6079 75.3572 71.1724C75.5966 70.6197 75.6276 69.999 75.4443 69.4252C75.2999 68.9723 74.9565 68.5541 74.2695 67.7154C72.9704 66.125 72.3208 65.3311 72.2262 64.6342C72.167 64.1982 72.2245 63.7542 72.3929 63.3476C72.5612 62.941 72.8343 62.5863 73.1844 62.3196C73.7444 61.8965 74.7648 61.792 76.8081 61.5879C77.8858 61.4809 78.4259 61.4261 78.849 61.2096C79.3836 60.9333 79.8001 60.4727 80.0212 59.9129C80.1954 59.4724 80.1954 58.9299 80.1954 57.8447V54.6989C80.1954 53.6137 80.1954 53.0712 80.0212 52.6331C79.8 52.072 79.3825 51.6104 78.8465 51.334C78.4259 51.1174 77.8858 51.0627 76.8057 50.9557C74.7648 50.7516 73.7444 50.6495 73.1819 50.2215C72.8331 49.955 72.5609 49.6009 72.3931 49.1953C72.2253 48.7897 72.1677 48.3469 72.2262 47.9118C72.3183 47.2125 72.9679 46.4185 74.2671 44.8282C74.9565 43.9894 75.2999 43.5688 75.4443 43.1184C75.6276 42.5446 75.5966 41.9239 75.3572 41.3712C75.168 40.9357 74.7847 40.5499 74.0182 39.7858L71.7932 37.5608C71.0266 36.7942 70.6433 36.411 70.2078 36.2218C69.6551 35.9823 69.0344 35.9514 68.4606 36.1347C68.0101 36.2791 67.5895 36.6225 66.7508 37.3094C65.1604 38.6111 64.3665 39.2607 63.6696 39.3528C63.2342 39.4118 62.7909 39.3544 62.3848 39.1865C61.9787 39.0187 61.6242 38.7463 61.3575 38.3971C60.9294 37.8371 60.8274 36.8142 60.6233 34.7708Z" fill="url(#paint1_linear_493_853)"/>
</g>
<g filter="url(#filter1_b_493_853)">
<path d="M55.3078 64.5679C59.8896 64.5679 63.6039 60.8536 63.6039 56.2718C63.6039 51.69 59.8896 47.9757 55.3078 47.9757C50.726 47.9757 47.0117 51.69 47.0117 56.2718C47.0117 60.8536 50.726 64.5679 55.3078 64.5679Z" fill="url(#paint2_linear_493_853)"/>
<path d="M55.3078 65.4285C60.3649 65.4285 64.4645 61.3289 64.4645 56.2718C64.4645 51.2147 60.3649 47.1151 55.3078 47.1151C50.2507 47.1151 46.1511 51.2147 46.1511 56.2718C46.1511 61.3289 50.2507 65.4285 55.3078 65.4285Z" stroke="url(#paint3_linear_493_853)" stroke-width="1.72116"/>
</g>
<g filter="url(#filter2_b_493_853)">
<path d="M85.9574 64.2781C87.3144 65.6351 87.3958 67.8334 88.0898 69.5045C88.807 71.2375 90.2765 72.8621 90.2765 74.7076C90.2765 76.5531 88.807 78.1776 88.0898 79.9107C87.3996 81.5817 87.3182 83.7762 85.9574 85.137C84.5965 86.4979 82.402 86.5755 80.731 87.2695C78.9979 87.9867 77.3734 89.4562 75.5279 89.4562C73.6824 89.4562 72.0579 87.9867 70.3248 87.2695C68.6537 86.5793 66.4593 86.4979 65.0984 85.137C63.7414 83.7801 63.66 81.5817 62.966 79.9107C62.272 78.2396 60.7793 76.5531 60.7793 74.7076C60.7793 72.8621 62.2487 71.2375 62.966 69.5045C63.6561 67.8334 63.7375 65.639 65.0984 64.2781C66.4554 62.9211 68.6537 62.8397 70.3248 62.1457C72.0579 61.4284 73.6824 59.959 75.5279 59.959C77.3734 59.959 78.9979 61.4284 80.731 62.1457C82.402 62.8358 84.5965 62.9172 85.9574 64.2781Z" fill="url(#paint4_linear_493_853)"/>
<path d="M88.8849 69.1754L88.8845 69.1744C88.6738 68.667 88.5362 68.1453 88.3816 67.559C88.2968 67.2374 88.2068 66.8964 88.0969 66.5276C87.8098 65.5648 87.4007 64.5044 86.5659 63.6696C85.7296 62.8333 84.6698 62.4231 83.7065 62.1357C83.3336 62.0244 82.9894 61.9339 82.6651 61.8485C82.0834 61.6955 81.5655 61.5592 81.0601 61.3505C80.524 61.1286 80.032 60.8464 79.4896 60.5353C79.2042 60.3715 78.9049 60.1998 78.5779 60.0247C77.698 59.5535 76.673 59.0984 75.5279 59.0984C74.3828 59.0984 73.3578 59.5535 72.4779 60.0247C72.1509 60.1998 71.8516 60.3715 71.5662 60.5353C71.0238 60.8464 70.5318 61.1286 69.9957 61.3505L69.9947 61.3509C69.4873 61.5616 68.9656 61.6992 68.3794 61.8539C68.0577 61.9387 67.7167 62.0286 67.3479 62.1386C66.3851 62.4257 65.3247 62.8348 64.4899 63.6696C63.6536 64.5059 63.2434 65.5656 62.956 66.529C62.8448 66.9019 62.7542 67.246 62.6688 67.5704C62.5158 68.1521 62.3795 68.67 62.1708 69.1754C61.9489 69.7115 61.6667 70.2035 61.3556 70.7458C61.1919 71.0312 61.0201 71.3306 60.845 71.6576C60.3739 72.5375 59.9187 73.5625 59.9187 74.7076C59.9187 75.853 60.3801 76.8939 60.8533 77.78C61.0359 78.1218 61.2139 78.4321 61.3823 78.7255C61.687 79.2564 61.96 79.7323 62.1712 80.2408C62.382 80.7481 62.5196 81.2699 62.6742 81.8561C62.759 82.1777 62.8489 82.5188 62.9589 82.8875C63.246 83.8504 63.6551 84.9108 64.4899 85.7456C65.3262 86.5819 66.386 86.9921 67.3493 87.2794C67.7222 87.3907 68.0664 87.4813 68.3907 87.5666C68.9724 87.7197 69.4903 87.856 69.9957 88.0646C70.5318 88.2865 71.0238 88.5688 71.5662 88.8799C71.8516 89.0436 72.1509 89.2153 72.4779 89.3904C73.3578 89.8616 74.3828 90.3167 75.5279 90.3167C76.673 90.3167 77.698 89.8616 78.5779 89.3904C78.9049 89.2153 79.2042 89.0436 79.4896 88.8799C80.032 88.5688 80.524 88.2865 81.0601 88.0646L81.0611 88.0642C81.5683 87.8536 82.0892 87.7165 82.6748 87.5623C82.9963 87.4777 83.3372 87.388 83.7061 87.2781C84.6691 86.9913 85.7293 86.5822 86.5659 85.7456C87.4022 84.9093 87.8124 83.8495 88.0998 82.8862C88.211 82.5133 88.3016 82.1691 88.3869 81.8448C88.54 81.2631 88.6763 80.7452 88.8849 80.2398C89.1068 79.7037 89.3891 79.2116 89.7002 78.6693C89.8639 78.3839 90.0356 78.0846 90.2108 77.7575C90.6819 76.8777 91.1371 75.8526 91.1371 74.7076C91.1371 73.5625 90.6819 72.5375 90.2108 71.6576C90.0356 71.3306 89.8639 71.0312 89.7002 70.7459C89.3891 70.2035 89.1068 69.7115 88.8849 69.1754Z" stroke="url(#paint5_linear_493_853)" stroke-width="1.72116"/>
</g>
<defs>
<filter id="filter0_f_493_853" x="13.2073" y="14.1719" width="84.1996" height="84.1997" filterUnits="userSpaceOnUse" color-interpolation-filters="sRGB">
<feFlood flood-opacity="0" result="BackgroundImageFix"/>
<feBlend mode="normal" in="SourceGraphic" in2="BackgroundImageFix" result="shape"/>
<feGaussianBlur stdDeviation="8.60581" result="effect1_foregroundBlur_493_853"/>
</filter>
<filter id="filter1_b_493_853" x="29.8006" y="30.7641" width="51.0151" height="51.0155" filterUnits="userSpaceOnUse" color-interpolation-filters="sRGB">
<feFlood flood-opacity="0" result="BackgroundImageFix"/>
<feGaussianBlur in="BackgroundImageFix" stdDeviation="7.74523"/>
<feComposite in2="SourceAlpha" operator="in" result="effect1_backgroundBlur_493_853"/>
<feBlend mode="normal" in="SourceGraphic" in2="effect1_backgroundBlur_493_853" result="shape"/>
</filter>
<filter id="filter2_b_493_853" x="43.5681" y="42.7473" width="63.9204" height="63.9205" filterUnits="userSpaceOnUse" color-interpolation-filters="sRGB">
<feFlood flood-opacity="0" result="BackgroundImageFix"/>
<feGaussianBlur in="BackgroundImageFix" stdDeviation="7.74523"/>
<feComposite in2="SourceAlpha" operator="in" result="effect1_backgroundBlur_493_853"/>
<feBlend mode="normal" in="SourceGraphic" in2="effect1_backgroundBlur_493_853" result="shape"/>
</filter>
<linearGradient id="paint0_linear_493_853" x1="36.6654" y1="78.4272" x2="85.6761" y2="50.0962" gradientUnits="userSpaceOnUse">
<stop stop-color="#3B3BF9"/>
<stop offset="0.51" stop-color="#10E0F9"/>
<stop offset="1" stop-color="#92FFFF"/>
</linearGradient>
<linearGradient id="paint1_linear_493_853" x1="36.6654" y1="78.4272" x2="85.6761" y2="50.0962" gradientUnits="userSpaceOnUse">
<stop stop-color="#3B3BF9"/>
<stop offset="0.51" stop-color="#10E0F9"/>
<stop offset="1" stop-color="#92FFFF"/>
</linearGradient>
<linearGradient id="paint2_linear_493_853" x1="47.9484" y1="63.6311" x2="62.6672" y2="48.9124" gradientUnits="userSpaceOnUse">
<stop stop-color="white" stop-opacity="0.2"/>
<stop offset="1" stop-color="white" stop-opacity="0.49"/>
</linearGradient>
<linearGradient id="paint3_linear_493_853" x1="48.1829" y1="49.2807" x2="62.0524" y2="64.1103" gradientUnits="userSpaceOnUse">
<stop stop-color="white"/>
<stop offset="1" stop-color="white" stop-opacity="0"/>
</linearGradient>
<linearGradient id="paint4_linear_493_853" x1="62.4446" y1="87.7909" x2="88.6112" y2="61.6243" gradientUnits="userSpaceOnUse">
<stop stop-color="white" stop-opacity="0.2"/>
<stop offset="1" stop-color="white" stop-opacity="0.49"/>
</linearGradient>
<linearGradient id="paint5_linear_493_853" x1="62.8615" y1="62.2789" x2="87.5183" y2="88.6428" gradientUnits="userSpaceOnUse">
<stop stop-color="white"/>
<stop offset="1" stop-color="white" stop-opacity="0"/>
</linearGradient>
</defs>
</svg>
