<svg width="120" height="121" viewBox="0 0 120 121" fill="none" xmlns="http://www.w3.org/2000/svg">
<path d="M34.5909 14.2852C34.4755 14.3377 34.3706 14.3482 34.2658 14.3062C34.1609 14.2643 34.0822 14.1908 34.0298 14.0755L33.7204 13.4306C33.668 13.3152 33.6522 13.2103 33.6889 13.1002C33.7204 12.9954 33.7938 12.9115 33.9092 12.859L39.0268 10.3894C39.1369 10.3369 39.2522 10.3265 39.3623 10.3632C39.4725 10.3999 39.5511 10.4785 39.6088 10.5886L39.9234 11.2336C39.9758 11.3489 39.9863 11.459 39.9496 11.5691C39.9129 11.6793 39.8342 11.7579 39.7241 11.8156L34.6065 14.2852H34.5909Z" fill="#F4F4F5"/>
<path d="M48.4917 14.8989C48.3553 14.9198 48.2452 14.8989 48.1561 14.8307C48.067 14.7625 48.0145 14.6682 47.9935 14.5423L46.0167 2.37761C45.9958 2.24128 46.0167 2.12593 46.0744 2.03154C46.1321 1.93716 46.2317 1.87948 46.3733 1.85851L51.1081 1.08773C52.0257 0.935672 52.8489 0.956645 53.5778 1.14541C54.3013 1.33417 54.8991 1.69072 55.3658 2.22031C55.8324 2.74989 56.1418 3.45775 56.2834 4.33864C56.4249 5.21954 56.362 5.98507 56.0841 6.63001C55.8062 7.27495 55.3552 7.79929 54.726 8.20828C54.0968 8.61726 53.3261 8.89516 52.4032 9.04198L49.1051 9.57681L49.8602 14.233C49.8812 14.3588 49.8602 14.4689 49.7868 14.558C49.7186 14.6524 49.619 14.7101 49.4826 14.7311L48.4969 14.8936L48.4917 14.8989ZM48.8272 8.01952L52.0519 7.49517C52.9695 7.34836 53.6249 7.02851 54.0182 6.54612C54.4114 6.06372 54.5425 5.42927 54.4167 4.648C54.2908 3.87722 53.971 3.31618 53.4572 2.97011C52.9433 2.61881 52.2092 2.52442 51.2654 2.67648L48.0407 3.20082L48.8219 8.02476L48.8272 8.01952Z" fill="#F4F4F5"/>
<path d="M63.2896 13.5933C63.1533 13.5723 63.0536 13.5147 62.9907 13.4203C62.9278 13.3259 62.9068 13.221 62.9278 13.0952L64.8626 0.919998C64.8836 0.783669 64.9413 0.678801 65.0252 0.610637C65.1143 0.542472 65.2244 0.516255 65.3607 0.542472L69.9068 1.26606C71.312 1.48629 72.3712 1.9949 73.0895 2.78141C73.8026 3.56792 74.0596 4.61136 73.8551 5.90648C73.703 6.86602 73.3412 7.60534 72.7644 8.12968C72.1876 8.65927 71.4746 8.97387 70.6146 9.07874L72.6963 14.4952C72.7225 14.5738 72.7277 14.6472 72.7173 14.7102C72.7015 14.8098 72.6491 14.8884 72.5547 14.9514C72.4603 15.0143 72.366 15.0352 72.2663 15.0195L71.3697 14.8779C71.1599 14.8465 71.0131 14.7626 70.9292 14.6368C70.8453 14.5109 70.7772 14.3851 70.7195 14.2592L68.7689 9.09447L65.5076 8.57537L64.742 13.3836C64.7211 13.5094 64.6634 13.6038 64.5742 13.672C64.4798 13.7401 64.3645 13.7611 64.2281 13.7401L63.2791 13.5881L63.2896 13.5933ZM65.7697 6.99186L68.8476 7.4795C69.7809 7.62632 70.5045 7.54242 71.0289 7.22257C71.548 6.90273 71.8731 6.35741 71.9937 5.58663C72.1143 4.82634 71.9779 4.21286 71.5899 3.74619C71.1967 3.27429 70.5308 2.96493 69.587 2.81811L66.5091 2.33047L65.7697 6.99186Z" fill="#F4F4F5"/>
<path d="M81.6771 19.2142C80.7176 18.7109 79.9888 18.1131 79.4854 17.4262C78.982 16.7393 78.7251 15.9581 78.7198 15.0772C78.7146 14.1963 78.961 13.2315 79.4644 12.1723C79.7108 11.6794 79.9573 11.2023 80.1932 10.7514C80.4344 10.3004 80.6861 9.83376 80.9588 9.35137C81.546 8.34988 82.212 7.61056 82.9565 7.12817C83.7011 6.64577 84.5086 6.42031 85.3685 6.44128C86.2336 6.46225 87.1198 6.71394 88.0321 7.20157C88.934 7.67872 89.6366 8.26599 90.14 8.9686C90.6433 9.67122 90.9108 10.463 90.937 11.3544C90.9632 12.2457 90.722 13.2105 90.2134 14.2487C89.9774 14.7521 89.7415 15.224 89.5003 15.6749C89.2643 16.1259 89.0022 16.5873 88.719 17.0697C88.137 18.0869 87.4816 18.8367 86.7475 19.3243C86.0134 19.812 85.2164 20.0374 84.367 20.006C83.5175 19.9745 82.6157 19.7071 81.6718 19.209L81.6771 19.2142ZM82.4269 17.7985C83.2711 18.2442 84.0996 18.3543 84.9123 18.1288C85.7198 17.9034 86.4538 17.227 87.104 16.1049C87.3924 15.6172 87.6389 15.1768 87.8486 14.7783C88.0583 14.385 88.2786 13.9341 88.5145 13.436C88.8973 12.6547 89.086 11.9573 89.0755 11.3439C89.0651 10.7304 88.9078 10.1903 88.5879 9.73938C88.2733 9.28845 87.8381 8.91617 87.2771 8.62254C86.7213 8.32891 86.1655 8.17685 85.6149 8.1716C85.0643 8.16636 84.5296 8.32891 84.0157 8.66973C83.5018 9.01055 83.0246 9.55586 82.5842 10.3057C82.3168 10.7881 82.0756 11.2285 81.8659 11.6218C81.6561 12.015 81.4254 12.466 81.1738 12.9746C80.6127 14.1438 80.4659 15.1296 80.7438 15.9266C81.0164 16.7288 81.5775 17.3476 82.4217 17.7985H82.4269Z" fill="#F4F4F5"/>
<path d="M93.323 27.9548C92.8773 27.4881 92.5207 26.9952 92.2428 26.4657C91.9649 25.9361 91.7919 25.4012 91.7185 24.8507C91.645 24.3001 91.7027 23.7601 91.8862 23.22C92.0697 22.6799 92.3948 22.1713 92.872 21.6837C92.9559 21.605 93.0503 21.5631 93.1604 21.5631C93.2705 21.5631 93.3701 21.605 93.4592 21.6994L94.1619 22.4387C94.2563 22.5383 94.3035 22.6485 94.3035 22.7638C94.3035 22.8792 94.2615 22.9893 94.1881 23.0941C93.8158 23.5189 93.5956 23.9541 93.5379 24.3945C93.4802 24.835 93.5379 25.2649 93.7162 25.6844C93.8945 26.1039 94.1566 26.5024 94.5132 26.8799C95.1738 27.572 95.9027 27.8814 96.7049 27.8132C97.5072 27.7451 98.2884 27.3466 99.0435 26.6282L103.894 22.0035L99.269 17.1534C99.1798 17.0642 99.1379 16.9594 99.1431 16.844C99.1431 16.7287 99.1903 16.629 99.2847 16.5399L99.8457 16.0051C99.9349 15.9159 100.04 15.874 100.155 15.8792C100.27 15.8792 100.37 15.9264 100.459 16.0208L106.075 21.9091C106.169 22.0088 106.216 22.1189 106.216 22.2342C106.216 22.3496 106.164 22.4545 106.064 22.5488L100.328 28.0177C99.5888 28.7203 98.8128 29.1922 98 29.4282C97.1873 29.6641 96.3798 29.6694 95.5881 29.4282C94.7963 29.1922 94.0465 28.6994 93.3334 27.9548H93.323Z" fill="#F4F4F5"/>
<path d="M100.374 36.6853C100.311 36.5595 100.306 36.4494 100.342 36.3445C100.384 36.2396 100.458 36.161 100.573 36.1085L111.663 30.7236C111.789 30.6606 111.904 30.6501 112.009 30.6816C112.114 30.7131 112.198 30.7917 112.261 30.9176L115.664 37.9332C115.726 38.0591 115.732 38.1744 115.695 38.2741C115.653 38.3789 115.569 38.4576 115.449 38.5205L114.804 38.8351C114.678 38.898 114.568 38.9085 114.463 38.8718C114.363 38.8351 114.279 38.7565 114.222 38.6306L111.416 32.8576L107.699 34.6614L110.32 40.0621C110.383 40.1879 110.389 40.3033 110.352 40.4029C110.31 40.5078 110.226 40.5864 110.105 40.6493L109.476 40.9534C109.361 41.0111 109.251 41.0216 109.146 40.9901C109.041 40.9587 108.957 40.88 108.894 40.7542L106.273 35.3535L102.419 37.2254L105.287 43.1347C105.35 43.2605 105.36 43.3707 105.323 43.4755C105.287 43.5804 105.208 43.659 105.082 43.7167L104.422 44.0366C104.306 44.0942 104.196 44.1047 104.091 44.0733C103.986 44.0418 103.903 43.9632 103.84 43.8373L100.368 36.6906L100.374 36.6853Z" fill="#F4F4F5"/>
<path d="M106.022 54.0253C105.865 52.877 105.943 51.8965 106.263 51.0837C106.583 50.271 107.097 49.6208 107.805 49.128C108.512 48.6351 109.367 48.3047 110.374 48.1265C110.882 48.0426 111.433 47.9639 112.015 47.88C112.602 47.8014 113.163 47.728 113.698 47.665C114.715 47.5654 115.628 47.6546 116.44 47.9325C117.253 48.2156 117.924 48.7032 118.454 49.4006C118.984 50.098 119.324 51.0156 119.482 52.1639C119.602 53.0238 119.586 53.7946 119.44 54.4762C119.293 55.1579 119.046 55.7399 118.711 56.2223C118.37 56.7099 117.972 57.0979 117.51 57.3863C117.049 57.68 116.556 57.874 116.037 57.9683C115.927 57.9946 115.827 57.9736 115.743 57.9054C115.659 57.8373 115.607 57.7429 115.591 57.6328L115.449 56.6051C115.434 56.4949 115.449 56.3901 115.502 56.3009C115.554 56.2118 115.654 56.1384 115.811 56.0755C116.755 55.7294 117.369 55.2418 117.646 54.6126C117.93 53.9834 118.008 53.2388 117.893 52.3789C117.751 51.3669 117.358 50.6118 116.713 50.1032C116.063 49.5946 115.114 49.4111 113.861 49.5422C112.833 49.6471 111.784 49.7886 110.72 49.9774C109.477 50.1871 108.612 50.6223 108.13 51.2882C107.647 51.9542 107.469 52.7879 107.611 53.7998C107.731 54.6598 108.009 55.3571 108.45 55.8867C108.89 56.4163 109.614 56.7204 110.615 56.7991C110.783 56.8148 110.903 56.8567 110.977 56.9301C111.05 57.0036 111.092 57.0927 111.108 57.208L111.249 58.2358C111.265 58.3459 111.244 58.4507 111.187 58.5399C111.129 58.629 111.045 58.6762 110.93 58.6814C110.405 58.7286 109.876 58.6762 109.346 58.5189C108.817 58.3616 108.324 58.0994 107.862 57.7219C107.406 57.3444 107.013 56.8515 106.688 56.238C106.363 55.6245 106.137 54.8852 106.022 54.0253Z" fill="#F4F4F5"/>
<path d="M106.027 67.8623C106.048 67.7365 106.106 67.6421 106.2 67.5792C106.294 67.511 106.405 67.49 106.525 67.511L117.463 69.4091L118.082 65.8383C118.103 65.7125 118.16 65.6181 118.255 65.5552C118.349 65.487 118.459 65.4661 118.585 65.487L119.366 65.6234C119.503 65.6496 119.602 65.7073 119.67 65.8016C119.739 65.896 119.759 66.0061 119.738 66.1267L118.181 75.093C118.16 75.2293 118.097 75.3289 118.003 75.3971C117.909 75.4652 117.793 75.4862 117.657 75.46L116.876 75.3237C116.75 75.3027 116.655 75.245 116.592 75.1506C116.53 75.0562 116.503 74.9409 116.53 74.8046L117.148 71.2495L106.211 69.3514C106.085 69.3304 105.99 69.2728 105.927 69.1784C105.859 69.084 105.838 68.9687 105.864 68.8323L106.032 67.8675L106.027 67.8623Z" fill="#F4F4F5"/>
<path d="M108.905 79.5081C108.958 79.3927 109.036 79.3193 109.141 79.2826C109.246 79.2459 109.356 79.2564 109.472 79.3088L110.122 79.6077C110.237 79.6601 110.316 79.7388 110.358 79.8384C110.4 79.9433 110.394 80.0481 110.342 80.1635L107.983 85.3335C107.93 85.4488 107.851 85.5275 107.741 85.5642C107.631 85.6061 107.521 85.6009 107.406 85.5485L106.756 85.2496C106.64 85.1972 106.562 85.1185 106.525 85.0084C106.488 84.8983 106.488 84.7882 106.541 84.6728L108.9 79.5028L108.905 79.5081Z" fill="#F4F4F5"/>
<path d="M92.7199 93.9959C92.8195 93.9172 92.9244 93.8858 93.0397 93.9015C93.1551 93.9172 93.2494 93.9749 93.3281 94.0745L100.852 103.838C100.936 103.948 100.973 104.058 100.957 104.173C100.942 104.289 100.884 104.383 100.784 104.462L100.034 105.039C99.9138 105.133 99.8037 105.17 99.6936 105.154C99.5835 105.138 99.5101 105.122 99.4576 105.096L91.6502 101.489L93.1236 109.983C93.1341 110.035 93.1341 110.114 93.1236 110.219C93.1131 110.319 93.0502 110.418 92.9296 110.513L92.1955 111.079C92.0854 111.163 91.9753 111.2 91.8599 111.184C91.7446 111.168 91.6449 111.105 91.561 110.995L84.0368 101.232C83.9581 101.132 83.9267 101.027 83.9424 100.912C83.9581 100.797 84.0211 100.697 84.1312 100.613L84.8653 100.047C84.9649 99.9681 85.0697 99.9367 85.1851 99.9524C85.3005 99.9681 85.3948 100.026 85.4734 100.125L91.1416 107.482L89.8832 100.681C89.8465 100.55 89.8465 100.43 89.8832 100.309C89.9199 100.194 89.9985 100.089 90.1191 99.9944L90.5805 99.6378C90.7116 99.5382 90.8322 99.4857 90.9423 99.491C91.0525 99.491 91.173 99.5224 91.2989 99.5854L97.57 102.522L91.9019 95.1652C91.8232 95.0656 91.7918 94.9607 91.8075 94.8453C91.8233 94.73 91.8809 94.6356 91.9805 94.5569L92.7146 93.9907L92.7199 93.9959Z" fill="#F4F4F5"/>
<path d="M79.2442 103.198C79.3386 103.166 79.433 103.177 79.5274 103.229C79.6217 103.277 79.6847 103.35 79.7161 103.45C79.7371 103.507 79.7476 103.575 79.758 103.654L78.9401 116.71C78.9296 116.846 78.8929 116.962 78.83 117.061C78.7671 117.161 78.6517 117.234 78.4839 117.287L77.257 117.67C77.0892 117.722 76.9528 117.727 76.8427 117.68C76.7379 117.633 76.6382 117.56 76.5543 117.455L68.4533 107.193C68.4061 107.13 68.3746 107.068 68.3536 107.005C68.3222 106.91 68.3327 106.816 68.3851 106.721C68.4375 106.627 68.5057 106.564 68.6054 106.533L69.523 106.244C69.6645 106.197 69.7851 106.202 69.8742 106.255C69.9634 106.307 70.0263 106.36 70.0735 106.412L71.8667 108.662L77.7761 106.811L77.9648 103.942C77.9596 103.88 77.9806 103.801 78.0278 103.706C78.0749 103.612 78.1745 103.544 78.3161 103.497L79.2337 103.208L79.2442 103.198ZM77.7446 108.515L72.8787 110.041L77.3147 115.672L77.7446 108.515Z" fill="#F4F4F5"/>
<path d="M63.0512 107.099C63.1875 107.099 63.2924 107.146 63.3658 107.23C63.4393 107.314 63.4759 107.419 63.4707 107.545L63.1089 119.867C63.1089 120.003 63.0617 120.113 62.9883 120.192C62.9096 120.271 62.7995 120.307 62.6632 120.307L61.7928 120.281C61.6408 120.281 61.5306 120.239 61.4572 120.166C61.3838 120.092 61.3419 120.04 61.3314 120.003L55.3487 110.198L55.0707 119.631C55.0707 119.767 55.0236 119.877 54.9501 119.956C54.8767 120.035 54.7666 120.071 54.6251 120.071L53.718 120.045C53.5816 120.045 53.4715 119.998 53.3929 119.914C53.3142 119.83 53.2775 119.72 53.2827 119.578L53.6445 107.277C53.6445 107.152 53.6917 107.047 53.7756 106.963C53.8595 106.879 53.9644 106.837 54.0902 106.842L54.9973 106.868C55.1337 106.868 55.2386 106.91 55.3067 106.989C55.3749 107.068 55.422 107.12 55.443 107.141L61.41 116.852L61.6827 107.492C61.6827 107.367 61.7299 107.262 61.8138 107.183C61.8976 107.104 62.0078 107.068 62.1493 107.073L63.0564 107.099H63.0512Z" fill="#F4F4F5"/>
<path d="M48.5699 105.93C48.6643 105.966 48.7325 106.034 48.7744 106.129C48.8164 106.223 48.8216 106.323 48.7849 106.417C48.764 106.475 48.7325 106.538 48.6958 106.606L39.976 116.353C39.8869 116.453 39.782 116.521 39.6719 116.563C39.5618 116.6 39.4254 116.589 39.2629 116.527L38.0622 116.07C37.8997 116.007 37.7895 115.924 37.7319 115.824C37.6794 115.724 37.6479 115.604 37.6427 115.467L37.627 102.396C37.627 102.317 37.6427 102.249 37.6637 102.186C37.7004 102.091 37.7686 102.023 37.8629 101.981C37.9573 101.939 38.0569 101.934 38.1513 101.971L39.0532 102.312C39.1948 102.364 39.2839 102.437 39.3206 102.537C39.3573 102.632 39.3783 102.715 39.3783 102.784L39.394 105.657L45.1827 107.859L47.1071 105.725C47.1438 105.673 47.2067 105.62 47.3063 105.578C47.406 105.536 47.5213 105.542 47.6628 105.594L48.5594 105.935L48.5699 105.93ZM44.1025 109.175L39.3416 107.361V114.529L44.1025 109.175Z" fill="#F4F4F5"/>
<path d="M30.3691 96.1612C31.2343 96.8743 31.832 97.6398 32.1624 98.4525C32.4927 99.2653 32.5766 100.094 32.4141 100.938C32.2515 101.782 31.8635 102.611 31.25 103.429C30.9092 103.864 30.5369 104.32 30.1436 104.802C29.7451 105.285 29.3624 105.736 28.9953 106.166C28.3085 106.921 27.5691 107.455 26.7774 107.77C25.9856 108.085 25.1572 108.153 24.2973 107.975C23.4373 107.791 22.5774 107.351 21.7227 106.643C21.0411 106.082 20.5325 105.494 20.1864 104.886C19.8403 104.273 19.6306 103.685 19.5467 103.124C19.4681 102.558 19.4786 102.05 19.5834 101.599C19.6883 101.148 19.8351 100.796 20.0239 100.545C20.0868 100.45 20.1707 100.398 20.2703 100.393C20.3752 100.387 20.4696 100.424 20.5692 100.503L21.4291 101.211C21.5235 101.289 21.5812 101.368 21.5917 101.441C21.6021 101.515 21.5917 101.62 21.5445 101.745C21.4239 102.07 21.3609 102.438 21.3609 102.841C21.3609 103.25 21.4606 103.67 21.6651 104.105C21.8696 104.54 22.2261 104.97 22.7399 105.395C23.516 106.035 24.313 106.344 25.1257 106.312C25.9384 106.281 26.7616 105.804 27.5953 104.876C28.3399 104.037 29.053 103.172 29.7347 102.285C30.5002 101.284 30.8148 100.377 30.689 99.5589C30.5631 98.7409 30.1175 98.0226 29.3467 97.3881C28.8328 96.9634 28.2927 96.6803 27.7317 96.5439C27.1706 96.4076 26.6096 96.4391 26.0485 96.6383C25.4927 96.8376 24.9579 97.2465 24.4545 97.8548L23.9512 98.4683L26.1377 100.272C26.2321 100.351 26.2897 100.45 26.3002 100.566C26.3107 100.681 26.274 100.791 26.1849 100.896L25.8021 101.363C25.713 101.467 25.6133 101.53 25.498 101.541C25.3826 101.551 25.2777 101.52 25.1781 101.436L21.8905 98.72C21.7856 98.6308 21.728 98.5312 21.7227 98.4211C21.7175 98.311 21.7594 98.2009 21.8433 98.096L22.9968 96.696C23.6523 95.899 24.3916 95.3432 25.2044 95.0181C26.0171 94.693 26.8718 94.6248 27.7579 94.8136C28.6493 95.0024 29.5197 95.4481 30.3744 96.1507L30.3691 96.1612Z" fill="#F4F4F5"/>
<path d="M22.414 88.275C22.4874 88.3904 22.5084 88.5057 22.4822 88.6106C22.4559 88.7155 22.3878 88.8046 22.2777 88.8728L11.8538 95.4533C11.7384 95.5267 11.6231 95.5529 11.513 95.5319C11.4029 95.5109 11.3137 95.4428 11.2403 95.3274L7.07703 88.7365C7.00362 88.6211 6.98264 88.5057 7.00886 88.4009C7.04032 88.2908 7.10851 88.2016 7.22911 88.1282L7.83736 87.7454C7.95271 87.672 8.06283 87.6458 8.1677 87.672C8.27256 87.693 8.36171 87.7664 8.43512 87.8818L11.859 93.3087L15.3564 91.1012L12.1527 86.0256C12.0793 85.9103 12.0583 85.7949 12.0845 85.69C12.116 85.5799 12.1842 85.4908 12.3048 85.4174L12.8973 85.0451C13.0021 84.9769 13.1122 84.956 13.2223 84.9769C13.3325 84.9979 13.4215 85.0661 13.495 85.1814L16.6987 90.257L20.3219 87.9709L16.8141 82.4181C16.7407 82.3028 16.7144 82.1927 16.7407 82.0878C16.7669 81.9829 16.835 81.8938 16.9504 81.8204L17.5743 81.4271C17.6792 81.359 17.7893 81.338 17.8994 81.359C18.0095 81.38 18.0987 81.4481 18.1721 81.5635L22.414 88.2855V88.275Z" fill="#F4F4F5"/>
<path d="M15.6195 75.8798C15.6457 76.0004 15.63 76.1105 15.5671 76.2102C15.5042 76.3098 15.415 76.3727 15.2892 76.3989L3.26081 79.0993C3.12448 79.1307 3.00911 79.115 2.90948 79.0521C2.80986 78.9892 2.74694 78.9 2.72073 78.7742L2.51623 77.8514C2.48477 77.7045 2.49522 77.5839 2.5529 77.4948C2.61058 77.4057 2.66303 77.3427 2.70498 77.306L9.27499 71.748L0.9537 69.4986C0.901266 69.4829 0.827841 69.4514 0.738703 69.4042C0.649565 69.3518 0.586657 69.2522 0.555196 69.1053L0.350696 68.2035C0.319235 68.0672 0.334948 67.9518 0.397869 67.8522C0.460789 67.7525 0.560445 67.6896 0.69153 67.6582L12.7199 64.9578C12.8405 64.9316 12.9558 64.9473 13.0502 65.0102C13.1498 65.0732 13.2128 65.1728 13.2442 65.3039L13.4487 66.2057C13.4749 66.3263 13.4592 66.4365 13.3963 66.5361C13.3334 66.6357 13.2442 66.6986 13.1184 66.7248L4.05776 68.7593L10.7536 70.4844C10.8847 70.5053 11 70.5578 11.0892 70.6417C11.1783 70.7256 11.2412 70.8409 11.2727 70.9877L11.4038 71.5593C11.4405 71.7166 11.4353 71.8477 11.3828 71.9525C11.3357 72.0521 11.257 72.1465 11.1469 72.2357L5.84053 76.6768L14.9012 74.6424C15.0217 74.6162 15.1319 74.6319 15.2315 74.6948C15.3311 74.7577 15.394 74.8469 15.4202 74.9727L15.6247 75.8746L15.6195 75.8798Z" fill="#F4F4F5"/>
<path d="M13.1921 58.4243C13.1764 58.5606 13.1239 58.6655 13.0348 58.7284C12.9457 58.7913 12.8356 58.8175 12.7097 58.8071L0.466369 57.3651C0.330041 57.3494 0.225185 57.2969 0.151778 57.2131C0.0783698 57.1292 0.0521349 57.019 0.0678651 56.8775L0.980213 49.133C0.995943 48.9966 1.0484 48.8918 1.13754 48.8288C1.22668 48.7659 1.34205 48.7397 1.47838 48.7554L2.19147 48.8393C2.3278 48.8551 2.43264 48.9075 2.49557 48.9914C2.56373 49.0753 2.58471 49.1854 2.56898 49.3217L1.81921 55.6977L5.92477 56.1801L6.62737 50.2183C6.6431 50.082 6.69556 49.9771 6.7847 49.9142C6.87384 49.8513 6.98921 49.8251 7.12554 49.8408L7.81764 49.9247C7.94348 49.9404 8.04313 49.9876 8.1113 50.0715C8.18471 50.1554 8.21088 50.2655 8.19515 50.4019L7.49255 56.3636L11.7502 56.867L12.5157 50.3442C12.5314 50.2079 12.5839 50.103 12.6678 50.0401C12.7517 49.9772 12.8618 49.9509 12.9981 49.9667L13.727 50.0558C13.8528 50.0715 13.9524 50.1187 14.0206 50.2026C14.094 50.2865 14.1202 50.3966 14.1045 50.5382L13.1764 58.4295L13.1921 58.4243Z" fill="#F4F4F5"/>
<path d="M15.8198 44.4979C15.7621 44.6238 15.6783 44.7024 15.5734 44.7339C15.4685 44.7653 15.3584 44.7549 15.2431 44.7024L4.09556 39.4433C3.96972 39.3856 3.88584 39.3017 3.84389 39.2021C3.80194 39.0972 3.81239 38.9871 3.87007 38.8613L4.24239 38.0748C4.30531 37.9384 4.38919 37.8493 4.48357 37.8126C4.57795 37.7759 4.64612 37.7549 4.68282 37.7602L16.061 36.1976L7.52477 32.1707C7.39893 32.113 7.31498 32.0291 7.27303 31.9295C7.23109 31.8246 7.2416 31.7145 7.29928 31.5887L7.68728 30.7707C7.74496 30.6448 7.82884 30.5662 7.93896 30.5243C8.04907 30.4875 8.16445 30.4928 8.29029 30.5557L19.422 35.8044C19.5374 35.8568 19.616 35.9407 19.658 36.0508C19.6999 36.1609 19.7 36.2763 19.6423 36.3864L19.2543 37.2044C19.1966 37.3302 19.1179 37.4088 19.0183 37.4403C18.9187 37.4718 18.8557 37.4927 18.819 37.5032L7.52995 39.0867L15.9981 43.0822C16.1134 43.1346 16.1869 43.2185 16.2288 43.3234C16.2655 43.4335 16.2602 43.5489 16.1973 43.6747L15.8093 44.4927L15.8198 44.4979Z" fill="#F4F4F5"/>
<path d="M25.6824 28.6523C25.5933 28.7415 25.4936 28.7939 25.3782 28.7939C25.2629 28.7939 25.158 28.7572 25.0689 28.6681L16.9993 21.0494L14.5087 23.6868C14.4195 23.776 14.3199 23.8231 14.2046 23.8284C14.0892 23.8284 13.9843 23.7917 13.8952 23.7026L13.3184 23.1572C13.2188 23.0629 13.1664 22.958 13.1611 22.8426C13.1611 22.7273 13.1978 22.6224 13.287 22.5333L19.5318 15.9161C19.6262 15.8165 19.7311 15.764 19.8465 15.7588C19.9618 15.7588 20.0719 15.8007 20.1716 15.8951L20.7483 16.4404C20.8375 16.5296 20.8847 16.6292 20.8899 16.7446C20.8952 16.8599 20.848 16.97 20.7536 17.0696L18.2786 19.6913L26.3483 27.31C26.4374 27.3992 26.4846 27.4988 26.4898 27.6141C26.4951 27.7295 26.4479 27.8396 26.3535 27.9392L25.6771 28.6523H25.6824Z" fill="#F4F4F5"/>
<path d="M49.3236 69.7859C43.2276 63.8768 43.2276 54.2961 49.3236 48.3869C55.4196 42.4777 65.3033 42.4777 71.3993 48.3869C77.4953 54.2961 77.4953 63.8768 71.3993 69.7859C65.3033 75.6951 55.4196 75.6951 49.3236 69.7859Z" fill="url(#paint0_linear_493_964)" stroke="url(#paint1_linear_493_964)" stroke-width="1.98246"/>
<path d="M39.6471 51.4888C38.306 54.9264 37.9037 58.6416 38.4794 62.2742C39.055 65.9068 40.589 69.3337 42.9326 72.2226L34.9838 78.2583C31.3977 73.8107 29.122 68.5042 28.3984 62.903C27.6748 57.3018 28.5305 51.6152 30.8745 46.4477L28.8777 45.3013L38.9582 42.803L41.538 52.5745L39.6471 51.4888Z" fill="url(#paint2_linear_493_964)"/>
<path d="M56.7101 27.9997C62.3753 27.374 68.1104 28.216 73.3303 30.4397L74.5154 28.5041L77.0928 38.2756L67.0195 40.7716L68.1395 38.9387C64.5925 37.6377 60.7587 37.2474 57.0102 37.8059C53.2616 38.3643 49.7256 39.8524 46.7453 42.1258L40.5163 34.4207C45.1962 30.8672 50.8027 28.6442 56.7101 27.9997Z" fill="url(#paint3_linear_493_964)"/>
<path d="M46.2059 89.5404L43.631 79.7642L53.7115 77.2635L52.5915 79.0964C56.1372 80.3968 59.9693 80.7871 63.7164 80.2295C67.4635 79.6719 70.9985 78.1854 73.9785 75.9139L80.2051 83.6191C75.6175 87.0957 70.1437 89.3021 64.3658 90.0039C58.5878 90.7057 52.7217 89.8766 47.391 87.6047L46.2059 89.5404Z" fill="url(#paint4_linear_493_964)"/>
<path d="M81.0744 66.5558C82.4166 63.1185 82.8196 59.4033 82.2443 55.7706C81.6691 52.1378 80.1352 48.7108 77.7913 45.822L85.7401 39.7863C89.3261 44.2331 91.6016 49.5389 92.3248 55.1394C93.0479 60.74 92.1916 66.4258 89.847 71.5922L91.8438 72.7409L81.7657 75.2369L79.1859 65.4654L81.0744 66.5558Z" fill="url(#paint5_linear_493_964)"/>
<g filter="url(#filter0_f_493_964)">
<path d="M39.6471 51.4888C38.306 54.9264 37.9037 58.6416 38.4794 62.2742C39.055 65.9068 40.589 69.3337 42.9326 72.2226L34.9838 78.2583C31.3977 73.8107 29.122 68.5042 28.3984 62.903C27.6748 57.3018 28.5305 51.6152 30.8745 46.4477L28.8777 45.3013L38.9582 42.803L41.538 52.5745L39.6471 51.4888Z" fill="url(#paint6_linear_493_964)"/>
<path d="M56.7101 27.9997C62.3753 27.374 68.1104 28.216 73.3303 30.4397L74.5154 28.5041L77.0928 38.2756L67.0195 40.7716L68.1395 38.9387C64.5925 37.6377 60.7587 37.2474 57.0102 37.8059C53.2616 38.3643 49.7256 39.8524 46.7453 42.1258L40.5163 34.4207C45.1962 30.8672 50.8027 28.6442 56.7101 27.9997Z" fill="url(#paint7_linear_493_964)"/>
<path d="M46.2059 89.5404L43.631 79.7642L53.7115 77.2635L52.5915 79.0964C56.1372 80.3968 59.9693 80.7871 63.7164 80.2295C67.4635 79.6719 70.9985 78.1854 73.9785 75.9139L80.2051 83.6191C75.6175 87.0957 70.1437 89.3021 64.3658 90.0039C58.5878 90.7057 52.7217 89.8766 47.391 87.6047L46.2059 89.5404Z" fill="url(#paint8_linear_493_964)"/>
<path d="M81.0744 66.5558C82.4166 63.1185 82.8196 59.4033 82.2443 55.7706C81.6691 52.1378 80.1352 48.7108 77.7913 45.822L85.7401 39.7863C89.3261 44.2331 91.6016 49.5389 92.3248 55.1394C93.0479 60.74 92.1916 66.4258 89.847 71.5922L91.8438 72.7409L81.7657 75.2369L79.1859 65.4654L81.0744 66.5558Z" fill="url(#paint9_linear_493_964)"/>
</g>
<defs>
<filter id="filter0_f_493_964" x="8.32381" y="7.9742" width="104.075" height="102.097" filterUnits="userSpaceOnUse" color-interpolation-filters="sRGB">
<feFlood flood-opacity="0" result="BackgroundImageFix"/>
<feBlend mode="normal" in="SourceGraphic" in2="BackgroundImageFix" result="shape"/>
<feGaussianBlur stdDeviation="9.91231" result="effect1_foregroundBlur_493_964"/>
</filter>
<linearGradient id="paint0_linear_493_964" x1="60.3614" y1="76.8452" x2="60.3614" y2="41.3276" gradientUnits="userSpaceOnUse">
<stop stop-color="white" stop-opacity="0.2"/>
<stop offset="1" stop-color="white" stop-opacity="0.49"/>
</linearGradient>
<linearGradient id="paint1_linear_493_964" x1="77.9316" y1="59.2478" x2="42.2124" y2="60.4806" gradientUnits="userSpaceOnUse">
<stop stop-color="white"/>
<stop offset="1" stop-color="white" stop-opacity="0"/>
</linearGradient>
<linearGradient id="paint2_linear_493_964" x1="42.9314" y1="60.5268" x2="28.1485" y2="60.5268" gradientUnits="userSpaceOnUse">
<stop stop-color="#7C00FF"/>
<stop offset="1" stop-color="#2CF19A"/>
</linearGradient>
<linearGradient id="paint3_linear_493_964" x1="119.36" y1="45.3931" x2="96.7867" y2="0.337549" gradientUnits="userSpaceOnUse">
<stop stop-color="#7C00FF"/>
<stop offset="0.52" stop-color="#FF6700"/>
<stop offset="1" stop-color="#FFD400"/>
</linearGradient>
<linearGradient id="paint4_linear_493_964" x1="53.3706" y1="77.4888" x2="56.7287" y2="91.7937" gradientUnits="userSpaceOnUse">
<stop stop-color="#10994D"/>
<stop offset="1" stop-color="#00FF79"/>
</linearGradient>
<linearGradient id="paint5_linear_493_964" x1="78.8483" y1="76.6457" x2="104.208" y2="63.3259" gradientUnits="userSpaceOnUse">
<stop stop-color="#AA83FF"/>
<stop offset="1" stop-color="#FF3FA4"/>
</linearGradient>
<linearGradient id="paint6_linear_493_964" x1="42.9314" y1="60.5268" x2="28.1485" y2="60.5268" gradientUnits="userSpaceOnUse">
<stop stop-color="#7C00FF"/>
<stop offset="1" stop-color="#2CF19A"/>
</linearGradient>
<linearGradient id="paint7_linear_493_964" x1="119.36" y1="45.3931" x2="96.7867" y2="0.337549" gradientUnits="userSpaceOnUse">
<stop stop-color="#7C00FF"/>
<stop offset="0.52" stop-color="#FF6700"/>
<stop offset="1" stop-color="#FFD400"/>
</linearGradient>
<linearGradient id="paint8_linear_493_964" x1="53.3706" y1="77.4888" x2="56.7287" y2="91.7937" gradientUnits="userSpaceOnUse">
<stop stop-color="#10994D"/>
<stop offset="1" stop-color="#00FF79"/>
</linearGradient>
<linearGradient id="paint9_linear_493_964" x1="78.8483" y1="76.6457" x2="104.208" y2="63.3259" gradientUnits="userSpaceOnUse">
<stop stop-color="#AA83FF"/>
<stop offset="1" stop-color="#FF3FA4"/>
</linearGradient>
</defs>
</svg>
