<svg width="133" height="133" viewBox="0 0 133 133" fill="none" xmlns="http://www.w3.org/2000/svg">
<path d="M64.1623 114.436L65.8407 114.594L64.6774 126.976L60.0019 126.537C57.3474 126.288 55.9037 124.735 56.1209 122.423C56.2818 120.711 57.2539 119.558 58.842 119.206L56.8151 113.746L58.6819 113.922L60.5338 119.037L63.7021 119.335L64.1623 114.436ZM63.1406 125.312L63.5622 120.825L60.5479 120.541C58.9894 120.395 58.02 121.151 57.8865 122.572C57.7513 124.011 58.6022 124.885 60.1435 125.03L63.1406 125.312Z" fill="#F0F1F1"/>
<path d="M44.5026 109.471L51.544 112.293L46.917 123.837L39.8756 121.015L40.4516 119.578L45.9282 121.773L47.3746 118.164L42.4408 116.187L42.9976 114.798L47.9313 116.775L49.3969 113.119L43.9202 110.924L44.5026 109.471Z" fill="#F0F1F1"/>
<path d="M28.5261 111.983C30.5951 113.691 33.1016 113.196 34.9747 110.928C36.8916 108.607 36.645 106.15 34.6688 104.518C33.0374 103.17 31.0342 102.922 29.435 104.858L29.205 105.137L32.4147 107.787L31.4617 108.941L27.0318 105.283L31.4023 99.9907L32.4899 100.889L31.5093 102.265C32.7166 101.857 34.3877 102.211 35.7936 103.372C38.5126 105.617 38.7615 109.125 36.3189 112.083C33.909 115 30.3169 115.514 27.4918 113.181C25.3962 111.45 24.7616 108.896 25.9658 106.79L27.3452 107.929C26.6956 109.445 27.2528 110.931 28.5261 111.983Z" fill="#F0F1F1"/>
<path d="M23.8693 97.8769L17.0047 102.016L16.1342 100.573L22.9104 96.4866C24.6192 95.4562 24.9934 93.945 23.9719 92.2509C22.9593 90.5716 21.4422 90.2209 19.7481 91.2424L12.972 95.3285L12.0926 93.8701L18.9571 89.7308C21.4025 88.2563 23.8613 88.9028 25.3714 91.4071C26.8903 93.926 26.3293 96.3935 23.8693 97.8769Z" fill="#F0F1F1"/>
<path d="M7.92571 82.7824L18.4649 80.1149L17.1227 74.812L18.6402 74.4279L20.396 81.3651L8.33934 84.4166L7.92571 82.7824Z" fill="#F0F1F1"/>
<path d="M18.0463 68.7112L17.9894 70.4649L5.70648 65.5224L5.76733 63.6484L18.3456 59.4959L18.2881 61.2668L15.1571 62.2838L14.9874 67.5104L18.0463 68.7112ZM8.41198 64.8874L13.5428 66.9472L13.6795 62.735L8.42538 64.4748C8.18189 64.5529 7.88682 64.6294 7.69659 64.6576C7.8674 64.6976 8.15688 64.7931 8.41198 64.8874Z" fill="#F0F1F1"/>
<path d="M8.73817 52.5335L7.26861 52.0465L10.1527 43.3434L11.6223 43.8304L10.4481 47.3737L20.784 50.7989L20.2537 52.3991L9.91778 48.9739L8.73817 52.5335Z" fill="#F0F1F1"/>
<path d="M25.7246 29.9099C28.7845 32.1367 29.4689 35.6983 27.3939 38.5495C25.3291 41.3869 21.7498 41.8031 18.69 39.5763C15.644 37.3596 14.9356 33.8018 17.0004 30.9645C19.0754 28.1132 22.6648 27.6831 25.7246 29.9099ZM24.6821 31.3425C22.3455 29.642 19.8097 29.8815 18.3218 31.9261C16.8338 33.9706 17.3959 36.4433 19.7325 38.1437C22.0691 39.8442 24.6087 39.6287 26.0966 37.5842C27.5845 35.5396 27.0048 33.0328 24.6821 31.3425Z" fill="#F0F1F1"/>
<path d="M36.1643 28.9624L34.7906 29.9394L27.5825 19.8044L31.4094 17.0827C33.5821 15.5374 35.6893 15.7697 37.0352 17.6621C38.0322 19.0639 38.0491 20.5717 37.0766 21.8755L42.1781 24.6854L40.6501 25.7721L35.9063 23.1089L33.313 24.9533L36.1643 28.9624ZM29.8336 20.061L32.4456 23.7337L34.9128 21.979C36.1884 21.0718 36.4288 19.8665 35.6014 18.703C34.7639 17.5255 33.5483 17.419 32.2867 18.3163L29.8336 20.061Z" fill="#F0F1F1"/>
<path d="M48.2779 16.5913L41.9363 10.9342L43.7304 10.3327L47.9365 14.1658C48.1925 14.3884 48.3669 14.5839 48.5903 14.8174C48.6387 14.4747 48.6385 14.3659 48.7193 13.9034L49.7486 8.31503L51.4937 7.72997L49.8763 16.0555L51.4838 20.8505L49.8855 21.3863L48.2779 16.5913Z" fill="#F0F1F1"/>
<path d="M70.1635 15.8114C69.2723 15.7343 68.5663 14.9136 68.6419 14.0395C68.7205 13.1312 69.5397 12.4424 70.448 12.5209C71.3563 12.5995 72.028 13.4173 71.9495 14.3256C71.8739 15.1996 71.0718 15.8899 70.1635 15.8114Z" fill="#F0F1F1"/>
<path d="M92.6507 12.3068L87.6148 21.9416L92.4626 24.4755L91.7375 25.8627L85.3957 22.5479L91.1567 11.5259L92.6507 12.3068Z" fill="#F0F1F1"/>
<path d="M105.279 20.6349L97.2927 30.1688L96.0004 29.0863L103.987 19.5524L105.279 20.6349Z" fill="#F0F1F1"/>
<path d="M104.926 38.82C102.862 35.9399 103.558 32.5413 106.69 30.2965C109.807 28.0616 113.331 28.5197 115.406 31.4138C117.039 33.6926 116.936 36.4124 115.137 38.273L114.085 36.805C115.129 35.4855 115.114 33.7818 114.062 32.3138C112.599 30.2726 110.099 30.0328 107.736 31.7265C105.373 33.4201 104.797 35.8647 106.26 37.9059C107.323 39.3879 108.961 39.991 110.476 39.4766L111.518 40.9306C109.195 41.9403 106.56 41.0989 104.926 38.82Z" fill="#F0F1F1"/>
<path d="M112.791 55.2349L110.404 48.034L122.21 44.1218L124.596 51.3227L123.127 51.8097L121.271 46.209L117.58 47.4319L119.252 52.4774L117.832 52.9482L116.16 47.9027L112.421 49.1418L114.277 54.7425L112.791 55.2349Z" fill="#F0F1F1"/>
<path d="M113.892 62.3093L113.861 60.6238L126.296 60.3989L126.326 62.0844L116.827 68.6219L126.441 68.448L126.472 70.1335L114.037 70.3584L114.007 68.6729L123.506 62.1354L113.892 62.3093Z" fill="#F0F1F1"/>
<path d="M121.965 78.3317C124.012 78.929 124.918 80.985 124.2 83.4455C123.535 85.7244 121.835 86.8231 119.732 86.3531L120.209 84.7183C121.422 84.9825 122.361 84.3427 122.751 83.0051C123.19 81.5024 122.714 80.3065 121.542 79.9645C120.584 79.6851 119.847 80.0614 119.255 81.1072L118.22 82.9375C117.206 84.756 115.86 85.4385 114.175 84.9471C112.029 84.3209 111.144 82.2532 111.886 79.7101C112.594 77.2827 114.338 76.0353 116.415 76.5335L115.933 78.1849C114.784 77.8855 113.778 78.6313 113.34 80.1341C112.877 81.7194 113.326 82.9434 114.515 83.2903C115.457 83.5649 116.2 83.2264 116.797 82.164L117.816 80.329C118.83 78.5104 120.247 77.8307 121.965 78.3317Z" fill="#F0F1F1"/>
<path d="M118.514 96.3227L107.64 90.2874L108.458 88.8135L119.332 94.8488L118.514 96.3227Z" fill="#F0F1F1"/>
<path d="M103.117 97.0298L104.276 95.8059L113.305 104.358L112.146 105.582L100.788 103.591L107.769 110.203L106.61 111.427L97.5806 102.875L98.7398 101.651L110.098 103.642L103.117 97.0298Z" fill="#F0F1F1"/>
<path d="M93.0307 118.931C95.4176 117.704 95.9517 115.206 94.6073 112.589C93.2315 109.912 90.8768 109.168 88.5971 110.34C86.7152 111.307 85.6958 113.049 86.8436 115.283L87.0087 115.604L90.7113 113.702L91.3953 115.033L86.2851 117.658L83.1482 111.554L84.4028 110.909L85.2804 112.353C85.3818 111.083 86.3666 109.687 87.9884 108.854C91.1249 107.242 94.4457 108.398 96.1989 111.81C97.9285 115.176 96.9823 118.679 93.7234 120.354C91.306 121.596 88.7087 121.171 87.2487 119.233L88.8399 118.415C89.9763 119.61 91.5619 119.685 93.0307 118.931Z" fill="#F0F1F1"/>
<path d="M74.2397 117.692C75.1336 117.66 75.9345 118.388 75.9663 119.265C75.9992 120.176 75.2702 120.96 74.3591 120.993C73.448 121.026 72.6815 120.296 72.6485 119.385C72.6168 118.508 73.3286 117.725 74.2397 117.692Z" fill="#F0F1F1"/>
<g filter="url(#filter0_b_493_822)">
<path d="M76.7701 81.2585C87.2411 81.2585 95.7296 72.245 95.7296 61.1263C95.7296 50.0075 87.2411 40.994 76.7701 40.994C66.299 40.994 57.8105 50.0075 57.8105 61.1263C57.8105 72.245 66.299 81.2585 76.7701 81.2585Z" fill="url(#paint0_linear_493_822)"/>
<path d="M76.7701 82.1191C87.7643 82.1191 96.5901 72.6709 96.5901 61.1263C96.5901 49.5816 87.7643 40.1334 76.7701 40.1334C65.7758 40.1334 56.95 49.5816 56.95 61.1263C56.95 72.6709 65.7758 82.1191 76.7701 82.1191Z" stroke="url(#paint1_linear_493_822)" stroke-width="1.72116"/>
</g>
<path d="M38.3829 79.8557V74.9347C38.3829 73.4584 39.368 72.4742 40.8457 72.4742H55.6224V70.5058C55.6224 64.8466 53.4059 59.4335 50.2043 54.5125C48.9729 52.7902 48.2341 50.3297 48.2341 47.8692C48.2341 40.2416 55.1298 34.0903 63.257 35.8127C68.1826 36.7969 71.8768 40.7337 72.6156 45.6547C73.1082 48.8534 72.6156 52.052 70.8916 54.5125C67.69 59.6796 65.4735 65.5848 65.4735 71.9821V72.4742H80.2502C81.7279 72.4742 82.713 73.4584 82.713 74.9347V79.8557H85.1758V84.7767H35.9202V79.8557H38.3829Z" fill="url(#paint2_linear_493_822)"/>
<g filter="url(#filter1_f_493_822)">
<path d="M38.3829 79.8557V74.9347C38.3829 73.4584 39.368 72.4742 40.8457 72.4742H55.6224V70.5058C55.6224 64.8466 53.4059 59.4335 50.2043 54.5125C48.9729 52.7902 48.2341 50.3297 48.2341 47.8692C48.2341 40.2416 55.1298 34.0903 63.257 35.8127C68.1826 36.7969 71.8768 40.7337 72.6156 45.6547C73.1082 48.8534 72.6156 52.052 70.8916 54.5125C67.69 59.6796 65.4735 65.5848 65.4735 71.9821V72.4742H80.2502C81.7279 72.4742 82.713 73.4584 82.713 74.9347V79.8557H85.1758V84.7767H35.9202V79.8557H38.3829Z" fill="url(#paint3_linear_493_822)"/>
</g>
<defs>
<filter id="filter0_b_493_822" x="40.5994" y="23.7824" width="72.3423" height="74.6878" filterUnits="userSpaceOnUse" color-interpolation-filters="sRGB">
<feFlood flood-opacity="0" result="BackgroundImageFix"/>
<feGaussianBlur in="BackgroundImageFix" stdDeviation="7.74523"/>
<feComposite in2="SourceAlpha" operator="in" result="effect1_backgroundBlur_493_822"/>
<feBlend mode="normal" in="SourceGraphic" in2="effect1_backgroundBlur_493_822" result="shape"/>
</filter>
<filter id="filter1_f_493_822" x="18.7083" y="18.3095" width="83.6791" height="83.6789" filterUnits="userSpaceOnUse" color-interpolation-filters="sRGB">
<feFlood flood-opacity="0" result="BackgroundImageFix"/>
<feBlend mode="normal" in="SourceGraphic" in2="BackgroundImageFix" result="shape"/>
<feGaussianBlur stdDeviation="8.60581" result="effect1_foregroundBlur_493_822"/>
</filter>
<linearGradient id="paint0_linear_493_822" x1="59.9513" y1="78.9854" x2="95.6053" y2="45.4084" gradientUnits="userSpaceOnUse">
<stop stop-color="white" stop-opacity="0.2"/>
<stop offset="1" stop-color="white" stop-opacity="0.49"/>
</linearGradient>
<linearGradient id="paint1_linear_493_822" x1="60.4872" y1="44.1607" x2="94.2192" y2="78.127" gradientUnits="userSpaceOnUse">
<stop stop-color="white"/>
<stop offset="1" stop-color="white" stop-opacity="0"/>
</linearGradient>
<linearGradient id="paint2_linear_493_822" x1="49.0369" y1="40.9335" x2="71.9037" y2="79.1054" gradientUnits="userSpaceOnUse">
<stop stop-color="#10994D"/>
<stop offset="1" stop-color="#00FF79"/>
</linearGradient>
<linearGradient id="paint3_linear_493_822" x1="49.0369" y1="40.9335" x2="71.9037" y2="79.1054" gradientUnits="userSpaceOnUse">
<stop stop-color="#10994D"/>
<stop offset="1" stop-color="#00FF79"/>
</linearGradient>
</defs>
</svg>
