<svg width="115" height="115" viewBox="0 0 115 115" fill="none" xmlns="http://www.w3.org/2000/svg">
<path d="M35.7011 18.1761C35.5805 18.2314 35.4699 18.2364 35.3745 18.1962C35.279 18.156 35.2037 18.0756 35.1534 17.9701L30.3505 7.17851C30.2952 7.05794 30.2852 6.94741 30.3203 6.84693C30.3555 6.74645 30.4308 6.67109 30.5514 6.61582L34.5807 4.82224C35.8267 4.2696 36.942 4.11888 37.9267 4.38013C38.9114 4.64138 39.66 5.34474 40.1724 6.49022C40.5492 7.33928 40.6447 8.12303 40.4588 8.84649C40.2729 9.56995 39.8609 10.198 39.2279 10.7305L43.7295 13.9911C43.7897 14.0413 43.835 14.0966 43.8601 14.1519C43.9003 14.2423 43.8952 14.3327 43.8601 14.4332C43.8199 14.5287 43.7546 14.599 43.6641 14.6392L42.8703 14.9909C42.6845 15.0763 42.5237 15.0863 42.3931 15.026C42.2624 14.9658 42.1419 14.9004 42.0313 14.8301L37.7659 11.7001L34.8771 12.9863L36.7762 17.2467C36.8264 17.3572 36.8315 17.4627 36.7913 17.5682C36.7511 17.6737 36.6707 17.7491 36.5501 17.8043L35.7061 18.1811L35.7011 18.1761ZM34.2491 11.5796L36.9772 10.3637C37.8011 9.99699 38.3437 9.54985 38.5949 9.01731C38.8461 8.48476 38.821 7.88188 38.5195 7.19861C38.2231 6.52539 37.7911 6.10337 37.2334 5.93255C36.6757 5.75671 35.9774 5.85719 35.1384 6.22897L32.4103 7.44479L34.2491 11.5745V11.5796Z" fill="white"/>
<path d="M48.6532 13.4586C48.5226 13.4736 48.4171 13.4485 48.3367 13.3782C48.2563 13.3078 48.2061 13.2124 48.191 13.0968L46.7943 1.37074C46.7792 1.24012 46.8044 1.12959 46.8646 1.04418C46.9249 0.958772 47.0254 0.908531 47.156 0.888435L54.5765 0.00420647C54.7072 -0.0108656 54.8127 0.0142545 54.8981 0.0845909C54.9835 0.154927 55.0287 0.255408 55.0438 0.386033L55.1242 1.0693C55.1392 1.19993 55.1141 1.30543 55.0538 1.38581C54.9885 1.4662 54.893 1.51644 54.7624 1.53151L48.6582 2.26L49.1255 6.19381L54.8378 5.51556C54.9684 5.50049 55.0739 5.52561 55.1593 5.59595C55.2397 5.66629 55.2899 5.76677 55.305 5.89739L55.3854 6.56056C55.4005 6.68114 55.3754 6.78162 55.3151 6.87205C55.2548 6.95746 55.1543 7.0077 55.0237 7.02277L49.3114 7.70102L49.7987 11.7755L56.0486 11.0319C56.1792 11.0169 56.2847 11.042 56.3651 11.1023C56.4455 11.1626 56.4957 11.2631 56.5108 11.3937L56.5962 12.092C56.6113 12.2126 56.5861 12.3131 56.5259 12.4035C56.4656 12.4889 56.3651 12.5392 56.2345 12.5593L48.6733 13.4586H48.6532Z" fill="white"/>
<path d="M65.1421 13.5691C64.1071 13.3882 63.2681 13.0767 62.625 12.6346C61.9769 12.1925 61.5147 11.6851 61.2283 11.1173C60.942 10.5496 60.8365 9.9819 60.9068 9.41921C60.9219 9.32376 60.9771 9.24337 61.0676 9.18308C61.158 9.11777 61.2585 9.09768 61.364 9.11275L62.2733 9.26849C62.414 9.29361 62.5145 9.34888 62.5748 9.42926C62.6351 9.51467 62.6652 9.6051 62.6753 9.70558C62.6954 10.002 62.7958 10.3135 62.9717 10.63C63.1475 10.9465 63.4339 11.2379 63.8207 11.4941C64.2126 11.7504 64.7401 11.9363 65.4033 12.0518C66.4232 12.2276 67.2069 12.1774 67.7495 11.9011C68.2921 11.6248 68.6187 11.1776 68.7242 10.5747C68.7945 10.1577 68.7242 9.80104 68.5132 9.4996C68.3022 9.19816 67.9505 8.90174 67.4632 8.61035C66.9758 8.31895 66.3378 7.98234 65.544 7.60052C64.72 7.19859 64.0468 6.80169 63.5293 6.4048C63.0119 6.0079 62.6501 5.56578 62.4492 5.07845C62.2482 4.59112 62.203 4.00834 62.3186 3.33009C62.4291 2.68702 62.7004 2.14442 63.1324 1.70231C63.5645 1.25517 64.1322 0.943678 64.8356 0.757789C65.539 0.5719 66.3478 0.561852 67.2672 0.717596C68.0058 0.843197 68.6338 1.05421 69.1512 1.3456C69.6687 1.63699 70.0857 1.97863 70.3972 2.3705C70.7087 2.76238 70.9247 3.15927 71.0503 3.56622C71.1759 3.97317 71.2111 4.35499 71.1608 4.71672C71.1458 4.80213 71.1006 4.87749 71.0302 4.9428C70.9599 5.00812 70.8544 5.03324 70.7238 5.00812L69.7792 4.84232C69.6938 4.82725 69.6134 4.78706 69.5331 4.72677C69.4527 4.66648 69.3974 4.56098 69.3723 4.42533C69.3874 3.92795 69.1814 3.47076 68.7644 3.05377C68.3474 2.63678 67.7596 2.36548 66.9959 2.23485C66.2222 2.0992 65.5691 2.1394 65.0366 2.35543C64.504 2.57146 64.1825 2.98846 64.0719 3.62148C64.0016 4.02341 64.0569 4.38011 64.2377 4.68658C64.4186 4.99304 64.7301 5.28946 65.1823 5.57583C65.6344 5.8622 66.2323 6.18876 66.9758 6.54547C67.8802 6.97251 68.6086 7.38448 69.1663 7.78138C69.724 8.17828 70.1058 8.62039 70.3218 9.1027C70.5379 9.58501 70.5881 10.1678 70.4675 10.846C70.3369 11.5946 70.0304 12.1975 69.5481 12.6597C69.0658 13.1219 68.4428 13.4284 67.6892 13.5841C66.9356 13.7399 66.0765 13.7349 65.1119 13.5691H65.1421Z" fill="white"/>
<path d="M74.4011 15.9003C74.2805 15.84 74.2102 15.7596 74.18 15.6591C74.1499 15.5586 74.1649 15.4531 74.2152 15.3426L79.5206 4.79212C79.5808 4.67155 79.6612 4.59619 79.7617 4.556C79.8622 4.52083 79.9727 4.53087 80.0883 4.59116L86.7602 7.94721C86.8808 8.0075 86.9511 8.08789 86.9812 8.18837C87.0114 8.29387 86.9963 8.39938 86.936 8.51995L86.6296 9.13288C86.5693 9.25346 86.4889 9.32882 86.3934 9.35897C86.298 9.38911 86.1874 9.37906 86.0719 9.31877L80.5756 6.55556L78.7971 10.0925L83.9367 12.6748C84.0573 12.7351 84.1276 12.8155 84.1577 12.916C84.1879 13.0165 84.1728 13.127 84.1125 13.2476L83.8111 13.8454C83.7558 13.9509 83.6805 14.0263 83.58 14.0615C83.4795 14.0966 83.369 14.0866 83.2534 14.0263L78.1138 11.4439L76.27 15.1115L81.8919 17.94C82.0125 18.0003 82.0878 18.0757 82.118 18.1761C82.1481 18.2716 82.1381 18.3821 82.0778 18.4977L81.7613 19.1257C81.706 19.2312 81.6306 19.3065 81.5302 19.3417C81.4297 19.3819 81.3192 19.3668 81.2036 19.3065L74.4011 15.8852V15.9003Z" fill="white"/>
<path d="M84.6402 21.5372C84.5698 21.4719 84.5347 21.3865 84.5347 21.281C84.5347 21.1805 84.5648 21.0951 84.6301 21.0248C84.6703 20.9795 84.7206 20.9393 84.7808 20.8941L96.1301 15.5787C96.2457 15.5234 96.3612 15.5033 96.4718 15.5084C96.5823 15.5134 96.6978 15.5787 96.8184 15.6943L97.7026 16.5483C97.8232 16.6639 97.8885 16.7795 97.8986 16.89C97.9086 17.0005 97.8885 17.1161 97.8433 17.2366L92.9399 28.7618C92.9047 28.8321 92.8695 28.8874 92.8293 28.9326C92.764 29.0029 92.6786 29.0381 92.5781 29.0381C92.4777 29.0381 92.3872 29.0079 92.3219 28.9426L91.6587 28.3046C91.5532 28.2041 91.503 28.1036 91.508 28.0082C91.508 27.9077 91.5231 27.8323 91.5482 27.772L92.6133 25.2299L88.3429 21.1152L85.8459 22.2757C85.7957 22.3109 85.7203 22.331 85.6148 22.331C85.5144 22.331 85.4088 22.2858 85.3033 22.1853L84.6402 21.5473V21.5372ZM89.7998 20.3515L93.3167 23.7377L96.0146 17.4175L89.7998 20.3465V20.3515Z" fill="white"/>
<path d="M94.9895 32.8011C94.9293 32.6855 94.9142 32.575 94.9493 32.4745C94.9845 32.374 95.0549 32.2936 95.1604 32.2384L105.56 26.6366C105.676 26.5763 105.786 26.5562 105.892 26.5813C105.997 26.6064 106.078 26.6768 106.143 26.7974L108.238 30.6809C108.886 31.8817 109.117 32.9819 108.931 33.9867C108.745 34.9915 108.102 35.7904 106.997 36.3832C106.178 36.8253 105.404 36.976 104.671 36.8454C103.937 36.7148 103.279 36.3531 102.701 35.7602L99.7875 40.4929C99.7423 40.5582 99.692 40.6084 99.6368 40.6335C99.5514 40.6787 99.4609 40.6838 99.3604 40.6486C99.26 40.6134 99.1846 40.5531 99.1394 40.4677L98.7274 39.7041C98.632 39.5232 98.6068 39.3675 98.6571 39.2268C98.7073 39.0911 98.7626 38.9655 98.8229 38.85L101.621 34.3635L100.119 31.5752L96.0094 33.7908C95.9039 33.8461 95.7984 33.8611 95.6929 33.831C95.5874 33.8008 95.502 33.7255 95.4417 33.6099L95.0046 32.796L94.9895 32.8011ZM101.46 30.8568L102.877 33.4843C103.304 34.2781 103.792 34.7856 104.339 34.9966C104.887 35.2076 105.49 35.1372 106.148 34.7856C106.796 34.4389 107.183 33.9767 107.313 33.409C107.444 32.8362 107.293 32.1479 106.856 31.3441L105.44 28.7165L101.46 30.8618V30.8568Z" fill="white"/>
<path d="M101.275 49.3904C101.074 48.3002 101.109 47.3607 101.38 46.5669C101.652 45.7731 102.114 45.13 102.767 44.6276C103.42 44.1252 104.229 43.7685 105.178 43.5575C105.661 43.457 106.183 43.3515 106.741 43.2511C107.299 43.1506 107.831 43.0551 108.344 42.9747C109.308 42.8341 110.187 42.8793 110.981 43.1104C111.77 43.3415 112.438 43.7836 112.971 44.4267C113.503 45.0698 113.875 45.9339 114.076 47.0291C114.227 47.848 114.247 48.5866 114.136 49.2447C114.026 49.9029 113.82 50.4706 113.513 50.9529C113.207 51.4352 112.845 51.8221 112.413 52.1235C111.986 52.4249 111.524 52.6309 111.031 52.7465C110.926 52.7766 110.83 52.7615 110.745 52.6962C110.66 52.6309 110.609 52.5455 110.589 52.44L110.408 51.4603C110.388 51.3548 110.403 51.2543 110.449 51.1689C110.494 51.0835 110.589 51.0031 110.735 50.9428C111.624 50.5711 112.187 50.0787 112.428 49.4608C112.669 48.8478 112.714 48.1294 112.564 47.3105C112.388 46.3509 111.976 45.6425 111.333 45.1853C110.69 44.7281 109.77 44.5925 108.58 44.7733C107.6 44.919 106.605 45.0999 105.59 45.326C104.41 45.5822 103.601 46.0394 103.169 46.6925C102.732 47.3507 102.601 48.1595 102.782 49.1191C102.933 49.938 103.234 50.5912 103.676 51.0785C104.123 51.5658 104.827 51.8271 105.786 51.8572C105.947 51.8622 106.063 51.9024 106.138 51.9677C106.213 52.0331 106.259 52.1185 106.279 52.229L106.46 53.2087C106.48 53.3142 106.46 53.4147 106.414 53.5001C106.364 53.5905 106.284 53.6357 106.173 53.6458C105.671 53.7161 105.163 53.686 104.651 53.5604C104.138 53.4348 103.651 53.2037 103.199 52.862C102.742 52.5254 102.345 52.0682 102.008 51.4905C101.672 50.9177 101.425 50.2194 101.27 49.4005L101.275 49.3904Z" fill="white"/>
<path d="M102.37 59.132C102.39 59.0013 102.44 58.9059 102.531 58.8406C102.616 58.7803 102.722 58.7551 102.842 58.7752L114.543 60.3729C114.674 60.393 114.774 60.4382 114.84 60.5236C114.905 60.604 114.93 60.7145 114.915 60.8451L114.789 61.7595C114.769 61.8901 114.719 61.9906 114.629 62.0559C114.538 62.1213 114.433 62.1464 114.297 62.1313L109.353 61.4531L108.509 67.6175L113.453 68.2958C113.584 68.3159 113.684 68.3661 113.749 68.4565C113.815 68.547 113.84 68.6475 113.825 68.768L113.699 69.6824C113.679 69.813 113.629 69.9135 113.538 69.9788C113.448 70.0441 113.343 70.0693 113.207 70.0542L101.506 68.4565C101.385 68.4415 101.295 68.3862 101.225 68.3008C101.154 68.2154 101.134 68.1049 101.149 67.9692L101.275 67.0548C101.29 66.9343 101.345 66.8438 101.431 66.7735C101.516 66.7032 101.621 66.6831 101.742 66.6981L106.887 67.4015L107.731 61.237L102.586 60.5337C102.466 60.5186 102.375 60.4633 102.305 60.3779C102.239 60.2875 102.214 60.182 102.229 60.0463L102.355 59.132H102.37Z" fill="white"/>
<path d="M104.455 75.5857C104.505 75.4752 104.581 75.4049 104.681 75.3697C104.782 75.3345 104.887 75.3446 104.998 75.3948L105.626 75.6762C105.736 75.7264 105.811 75.8018 105.852 75.8972C105.892 75.9977 105.892 76.0982 105.842 76.2087L103.606 81.1725C103.556 81.283 103.48 81.3583 103.375 81.3985C103.269 81.4387 103.164 81.4337 103.053 81.3835L102.425 81.1021C102.315 81.0519 102.239 80.9765 102.199 80.871C102.159 80.7655 102.164 80.66 102.214 80.5495L104.45 75.5857H104.455Z" fill="white"/>
<path d="M94.2915 83.1317C94.3769 83.0312 94.4723 82.976 94.5778 82.9709C94.6833 82.9709 94.7838 83.0011 94.8743 83.0815L103.907 90.6929C104.008 90.7783 104.068 90.8737 104.078 90.9792C104.093 91.0848 104.058 91.1903 103.973 91.2907L100.777 95.0789C100.195 95.7722 99.6069 96.2394 99.009 96.4856C98.4162 96.7318 97.8384 96.7971 97.2757 96.6815C96.713 96.566 96.1905 96.2997 95.7133 95.8978C95.3365 95.5813 95.0652 95.2446 94.8943 94.8879C94.7286 94.5363 94.6381 94.1946 94.6231 93.863C94.608 93.5365 94.623 93.2451 94.6833 92.9939C94.2061 93.2049 93.6484 93.2853 93.0154 93.235C92.3823 93.1798 91.7845 92.9185 91.2218 92.4463C90.7144 92.0192 90.3476 91.5118 90.1165 90.924C89.8854 90.3362 89.8351 89.7082 89.9658 89.035C90.0964 88.3617 90.4431 87.6986 91.0007 87.0354L94.2864 83.1367L94.2915 83.1317ZM94.5376 85.1112L92.2768 87.794C91.7794 88.3818 91.5584 88.9747 91.6086 89.5725C91.6589 90.1654 91.9201 90.6627 92.3924 91.0596C92.8797 91.4716 93.4223 91.6475 94.0101 91.5972C94.5979 91.5419 95.1455 91.2204 95.6429 90.6276L97.9037 87.9447L94.5427 85.1112H94.5376ZM99.004 88.8742L96.8587 91.4214C96.3614 92.0092 96.1202 92.5719 96.1353 93.1044C96.1504 93.637 96.3915 94.1042 96.8638 94.5011C97.336 94.898 97.8234 95.0487 98.3258 94.9533C98.8332 94.8578 99.3306 94.5162 99.8279 93.9284L101.973 91.3812L98.999 88.8742H99.004Z" fill="white"/>
<path d="M84.3085 93.2099C84.414 93.1295 84.5195 93.1044 84.625 93.1245C84.7305 93.1446 84.8159 93.2049 84.8913 93.3004L91.8948 102.831C91.9651 102.926 91.9953 103.032 91.9852 103.137C91.9752 103.243 91.9149 103.333 91.8094 103.414L91.0357 103.981C90.9302 104.062 90.8247 104.087 90.7192 104.067C90.6137 104.047 90.5282 103.986 90.4529 103.891L83.4444 94.3604C83.374 94.265 83.3439 94.1595 83.3539 94.054C83.364 93.9485 83.4243 93.858 83.5298 93.7776L84.3035 93.2099H84.3085Z" fill="white"/>
<path d="M78.4055 97.169C78.5261 97.1187 78.6366 97.1137 78.7371 97.1589C78.8326 97.2041 78.9029 97.2795 78.9532 97.39L83.4999 108.292C83.5501 108.413 83.5602 108.523 83.52 108.624C83.4848 108.724 83.4044 108.8 83.2839 108.85L78.712 110.759C77.878 111.106 77.1395 111.256 76.4964 111.201C75.8533 111.151 75.3107 110.94 74.8636 110.578C74.4165 110.216 74.0748 109.744 73.8337 109.166C73.6428 108.709 73.5573 108.287 73.5674 107.895C73.5825 107.503 73.6578 107.162 73.7935 106.86C73.9291 106.559 74.0798 106.313 74.2456 106.112C73.7231 106.082 73.1956 105.896 72.653 105.559C72.1154 105.222 71.7035 104.715 71.4171 104.037C71.1609 103.424 71.0654 102.806 71.1307 102.178C71.1961 101.55 71.4372 100.967 71.8643 100.435C72.2863 99.897 72.8992 99.465 73.703 99.1283L78.4106 97.1639L78.4055 97.169ZM77.7172 99.0429L74.4767 100.394C73.7633 100.691 73.2961 101.118 73.07 101.67C72.8439 102.223 72.849 102.781 73.0851 103.349C73.3313 103.936 73.7282 104.343 74.2808 104.564C74.8284 104.785 75.4615 104.75 76.1749 104.449L79.4154 103.097L77.7223 99.0429H77.7172ZM79.968 104.434L76.8983 105.715C76.1849 106.011 75.7127 106.403 75.4866 106.88C75.2555 107.363 75.2605 107.885 75.4966 108.453C75.7328 109.021 76.0995 109.377 76.5919 109.523C77.0842 109.669 77.6871 109.593 78.4005 109.297L81.4702 108.016L79.973 104.429L79.968 104.434Z" fill="white"/>
<path d="M65.1069 101.615C65.2376 101.6 65.3431 101.63 65.4235 101.701C65.5038 101.771 65.5491 101.866 65.5591 101.987L66.7498 113.753C66.7598 113.874 66.7347 113.974 66.6694 114.06C66.6041 114.145 66.5086 114.195 66.373 114.205L65.4184 114.301C65.2979 114.311 65.1974 114.286 65.112 114.215C65.0266 114.145 64.9763 114.05 64.9663 113.929L63.8911 103.313L57.9176 103.916C57.7869 103.931 57.6764 103.901 57.591 103.831C57.5056 103.76 57.4553 103.66 57.4403 103.529L57.3649 102.811C57.3549 102.69 57.38 102.59 57.4503 102.504C57.5207 102.419 57.6211 102.369 57.7518 102.354L65.0919 101.61L65.1069 101.615Z" fill="white"/>
<path d="M52.7528 101.912C52.8834 101.927 52.9839 101.977 53.0442 102.062C53.1045 102.148 53.1296 102.253 53.1196 102.369L51.7631 114.12C51.748 114.241 51.7028 114.336 51.6224 114.406C51.542 114.477 51.4365 114.502 51.3059 114.487L50.3513 114.376C50.2207 114.361 50.1202 114.311 50.0599 114.226C49.9996 114.14 49.9745 114.035 49.9846 113.914L51.3411 102.163C51.3561 102.042 51.4014 101.947 51.4817 101.876C51.5621 101.806 51.6676 101.781 51.7982 101.796L52.7528 101.907V101.912Z" fill="white"/>
<path d="M41.9211 99.1886C42.8908 99.5503 43.6594 100.028 44.2272 100.615C44.7949 101.203 45.1315 101.917 45.247 102.751C45.3626 103.585 45.247 104.534 44.9004 105.604C44.7245 106.107 44.5537 106.584 44.3829 107.041C44.2121 107.498 44.0312 107.976 43.8353 108.468C43.4032 109.493 42.8606 110.277 42.2125 110.829C41.5644 111.377 40.8309 111.698 40.007 111.784C39.183 111.869 38.3088 111.739 37.3844 111.397C36.4701 111.055 35.7265 110.583 35.1638 109.98C34.6011 109.377 34.2444 108.654 34.1088 107.81C33.9731 106.966 34.0786 106.021 34.4353 104.966C34.5961 104.459 34.7619 103.981 34.9327 103.519C35.1035 103.062 35.2944 102.59 35.5004 102.097C35.9275 101.058 36.455 100.264 37.093 99.7111C37.7311 99.1584 38.4545 98.8419 39.2684 98.7665C40.0823 98.6912 40.9666 98.8319 41.9312 99.1886H41.9211ZM41.3836 100.63C40.5244 100.309 39.7256 100.309 38.9821 100.625C38.2385 100.942 37.6306 101.67 37.1533 102.821C36.9423 103.323 36.7614 103.77 36.6107 104.172C36.46 104.574 36.3043 105.026 36.1435 105.534C35.8772 106.323 35.7868 107.006 35.8672 107.594C35.9526 108.177 36.1736 108.664 36.5303 109.056C36.8871 109.448 37.3493 109.744 37.912 109.955C38.4746 110.166 39.0223 110.241 39.5448 110.176C40.0673 110.116 40.5546 109.89 41.0017 109.503C41.4489 109.116 41.8357 108.538 42.1573 107.77C42.3532 107.277 42.529 106.83 42.6747 106.428C42.8254 106.026 42.9862 105.569 43.1671 105.057C43.5539 103.876 43.569 102.921 43.2073 102.198C42.8455 101.469 42.2376 100.947 41.3785 100.63H41.3836Z" fill="white"/>
<path d="M29.6875 92.2554C30.5265 92.9236 31.1093 93.6471 31.4409 94.4208C31.7725 95.1945 31.8679 95.9883 31.7222 96.7971C31.5765 97.606 31.2198 98.4098 30.6471 99.2036C30.3256 99.6257 29.9789 100.068 29.6071 100.535C29.2353 101.002 28.8736 101.444 28.527 101.861C27.8789 102.595 27.1805 103.117 26.4269 103.434C25.6733 103.75 24.8845 103.831 24.0556 103.67C23.2266 103.509 22.3976 103.097 21.5687 102.439C20.9105 101.912 20.4081 101.359 20.0715 100.781C19.7349 100.203 19.5189 99.6407 19.4335 99.1032C19.348 98.5656 19.348 98.0783 19.4435 97.6412C19.539 97.2041 19.6746 96.8675 19.8505 96.6263C19.9107 96.5359 19.9861 96.4856 20.0866 96.4756C20.1871 96.4706 20.2825 96.5007 20.373 96.5761L21.2069 97.2443C21.3024 97.3196 21.3526 97.39 21.3677 97.4653C21.3828 97.5407 21.3677 97.6361 21.3275 97.7567C21.217 98.0682 21.1617 98.4199 21.1667 98.8118C21.1718 99.2036 21.2773 99.6056 21.4782 100.018C21.6792 100.435 22.0309 100.841 22.5283 101.238C23.2819 101.841 24.0505 102.123 24.8293 102.082C25.608 102.042 26.3917 101.57 27.1755 100.666C27.8738 99.8517 28.542 99.0127 29.1851 98.1486C29.8985 97.1739 30.1899 96.2998 30.0543 95.521C29.9186 94.7423 29.4815 94.054 28.738 93.4612C28.2406 93.0643 27.7181 92.803 27.1755 92.6774C26.6329 92.5518 26.1003 92.592 25.5678 92.793C25.0353 92.9939 24.5328 93.3908 24.0606 93.9837L23.5883 94.5765L25.7085 96.2696C25.8039 96.345 25.8542 96.4354 25.8692 96.5459C25.8843 96.6565 25.8441 96.762 25.7637 96.8675L25.402 97.3196C25.3166 97.4251 25.2211 97.4804 25.1106 97.4955C25.0001 97.5055 24.8996 97.4754 24.8041 97.4L21.6089 94.8478C21.5034 94.7624 21.4481 94.672 21.4431 94.5665C21.433 94.461 21.4732 94.3555 21.5536 94.25L22.6388 92.8935C23.2567 92.1198 23.9501 91.5721 24.7238 91.2506C25.4975 90.9291 26.3114 90.8487 27.1705 91.0145C28.0245 91.1803 28.8686 91.5922 29.6975 92.2554H29.6875Z" fill="white"/>
<path d="M22.3573 85.4126C22.4326 85.5232 22.4527 85.6287 22.4276 85.7342C22.4025 85.8397 22.3422 85.9251 22.2367 85.9904L12.3946 92.5216C12.2841 92.597 12.1786 92.6221 12.0731 92.607C11.9676 92.592 11.8771 92.5266 11.8068 92.4161L9.36512 88.7385C8.61151 87.6031 8.27993 86.528 8.37539 85.5131C8.46582 84.4983 9.03856 83.6391 10.0836 82.9458C10.8573 82.4334 11.6159 82.2073 12.3594 82.2726C13.103 82.3379 13.7913 82.6343 14.4193 83.1719L16.8861 78.1931C16.9263 78.1228 16.9715 78.0725 17.0217 78.0374C17.1021 77.9821 17.1926 77.972 17.2981 77.9972C17.4036 78.0223 17.4789 78.0776 17.5342 78.1579L18.0165 78.8814C18.132 79.0522 18.1672 79.208 18.132 79.3486C18.0969 79.4893 18.0517 79.6199 18.0014 79.7405L15.6251 84.4681L17.3734 87.1057L21.262 84.5234C21.3625 84.4581 21.468 84.4329 21.5735 84.4581C21.684 84.4782 21.7745 84.5485 21.8448 84.659L22.3573 85.4277V85.4126ZM16.0923 87.9447L14.4394 85.4578C13.937 84.7042 13.4095 84.247 12.8468 84.0863C12.2841 83.9255 11.6912 84.0511 11.0683 84.4631C10.4553 84.87 10.1087 85.3624 10.0333 85.9452C9.95293 86.5229 10.169 87.1962 10.6764 87.9598L12.3243 90.4467L16.0923 87.9447Z" fill="white"/>
<path d="M15.8514 74.6864C15.8765 74.7769 15.8665 74.8723 15.8162 74.9577C15.766 75.0431 15.6956 75.1034 15.6002 75.1286C15.5399 75.1436 15.4746 75.1587 15.4042 75.1637L2.92455 74.0082C2.79393 73.9931 2.6834 73.958 2.59297 73.8926C2.50254 73.8324 2.4322 73.7168 2.38698 73.556L2.0554 72.3704C2.01018 72.2096 2.01018 72.079 2.0554 71.9735C2.10061 71.873 2.17597 71.7826 2.28148 71.7022L12.3396 64.2415C12.4049 64.2013 12.4652 64.1712 12.5204 64.1511C12.6109 64.1259 12.7063 64.136 12.7917 64.1862C12.8772 64.2365 12.9374 64.3068 12.9626 64.4023L13.2138 65.2915C13.254 65.4322 13.2489 65.5427 13.1937 65.6281C13.1434 65.7135 13.0882 65.7738 13.0379 65.814L10.8324 67.4669L12.435 73.1792L15.1782 73.4405C15.2384 73.4405 15.3138 73.4606 15.4042 73.5108C15.4947 73.5611 15.555 73.6565 15.5952 73.7972L15.8464 74.6864H15.8514ZM10.8022 73.0988L9.48091 68.3964L3.9595 72.4809L10.8022 73.0988Z" fill="white"/>
<path d="M12.651 59.7349C12.651 59.8655 12.6058 59.971 12.5254 60.0363C12.445 60.1067 12.3445 60.1368 12.2239 60.1368L0.417465 59.7399C0.286841 59.7399 0.181336 59.6947 0.105976 59.6193C0.0306152 59.544 -0.00455303 59.4385 0.000471003 59.3079L0.156216 54.7159C0.18636 53.8266 0.357177 53.0529 0.668667 52.4099C0.980157 51.7618 1.4273 51.2694 2.01008 50.9228C2.59287 50.5811 3.31633 50.4254 4.17041 50.4505C5.0245 50.4806 5.73289 50.6816 6.28553 51.0634C6.83817 51.4452 7.25014 51.9678 7.51642 52.6359C7.78269 53.3041 7.90327 54.0829 7.87312 54.9721L7.76762 58.1724L12.2842 58.3231C12.4048 58.3231 12.5053 58.3684 12.5806 58.4487C12.656 58.5291 12.6912 58.6346 12.6861 58.7703L12.656 59.7299L12.651 59.7349ZM6.24534 58.1473L6.35084 55.0224C6.38099 54.1331 6.20515 53.4549 5.82332 52.9977C5.44149 52.5405 4.86875 52.2943 4.11013 52.2692C3.36155 52.2441 2.77876 52.44 2.35172 52.862C1.9297 53.284 1.69859 53.9522 1.66845 54.8666L1.56294 57.9916L6.24534 58.1473Z" fill="white"/>
<path d="M13.9221 46.2805C13.8769 46.4061 13.8065 46.4865 13.7061 46.5267C13.6056 46.5669 13.5001 46.5669 13.3895 46.5267L2.29649 42.4723C2.17089 42.4271 2.08548 42.3567 2.03524 42.2613C1.985 42.1658 1.985 42.0553 2.03524 41.9297L2.35175 41.0656C2.39697 40.94 2.47233 40.8546 2.57281 40.8093C2.67329 40.7641 2.78382 40.7641 2.90942 40.8093L7.59684 42.5225L9.73205 36.6796L5.04463 34.9664C4.91903 34.9212 4.83362 34.8458 4.78841 34.7453C4.74319 34.6449 4.73817 34.5394 4.77836 34.4238L5.09487 33.5597C5.14009 33.4341 5.21545 33.3487 5.31593 33.3034C5.41641 33.2582 5.52694 33.2582 5.65254 33.3034L16.7456 37.3578C16.8611 37.398 16.9365 37.4684 16.9867 37.5688C17.032 37.6693 17.032 37.7799 16.9867 37.9055L16.6702 38.7696C16.63 38.8851 16.5597 38.9605 16.4592 39.0107C16.3587 39.056 16.2532 39.061 16.1377 39.0208L11.2644 37.2373L9.12917 43.0802L14.0025 44.8637C14.118 44.9039 14.1934 44.9743 14.2436 45.0747C14.2939 45.1752 14.2888 45.2857 14.2436 45.4113L13.9271 46.2755L13.9221 46.2805Z" fill="white"/>
<path d="M22.066 30.1183C21.9907 30.2137 21.9002 30.269 21.7897 30.279C21.6792 30.2941 21.5787 30.2589 21.4832 30.1886L18.1322 27.5409L9.64161 26.3854C9.60644 26.3703 9.57127 26.3603 9.5361 26.3452C9.50093 26.3301 9.46576 26.31 9.42557 26.2799C9.35021 26.2196 9.305 26.1392 9.29495 26.0387C9.2849 25.9383 9.305 25.8478 9.36528 25.7725L9.94807 25.0339C10.0134 24.9485 10.0938 24.8882 10.1892 24.8581C10.2847 24.828 10.3801 24.8229 10.4806 24.8581L17.2631 25.7222L14.8515 19.3216C14.8113 19.2161 14.7963 19.1156 14.8013 19.0202C14.8063 18.9247 14.8415 18.8343 14.9118 18.7489L15.4846 18.0254C15.5499 17.94 15.6353 17.8898 15.7358 17.8797C15.8362 17.8697 15.9267 17.8898 16.002 17.9501C16.0422 17.9802 16.0673 18.0104 16.0925 18.0405C16.1126 18.0706 16.1327 18.1108 16.1427 18.151L19.2425 26.1292L22.5936 28.7768C22.689 28.8522 22.7443 28.9426 22.7543 29.0532C22.7694 29.1637 22.7342 29.2692 22.6488 29.3747L22.066 30.1132V30.1183Z" fill="white"/>
<path d="M24.8592 19.0654C24.7637 19.1407 24.6633 19.1659 24.5578 19.1458C24.4523 19.1257 24.3618 19.0704 24.2915 18.9749L23.8745 18.4273C23.8042 18.3319 23.769 18.2314 23.779 18.1259C23.7891 18.0204 23.8393 17.9299 23.9398 17.8546L28.2705 14.5588C28.366 14.4835 28.4715 14.4583 28.577 14.4734C28.6875 14.4885 28.7779 14.5437 28.8533 14.6392L29.2703 15.1868C29.3457 15.2823 29.3708 15.3878 29.3557 15.4983C29.3406 15.6088 29.2854 15.6993 29.1899 15.7746L24.8592 19.0704V19.0654Z" fill="white"/>
</svg>
