<svg width="116" height="115" viewBox="0 0 116 115" fill="none" xmlns="http://www.w3.org/2000/svg">
<path d="M33.5943 13.1775C33.4837 13.2278 33.3833 13.2378 33.2828 13.1976C33.1823 13.1574 33.1069 13.0871 33.0567 12.9766L32.7603 12.3586C32.71 12.2481 32.6949 12.1476 32.7301 12.0421C32.7602 11.9416 32.8306 11.8612 32.9411 11.811L37.8446 9.44468C37.9501 9.39444 38.0606 9.38439 38.1661 9.41956C38.2716 9.45473 38.347 9.53009 38.4022 9.6356L38.7037 10.2536C38.7539 10.3641 38.764 10.4696 38.7288 10.5751C38.6936 10.6806 38.6183 10.756 38.5128 10.8112L33.6093 13.1775H33.5943Z" fill="white"/>
<path d="M46.9127 13.7654C46.7821 13.7855 46.6766 13.7654 46.5912 13.7C46.5057 13.6347 46.4555 13.5443 46.4354 13.4237L44.5413 1.76798C44.5212 1.63735 44.5413 1.52682 44.5966 1.43639C44.6518 1.34596 44.7473 1.29069 44.883 1.2706L49.4197 0.532066C50.2989 0.386369 51.0876 0.406465 51.786 0.58733C52.4793 0.768195 53.0521 1.10983 53.4992 1.61726C53.9463 2.12468 54.2427 2.80293 54.3784 3.64696C54.514 4.491 54.4538 5.22451 54.1875 5.84246C53.9212 6.46042 53.4891 6.96282 52.8862 7.3547C52.2833 7.74657 51.5448 8.01284 50.6606 8.15352L47.5005 8.66597L48.224 13.1273C48.2441 13.2479 48.224 13.3534 48.1536 13.4388C48.0883 13.5292 47.9928 13.5845 47.8622 13.6046L46.9177 13.7603L46.9127 13.7654ZM47.2342 7.17383L50.324 6.67143C51.2032 6.53076 51.8312 6.22429 52.208 5.76208C52.5848 5.29987 52.7104 4.69196 52.5898 3.94338C52.4692 3.20485 52.1628 2.66728 51.6704 2.33569C51.1781 1.99908 50.4747 1.90865 49.5704 2.05435L46.4806 2.55675L47.2292 7.17886L47.2342 7.17383Z" fill="white"/>
<path d="M61.0906 12.5144C60.9599 12.4943 60.8644 12.439 60.8042 12.3486C60.7439 12.2582 60.7238 12.1577 60.7439 12.0371L62.5978 0.371313C62.6179 0.240689 62.6731 0.140208 62.7535 0.0748956C62.8389 0.00958325 62.9444 -0.0155369 63.075 0.00958325L67.4309 0.702899C68.7773 0.913908 69.7921 1.40124 70.4804 2.15484C71.1637 2.90845 71.4099 3.90823 71.214 5.14916C71.0683 6.06856 70.7216 6.77695 70.1689 7.27935C69.6163 7.78678 68.933 8.08822 68.1091 8.1887L70.1036 13.3785C70.1288 13.4539 70.1338 13.5242 70.1237 13.5845C70.1087 13.68 70.0584 13.7553 69.968 13.8156C69.8775 13.8759 69.7871 13.896 69.6917 13.8809L68.8325 13.7453C68.6316 13.7151 68.4909 13.6347 68.4105 13.5142C68.3302 13.3936 68.2648 13.273 68.2096 13.1524L66.3406 8.20377L63.2157 7.70639L62.4822 12.3134C62.4621 12.434 62.4068 12.5244 62.3214 12.5897C62.231 12.6551 62.1204 12.6752 61.9898 12.6551L61.0805 12.5094L61.0906 12.5144ZM63.4669 6.18914L66.416 6.65637C67.3103 6.79704 68.0036 6.71666 68.506 6.41019C69.0034 6.10373 69.3149 5.58123 69.4304 4.8427C69.546 4.11421 69.4153 3.5264 69.0436 3.07926C68.6668 2.6271 68.0287 2.33068 67.1244 2.19001L64.1753 1.72278L63.4669 6.18914Z" fill="white"/>
<path d="M78.7101 17.9002C77.7907 17.4178 77.0924 16.8451 76.6101 16.187C76.1278 15.5288 75.8816 14.7802 75.8765 13.9362C75.8715 13.0922 76.1077 12.1677 76.59 11.1529C76.8261 10.6806 77.0622 10.2234 77.2883 9.79137C77.5194 9.35931 77.7606 8.91217 78.0218 8.44996C78.5845 7.49037 79.2226 6.78198 79.936 6.31977C80.6494 5.85756 81.4231 5.64153 82.247 5.66162C83.076 5.68172 83.925 5.92287 84.7992 6.39011C85.6634 6.84729 86.3366 7.40998 86.8189 8.0832C87.3012 8.75642 87.5574 9.51505 87.5826 10.3691C87.6077 11.2232 87.3766 12.1476 86.8892 13.1424C86.6632 13.6247 86.4371 14.0769 86.206 14.5089C85.9799 14.941 85.7287 15.3831 85.4574 15.8453C84.8997 16.82 84.2717 17.5384 83.5684 18.0057C82.865 18.4729 82.1013 18.6889 81.2874 18.6588C80.4735 18.6286 79.6094 18.3724 78.7051 17.8951L78.7101 17.9002ZM79.4286 16.5437C80.2374 16.9707 81.0312 17.0762 81.81 16.8602C82.5837 16.6441 83.287 15.996 83.91 14.9209C84.1863 14.4537 84.4224 14.0317 84.6234 13.6498C84.8244 13.273 85.0354 12.841 85.2615 12.3637C85.6282 11.6151 85.809 10.9469 85.799 10.3591C85.789 9.77128 85.6383 9.2538 85.3318 8.82174C85.0304 8.38967 84.6134 8.03296 84.0758 7.75162C83.5432 7.47027 83.0107 7.32457 82.4832 7.31955C81.9556 7.31453 81.4432 7.47027 80.9509 7.79683C80.4585 8.1234 80.0013 8.64589 79.5792 9.36433C79.323 9.82654 79.0919 10.2486 78.891 10.6254C78.69 11.0022 78.469 11.4342 78.2278 11.9216C77.6902 13.0419 77.5495 13.9864 77.8158 14.7501C78.0771 15.5188 78.6147 16.1116 79.4235 16.5437H79.4286Z" fill="white"/>
<path d="M89.8683 26.2752C89.4413 25.8281 89.0996 25.3558 88.8333 24.8484C88.5671 24.341 88.4013 23.8285 88.3309 23.301C88.2606 22.7735 88.3158 22.256 88.4917 21.7385C88.6675 21.2211 88.979 20.7337 89.4362 20.2665C89.5166 20.1911 89.607 20.1509 89.7125 20.1509C89.818 20.1509 89.9135 20.1911 89.9989 20.2816L90.6721 20.9899C90.7626 21.0854 90.8078 21.1909 90.8078 21.3014C90.8078 21.412 90.7676 21.5175 90.6972 21.6179C90.3405 22.0249 90.1295 22.4419 90.0743 22.8639C90.019 23.2859 90.0743 23.6979 90.2451 24.0998C90.4159 24.5017 90.6671 24.8836 91.0087 25.2453C91.6417 25.9085 92.3401 26.2049 93.1088 26.1396C93.8775 26.0743 94.626 25.6924 95.3495 25.0041L99.9967 20.573L95.5655 15.9257C95.4801 15.8403 95.4399 15.7398 95.445 15.6293C95.445 15.5188 95.4902 15.4233 95.5806 15.3379L96.1182 14.8255C96.2036 14.7401 96.304 14.6999 96.4146 14.7049C96.5251 14.7049 96.6206 14.7501 96.706 14.8405L102.087 20.4825C102.177 20.578 102.222 20.6835 102.222 20.794C102.222 20.9045 102.172 21.005 102.077 21.0955L96.5804 26.3355C95.872 27.0087 95.1284 27.4609 94.3497 27.687C93.571 27.9131 92.7973 27.9181 92.0387 27.687C91.28 27.4609 90.5616 26.9886 89.8783 26.2752H89.8683Z" fill="white"/>
<path d="M96.6258 34.6402C96.5656 34.5196 96.5605 34.4141 96.5957 34.3136C96.6359 34.2131 96.7062 34.1378 96.8168 34.0875L107.443 28.9279C107.563 28.8676 107.674 28.8575 107.774 28.8877C107.875 28.9178 107.955 28.9932 108.015 29.1138L111.276 35.8359C111.336 35.9565 111.341 36.067 111.306 36.1625C111.266 36.2629 111.185 36.3383 111.07 36.3986L110.452 36.7C110.331 36.7603 110.226 36.7704 110.125 36.7352C110.03 36.7 109.95 36.6247 109.894 36.5041L107.206 30.9726L103.644 32.7009L106.156 37.8757C106.217 37.9962 106.222 38.1068 106.187 38.2022C106.146 38.3027 106.066 38.3781 105.95 38.4384L105.348 38.7297C105.237 38.785 105.132 38.7951 105.031 38.7649C104.931 38.7348 104.85 38.6594 104.79 38.5388L102.278 33.3641L98.5852 35.1577L101.333 40.8197C101.394 40.9403 101.404 41.0458 101.368 41.1463C101.333 41.2468 101.258 41.3221 101.137 41.3774L100.504 41.6839C100.394 41.7391 100.288 41.7492 100.188 41.719C100.087 41.6889 100.007 41.6135 99.9467 41.493L96.6208 34.6452L96.6258 34.6402Z" fill="white"/>
<path d="M102.037 51.2546C101.886 50.1543 101.961 49.2149 102.268 48.4361C102.574 47.6574 103.067 47.0344 103.745 46.5622C104.423 46.0899 105.242 45.7734 106.207 45.6026C106.694 45.5222 107.221 45.4468 107.779 45.3664C108.342 45.2911 108.879 45.2208 109.392 45.1605C110.366 45.065 111.241 45.1504 112.019 45.4167C112.798 45.688 113.441 46.1552 113.949 46.8234C114.456 47.4916 114.783 48.3708 114.933 49.4711C115.049 50.295 115.034 51.0336 114.893 51.6867C114.752 52.3398 114.516 52.8975 114.195 53.3597C113.868 53.8269 113.486 54.1987 113.044 54.475C112.602 54.7564 112.13 54.9422 111.632 55.0327C111.527 55.0578 111.431 55.0377 111.351 54.9724C111.271 54.9071 111.221 54.8166 111.205 54.7111L111.07 53.7264C111.055 53.6209 111.07 53.5204 111.12 53.435C111.17 53.3496 111.266 53.2793 111.416 53.219C112.321 52.8874 112.909 52.4202 113.175 51.8173C113.446 51.2144 113.522 50.501 113.411 49.6771C113.275 48.7074 112.899 47.984 112.281 47.4966C111.658 47.0093 110.748 46.8335 109.548 46.9591C108.563 47.0595 107.558 47.1952 106.538 47.3761C105.347 47.577 104.518 47.994 104.056 48.6321C103.594 49.2701 103.423 50.0689 103.559 51.0386C103.674 51.8625 103.941 52.5307 104.363 53.0381C104.785 53.5456 105.478 53.837 106.438 53.9123C106.598 53.9274 106.714 53.9676 106.784 54.0379C106.855 54.1083 106.895 54.1937 106.91 54.3042L107.046 55.2889C107.061 55.3944 107.041 55.4949 106.985 55.5803C106.93 55.6657 106.85 55.7109 106.739 55.7159C106.237 55.7612 105.729 55.7109 105.222 55.5602C104.714 55.4095 104.242 55.1583 103.8 54.7966C103.363 54.4348 102.986 53.9626 102.675 53.3748C102.363 52.7869 102.147 52.0786 102.037 51.2546Z" fill="white"/>
<path d="M102.042 64.5131C102.062 64.3925 102.117 64.3021 102.208 64.2418C102.298 64.1765 102.403 64.1564 102.519 64.1765L112.999 65.9952L113.592 62.5738C113.612 62.4532 113.667 62.3628 113.758 62.3025C113.848 62.2372 113.954 62.2171 114.074 62.2372L114.823 62.3678C114.953 62.3929 115.049 62.4482 115.114 62.5386C115.18 62.6291 115.2 62.7346 115.18 62.8501L113.687 71.4412C113.667 71.5718 113.607 71.6673 113.517 71.7326C113.426 71.7979 113.316 71.818 113.185 71.7929L112.436 71.6623C112.316 71.6422 112.225 71.5869 112.165 71.4965C112.105 71.406 112.08 71.2955 112.105 71.1649L112.698 67.7586L102.218 65.9399C102.097 65.9198 102.007 65.8645 101.946 65.7741C101.881 65.6837 101.861 65.5732 101.886 65.4425L102.047 64.5181L102.042 64.5131Z" fill="white"/>
<path d="M104.8 75.6714C104.85 75.5609 104.925 75.4906 105.026 75.4554C105.126 75.4202 105.232 75.4303 105.342 75.4805L105.965 75.7669C106.076 75.8171 106.151 75.8925 106.191 75.9879C106.232 76.0884 106.227 76.1889 106.176 76.2994L103.916 81.2531C103.865 81.3637 103.79 81.439 103.684 81.4742C103.579 81.5144 103.473 81.5093 103.363 81.4591L102.74 81.1727C102.629 81.1225 102.554 81.0471 102.519 80.9416C102.484 80.8361 102.484 80.7306 102.534 80.6201L104.795 75.6664L104.8 75.6714Z" fill="white"/>
<path d="M89.2905 89.5528C89.3859 89.4775 89.4864 89.4473 89.5969 89.4624C89.7074 89.4775 89.7978 89.5327 89.8732 89.6282L97.0827 98.9829C97.1631 99.0884 97.1983 99.1939 97.1832 99.3045C97.1681 99.415 97.1129 99.5054 97.0174 99.5808L96.2989 100.133C96.1834 100.224 96.0779 100.259 95.9724 100.244C95.8669 100.229 95.7966 100.214 95.7463 100.189L88.2655 96.7322L89.6773 104.871C89.6874 104.921 89.6874 104.997 89.6773 105.097C89.6673 105.193 89.607 105.288 89.4914 105.379L88.7881 105.921C88.6825 106.001 88.577 106.037 88.4665 106.022C88.356 106.007 88.2605 105.946 88.1801 105.841L80.9706 96.486C80.8953 96.3905 80.8652 96.29 80.8802 96.1795C80.8953 96.069 80.9556 95.9735 81.0611 95.8931L81.7645 95.3505C81.8599 95.2752 81.9604 95.245 82.0709 95.2601C82.1815 95.2752 82.2719 95.3304 82.3472 95.4259L87.7782 102.475L86.5724 95.9585C86.5373 95.8329 86.5373 95.7173 86.5724 95.6017C86.6076 95.4912 86.6829 95.3907 86.7985 95.3003L87.2406 94.9587C87.3662 94.8632 87.4818 94.813 87.5873 94.818C87.6928 94.818 87.8083 94.8481 87.9289 94.9084L93.9377 97.7219L88.5067 90.6732C88.4313 90.5777 88.4012 90.4772 88.4163 90.3667C88.4313 90.2562 88.4866 90.1658 88.582 90.0904L89.2854 89.5478L89.2905 89.5528Z" fill="white"/>
<path d="M76.3786 98.37C76.4691 98.3398 76.5595 98.3499 76.6499 98.4001C76.7404 98.4453 76.8007 98.5157 76.8308 98.6111C76.8509 98.6664 76.8609 98.7317 76.871 98.8071L76.0872 111.317C76.0772 111.448 76.0421 111.558 75.9818 111.654C75.9215 111.749 75.8109 111.819 75.6502 111.87L74.4746 112.236C74.3138 112.287 74.1831 112.292 74.0776 112.246C73.9772 112.201 73.8817 112.131 73.8013 112.03L66.0392 102.198C65.994 102.138 65.9638 102.078 65.9437 102.017C65.9136 101.927 65.9236 101.837 65.9739 101.746C66.0241 101.656 66.0895 101.595 66.1849 101.565L67.0641 101.289C67.1998 101.244 67.3153 101.249 67.4007 101.299C67.4861 101.349 67.5464 101.399 67.5916 101.45L69.3098 103.605L74.9719 101.832L75.1528 99.0834C75.1478 99.0231 75.1679 98.9477 75.2131 98.8573C75.2583 98.7669 75.3537 98.7016 75.4894 98.6564L76.3686 98.38L76.3786 98.37ZM74.9418 103.464L70.2794 104.926L74.5298 110.322L74.9418 103.464Z" fill="white"/>
<path d="M60.8646 102.108C60.9953 102.108 61.0958 102.153 61.1661 102.234C61.2365 102.314 61.2716 102.414 61.2666 102.535L60.9199 114.341C60.9199 114.472 60.8747 114.578 60.8043 114.653C60.729 114.728 60.6235 114.763 60.4929 114.763L59.6589 114.738C59.5132 114.738 59.4077 114.698 59.3374 114.628C59.267 114.557 59.2268 114.507 59.2168 114.472L53.4844 105.077L53.2181 114.115C53.2181 114.246 53.1729 114.351 53.1025 114.427C53.0322 114.502 52.9267 114.537 52.791 114.537L51.9219 114.512C51.7913 114.512 51.6858 114.467 51.6104 114.387C51.5351 114.306 51.4998 114.201 51.5049 114.065L51.8516 102.279C51.8516 102.158 51.8968 102.058 51.9772 101.977C52.0575 101.897 52.158 101.857 52.2786 101.862L53.1477 101.887C53.2784 101.887 53.3789 101.927 53.4442 102.002C53.5095 102.078 53.5547 102.128 53.5748 102.148L59.2921 111.453L59.5534 102.485C59.5534 102.364 59.5986 102.264 59.679 102.188C59.7594 102.113 59.8649 102.078 60.0005 102.083L60.8697 102.108H60.8646Z" fill="white"/>
<path d="M46.9881 100.988C47.0785 101.023 47.1438 101.088 47.184 101.178C47.2242 101.269 47.2292 101.364 47.1941 101.455C47.174 101.51 47.1438 101.57 47.1086 101.636L38.7537 110.975C38.6683 111.071 38.5678 111.136 38.4623 111.176C38.3568 111.211 38.2262 111.201 38.0704 111.141L36.92 110.704C36.7642 110.644 36.6587 110.563 36.6034 110.468C36.5532 110.372 36.523 110.257 36.518 110.126L36.5029 97.6014C36.5029 97.526 36.518 97.4607 36.5381 97.4004C36.5733 97.31 36.6386 97.2447 36.729 97.2045C36.8195 97.1643 36.9149 97.1592 37.0053 97.1944L37.8695 97.521C38.0052 97.5712 38.0905 97.6416 38.1257 97.737C38.1608 97.8274 38.181 97.9078 38.181 97.9731L38.196 100.726L43.7426 102.836L45.5864 100.792C45.6216 100.741 45.6819 100.691 45.7773 100.651C45.8728 100.611 45.9833 100.616 46.1189 100.666L46.978 100.993L46.9881 100.988ZM42.7076 104.097L38.1458 102.359V109.227L42.7076 104.097Z" fill="white"/>
<path d="M29.5499 91.6278C30.3789 92.311 30.9516 93.0446 31.2681 93.8233C31.5846 94.602 31.665 95.3958 31.5093 96.2047C31.3535 97.0135 30.9818 97.8073 30.394 98.5911C30.0674 99.0081 29.7106 99.4452 29.3338 99.9074C28.952 100.37 28.5853 100.802 28.2336 101.214C27.5755 101.937 26.8671 102.45 26.1084 102.751C25.3498 103.052 24.556 103.118 23.7321 102.947C22.9082 102.771 22.0842 102.349 21.2653 101.671C20.6122 101.133 20.1248 100.571 19.7932 99.9878C19.4616 99.4 19.2607 98.8373 19.1803 98.2997C19.1049 97.7571 19.115 97.2698 19.2155 96.8377C19.316 96.4056 19.4566 96.069 19.6375 95.8279C19.6978 95.7374 19.7782 95.6872 19.8736 95.6822C19.9741 95.6771 20.0646 95.7123 20.16 95.7877L20.9839 96.4659C21.0743 96.5413 21.1296 96.6166 21.1397 96.687C21.1497 96.7573 21.1397 96.8578 21.0945 96.9784C20.9789 97.2899 20.9186 97.6415 20.9186 98.0284C20.9186 98.4203 21.0141 98.8222 21.21 99.2392C21.406 99.6562 21.7476 100.068 22.2399 100.475C22.9835 101.088 23.7471 101.384 24.5259 101.354C25.3046 101.324 26.0933 100.867 26.8922 99.9777C27.6056 99.1739 28.2889 98.3449 28.942 97.4958C29.6755 96.5362 29.9769 95.6671 29.8564 94.8833C29.7358 94.0996 29.3088 93.4113 28.5702 92.8034C28.0779 92.3965 27.5604 92.1252 27.0228 91.9945C26.4852 91.8639 25.9477 91.8941 25.4101 92.085C24.8776 92.2759 24.3651 92.6677 23.8828 93.2505L23.4005 93.8383L25.4955 95.5666C25.586 95.642 25.6412 95.7374 25.6512 95.848C25.6613 95.9585 25.6261 96.064 25.5407 96.1645L25.174 96.6116C25.0886 96.7121 24.9931 96.7724 24.8826 96.7824C24.772 96.7925 24.6716 96.7623 24.5761 96.6819L21.426 94.0795C21.3255 93.9941 21.2703 93.8986 21.2653 93.7931C21.2603 93.6876 21.3004 93.5821 21.3808 93.4816L22.4861 92.1402C23.1141 91.3766 23.8225 90.844 24.6012 90.5325C25.38 90.221 26.1989 90.1557 27.0479 90.3366C27.902 90.5175 28.736 90.9445 29.5549 91.6177L29.5499 91.6278Z" fill="white"/>
<path d="M21.9282 84.0716C21.9985 84.1822 22.0186 84.2927 21.9935 84.3932C21.9684 84.4937 21.9031 84.5791 21.7976 84.6444L11.8098 90.9495C11.6993 91.0199 11.5888 91.045 11.4833 91.0249C11.3778 91.0048 11.2923 90.9395 11.222 90.829L7.2329 84.5138C7.16257 84.4032 7.14247 84.2927 7.16759 84.1922C7.19773 84.0867 7.26307 84.0013 7.37862 83.931L7.96142 83.5642C8.07195 83.4939 8.17746 83.4688 8.27794 83.4939C8.37842 83.514 8.46383 83.5843 8.53417 83.6948L11.8148 88.8947L15.1659 86.7796L12.0962 81.9163C12.0259 81.8058 12.0058 81.6953 12.0309 81.5948C12.061 81.4893 12.1264 81.4039 12.2419 81.3336L12.8096 80.9769C12.9101 80.9115 13.0156 80.8914 13.1211 80.9115C13.2266 80.9316 13.312 80.9969 13.3823 81.1075L16.452 85.9707L19.9236 83.7803L16.5626 78.4598C16.4922 78.3493 16.4671 78.2438 16.4922 78.1433C16.5173 78.0428 16.5827 77.9574 16.6932 77.8871L17.291 77.5103C17.3915 77.445 17.497 77.4249 17.6025 77.445C17.708 77.4651 17.7934 77.5304 17.8638 77.6409L21.9282 84.0817V84.0716Z" fill="white"/>
<path d="M15.417 72.1948C15.4421 72.3104 15.4271 72.4159 15.3668 72.5113C15.3065 72.6068 15.2211 72.6671 15.1005 72.6922L3.57541 75.2796C3.44478 75.3097 3.33423 75.2946 3.23878 75.2344C3.14332 75.1741 3.08304 75.0887 3.05792 74.9681L2.86198 74.0839C2.83183 73.9432 2.84185 73.8276 2.89712 73.7422C2.95238 73.6568 3.00264 73.5965 3.04283 73.5614L9.33796 68.2359L1.36482 66.0806C1.31458 66.0655 1.24423 66.0354 1.15882 65.9901C1.07341 65.9399 1.01314 65.8444 0.982994 65.7038L0.787049 64.8396C0.756905 64.709 0.77196 64.5985 0.832248 64.503C0.892537 64.4076 0.988023 64.3473 1.11362 64.3171L12.6387 61.7298C12.7543 61.7046 12.8648 61.7197 12.9552 61.78C13.0507 61.8403 13.111 61.9358 13.1411 62.0614L13.3371 62.9255C13.3622 63.041 13.3471 63.1465 13.2868 63.242C13.2265 63.3375 13.1411 63.3977 13.0205 63.4229L4.33901 65.3722L10.7547 67.0251C10.8803 67.0452 10.9908 67.0954 11.0762 67.1758C11.1617 67.2562 11.2219 67.3667 11.2521 67.5074L11.3777 68.055C11.4128 68.2057 11.4079 68.3313 11.3576 68.4318C11.3124 68.5273 11.237 68.6177 11.1315 68.7031L6.04719 72.9585L14.7287 71.0091C14.8443 70.984 14.9498 70.9991 15.0452 71.0594C15.1407 71.1197 15.201 71.2051 15.2261 71.3257L15.422 72.1898L15.417 72.1948Z" fill="white"/>
<path d="M13.0911 55.4699C13.076 55.6005 13.0257 55.701 12.9403 55.7613C12.8549 55.8216 12.7494 55.8467 12.6288 55.8366L0.897755 54.455C0.76713 54.44 0.666662 54.3897 0.596325 54.3093C0.525989 54.2289 0.500852 54.1234 0.515924 53.9878L1.3901 46.5673C1.40517 46.4367 1.45544 46.3362 1.54085 46.2759C1.62625 46.2156 1.73679 46.1905 1.86742 46.2056L2.55068 46.286C2.6813 46.301 2.78176 46.3513 2.84205 46.4317C2.90736 46.512 2.92747 46.6175 2.91239 46.7482L2.19399 52.8574L6.12778 53.3196L6.80099 47.6073C6.81606 47.4766 6.86632 47.3762 6.95173 47.3159C7.03714 47.2556 7.14768 47.2305 7.27831 47.2455L7.94145 47.3259C8.06203 47.341 8.15751 47.3862 8.22283 47.4666C8.29316 47.547 8.31824 47.6525 8.30317 47.7831L7.62996 53.4954L11.7095 53.9777L12.443 47.7278C12.458 47.5972 12.5083 47.4967 12.5887 47.4365C12.6691 47.3762 12.7746 47.351 12.9052 47.3661L13.6035 47.4515C13.7241 47.4666 13.8195 47.5118 13.8849 47.5922C13.9552 47.6726 13.9803 47.7781 13.9653 47.9137L13.076 55.4749L13.0911 55.4699Z" fill="white"/>
<path d="M15.6082 42.126C15.5529 42.2466 15.4726 42.3219 15.3721 42.3521C15.2716 42.3822 15.1661 42.3722 15.0556 42.3219L4.37449 37.2829C4.25391 37.2276 4.17354 37.1472 4.13335 37.0517C4.09315 36.9513 4.10317 36.8458 4.15843 36.7252L4.51518 35.9716C4.57547 35.841 4.65583 35.7555 4.74626 35.7204C4.8367 35.6852 4.90201 35.6651 4.93718 35.6701L15.8393 34.173L7.66022 30.3145C7.53965 30.2593 7.45921 30.1789 7.41902 30.0834C7.37883 29.9829 7.3889 29.8774 7.44416 29.7569L7.81594 28.9731C7.8712 28.8525 7.95158 28.7772 8.05708 28.737C8.16259 28.7018 8.27314 28.7068 8.39371 28.7671L19.0597 33.7962C19.1702 33.8464 19.2456 33.9268 19.2858 34.0323C19.326 34.1378 19.326 34.2483 19.2707 34.3538L18.899 35.1376C18.8437 35.2582 18.7683 35.3335 18.6729 35.3637C18.5774 35.3938 18.5171 35.4139 18.4819 35.424L7.66519 36.9412L15.779 40.7695C15.8895 40.8198 15.9599 40.9001 16.0001 41.0006C16.0353 41.1061 16.0302 41.2167 15.9699 41.3372L15.5982 42.121L15.6082 42.126Z" fill="white"/>
<path d="M25.0584 26.9434C24.973 27.0288 24.8775 27.079 24.767 27.079C24.6565 27.079 24.556 27.0439 24.4706 26.9585L16.7386 19.6585L14.3522 22.1856C14.2668 22.271 14.1713 22.3162 14.0608 22.3213C13.9503 22.3213 13.8498 22.2861 13.7643 22.2007L13.2117 21.6782C13.1163 21.5878 13.0661 21.4873 13.061 21.3768C13.061 21.2662 13.0962 21.1657 13.1816 21.0803L19.1652 14.74C19.2556 14.6446 19.3561 14.5943 19.4667 14.5893C19.5772 14.5893 19.6827 14.6295 19.7782 14.7199L20.3308 15.2424C20.4162 15.3278 20.4614 15.4233 20.4664 15.5338C20.4715 15.6443 20.4262 15.7498 20.3358 15.8453L17.9644 18.3573L25.6964 25.6572C25.7818 25.7426 25.8271 25.8381 25.8321 25.9486C25.8371 26.0592 25.7919 26.1647 25.7014 26.2601L25.0534 26.9434H25.0584Z" fill="white"/>
</svg>
