<svg width="132" height="132" viewBox="0 0 132 132" fill="none" xmlns="http://www.w3.org/2000/svg">
<path d="M57.2979 112.033L64.2024 112.784L62.8551 125.185L55.9506 124.434L56.0889 123.162L61.5514 123.756L61.9873 119.744L56.8386 119.184L56.975 117.928L62.1237 118.488L62.6222 113.899L57.1597 113.305L57.2979 112.033Z" fill="white"/>
<path d="M43.5741 107.255L45.0961 107.883L46.1146 114.249L51.3732 110.476L52.8006 111.066L46.4796 115.489L47.7731 122.485L46.2827 121.87L45.3022 116.083L40.5103 119.485L39.0908 118.899L44.9242 114.874L43.5741 107.255Z" fill="white"/>
<path d="M29.1153 112.217C27.8672 111.201 27.1556 110.214 26.9808 109.258C26.7979 108.302 27.0763 107.369 27.8159 106.46C28.1498 106.05 28.5359 105.715 28.9742 105.456C29.4045 105.198 29.8845 105.049 30.4142 105.011C30.9403 104.978 31.5145 105.078 32.1369 105.314C32.7513 105.55 33.4114 105.956 34.1171 106.53L35.2947 107.489L38.3913 103.684L39.516 104.6L31.6426 114.275L29.1153 112.217ZM30.0021 111.344L31.2988 112.4L34.5085 108.456L33.4565 107.599C32.8391 107.096 32.2714 106.744 31.7535 106.542C31.2312 106.337 30.7461 106.298 30.2983 106.424C29.8468 106.556 29.4201 106.868 29.0179 107.362C28.4938 108.007 28.3093 108.652 28.4646 109.3C28.6163 109.951 29.1288 110.633 30.0021 111.344Z" fill="white"/>
<path d="M25.4827 89.2773L29.3795 95.0262L19.0565 102.029L15.1597 96.2798L16.2188 95.5614L19.3018 100.11L22.6416 97.8441L19.7357 93.5571L20.7807 92.8483L23.6866 97.1352L27.5066 94.544L24.4236 89.9957L25.4827 89.2773Z" fill="white"/>
<path d="M9.87011 84.2026C9.56353 83.2257 9.43271 82.3814 9.47764 81.6698C9.51544 80.9544 9.73186 80.3618 10.1269 79.8919C10.522 79.422 11.1021 79.0669 11.8672 78.8266C12.4967 78.6289 13.0589 78.5776 13.5537 78.6726C14.0431 78.7693 14.476 78.9612 14.8523 79.2485C15.2286 79.5357 15.5528 79.8661 15.8251 80.2397L20.1487 75.2956L20.6545 76.9075L16.6037 81.3813L17.3803 83.8561L22.3458 82.2966L22.7801 83.6805L10.8793 87.4182L9.87011 84.2026ZM11.0923 83.9082L11.6415 85.6584L16.2082 84.2242L15.6154 82.3356C15.3106 81.3641 14.8885 80.7127 14.3493 80.3812C13.8084 80.0443 13.1526 79.9969 12.382 80.2389C11.5734 80.4929 11.0775 80.9169 10.8944 81.511C10.7095 82.0997 10.7755 82.8987 11.0923 83.9082Z" fill="white"/>
<path d="M19.6844 69.9363L7.23475 70.7162L7.14413 69.2685L19.5937 68.4887L19.6844 69.9363Z" fill="white"/>
<path d="M20.6121 56.3483L8.92257 58.0172L8.90763 58.0838C9.14016 58.1127 9.42201 58.1556 9.75319 58.2124C10.0844 58.2693 10.4455 58.3358 10.8364 58.4119C11.2219 58.4868 11.6144 58.5691 12.014 58.6588L19.7062 60.386L19.411 61.7014L7.24007 58.9686L7.71079 56.8706L18.6987 55.2891L18.7118 55.2308L9.46665 49.045L9.93364 46.9637L22.1046 49.6965L21.7908 51.0952L13.9987 49.3455C13.638 49.2645 13.2785 49.178 12.9202 49.0859C12.5564 48.9925 12.2154 48.9014 11.8973 48.8125C11.5736 48.7223 11.2942 48.6421 11.0593 48.5719L11.0444 48.6385L20.8718 55.1911L20.6121 56.3483Z" fill="white"/>
<path d="M28.4252 38.6887L24.7716 44.5952L14.1653 38.0296L17.8189 32.1231L18.9071 32.7967L16.0165 37.4697L19.448 39.5938L22.1725 35.1894L23.2462 35.854L20.5217 40.2585L24.4464 42.688L27.337 38.0151L28.4252 38.6887Z" fill="white"/>
<path d="M39.7492 27.6206L38.4704 28.6982L26.5219 25.065L26.4697 25.109C26.6622 25.3112 26.8826 25.5421 27.1308 25.8015C27.3754 26.0566 27.632 26.335 27.9008 26.6366C28.1703 26.9302 28.4388 27.2358 28.7063 27.5534L33.3224 33.0359L32.2915 33.9045L24.2572 24.3624L25.5296 23.2904L37.4365 26.9139L37.4822 26.8754C37.3453 26.7304 37.1531 26.5242 36.9055 26.2567C36.6544 25.9849 36.3867 25.6935 36.1025 25.3825C35.8191 25.0635 35.5601 24.7648 35.3256 24.4863L30.6711 18.9581L31.715 18.0785L39.7492 27.6206Z" fill="white"/>
<path d="M49.124 22.9655L47.7709 23.5114L43.5855 13.1291L39.9457 14.5975L39.4672 13.4105L48.0839 9.93424L48.5625 11.1212L44.9385 12.5832L49.124 22.9655Z" fill="white"/>
<path d="M65.8432 19.6197L63.9516 15.818L58.9728 16.2759L57.8142 20.358L56.3528 20.4924L60.0666 7.57288L61.3666 7.45334L67.3386 19.4822L65.8432 19.6197ZM63.4004 14.5749L61.5876 10.7917C61.5443 10.6929 61.4723 10.531 61.3716 10.3061C61.2767 10.0806 61.1781 9.8469 61.0759 9.60497C60.9737 9.36303 60.8901 9.16794 60.825 9.0197C60.7897 9.25714 60.7488 9.4951 60.7021 9.73359C60.6607 9.96589 60.6179 10.184 60.5738 10.388C60.5292 10.5863 60.4904 10.7555 60.4576 10.8956L59.3392 14.9484L63.4004 14.5749Z" fill="white"/>
<path d="M72.015 20.1104L74.3904 7.8647L75.8143 8.1411L73.6859 19.1137L79.1218 20.1689L78.8748 21.4421L72.015 20.1104Z" fill="white"/>
<path d="M94.6289 22.2078C94.8537 21.8791 95.0924 21.7013 95.3452 21.6744C95.6011 21.6427 95.8441 21.7056 96.0741 21.863C96.3135 22.0269 96.4671 22.2354 96.5351 22.4887C96.6063 22.7373 96.5295 23.026 96.3047 23.3546C96.0832 23.6786 95.8389 23.8595 95.5718 23.8973C95.308 23.9304 95.0564 23.865 94.817 23.7012C94.587 23.5438 94.4419 23.3377 94.3819 23.0829C94.325 22.8234 94.4074 22.5317 94.6289 22.2078Z" fill="white"/>
<path d="M114.257 44.254C113.044 44.9634 111.901 45.3355 110.828 45.3703C109.76 45.4022 108.774 45.119 107.87 44.5205C106.975 43.9241 106.178 43.0292 105.481 41.8359L103.772 38.9116L114.539 32.6132L116.437 35.8616C117.078 36.9567 117.427 38.0173 117.487 39.0434C117.551 40.0667 117.316 41.0217 116.78 41.9084C116.252 42.7972 115.411 43.5791 114.257 44.254ZM113.442 42.9614C114.409 42.3956 115.113 41.7668 115.552 41.0751C115.993 40.3883 116.184 39.644 116.124 38.8423C116.072 38.0426 115.783 37.1934 115.258 36.2948L114.203 34.4901L105.579 39.5348L106.47 41.0596C107.337 42.5426 108.353 43.4409 109.518 43.7545C110.686 44.073 111.994 43.8086 113.442 42.9614Z" fill="white"/>
<path d="M112.074 59.6672L110.554 52.8905L122.725 50.1576L124.245 56.9343L122.997 57.2147L121.794 51.8533L117.856 52.7375L118.99 57.7908L117.758 58.0675L116.624 53.0141L112.12 54.0254L113.323 59.3868L112.074 59.6672Z" fill="white"/>
<path d="M115.415 73.126C114.677 73.086 114.056 72.8672 113.554 72.4696C113.057 72.0781 112.69 71.5454 112.453 70.8718C112.216 70.1981 112.122 69.4155 112.17 68.5237C112.196 68.0523 112.243 67.6077 112.311 67.1899C112.379 66.772 112.465 66.3893 112.57 66.0418C112.674 65.6943 112.796 65.3905 112.935 65.1303L114.324 65.2057C114.125 65.6221 113.932 66.1329 113.745 66.7379C113.564 67.3433 113.456 67.9811 113.419 68.6514C113.385 69.2761 113.439 69.8088 113.58 70.2494C113.727 70.6903 113.951 71.03 114.251 71.2685C114.557 71.5129 114.932 71.6472 115.375 71.6712C115.801 71.6944 116.161 71.6199 116.455 71.4479C116.755 71.2762 117.033 70.978 117.289 70.5533C117.551 70.1346 117.836 69.5576 118.144 68.8223C118.36 68.3043 118.59 67.8497 118.833 67.4584C119.082 67.0675 119.356 66.7434 119.655 66.4862C119.953 66.229 120.294 66.0396 120.677 65.9179C121.059 65.8019 121.491 65.7571 121.974 65.7833C122.639 65.8193 123.198 66.0177 123.651 66.3784C124.11 66.7451 124.448 67.2334 124.665 67.8433C124.888 68.4593 124.978 69.1563 124.936 69.9344C124.9 70.5989 124.805 71.209 124.649 71.7645C124.493 72.3257 124.298 72.8363 124.062 73.2963L122.842 72.7772C123.054 72.3387 123.236 71.8701 123.389 71.3714C123.541 70.8783 123.631 70.3649 123.66 69.831C123.689 69.2971 123.634 68.8412 123.495 68.4634C123.361 68.0916 123.158 67.8014 122.884 67.5929C122.611 67.3843 122.278 67.2694 121.886 67.2482C121.449 67.2244 121.081 67.2956 120.781 67.4616C120.481 67.6333 120.207 67.9146 119.958 68.3056C119.714 68.7025 119.452 69.2294 119.171 69.8864C118.865 70.6046 118.547 71.2111 118.218 71.7059C117.895 72.2011 117.51 72.5704 117.064 72.8139C116.624 73.0578 116.074 73.1618 115.415 73.126Z" fill="white"/>
<path d="M110.814 78.3008L122.805 81.7397L122.405 83.1341L110.414 79.6952L110.814 78.3008Z" fill="white"/>
<path d="M111.045 94.0838L108.813 97.8292L103.617 94.731C103.762 94.0554 103.965 93.3919 104.227 92.7404C104.487 92.0938 104.835 91.404 105.272 90.6711C105.936 89.557 106.718 88.7489 107.62 88.2469C108.519 87.7497 109.497 87.5479 110.553 87.6415C111.615 87.7381 112.712 88.1243 113.846 88.8001C114.955 89.4614 115.792 90.2557 116.359 91.1829C116.922 92.115 117.185 93.1295 117.148 94.2262C117.112 95.3307 116.748 96.4645 116.055 97.6274C115.699 98.2236 115.307 98.7544 114.877 99.2201C114.449 99.6935 113.999 100.1 113.525 100.44L112.724 99.3168C113.131 99.023 113.538 98.6731 113.945 98.267C114.35 97.8659 114.704 97.4112 115.006 96.903C115.528 96.0284 115.794 95.1705 115.805 94.3295C115.813 93.4933 115.586 92.7125 115.125 91.9869C114.66 91.2662 113.976 90.6364 113.073 90.0975C112.179 89.5644 111.313 89.2438 110.477 89.1359C109.646 89.031 108.865 89.1746 108.135 89.5669C107.404 89.9592 106.752 90.6367 106.179 91.5993C105.89 92.0831 105.67 92.5144 105.517 92.8934C105.369 93.2753 105.249 93.6313 105.159 93.9613L108.442 95.919L109.931 93.4196L111.045 94.0838Z" fill="white"/>
<path d="M91.8682 105.105L93.1561 104.038L105.074 107.772L105.126 107.728C104.935 107.525 104.717 107.292 104.471 107.03C104.229 106.773 103.974 106.493 103.708 106.189C103.441 105.893 103.175 105.585 102.91 105.265L98.3404 99.7441L99.3786 98.8842L107.332 108.494L106.051 109.555L94.1749 105.831L94.1289 105.869C94.2646 106.016 94.4551 106.223 94.7004 106.493C94.9493 106.767 95.2145 107.06 95.496 107.374C95.7768 107.695 96.0332 107.996 96.2654 108.277L100.873 113.844L99.822 114.715L91.8682 105.105Z" fill="white"/>
<path d="M79.7093 116.979C79.8045 117.366 79.778 117.662 79.6296 117.869C79.4827 118.081 79.2739 118.22 79.0033 118.287C78.7216 118.356 78.4637 118.332 78.2296 118.214C77.9969 118.101 77.8329 117.852 77.7376 117.465C77.6438 117.084 77.6717 116.781 77.8215 116.557C77.9726 116.338 78.189 116.194 78.4707 116.125C78.7413 116.058 78.9916 116.087 79.2215 116.212C79.4528 116.342 79.6154 116.598 79.7093 116.979Z" fill="white"/>
<g filter="url(#filter0_f_493_784)">
<path d="M79.8767 72.9223V57.5638C79.8767 50.3249 79.8767 46.7054 77.9059 44.4553C76.1839 42.4895 73.5426 42.2412 68.6659 42.2104H50.7285C45.8517 42.2412 43.2104 42.4895 41.4885 44.4553C39.5176 46.7054 39.5176 50.3249 39.5176 57.5638V72.9223C39.5176 80.1639 39.5176 83.7833 41.4885 86.0334C43.4571 88.2808 46.6298 88.2808 52.9706 88.2808H66.4237C72.7646 88.2808 75.9372 88.2808 77.9059 86.0334C79.8767 83.7808 79.8767 80.1639 79.8767 72.9223Z" fill="url(#paint0_linear_493_784)"/>
</g>
<path d="M79.8767 72.9223V57.5638C79.8767 50.3249 79.8767 46.7054 77.9059 44.4553C76.1839 42.4895 73.5426 42.2412 68.6659 42.2104H50.7285C45.8517 42.2412 43.2104 42.4895 41.4885 44.4553C39.5176 46.7054 39.5176 50.3249 39.5176 57.5638V72.9223C39.5176 80.1639 39.5176 83.7833 41.4885 86.0334C43.4571 88.2808 46.6298 88.2808 52.9706 88.2808H66.4237C72.7646 88.2808 75.9372 88.2808 77.9059 86.0334C79.8767 83.7808 79.8767 80.1639 79.8767 72.9223Z" fill="url(#paint1_linear_493_784)"/>
<path d="M50.2419 37.7051C49.4382 38.5088 48.9867 39.5988 48.9867 40.7353V43.3054C48.9867 44.4419 49.4382 45.5319 50.2419 46.3356C51.0455 47.1392 52.1355 47.5907 53.2721 47.5907H66.1223C67.2588 47.5907 68.3488 47.1392 69.1525 46.3356C69.9561 45.5319 70.4076 44.4419 70.4076 43.3054V40.7353C70.4076 39.5988 69.9561 38.5088 69.1525 37.7051C68.3488 36.9014 67.2588 36.45 66.1223 36.45H53.2721C52.1355 36.45 51.0455 36.9014 50.2419 37.7051Z" fill="url(#paint2_linear_493_784)" stroke="url(#paint3_linear_493_784)" stroke-width="0.860581"/>
<path d="M74.2848 60.3085L73.9796 60.0052L74.2848 60.3085C74.7284 59.8622 74.9772 59.2574 74.9772 58.6274C74.9772 57.9973 74.7284 57.3925 74.2848 56.9462L73.9796 57.2495L74.2848 56.9462C73.8411 56.4998 73.2387 56.2485 72.61 56.2485H46.7855C46.1568 56.2485 45.5545 56.4998 45.1107 56.9462C44.6671 57.3925 44.4183 57.9973 44.4183 58.6274C44.4183 59.2574 44.6671 59.8622 45.1107 60.3085C45.5545 60.7549 46.1568 61.0062 46.7855 61.0062H72.61C73.2387 61.0062 73.8411 60.7549 74.2848 60.3085ZM47.6932 66.0393C47.2496 66.4856 47.0008 67.0904 47.0008 67.7205C47.0008 68.3506 47.2496 68.9553 47.6932 69.4017C48.1369 69.8481 48.7393 70.0993 49.3679 70.0993H70.0276C70.6562 70.0993 71.2586 69.8481 71.7023 69.4017C72.146 68.9553 72.3947 68.3506 72.3947 67.7205C72.3947 67.0904 72.146 66.4856 71.7023 66.0393C71.2586 65.5929 70.6562 65.3417 70.0276 65.3417H49.3679C48.7393 65.3417 48.1369 65.5929 47.6932 66.0393ZM50.2757 75.1325C49.832 75.5788 49.5833 76.1836 49.5833 76.8136C49.5833 77.4437 49.832 78.0485 50.2757 78.4948C50.7194 78.9412 51.3217 79.1924 51.9504 79.1924H67.4451C68.0738 79.1924 68.6761 78.9412 69.1199 78.4948C69.5635 78.0485 69.8123 77.4437 69.8123 76.8136C69.8123 76.1836 69.5635 75.5788 69.1199 75.1325C68.6761 74.6861 68.0738 74.4348 67.4451 74.4348H51.9504C51.3217 74.4348 50.7194 74.6861 50.2757 75.1325Z" fill="url(#paint4_linear_493_784)" stroke="url(#paint5_linear_493_784)" stroke-width="0.860581"/>
<g filter="url(#filter1_b_493_784)">
<path d="M88.1472 87.0779C91.2084 83.9329 93.0969 79.6381 93.0969 74.9016C93.0969 65.2573 85.2802 57.4406 75.6359 57.4406C65.9915 57.4406 58.1748 65.2573 58.1748 74.9016C58.1748 79.6381 60.0633 83.9329 63.1245 87.0779L61.3655 90.7597C60.6687 92.218 61.2855 93.9656 62.7438 94.6662C64.202 95.3629 65.9497 94.7461 66.6502 93.2879L67.9448 90.5808C70.2673 91.723 72.8754 92.3665 75.6359 92.3665C78.3963 92.3665 81.0044 91.723 83.3269 90.5808L84.6215 93.2879C85.3182 94.7461 87.0659 95.3629 88.5279 94.6662C89.9862 93.9694 90.603 92.2218 89.9062 90.7597L88.1472 87.0779Z" fill="url(#paint6_linear_493_784)"/>
<path d="M62.5574 95.054L62.5583 95.0544C64.2311 95.8537 66.235 95.1459 67.0381 93.4742L67.0384 93.4735L68.1475 91.1541C70.4274 92.2074 72.9623 92.7967 75.6359 92.7967C78.3094 92.7967 80.8443 92.2074 83.1242 91.1541L84.2332 93.4734C85.0327 95.1466 87.0373 95.8532 88.713 95.0546L88.7134 95.0544C90.3867 94.2549 91.0933 92.2503 90.2947 90.5746L90.2945 90.5742L88.6636 87.1606C91.677 83.9595 93.5272 79.6466 93.5272 74.9016C93.5272 65.0196 85.5178 57.0103 75.6359 57.0103C65.7539 57.0103 57.7445 65.0196 57.7445 74.9016C57.7445 79.6466 59.5947 83.9595 62.6081 87.1606L60.9772 90.5742C60.1779 92.247 60.8857 94.2509 62.5574 95.054Z" stroke="url(#paint7_linear_493_784)" stroke-width="0.860581"/>
</g>
<path d="M77.0636 64.309C77.0636 63.51 76.4158 62.8622 75.6168 62.8622C74.8177 62.8622 74.1699 63.51 74.1699 64.309V75.187C74.1699 75.986 74.8177 76.6338 75.6168 76.6338C76.4158 76.6338 77.0636 75.986 77.0636 75.187V64.309Z" fill="#EEF0FB"/>
<path d="M82.3403 76.6377C83.1393 76.6377 83.7871 75.9899 83.7871 75.1909C83.7871 74.3918 83.1393 73.744 82.3403 73.744H75.6201C74.821 73.744 74.1733 74.3918 74.1733 75.1909C74.1733 75.9899 74.821 76.6377 75.6201 76.6377H82.3403Z" fill="#EEF0FB"/>
<defs>
<filter id="filter0_f_493_784" x="22.306" y="24.9988" width="74.7826" height="80.4937" filterUnits="userSpaceOnUse" color-interpolation-filters="sRGB">
<feFlood flood-opacity="0" result="BackgroundImageFix"/>
<feBlend mode="normal" in="SourceGraphic" in2="BackgroundImageFix" result="shape"/>
<feGaussianBlur stdDeviation="8.60581" result="effect1_foregroundBlur_493_784"/>
</filter>
<filter id="filter1_b_493_784" x="41.824" y="41.0895" width="67.6235" height="70.2147" filterUnits="userSpaceOnUse" color-interpolation-filters="sRGB">
<feFlood flood-opacity="0" result="BackgroundImageFix"/>
<feGaussianBlur in="BackgroundImageFix" stdDeviation="7.74523"/>
<feComposite in2="SourceAlpha" operator="in" result="effect1_backgroundBlur_493_784"/>
<feBlend mode="normal" in="SourceGraphic" in2="effect1_backgroundBlur_493_784" result="shape"/>
</filter>
<linearGradient id="paint0_linear_493_784" x1="39.5208" y1="65.2406" x2="79.8772" y2="65.2406" gradientUnits="userSpaceOnUse">
<stop stop-color="#7C00FF"/>
<stop offset="1" stop-color="#2CF19A"/>
</linearGradient>
<linearGradient id="paint1_linear_493_784" x1="39.5208" y1="65.2406" x2="79.8772" y2="65.2406" gradientUnits="userSpaceOnUse">
<stop stop-color="#7C00FF"/>
<stop offset="1" stop-color="#2CF19A"/>
</linearGradient>
<linearGradient id="paint2_linear_493_784" x1="50.5777" y1="46.58" x2="57.8733" y2="31.989" gradientUnits="userSpaceOnUse">
<stop stop-color="white" stop-opacity="0.2"/>
<stop offset="1" stop-color="white" stop-opacity="0.49"/>
</linearGradient>
<linearGradient id="paint3_linear_493_784" x1="50.8683" y1="37.6888" x2="57.4778" y2="51.823" gradientUnits="userSpaceOnUse">
<stop stop-color="white"/>
<stop offset="1" stop-color="white" stop-opacity="0"/>
</linearGradient>
<linearGradient id="paint4_linear_493_784" x1="46.5253" y1="77.5154" x2="65.2858" y2="52.2858" gradientUnits="userSpaceOnUse">
<stop stop-color="white" stop-opacity="0.2"/>
<stop offset="1" stop-color="white" stop-opacity="0.49"/>
</linearGradient>
<linearGradient id="paint5_linear_493_784" x1="46.945" y1="58.4156" x2="64.2893" y2="83.3555" gradientUnits="userSpaceOnUse">
<stop stop-color="white"/>
<stop offset="1" stop-color="white" stop-opacity="0"/>
</linearGradient>
<linearGradient id="paint6_linear_493_784" x1="60.1464" y1="92.8351" x2="93.3381" y2="61.9352" gradientUnits="userSpaceOnUse">
<stop stop-color="white" stop-opacity="0.2"/>
<stop offset="1" stop-color="white" stop-opacity="0.49"/>
</linearGradient>
<linearGradient id="paint7_linear_493_784" x1="60.6399" y1="60.3908" x2="92.0666" y2="91.673" gradientUnits="userSpaceOnUse">
<stop stop-color="white"/>
<stop offset="1" stop-color="white" stop-opacity="0"/>
</linearGradient>
</defs>
</svg>
