<svg width="116" height="115" viewBox="0 0 116 115" fill="none" xmlns="http://www.w3.org/2000/svg">
<path d="M39.6118 16.8548C38.6572 17.2869 37.788 17.5029 37.0043 17.4979C36.2206 17.4979 35.5524 17.3371 34.9947 17.0256C34.437 16.7141 34.0301 16.3072 33.7739 15.7998C33.7337 15.7144 33.7337 15.6139 33.7739 15.5134C33.814 15.4079 33.8793 15.3376 33.9798 15.2923L34.8189 14.9105C34.9495 14.8502 35.065 14.8402 35.1605 14.8753C35.2559 14.9105 35.3363 14.9708 35.3966 15.0462C35.5825 15.2773 35.8387 15.4782 36.1653 15.644C36.4919 15.8098 36.8888 15.8852 37.356 15.8802C37.8232 15.8751 38.3658 15.7345 38.9787 15.4531C39.9233 15.0261 40.5412 14.5438 40.8376 14.0062C41.129 13.4686 41.1491 12.921 40.8979 12.3633C40.7221 11.9815 40.4659 11.7203 40.1242 11.5947C39.7826 11.464 39.3254 11.4188 38.7577 11.449C38.19 11.4791 37.4715 11.5595 36.6024 11.6901C35.6981 11.8207 34.9143 11.871 34.2662 11.8358C33.6181 11.8006 33.0705 11.6349 32.6233 11.3485C32.1812 11.0571 31.8195 10.5999 31.5331 9.97692C31.2669 9.38409 31.1865 8.7812 31.292 8.1733C31.3975 7.56036 31.6939 6.9826 32.1712 6.43498C32.6535 5.88736 33.3117 5.42013 34.1607 5.0383C34.844 4.73184 35.477 4.55097 36.0698 4.50073C36.6627 4.45049 37.2002 4.50073 37.6725 4.64643C38.1498 4.79212 38.5567 5.00313 38.8883 5.26941C39.2199 5.53568 39.4661 5.8321 39.6268 6.15364C39.662 6.229 39.667 6.31943 39.6469 6.41489C39.6268 6.51034 39.5515 6.5857 39.4309 6.64097L38.5567 7.03787C38.4814 7.07303 38.3909 7.08811 38.2854 7.07806C38.1849 7.07303 38.0845 7.01777 37.984 6.91729C37.7127 6.49527 37.2907 6.23402 36.7129 6.12349C36.1351 6.01296 35.4921 6.12349 34.7887 6.44001C34.0753 6.76154 33.5578 7.16347 33.2363 7.64075C32.9147 8.11803 32.8896 8.64555 33.1509 9.22834C33.3217 9.60012 33.5628 9.86639 33.8844 10.0171C34.2059 10.1678 34.633 10.2382 35.1655 10.2181C35.7031 10.203 36.3763 10.1327 37.1952 10.0121C38.1849 9.85635 39.0189 9.78601 39.7022 9.80108C40.3855 9.81615 40.9482 9.96687 41.4003 10.2432C41.8525 10.5245 42.2192 10.9767 42.5006 11.5997C42.8121 12.293 42.8975 12.9662 42.7568 13.6193C42.6161 14.2725 42.2745 14.8753 41.742 15.428C41.2044 15.9806 40.491 16.4579 39.6017 16.8649L39.6118 16.8548Z" fill="white"/>
<path d="M51.5942 13.1823C51.4736 13.1973 51.3681 13.1722 51.2827 13.1019C51.1923 13.0366 51.142 12.9411 51.1269 12.8205L49.7453 2.2751L46.3039 2.72726C46.1833 2.74233 46.0778 2.71721 45.9924 2.6519C45.907 2.58659 45.8517 2.49113 45.8367 2.37056L45.7362 1.61695C45.7211 1.48633 45.7462 1.3758 45.8115 1.28537C45.8768 1.19996 45.9723 1.14469 46.0929 1.12962L54.7342 0.00423902C54.8648 -0.0108331 54.9754 0.0142871 55.0658 0.0795995C55.1512 0.144912 55.2065 0.245392 55.2215 0.376017L55.322 1.12962C55.3371 1.2502 55.312 1.35068 55.2467 1.44111C55.1813 1.53154 55.0808 1.58178 54.9502 1.59686L51.5239 2.04399L52.9055 12.5894C52.9205 12.71 52.8954 12.8105 52.8251 12.9009C52.7598 12.9914 52.6593 13.0416 52.5287 13.0567L51.5942 13.1772V13.1823Z" fill="white"/>
<path d="M61.6474 12.72C61.5168 12.6999 61.4214 12.6397 61.3661 12.5542C61.3108 12.4688 61.2907 12.3583 61.3108 12.2428L63.3004 0.60208C63.3205 0.471456 63.3757 0.370975 63.4611 0.310687C63.5465 0.245374 63.652 0.225278 63.7827 0.245374L68.1335 0.98893C69.4749 1.22004 70.4847 1.71741 71.163 2.48107C71.8412 3.24472 72.0723 4.2445 71.8613 5.48041C71.7056 6.39478 71.3488 7.10317 70.7912 7.60055C70.2335 8.09793 69.5452 8.39435 68.7213 8.48478L70.6555 13.6947C70.6806 13.7701 70.6857 13.8404 70.6756 13.9007C70.6606 13.9961 70.6053 14.0715 70.5149 14.1318C70.4244 14.1921 70.334 14.2122 70.2385 14.1921L69.3845 14.0464C69.1835 14.0112 69.0428 13.9308 68.9675 13.8102C68.8921 13.6846 68.8268 13.5641 68.7715 13.4485L66.9629 8.47976L63.8429 7.94721L63.0592 12.5492C63.0391 12.6698 62.9838 12.7602 62.8934 12.8255C62.803 12.8909 62.6924 12.9109 62.5618 12.8858L61.6525 12.7301L61.6474 12.72ZM64.0992 6.42493L67.0432 6.92733C67.9325 7.07805 68.6309 7.00772 69.1383 6.70627C69.6457 6.40483 69.9572 5.88736 70.0828 5.15385C70.2084 4.43039 70.0828 3.83755 69.716 3.38539C69.3493 2.93323 68.7112 2.62676 67.8069 2.47102L64.8679 1.96862L64.1042 6.42493H64.0992Z" fill="white"/>
<path d="M74.2627 15.4682C74.1773 15.423 74.1221 15.3526 74.0919 15.2521C74.0618 15.1567 74.0718 15.0612 74.1171 14.9758C74.1472 14.9206 74.1824 14.8653 74.2276 14.81L83.6979 6.60076C83.7984 6.51535 83.8988 6.46511 84.0094 6.43999C84.1199 6.41487 84.2455 6.43999 84.3962 6.5254L85.4814 7.10317C85.6322 7.18355 85.7226 7.27398 85.7678 7.37949C85.808 7.48499 85.823 7.60054 85.8079 7.73117L84.2354 20.1556C84.2204 20.231 84.2003 20.2963 84.1751 20.3465C84.1299 20.4319 84.0596 20.4872 83.9591 20.5173C83.8637 20.5475 83.7682 20.5374 83.6878 20.4922L82.8739 20.0551C82.7483 19.9848 82.668 19.9044 82.6479 19.8089C82.6278 19.7135 82.6127 19.6331 82.6227 19.5678L82.9543 16.8347L77.7193 14.0413L75.6343 15.8399C75.5941 15.8852 75.5288 15.9254 75.4283 15.9555C75.3329 15.9856 75.2173 15.9656 75.0917 15.9002L74.2778 15.4631L74.2627 15.4682ZM78.905 12.921L83.2106 15.222L84.0797 8.40941L78.8999 12.921H78.905Z" fill="white"/>
<path d="M88.6112 24.9133C88.5258 24.8279 88.4806 24.7325 88.4756 24.622C88.4756 24.5114 88.5158 24.4109 88.5962 24.3255L95.9764 16.6689L93.4745 14.2574C93.3891 14.172 93.3438 14.0765 93.3438 13.966C93.3438 13.8555 93.384 13.755 93.4644 13.6696L93.992 13.122C94.0824 13.0265 94.1829 12.9763 94.2984 12.9763C94.414 12.9763 94.5094 13.0164 94.5948 13.0968L100.875 19.1458C100.97 19.2362 101.021 19.3417 101.021 19.4522C101.021 19.5628 100.975 19.6683 100.885 19.7637L100.357 20.3113C100.272 20.3967 100.177 20.442 100.066 20.447C99.9555 20.452 99.85 20.4068 99.7545 20.3113L97.2676 17.9149L89.8873 25.5715C89.8019 25.6569 89.7065 25.7021 89.5959 25.7071C89.4854 25.7071 89.3799 25.6619 89.2844 25.5715L88.6062 24.9184L88.6112 24.9133Z" fill="white"/>
<path d="M95.238 32.5348C95.1727 32.4192 95.1576 32.3087 95.1877 32.2082C95.2179 32.1078 95.2882 32.0274 95.3937 31.9671L105.688 26.1794C105.804 26.1141 105.914 26.094 106.02 26.1191C106.125 26.1442 106.205 26.2146 106.271 26.3301L109.928 32.8413C109.994 32.9568 110.009 33.0673 109.978 33.1678C109.943 33.2683 109.873 33.3537 109.757 33.419L109.16 33.7556C109.044 33.8209 108.939 33.841 108.838 33.8109C108.738 33.7858 108.657 33.7104 108.592 33.5949L105.577 28.2342L102.126 30.1735L104.944 35.1875C105.01 35.303 105.025 35.4136 104.995 35.514C104.959 35.6145 104.889 35.6999 104.774 35.7652L104.191 36.0918C104.085 36.1521 103.98 36.1672 103.879 36.142C103.779 36.1169 103.688 36.0466 103.628 35.931L100.81 30.9171L97.2325 32.9267L100.317 38.4129C100.383 38.5285 100.403 38.634 100.373 38.7344C100.347 38.8349 100.272 38.9153 100.157 38.9806L99.5436 39.3273C99.4381 39.3876 99.3326 39.4026 99.2321 39.3775C99.1316 39.3524 99.0462 39.2821 98.9809 39.1665L95.248 32.5298L95.238 32.5348Z" fill="white"/>
<path d="M101.583 48.5565C101.367 47.5064 101.382 46.577 101.623 45.7681C101.864 44.9643 102.302 44.2961 102.935 43.7686C103.563 43.241 104.356 42.8542 105.301 42.613C105.818 42.4975 106.371 42.3769 106.954 42.2563C107.537 42.1358 108.099 42.0303 108.632 41.9348C109.596 41.7891 110.471 41.8343 111.254 42.0755C112.033 42.3166 112.691 42.7638 113.224 43.4169C113.756 44.07 114.128 44.9191 114.339 45.959C114.505 46.788 114.535 47.5316 114.425 48.1947C114.314 48.8579 114.118 49.4256 113.837 49.8929C113.555 50.3601 113.244 50.7319 112.892 51.0082C112.541 51.2845 112.219 51.4553 111.928 51.5257C111.822 51.5608 111.732 51.5458 111.651 51.4905C111.571 51.4352 111.521 51.3448 111.496 51.2293L111.285 50.1843C111.259 50.0637 111.264 49.9732 111.305 49.913C111.34 49.8527 111.415 49.7823 111.521 49.712C111.807 49.5412 112.073 49.3101 112.319 49.0036C112.566 48.7022 112.747 48.3254 112.857 47.8782C112.968 47.4311 112.963 46.8935 112.832 46.2655C112.641 45.321 112.229 44.6126 111.606 44.1454C110.983 43.6731 110.079 43.5375 108.898 43.7284C107.838 43.9042 106.788 44.1203 105.743 44.3715C104.572 44.6578 103.789 45.1452 103.392 45.8284C102.995 46.5117 102.894 47.3206 103.08 48.255C103.206 48.883 103.437 49.4156 103.774 49.8577C104.11 50.2998 104.547 50.6163 105.08 50.8022C105.617 50.9881 106.255 51.0082 106.999 50.8525L107.743 50.7017L107.2 48.044C107.175 47.9234 107.195 47.8179 107.255 47.7275C107.316 47.6371 107.411 47.5768 107.542 47.5517L108.109 47.4361C108.24 47.411 108.35 47.4261 108.441 47.4863C108.531 47.5466 108.592 47.6371 108.617 47.7576L109.431 51.7618C109.456 51.8924 109.441 51.9979 109.375 52.0884C109.31 52.1788 109.215 52.229 109.089 52.2592L107.386 52.6058C106.416 52.8018 105.532 52.7767 104.728 52.5254C103.924 52.2742 103.251 51.812 102.703 51.1388C102.156 50.4656 101.774 49.6065 101.563 48.5665L101.583 48.5565Z" fill="white"/>
<path d="M102.442 61.8299C102.457 61.7093 102.502 61.6139 102.593 61.5435C102.683 61.4732 102.784 61.4481 102.904 61.4581L107.15 61.9153L114.952 58.3734C114.987 58.3633 115.027 58.3583 115.062 58.3482C115.098 58.3382 115.143 58.3382 115.188 58.3482C115.284 58.3583 115.364 58.4035 115.429 58.4839C115.495 58.5643 115.52 58.6497 115.51 58.7451L115.409 59.6796C115.399 59.7851 115.359 59.8806 115.299 59.9609C115.238 60.0413 115.153 60.0916 115.052 60.1167L108.848 62.9955L114.294 67.1302C114.384 67.2006 114.45 67.2759 114.495 67.3613C114.54 67.4467 114.555 67.5422 114.545 67.6477L114.444 68.5671C114.434 68.6726 114.389 68.763 114.309 68.8233C114.229 68.8836 114.143 68.9138 114.048 68.9037C113.997 68.9037 113.957 68.8886 113.922 68.8736C113.887 68.8585 113.852 68.8334 113.822 68.8083L106.949 63.6988L102.703 63.2416C102.583 63.2266 102.487 63.1813 102.422 63.0909C102.352 63.0055 102.327 62.895 102.337 62.7644L102.437 61.8299H102.442Z" fill="white"/>
<path d="M105.824 73.0788C105.869 72.9683 105.939 72.8879 106.04 72.8527C106.14 72.8125 106.246 72.8175 106.356 72.8577L106.999 73.1039C107.11 73.1491 107.19 73.2195 107.24 73.3149C107.286 73.4104 107.291 73.5159 107.24 73.6264L105.271 78.7007C105.226 78.8112 105.155 78.8916 105.055 78.9368C104.954 78.982 104.844 78.982 104.733 78.9368L104.09 78.6906C103.98 78.6454 103.899 78.5751 103.854 78.4746C103.809 78.3741 103.809 78.2636 103.854 78.1531L105.824 73.0788Z" fill="white"/>
<path d="M90.3194 88.0253C91.0328 87.2717 91.7662 86.7492 92.5299 86.4578C93.2935 86.1664 94.0824 86.1312 94.8962 86.3523C95.7101 86.5733 96.5391 87.0506 97.3881 87.7841C97.785 88.1408 98.1568 88.4875 98.5135 88.8191C98.8702 89.1557 99.237 89.5074 99.6138 89.8842C100.388 90.678 100.9 91.4868 101.156 92.2957C101.412 93.1046 101.417 93.9084 101.176 94.7022C100.935 95.496 100.473 96.2496 99.7947 96.968C99.1265 97.6764 98.398 98.1788 97.6243 98.4652C96.8506 98.7516 96.0468 98.7918 95.2178 98.5908C94.3888 98.3898 93.5598 97.9176 92.7258 97.1841C92.3239 96.8374 91.9471 96.4958 91.5904 96.1592C91.2337 95.8226 90.872 95.4659 90.5052 95.084C89.7165 94.2902 89.1889 93.4864 88.9277 92.6876C88.6664 91.8837 88.6564 91.0949 88.9026 90.3162C89.1487 89.5375 89.626 88.7738 90.3294 88.0303L90.3194 88.0253ZM91.4347 89.0803C90.8067 89.7485 90.4902 90.482 90.4952 91.2909C90.4952 92.0947 90.9323 92.9438 91.8014 93.833C92.1782 94.2249 92.5249 94.5666 92.8363 94.8579C93.1478 95.1493 93.5045 95.4709 93.9065 95.8175C94.5294 96.3702 95.1223 96.7219 95.695 96.8726C96.2678 97.0233 96.8003 97.0082 97.2977 96.8324C97.7951 96.6565 98.2523 96.3501 98.6643 95.913C99.0762 95.4759 99.3575 95.0036 99.5083 94.4962C99.659 93.9888 99.6389 93.4512 99.458 92.8936C99.2772 92.3309 98.8953 91.7531 98.3125 91.1552C97.9357 90.7835 97.5891 90.4469 97.2776 90.1555C96.9661 89.8641 96.6094 89.5325 96.2075 89.1707C95.273 88.3518 94.3988 87.97 93.5899 88.0202C92.7811 88.0705 92.0627 88.4272 91.4347 89.0904V89.0803Z" fill="white"/>
<path d="M82.5771 94.9685C82.6926 94.9032 82.8032 94.8881 82.9037 94.9232C83.0041 94.9584 83.0845 95.0288 83.1398 95.1343L88.7717 105.519C88.832 105.634 88.8521 105.745 88.827 105.851C88.8018 105.956 88.7315 106.036 88.611 106.102L84.5716 108.292C83.7879 108.719 83.0393 108.96 82.3209 109.021C81.6024 109.081 80.9493 108.945 80.3615 108.614C79.7686 108.282 79.2713 107.74 78.8643 106.986C78.4574 106.232 78.2765 105.519 78.3217 104.851C78.372 104.178 78.6131 103.56 79.0552 102.992C79.4974 102.424 80.1053 101.927 80.8941 101.505L83.7075 99.9774L81.5522 96.0034C81.4969 95.8979 81.4819 95.7924 81.512 95.6869C81.5421 95.5814 81.6175 95.496 81.733 95.4307L82.5771 94.9735V94.9685ZM84.446 101.299L81.6979 102.791C80.9141 103.218 80.4218 103.71 80.2158 104.273C80.0148 104.836 80.0952 105.449 80.4569 106.117C80.8136 106.775 81.2809 107.182 81.8586 107.333C82.4364 107.483 83.1297 107.343 83.9336 106.906L86.6817 105.413L84.451 101.294L84.446 101.299Z" fill="white"/>
<path d="M67.1283 101.223C67.2438 101.198 67.3493 101.223 67.4448 101.279C67.5352 101.339 67.5955 101.429 67.6206 101.55L69.6855 111.985L73.0918 111.312C73.2124 111.287 73.3129 111.312 73.4083 111.367C73.4988 111.427 73.559 111.518 73.5791 111.638L73.7248 112.382C73.75 112.512 73.7349 112.623 73.6696 112.713C73.6042 112.804 73.5188 112.864 73.3983 112.884L64.8474 114.577C64.7167 114.602 64.6062 114.587 64.5158 114.522C64.4254 114.462 64.365 114.366 64.3399 114.236L64.1942 113.492C64.1691 113.371 64.1942 113.266 64.2545 113.176C64.3148 113.085 64.4103 113.025 64.5409 113L67.9321 112.332L65.8723 101.897C65.8472 101.776 65.8723 101.671 65.9275 101.58C65.9878 101.49 66.0833 101.429 66.2139 101.404L67.1383 101.223H67.1283Z" fill="white"/>
<path d="M56.9245 102.158C57.0551 102.158 57.1556 102.203 57.2259 102.283C57.2963 102.364 57.3314 102.464 57.3264 102.585L56.9396 114.406C56.9396 114.527 56.8944 114.622 56.819 114.703C56.7436 114.778 56.6432 114.813 56.5075 114.808L55.5479 114.778C55.4173 114.778 55.3168 114.733 55.2465 114.653C55.1761 114.572 55.141 114.472 55.146 114.351L55.5328 102.53C55.5328 102.409 55.5781 102.309 55.6534 102.233C55.7288 102.158 55.8343 102.123 55.9649 102.128L56.9245 102.158Z" fill="white"/>
<path d="M49.4993 101.68C49.6149 101.716 49.7003 101.786 49.7505 101.881C49.8008 101.982 49.8108 102.087 49.7706 102.203L46.2387 113.472C46.1985 113.597 46.1282 113.688 46.0327 113.738C45.9322 113.788 45.8268 113.798 45.7112 113.758L44.8471 113.487C44.7064 113.442 44.616 113.376 44.5708 113.286C44.5255 113.196 44.4954 113.125 44.4854 113.07L43.0284 104.956L37.1653 110.774C37.1302 110.814 37.0649 110.854 36.9795 110.905C36.894 110.955 36.7835 110.955 36.6428 110.915L35.7988 110.648C35.6732 110.608 35.5828 110.538 35.5325 110.442C35.4823 110.342 35.4772 110.231 35.5124 110.106L39.0443 98.8369C39.0795 98.7213 39.1498 98.6409 39.2453 98.5857C39.3407 98.5304 39.4563 98.5304 39.5819 98.5706L40.4259 98.8369C40.5415 98.872 40.6219 98.9424 40.6771 99.0378C40.7274 99.1383 40.7374 99.2438 40.7022 99.3594L38.0395 107.85L42.6867 103.127C42.7671 103.027 42.8676 102.962 42.9781 102.926C43.0887 102.891 43.2143 102.896 43.3549 102.942L43.8875 103.107C44.0382 103.153 44.1437 103.223 44.204 103.308C44.2643 103.394 44.3045 103.509 44.3246 103.64L45.46 110.176L48.1227 101.685C48.1579 101.57 48.2282 101.49 48.3237 101.434C48.4191 101.379 48.5297 101.374 48.6452 101.409L49.4893 101.675L49.4993 101.68Z" fill="white"/>
<path d="M34.0452 95.2548C34.1557 95.3251 34.2211 95.4156 34.2412 95.5211C34.2613 95.6266 34.2361 95.7271 34.1708 95.8326L27.735 105.755C27.6697 105.856 27.5843 105.921 27.4838 105.946C27.3783 105.971 27.2728 105.946 27.1623 105.876L26.3585 105.353C26.2479 105.283 26.1826 105.192 26.1625 105.087C26.1424 104.981 26.1675 104.876 26.2329 104.775L32.6686 94.8529C32.734 94.7524 32.8194 94.6871 32.9198 94.662C33.0253 94.6368 33.1309 94.662 33.2414 94.7323L34.0452 95.2548Z" fill="white"/>
<path d="M28.5438 91.4115C28.6342 91.5069 28.6745 91.6124 28.6644 91.7229C28.6544 91.8335 28.6041 91.9289 28.5187 92.0143L27.956 92.5519C27.8254 92.6775 27.6948 92.7529 27.5692 92.773C27.4436 92.7931 27.3481 92.8131 27.2878 92.8182L15.9837 94.3103L20.42 98.9525C20.5054 99.0379 20.5456 99.1384 20.5405 99.2489C20.5405 99.3595 20.4953 99.4549 20.4049 99.5403L19.8824 100.038C19.7869 100.128 19.6814 100.173 19.5709 100.173C19.4604 100.173 19.3649 100.128 19.2795 100.038L13.6225 94.1144C13.532 94.0189 13.4868 93.9134 13.4868 93.8029C13.4868 93.6924 13.537 93.5919 13.6325 93.5014L14.1952 92.9639C14.3007 92.8634 14.4062 92.7981 14.5067 92.7679C14.6122 92.7378 14.7127 92.7127 14.8182 92.6976L26.1122 91.1401L21.5152 86.3271C21.4248 86.2317 21.3796 86.1262 21.3796 86.0156C21.3796 85.9051 21.4298 85.8046 21.5253 85.7142L22.0477 85.2168C22.1332 85.1314 22.2337 85.0912 22.3442 85.0962C22.4547 85.1013 22.5552 85.1465 22.6456 85.2419L28.5388 91.4165L28.5438 91.4115Z" fill="white"/>
<path d="M20.0685 81.8305C20.1086 81.9159 20.1137 82.0114 20.0835 82.1068C20.0484 82.2023 19.9881 82.2726 19.9027 82.3179C19.8474 82.343 19.7871 82.3681 19.7168 82.3882L7.23207 83.4885C7.10145 83.4985 6.98589 83.4784 6.88541 83.4382C6.78493 83.393 6.69451 83.2975 6.61915 83.1468L6.08158 82.0415C6.00622 81.8908 5.98612 81.7602 6.01124 81.6547C6.03636 81.5492 6.09666 81.4437 6.18207 81.3482L14.738 72.1995C14.7932 72.1442 14.8485 72.104 14.8987 72.0789C14.9842 72.0387 15.0796 72.0337 15.1751 72.0638C15.2705 72.099 15.3408 72.1593 15.3861 72.2447L15.788 73.0736C15.8533 73.2043 15.8633 73.3148 15.8282 73.4052C15.793 73.4957 15.7528 73.566 15.7076 73.6162L13.8337 75.6359L16.4361 80.9664L19.1792 80.7353C19.2395 80.7202 19.3149 80.7303 19.4153 80.7604C19.5108 80.7956 19.5912 80.876 19.6565 81.0066L20.0584 81.8355L20.0685 81.8305ZM14.8184 81.1724L12.6781 76.7814L7.97562 81.7903L14.8184 81.1674V81.1724Z" fill="white"/>
<path d="M13.9945 65.7687C14.0146 65.8893 13.9945 65.9948 13.9291 66.0853C13.8689 66.1757 13.7734 66.231 13.6578 66.2511L3.18778 68.1049L3.79066 71.5263C3.81076 71.6469 3.79066 71.7473 3.72535 71.8378C3.66004 71.9282 3.56959 71.9835 3.45403 72.0036L2.70546 72.1342C2.57483 72.1593 2.46432 72.1342 2.37389 72.0739C2.28345 72.0086 2.22818 71.9181 2.20808 71.8026L0.690818 63.2165C0.665697 63.0859 0.690846 62.9754 0.751134 62.885C0.816446 62.7945 0.911881 62.7393 1.04251 62.7141L1.79108 62.5835C1.91166 62.5634 2.01214 62.5835 2.1076 62.6488C2.19803 62.7141 2.25331 62.8096 2.27843 62.9402L2.88132 66.3415L13.3514 64.4876C13.472 64.4675 13.5724 64.4876 13.6629 64.5529C13.7533 64.6182 13.8086 64.7137 13.8337 64.8443L13.9995 65.7687H13.9945Z" fill="white"/>
<path d="M13.2608 55.5399C13.2558 55.6705 13.2105 55.771 13.1251 55.8413C13.0447 55.9066 12.9392 55.9418 12.8237 55.9317L1.01219 55.3087C0.891616 55.3037 0.796151 55.2635 0.720791 55.1831C0.64543 55.1078 0.610287 55.0023 0.620335 54.8717L0.670563 53.9121C0.675587 53.7814 0.720813 53.681 0.806221 53.6106C0.886606 53.5403 0.992103 53.5101 1.11268 53.5202L12.9242 54.1432C13.0448 54.1482 13.1402 54.1884 13.2156 54.2688C13.2909 54.3441 13.3261 54.4496 13.316 54.5803L13.2658 55.5399H13.2608Z" fill="white"/>
<path d="M15.4112 44.2006C15.1047 45.1904 14.6676 45.9842 14.11 46.582C13.5523 47.1799 12.859 47.5567 12.035 47.7174C11.2061 47.8782 10.2515 47.8129 9.16635 47.5265C8.65892 47.3808 8.16654 47.2351 7.69931 47.0894C7.23207 46.9437 6.74976 46.788 6.24736 46.6172C5.20236 46.2404 4.38847 45.743 3.80066 45.1301C3.21787 44.5121 2.85616 43.7937 2.72554 42.9798C2.59491 42.1659 2.67529 41.2817 2.97171 40.3371C3.26311 39.4027 3.69518 38.639 4.26289 38.0412C4.83563 37.4433 5.53897 37.0514 6.37296 36.8706C7.20695 36.6897 8.15652 36.745 9.22663 37.0364C9.73908 37.172 10.2314 37.3127 10.6987 37.4533C11.1659 37.599 11.6482 37.7598 12.1456 37.9407C13.2057 38.3074 14.0296 38.7948 14.6174 39.4027C15.2052 40.0106 15.5619 40.7139 15.6825 41.5228C15.8031 42.3317 15.7126 43.226 15.4062 44.2006H15.4112ZM13.9442 43.7434C14.2155 42.8693 14.1753 42.0704 13.8186 41.347C13.4619 40.6235 12.6982 40.0558 11.5276 39.6388C11.0152 39.4529 10.558 39.2972 10.146 39.1716C9.73404 39.046 9.27685 38.9153 8.7644 38.7797C7.96056 38.5536 7.27227 38.5034 6.6945 38.6189C6.11674 38.7345 5.63948 38.9807 5.27273 39.3625C4.90095 39.7393 4.62964 40.2166 4.44878 40.7893C4.26791 41.3671 4.22772 41.9147 4.31815 42.4322C4.40858 42.9547 4.65978 43.4269 5.07175 43.8489C5.48372 44.276 6.08159 44.6277 6.86533 44.909C7.36774 45.0798 7.82491 45.2255 8.23185 45.3511C8.6388 45.4767 9.10605 45.6174 9.62855 45.7681C10.8293 46.0897 11.7839 46.0545 12.4872 45.6526C13.1906 45.2506 13.6829 44.6176 13.9542 43.7384L13.9442 43.7434Z" fill="white"/>
<path d="M19.2744 34.5746C19.194 34.6801 19.1035 34.7404 18.998 34.7555C18.8925 34.7655 18.792 34.7354 18.6916 34.665L9.15597 27.6967C9.05047 27.6163 8.98515 27.5259 8.96505 27.4204C8.94496 27.3149 8.97509 27.2094 9.05045 27.1039L9.54283 26.4306C9.62824 26.3151 9.71866 26.2447 9.81412 26.2246C9.90957 26.2046 9.97487 26.1995 10.0151 26.2146L21.0076 26.8074L13.7027 21.4719C13.5972 21.3915 13.5319 21.3011 13.5118 21.1956C13.4917 21.0901 13.5218 20.9846 13.5972 20.8791L14.1097 20.1807C14.19 20.0752 14.2805 20.0099 14.391 19.9949C14.5015 19.9798 14.607 20.0099 14.7176 20.0853L24.2381 27.0436C24.3336 27.1139 24.3939 27.2094 24.419 27.3199C24.4391 27.4354 24.419 27.5359 24.3436 27.6364L23.8311 28.3398C23.7508 28.4453 23.6654 28.5056 23.5649 28.5156C23.4694 28.5257 23.4041 28.5357 23.3689 28.5407L12.4618 27.9881L19.7064 33.2784C19.8019 33.3487 19.8622 33.4392 19.8772 33.5497C19.8923 33.6602 19.8622 33.7657 19.7868 33.8762L19.2744 34.5796V34.5746Z" fill="white"/>
<path d="M25.3286 19.0754C25.2332 19.1508 25.1327 19.1759 25.0272 19.1558C24.9217 19.1357 24.8313 19.0805 24.7609 18.985L24.3439 18.4374C24.2686 18.3419 24.2384 18.2415 24.2485 18.136C24.2585 18.0304 24.3138 17.94 24.4092 17.8647L28.7399 14.5689C28.8354 14.4935 28.9359 14.4684 29.0464 14.4835C29.1569 14.4986 29.2474 14.5538 29.3227 14.6493L29.7397 15.1969C29.8151 15.2924 29.8402 15.3979 29.8251 15.5084C29.8101 15.6189 29.7548 15.7093 29.6593 15.7847L25.3286 19.0805V19.0754Z" fill="white"/>
</svg>
