<svg width="116" height="115" viewBox="0 0 116 115" fill="none" xmlns="http://www.w3.org/2000/svg">
<path d="M33.2621 13.3508C33.1516 13.401 33.0511 13.411 32.9506 13.3709C32.8501 13.3307 32.7748 13.2603 32.7245 13.1498L32.4231 12.5318C32.3728 12.4213 32.3628 12.3208 32.3929 12.2153C32.4231 12.1148 32.4934 12.0345 32.604 11.9842L37.5074 9.6179C37.6179 9.56766 37.7234 9.55761 37.8289 9.59278C37.9344 9.62795 38.0148 9.70331 38.0651 9.80881L38.3665 10.4268C38.4168 10.5373 38.4268 10.6428 38.3916 10.7483C38.3564 10.8538 38.2811 10.9292 38.1756 10.9844L33.2721 13.3508H33.2621Z" fill="white"/>
<path d="M44.8225 14.3756C44.6918 14.4007 44.5863 14.3806 44.4959 14.3203C44.4055 14.2601 44.3552 14.1646 44.3301 14.049L42.0894 2.45359C42.0643 2.32296 42.0794 2.21244 42.1346 2.122C42.1899 2.03157 42.2853 1.97128 42.4159 1.94616L43.2348 1.79042C43.3755 1.7653 43.4911 1.77535 43.5715 1.82559C43.6569 1.87583 43.7071 1.92104 43.7272 1.95119L51.3738 9.86905L49.6556 0.991597C49.6305 0.860972 49.6455 0.750444 49.7008 0.660011C49.756 0.569579 49.8515 0.514314 49.9821 0.48417L50.8362 0.318377C50.9668 0.293257 51.0774 0.313353 51.1678 0.373642C51.2582 0.43393 51.3185 0.53441 51.3436 0.660011L53.5794 12.2404C53.6045 12.361 53.5793 12.4665 53.524 12.567C53.4688 12.6674 53.3734 12.7227 53.2528 12.7478L52.3987 12.9136C52.268 12.9387 52.1625 12.9237 52.0872 12.8634C52.0068 12.8031 51.9566 12.7679 51.9264 12.7478L44.315 4.91536L46.0182 13.7225C46.0433 13.8431 46.0182 13.9486 45.9579 14.039C45.8976 14.1294 45.7971 14.1897 45.6715 14.2148L44.8174 14.3806L44.8225 14.3756Z" fill="white"/>
<path d="M58.1206 12.6172C57.99 12.6072 57.8896 12.5569 57.8242 12.4715C57.7589 12.3861 57.7338 12.2856 57.7438 12.1651L58.7939 0.398782C58.804 0.268158 58.8491 0.167677 58.9295 0.0923165C59.0099 0.0219801 59.1154 -0.00816405 59.246 0.00188401L66.6866 0.665056C66.8173 0.675104 66.9177 0.725344 66.983 0.810752C67.0483 0.896161 67.0735 1.00167 67.0634 1.13731L67.0031 1.82058C66.9931 1.95121 66.9479 2.05169 66.8675 2.117C66.7871 2.18231 66.6816 2.20743 66.551 2.19738L60.4267 1.64977L60.075 5.59363L65.8024 6.10608C65.933 6.11613 66.0335 6.16637 66.0988 6.25177C66.1641 6.33718 66.1892 6.44269 66.1792 6.57834L66.1189 7.24653C66.1089 7.36711 66.0636 7.46256 65.9833 7.5329C65.9029 7.60324 65.7974 7.63338 65.6667 7.62333L59.9393 7.11088L59.5726 11.2004L65.8426 11.7581C65.9732 11.7682 66.0737 11.8134 66.139 11.8938C66.2043 11.9741 66.2294 12.0796 66.2194 12.2103L66.1591 12.9136C66.149 13.0342 66.1038 13.1297 66.0234 13.2C65.943 13.2703 65.8375 13.3005 65.7069 13.2904L58.1206 12.6122V12.6172Z" fill="white"/>
<path d="M72.4645 15.285C72.3489 15.2448 72.2736 15.1745 72.2233 15.074C72.1781 14.9735 72.1731 14.868 72.2133 14.7524L75.8607 4.76466L72.6001 3.57397C72.4846 3.53378 72.4092 3.46344 72.359 3.36296C72.3138 3.26248 72.3088 3.15698 72.3489 3.04142L72.6102 2.32801C72.6554 2.20241 72.7307 2.117 72.8312 2.07179C72.9317 2.02657 73.0372 2.02155 73.1528 2.06174L81.3419 5.05103C81.4675 5.09625 81.5529 5.17161 81.5981 5.27209C81.6433 5.37257 81.6433 5.4831 81.5981 5.6087L81.3369 6.32211C81.2967 6.43767 81.2264 6.51303 81.1259 6.56327C81.0254 6.60848 80.9149 6.60848 80.7893 6.56327L77.5438 5.3776L73.8963 15.3654C73.8561 15.4809 73.7858 15.5563 73.6853 15.6065C73.5848 15.6517 73.4743 15.6517 73.3487 15.6065L72.4645 15.285Z" fill="white"/>
<path d="M81.7036 19.6408C81.578 19.5454 81.5077 19.4399 81.4826 19.3143C81.4625 19.1937 81.4826 19.058 81.5479 18.9123L86.6925 8.2413C86.7126 8.19608 86.7327 8.15589 86.7528 8.13077C86.7729 8.10062 86.788 8.08053 86.798 8.0755C86.8583 8.00014 86.9387 7.95493 87.0392 7.93985C87.1396 7.92478 87.2301 7.9499 87.3054 8.00517L88.054 8.57288C88.255 8.7236 88.3102 8.89442 88.2148 9.08031L84.0549 17.6362L89.4758 13.7074C89.5713 13.6421 89.6818 13.6019 89.8074 13.5818C89.933 13.5617 90.0636 13.607 90.1992 13.7074L90.7318 14.1094C90.8775 14.2199 90.9529 14.3354 90.9679 14.456C90.983 14.5766 90.9679 14.6921 90.9177 14.7926L88.6267 21.0877L95.7157 14.7474C95.8664 14.6067 96.0523 14.6168 96.2633 14.7725L97.0118 15.3402C97.0872 15.4005 97.1324 15.4759 97.1475 15.5814C97.1626 15.6869 97.1375 15.7723 97.0822 15.8477C97.0772 15.8577 97.0571 15.8728 97.032 15.8979C97.0068 15.923 96.9767 15.9532 96.9465 15.9934L88.0791 23.8459C87.9535 23.9514 87.8329 24.0067 87.7073 24.0218C87.5817 24.0368 87.4612 23.9916 87.3356 23.9012L86.7729 23.4741C86.6372 23.3737 86.5568 23.2581 86.5317 23.1325C86.5066 23.0069 86.5166 22.8813 86.5719 22.7557L88.9383 15.908L83.0099 20.0628C82.8893 20.1382 82.7687 20.1834 82.6482 20.1985C82.5226 20.2136 82.397 20.1683 82.2613 20.0628L81.6986 19.6358L81.7036 19.6408Z" fill="white"/>
<path d="M94.0325 31.8794C93.4346 31.0303 93.0729 30.2064 92.9373 29.3975C92.8016 28.5886 92.9272 27.8099 93.304 27.0613C93.6808 26.3077 94.3139 25.5893 95.2031 24.906C95.6302 24.5895 96.0421 24.2931 96.444 24.0117C96.8409 23.7304 97.263 23.444 97.7051 23.1476C98.6395 22.5497 99.5288 22.2081 100.378 22.1227C101.227 22.0373 102.011 22.193 102.739 22.5849C103.468 22.9818 104.116 23.5797 104.683 24.3885C105.246 25.1873 105.588 25.9962 105.713 26.8151C105.839 27.634 105.718 28.4278 105.357 29.2015C104.995 29.9752 104.367 30.6937 103.483 31.3619C103.061 31.6884 102.654 31.9899 102.252 32.2712C101.855 32.5526 101.428 32.8339 100.981 33.1203C100.041 33.7382 99.157 34.0899 98.318 34.1854C97.479 34.2808 96.7003 34.1301 95.9868 33.7332C95.2734 33.3363 94.6203 32.7184 94.0325 31.8794ZM95.2885 30.9951C95.816 31.7437 96.4742 32.2009 97.263 32.3566C98.0517 32.5174 98.9711 32.2562 100.011 31.5829C100.468 31.2915 100.87 31.0202 101.222 30.7741C101.574 30.5279 101.955 30.2415 102.377 29.915C103.046 29.4176 103.508 28.9001 103.769 28.3726C104.03 27.8451 104.126 27.3175 104.05 26.79C103.975 26.2675 103.769 25.7601 103.422 25.2677C103.076 24.7754 102.669 24.4036 102.202 24.1574C101.734 23.9112 101.207 23.8208 100.619 23.8861C100.031 23.9514 99.3881 24.2127 98.6847 24.6598C98.2426 24.9562 97.8457 25.2275 97.4991 25.4737C97.1524 25.7199 96.7555 26.0063 96.3184 26.3278C95.3287 27.0814 94.7811 27.8601 94.6655 28.664C94.55 29.4678 94.7559 30.2415 95.2835 30.9901L95.2885 30.9951Z" fill="white"/>
<path d="M98.7199 39.4857C98.6797 39.3601 98.6797 39.2496 98.735 39.1592C98.7902 39.0687 98.8706 38.9984 98.9862 38.9632L110.18 35.2053C110.305 35.1651 110.416 35.1651 110.516 35.2053C110.612 35.2505 110.682 35.3309 110.727 35.4565L112.134 39.6415C112.566 40.9326 112.606 42.058 112.255 43.0176C111.903 43.9772 111.129 44.6554 109.944 45.0523C109.064 45.3488 108.271 45.3689 107.572 45.1126C106.869 44.8564 106.286 44.3892 105.814 43.7109L102.141 47.8809C102.086 47.9361 102.026 47.9763 101.97 47.9964C101.88 48.0266 101.785 48.0165 101.694 47.9663C101.599 47.916 101.538 47.8457 101.508 47.7503L101.232 46.9263C101.167 46.7304 101.172 46.5696 101.242 46.444C101.312 46.3184 101.388 46.2029 101.468 46.1024L104.99 42.1535L103.985 39.1541L99.5639 40.6413C99.4483 40.6814 99.3428 40.6764 99.2423 40.6262C99.1419 40.5759 99.0716 40.4905 99.0314 40.3649L98.7399 39.4907L98.7199 39.4857ZM105.427 38.6668L106.376 41.4953C106.663 42.3544 107.06 42.9322 107.562 43.2337C108.065 43.5351 108.667 43.5703 109.376 43.3291C110.074 43.093 110.536 42.7061 110.757 42.1686C110.978 41.631 110.948 40.9226 110.657 40.0534L109.707 37.2249L105.422 38.6668H105.427Z" fill="white"/>
<path d="M102.056 51.7343C102.051 51.6037 102.081 51.4982 102.156 51.4228C102.232 51.3475 102.327 51.3073 102.448 51.2972L114.244 50.7044C114.375 50.6994 114.485 50.7295 114.565 50.7948C114.646 50.8652 114.691 50.9656 114.696 51.0963L114.741 52.0006C114.746 52.1312 114.716 52.2417 114.641 52.3221C114.566 52.4025 114.465 52.4477 114.329 52.4528L109.848 52.6788L114.716 57.2708C114.766 57.316 114.832 57.3964 114.907 57.5069C114.983 57.6175 115.028 57.7682 115.038 57.9641L115.088 58.9388C115.088 59.0342 115.063 59.1196 114.993 59.195C114.922 59.2704 114.842 59.3106 114.746 59.3156C114.651 59.3156 114.571 59.3005 114.51 59.2553L108.773 53.9499L103.091 60.1948C103.02 60.2601 102.94 60.2953 102.844 60.3003C102.749 60.3053 102.664 60.2752 102.588 60.2048C102.513 60.1345 102.473 60.0541 102.468 59.9587L102.417 58.9488C102.407 58.7428 102.437 58.5871 102.513 58.4715C102.583 58.361 102.644 58.2756 102.689 58.2254L107.507 52.8044L102.538 53.0556C102.417 53.0607 102.317 53.0255 102.232 52.9552C102.151 52.8798 102.106 52.7793 102.101 52.6437L102.056 51.7393V51.7343Z" fill="white"/>
<path d="M101.86 63.6915C101.88 63.5608 101.935 63.4654 102.021 63.4051C102.106 63.3448 102.211 63.3247 102.332 63.3448L114.028 65.1032C114.149 65.1233 114.239 65.1736 114.304 65.2539C114.37 65.3394 114.395 65.4449 114.375 65.5755L114.234 66.525C114.214 66.6557 114.159 66.7511 114.073 66.8114C113.988 66.8717 113.882 66.8918 113.762 66.8717L102.066 65.1133C101.945 65.0932 101.855 65.0429 101.79 64.9626C101.724 64.8771 101.699 64.7716 101.719 64.641L101.86 63.6915Z" fill="white"/>
<path d="M100.835 69.5947C100.885 69.4691 100.956 69.3887 101.056 69.3486C101.157 69.3084 101.262 69.3134 101.373 69.3536L112.385 73.619C112.511 73.6642 112.596 73.7396 112.642 73.835C112.687 73.9305 112.687 74.041 112.642 74.1666L112.34 74.9403C112.29 75.0759 112.219 75.1664 112.129 75.2066C112.039 75.2468 111.978 75.2719 111.938 75.2669L101.167 77.5377L109.602 80.8033C109.728 80.8536 109.813 80.9239 109.858 81.0194C109.903 81.1148 109.903 81.2254 109.858 81.351L109.547 82.1598C109.496 82.2854 109.426 82.3658 109.321 82.411C109.22 82.4562 109.105 82.4562 108.984 82.411L97.9864 78.1507C97.8759 78.1054 97.7905 78.0351 97.7402 77.9296C97.69 77.8241 97.685 77.7186 97.7302 77.6081L98.0417 76.7992C98.092 76.6736 98.1572 76.5982 98.2527 76.558C98.3431 76.5229 98.4034 76.4977 98.4386 76.4827L109.12 74.1967L100.755 70.9562C100.644 70.911 100.564 70.8407 100.519 70.7402C100.473 70.6397 100.473 70.5242 100.519 70.4036L100.83 69.5947H100.835Z" fill="white"/>
<path d="M92.6008 84.9632C93.264 84.1192 93.9824 83.5264 94.7511 83.1898C95.5198 82.8531 96.3136 82.7527 97.1224 82.8933C97.9363 83.034 98.7402 83.3857 99.534 83.9484C99.956 84.2649 100.403 84.6115 100.875 84.9783C101.343 85.3451 101.79 85.7018 102.207 86.0484C102.945 86.6915 103.478 87.3848 103.799 88.1384C104.121 88.892 104.206 89.6808 104.051 90.5098C103.9 91.3387 103.493 92.1727 102.84 93.0067C102.317 93.6699 101.77 94.1723 101.192 94.5189C100.614 94.8606 100.056 95.0816 99.5189 95.1721C98.9813 95.2625 98.494 95.2625 98.0569 95.1721C97.6198 95.0816 97.2832 94.951 97.0371 94.7752C96.9466 94.7149 96.8913 94.6395 96.8863 94.5441C96.8763 94.4486 96.9114 94.3481 96.9868 94.2527L97.6449 93.4136C97.7203 93.3182 97.7906 93.2629 97.866 93.2529C97.9363 93.2378 98.0368 93.2529 98.1574 93.288C98.4689 93.3935 98.8206 93.4438 99.2124 93.4388C99.6043 93.4287 100.001 93.3232 100.418 93.1223C100.83 92.9163 101.237 92.5646 101.629 92.0622C102.227 91.3036 102.498 90.5349 102.453 89.7562C102.408 88.9774 101.93 88.1987 101.021 87.425C100.202 86.7317 99.3581 86.0685 98.4889 85.4355C97.5093 84.7271 96.6351 84.4458 95.8564 84.5864C95.0776 84.7271 94.3944 85.1742 93.8066 85.9228C93.4097 86.4252 93.1534 86.9477 93.0379 87.4903C92.9173 88.0329 92.9625 88.5705 93.1685 89.098C93.3745 89.6255 93.7764 90.1279 94.3743 90.5952L94.9721 91.0624L96.6502 88.9272C96.7256 88.8317 96.8159 88.7765 96.9265 88.7664C97.037 88.7513 97.1425 88.7865 97.248 88.8719L97.7052 89.2286C97.8107 89.309 97.871 89.4045 97.8811 89.515C97.8961 89.6255 97.861 89.726 97.7907 89.8215L95.2686 93.0368C95.1882 93.1423 95.0927 93.1976 94.9872 93.2077C94.8817 93.2177 94.7762 93.1775 94.6707 93.0971L93.3042 92.027C92.5254 91.4141 91.9728 90.7258 91.6462 89.9521C91.3146 89.1784 91.2342 88.3645 91.39 87.5104C91.5508 86.6513 91.9577 85.8073 92.6109 84.9733L92.6008 84.9632Z" fill="white"/>
<path d="M90.1087 95.8955C90.2042 95.8201 90.3046 95.795 90.4101 95.8151C90.5156 95.8352 90.6061 95.8905 90.6764 95.9859L91.0934 96.5335C91.1688 96.629 91.1989 96.7295 91.1889 96.835C91.1788 96.9405 91.1235 97.0309 91.0281 97.1013L86.6924 100.392C86.5969 100.467 86.4914 100.492 86.3859 100.477C86.2754 100.462 86.185 100.407 86.1096 100.312L85.6926 99.764C85.6172 99.6685 85.5921 99.563 85.6072 99.4525C85.6223 99.342 85.6775 99.2516 85.773 99.1812L90.1087 95.8905V95.8955Z" fill="white"/>
<path d="M69.1485 100.472C70.2186 100.181 71.1581 100.141 71.972 100.347C72.7859 100.553 73.4641 100.96 74.0167 101.573C74.5694 102.186 74.9914 102.959 75.2828 103.889C75.4235 104.361 75.5691 104.873 75.7148 105.421C75.8605 105.969 76.0012 106.491 76.1218 106.999C76.3429 107.948 76.3679 108.832 76.2022 109.636C76.0313 110.445 75.6496 111.143 75.0517 111.726C74.4538 112.314 73.6198 112.751 72.5497 113.043C71.7458 113.259 71.0124 113.339 70.3492 113.284C69.686 113.228 69.0982 113.068 68.5958 112.801C68.0934 112.535 67.6764 112.204 67.3398 111.802C67.0082 111.4 66.762 110.958 66.6063 110.475C66.5661 110.375 66.5762 110.279 66.6314 110.189C66.6867 110.098 66.7671 110.038 66.8726 110.013L67.8322 109.752C67.9377 109.722 68.0331 109.727 68.1286 109.767C68.219 109.802 68.3044 109.892 68.3798 110.038C68.8219 110.892 69.3645 111.415 69.9925 111.606C70.6255 111.797 71.3439 111.781 72.1478 111.565C73.0923 111.309 73.7655 110.842 74.1675 110.164C74.5694 109.486 74.6347 108.561 74.3533 107.385C74.1273 106.421 73.866 105.446 73.5595 104.451C73.2078 103.296 72.6904 102.527 71.997 102.15C71.3037 101.769 70.4898 101.708 69.5453 101.96C68.7415 102.176 68.1185 102.527 67.6663 103.015C67.2192 103.497 67.0183 104.22 67.0635 105.185C67.0685 105.346 67.0434 105.466 66.9831 105.542C66.9228 105.622 66.8424 105.672 66.7369 105.702L65.7773 105.964C65.6718 105.994 65.5763 105.984 65.4809 105.944C65.3854 105.898 65.3352 105.823 65.3151 105.717C65.2046 105.22 65.1945 104.713 65.2749 104.19C65.3603 103.668 65.5512 103.165 65.8527 102.683C66.1541 102.201 66.5761 101.769 67.1238 101.382C67.6664 100.995 68.3446 100.693 69.1485 100.477V100.472Z" fill="white"/>
<path d="M56.4882 101.98C57.5231 102.005 58.4073 102.206 59.1358 102.577C59.8643 102.949 60.417 103.512 60.7938 104.266C61.1756 105.014 61.3765 105.954 61.3966 107.074C61.3966 107.607 61.3916 108.114 61.3765 108.601C61.3615 109.089 61.3464 109.601 61.3213 110.129C61.2459 111.239 60.9947 112.158 60.5576 112.887C60.1205 113.615 59.5328 114.158 58.7842 114.51C58.0356 114.861 57.1664 115.022 56.1767 115.002C55.202 114.977 54.3479 114.776 53.6144 114.389C52.8809 114.002 52.3132 113.434 51.9113 112.686C51.5094 111.932 51.2983 111.003 51.2883 109.892C51.2782 109.36 51.2782 108.852 51.2883 108.365C51.2983 107.878 51.3235 107.365 51.3586 106.838C51.4189 105.717 51.6651 104.793 52.0871 104.06C52.5091 103.326 53.0919 102.794 53.8355 102.457C54.579 102.12 55.4633 101.96 56.4882 101.985V101.98ZM56.453 103.517C55.5386 103.497 54.78 103.753 54.1821 104.296C53.5843 104.838 53.2477 105.728 53.1673 106.968C53.1321 107.511 53.107 107.993 53.0969 108.425C53.0869 108.852 53.0869 109.335 53.0969 109.862C53.0969 110.696 53.2376 111.375 53.5089 111.897C53.7802 112.42 54.147 112.811 54.6142 113.063C55.0764 113.314 55.614 113.449 56.2169 113.465C56.8198 113.48 57.3573 113.369 57.8346 113.143C58.3119 112.912 58.6937 112.54 58.9901 112.033C59.2865 111.52 59.4624 110.852 59.5177 110.018C59.5428 109.491 59.5578 109.008 59.5679 108.581C59.5779 108.154 59.583 107.667 59.583 107.124C59.5629 105.883 59.2664 104.974 58.6887 104.406C58.1109 103.839 57.3674 103.542 56.448 103.522L56.453 103.517Z" fill="white"/>
<path d="M47.5855 101.266C47.7111 101.306 47.7965 101.377 47.8417 101.472C47.8869 101.568 47.887 101.673 47.8518 101.789L44.139 113.002C44.0988 113.128 44.0285 113.218 43.938 113.269C43.8476 113.319 43.7371 113.324 43.6115 113.284L42.8227 113.022C42.6871 112.977 42.5916 112.912 42.5464 112.826C42.4961 112.741 42.476 112.681 42.476 112.641L39.6727 101.995L36.829 110.581C36.7888 110.706 36.7185 110.797 36.6281 110.847C36.5326 110.897 36.4271 110.902 36.3015 110.862L35.4776 110.591C35.352 110.551 35.2616 110.48 35.2163 110.38C35.1661 110.279 35.1611 110.169 35.2063 110.043L38.914 98.8496C38.9542 98.7341 39.0195 98.6487 39.1251 98.5934C39.2255 98.5381 39.3361 98.5281 39.4466 98.5683L40.2705 98.8396C40.3961 98.8798 40.4815 98.9451 40.5217 99.0355C40.5619 99.1259 40.592 99.1862 40.6071 99.2164L43.4206 109.767L46.239 101.251C46.2792 101.136 46.3446 101.055 46.445 101.005C46.5455 100.955 46.6561 100.95 46.7817 100.995L47.6056 101.266H47.5855Z" fill="white"/>
<path d="M35.1457 96.3879C35.2512 96.4632 35.3166 96.5536 35.3266 96.6642C35.3417 96.7697 35.3116 96.8702 35.2412 96.9706L28.3834 106.587C28.3081 106.692 28.2176 106.757 28.1121 106.783C28.0066 106.803 27.9011 106.778 27.7956 106.702L27.1174 106.22C27.0018 106.134 26.9314 106.044 26.9114 105.949C26.8913 105.853 26.8862 105.788 26.8963 105.748L27.3585 94.75L22.1084 102.115C22.0331 102.221 21.9426 102.286 21.8371 102.311C21.7316 102.331 21.6261 102.306 21.5206 102.226L20.8122 101.723C20.7067 101.648 20.6414 101.553 20.6213 101.442C20.6012 101.332 20.6313 101.226 20.7117 101.115L27.5544 91.5145C27.6248 91.4141 27.7152 91.3538 27.8308 91.3337C27.9463 91.3136 28.0468 91.3337 28.1473 91.404L28.8557 91.9064C28.9612 91.9818 29.0214 92.0722 29.0365 92.1677C29.0466 92.2631 29.0566 92.3284 29.0617 92.3636L28.6346 103.276L33.8395 95.9709C33.9098 95.8704 34.0003 95.8151 34.1108 95.795C34.2214 95.7749 34.3268 95.8051 34.4373 95.8804L35.1457 96.3828V96.3879Z" fill="white"/>
<path d="M24.7009 87.9726C24.7863 88.0781 24.8165 88.1786 24.8015 88.2841C24.7864 88.3896 24.7311 88.4801 24.6356 88.5554L15.3864 95.9006C15.2809 95.9809 15.1754 96.0211 15.0699 96.0111C14.9644 96.001 14.8689 95.9458 14.7885 95.8453L10.1463 89.9923C10.066 89.8868 10.0308 89.7813 10.0459 89.6808C10.061 89.5803 10.1212 89.4798 10.2267 89.3995L10.7643 88.9724C10.8698 88.887 10.9703 88.8518 11.0708 88.8669C11.1712 88.877 11.2617 88.9372 11.3471 89.0427L15.1704 93.8608L18.2753 91.399L14.6981 86.8925C14.6178 86.787 14.5826 86.6815 14.5976 86.581C14.6127 86.4805 14.673 86.38 14.7785 86.2996L15.301 85.8826C15.3965 85.8073 15.4969 85.7721 15.6024 85.7822C15.7079 85.7922 15.8034 85.8475 15.8838 85.948L19.4609 90.4545L22.6763 87.9023L18.7626 82.9737C18.6822 82.8682 18.647 82.7677 18.6571 82.6673C18.6671 82.5668 18.7274 82.4763 18.8279 82.3909L19.3805 81.9538C19.476 81.8785 19.5764 81.8433 19.6819 81.8534C19.7874 81.8634 19.8829 81.9187 19.9633 82.0192L24.6959 87.9827L24.7009 87.9726Z" fill="white"/>
<path d="M16.4465 74.5685C16.8735 75.5934 17.0444 76.5179 16.9439 77.3519C16.8484 78.1858 16.5319 78.9143 15.9994 79.5423C15.4668 80.1703 14.7534 80.6928 13.8692 81.1048C13.417 81.3058 12.9297 81.5168 12.4072 81.7378C11.8847 81.9589 11.3823 82.1599 10.9 82.3508C9.98558 82.6974 9.11645 82.8381 8.29251 82.7778C7.46857 82.7175 6.73001 82.4311 6.06684 81.9137C5.40869 81.4012 4.86107 80.6325 4.43403 79.6076C4.11249 78.839 3.93669 78.1256 3.90654 77.4574C3.8764 76.7892 3.95678 76.1913 4.15272 75.6588C4.34865 75.1262 4.62492 74.669 4.9766 74.2822C5.33331 73.8953 5.74028 73.5989 6.19747 73.3779C6.29293 73.3226 6.38836 73.3226 6.48381 73.3628C6.57927 73.408 6.64963 73.4783 6.69484 73.5788L7.0817 74.4982C7.12189 74.5987 7.13197 74.6941 7.10685 74.7896C7.08173 74.8851 7.0013 74.9805 6.8757 75.076C6.08693 75.6286 5.63983 76.2315 5.53432 76.8846C5.42882 77.5377 5.53427 78.2461 5.85581 79.0148C6.23261 79.9141 6.78527 80.522 7.50873 80.8335C8.23219 81.145 9.16165 81.0847 10.287 80.6476C11.2115 80.301 12.1459 79.9091 13.0904 79.472C14.1907 78.9746 14.879 78.3567 15.1653 77.6181C15.4517 76.8846 15.4065 76.0657 15.0297 75.1664C14.7081 74.3977 14.2761 73.825 13.7385 73.4432C13.201 73.0613 12.4574 72.9558 11.5078 73.1317C11.3521 73.1568 11.2265 73.1467 11.1411 73.0965C11.0557 73.0463 10.9904 72.9709 10.9502 72.8754L10.5634 71.9561C10.5232 71.8556 10.5181 71.7551 10.5483 71.6596C10.5784 71.5642 10.6488 71.4989 10.7493 71.4687C11.2266 71.2929 11.729 71.2175 12.2565 71.2276C12.784 71.2426 13.3065 71.3632 13.824 71.5993C14.3414 71.8355 14.8237 72.1972 15.2809 72.6845C15.7331 73.1719 16.125 73.7999 16.4465 74.5685Z" fill="white"/>
<path d="M13.2663 63.5257C13.2814 63.6463 13.2563 63.7468 13.1859 63.8372C13.1156 63.9226 13.0251 63.9779 12.9046 63.993L2.34908 65.3093L2.78114 68.7558C2.79622 68.8763 2.77114 68.9768 2.7008 69.0672C2.63047 69.1527 2.54001 69.2079 2.41943 69.223L1.66582 69.3184C1.5352 69.3335 1.42466 69.3084 1.33925 69.2431C1.25384 69.1778 1.19861 69.0823 1.18354 68.9617L0.103359 60.3104C0.0882869 60.1797 0.113419 60.0692 0.178732 59.9838C0.244044 59.8984 0.344512 59.8431 0.480161 59.8281L1.23377 59.7326C1.35434 59.7175 1.45984 59.7426 1.54525 59.813C1.63066 59.8833 1.68595 59.9788 1.70103 60.1144L2.12806 63.5408L12.6835 62.2245C12.8041 62.2094 12.9096 62.2346 12.995 62.3049C13.0804 62.3752 13.1357 62.4707 13.1507 62.6063L13.2663 63.5408V63.5257Z" fill="white"/>
<path d="M12.9396 54.7286C12.9295 54.8592 12.8843 54.9597 12.7989 55.025C12.7135 55.0903 12.613 55.1204 12.4924 55.1104L0.690982 54.2714C0.570405 54.2613 0.474909 54.2211 0.399549 54.1408C0.324188 54.0654 0.294074 53.9599 0.304122 53.8242L0.374465 52.8697C0.384513 52.7391 0.429744 52.6386 0.515153 52.5733C0.600561 52.508 0.701035 52.4778 0.821611 52.4879L12.623 53.3269C12.7436 53.3369 12.8391 53.3771 12.9144 53.4575C12.9898 53.5379 13.02 53.6384 13.0099 53.774L12.9446 54.7286H12.9396Z" fill="white"/>
<path d="M14.8591 44.8313C14.5677 45.826 14.1457 46.6249 13.593 47.2328C13.0454 47.8356 12.3572 48.2275 11.5332 48.3983C10.7093 48.5691 9.75472 48.5189 8.66451 48.2476C8.15206 48.1069 7.65968 47.9713 7.19244 47.8306C6.72521 47.6899 6.23786 47.5442 5.73043 47.3785C4.68041 47.0167 3.85652 46.5344 3.26368 45.9265C2.67084 45.3186 2.29903 44.6052 2.15836 43.7913C2.01266 42.9774 2.08301 42.0932 2.36436 41.1436C2.64068 40.2092 3.05768 39.4355 3.62037 38.8276C4.18306 38.2197 4.88141 37.8177 5.71038 37.6218C6.53934 37.4259 7.49388 37.4711 8.56902 37.7474C9.0865 37.873 9.57888 38.0086 10.0461 38.1443C10.5134 38.285 11.0007 38.4357 11.5031 38.6115C12.5682 38.9632 13.4022 39.4405 13.995 40.0333C14.5878 40.6262 14.9596 41.3346 15.0902 42.1384C15.2208 42.9422 15.1455 43.8415 14.8541 44.8212L14.8591 44.8313ZM13.3821 44.3942C13.6433 43.515 13.588 42.7162 13.2213 41.9977C12.8545 41.2793 12.0808 40.7216 10.9052 40.3247C10.3928 40.1489 9.93054 39.9982 9.51857 39.8776C9.1066 39.757 8.64438 39.6314 8.1269 39.5058C7.32306 39.2948 6.62974 39.2496 6.05198 39.3752C5.47422 39.5008 5.00199 39.752 4.64026 40.1388C4.27853 40.5207 4.00724 41.003 3.83643 41.5807C3.66561 42.1585 3.63039 42.7061 3.72585 43.2286C3.82633 43.7461 4.08258 44.2183 4.49957 44.6353C4.91657 45.0523 5.51944 45.399 6.30821 45.6703C6.81564 45.8311 7.27281 45.9717 7.67976 46.0923C8.09173 46.2129 8.55898 46.3435 9.08148 46.4892C10.2872 46.7957 11.2368 46.7404 11.9352 46.3335C12.6335 45.9265 13.1158 45.2784 13.372 44.3992L13.3821 44.3942Z" fill="white"/>
<path d="M17.8584 36.4512C17.783 36.5617 17.6976 36.627 17.5921 36.6421C17.4866 36.6572 17.3862 36.6371 17.2806 36.5668L7.42351 30.0606C7.31298 29.9853 7.24263 29.8999 7.21751 29.7944C7.19239 29.6889 7.21751 29.5834 7.28785 29.4728L7.74499 28.7795C7.82538 28.6589 7.9108 28.5886 8.00625 28.5635C8.10171 28.5384 8.16703 28.5333 8.2022 28.5434L19.2099 28.6137L11.6638 23.6349C11.5532 23.5646 11.4829 23.4741 11.4578 23.3686C11.4326 23.2631 11.4578 23.1576 11.5281 23.0471L12.0054 22.3236C12.0808 22.2131 12.1712 22.1478 12.2767 22.1227C12.3872 22.1026 12.4927 22.1227 12.6032 22.198L22.4453 28.6941C22.5458 28.7594 22.6111 28.8498 22.6362 28.9604C22.6613 29.0709 22.6412 29.1764 22.5759 29.2769L22.0987 30.0003C22.0283 30.1109 21.9429 30.1762 21.8424 30.1913C21.747 30.2063 21.6817 30.2164 21.6465 30.2264L10.7243 30.1913L18.2101 35.1299C18.3106 35.1952 18.3708 35.2856 18.396 35.3911C18.4161 35.5017 18.396 35.6072 18.3206 35.7177L17.8433 36.4412L17.8584 36.4512Z" fill="white"/>
<path d="M28.7856 23.4791C27.9867 24.1574 27.208 24.6045 26.4544 24.8155C25.7008 25.0265 25.0125 25.0617 24.3946 24.916C23.7716 24.7703 23.2692 24.489 22.8873 24.072C22.8271 23.9966 22.797 23.9062 22.807 23.7957C22.8171 23.6851 22.8622 23.5947 22.9426 23.5244L23.646 22.9265C23.7565 22.831 23.862 22.7909 23.9625 22.8009C24.063 22.811 24.1534 22.8411 24.2338 22.9014C24.475 23.0772 24.7764 23.1978 25.1331 23.2631C25.4898 23.3334 25.8917 23.2983 26.3389 23.1626C26.786 23.027 27.2683 22.7406 27.7807 22.3035C28.5695 21.6353 29.0317 20.9973 29.1674 20.4044C29.303 19.8066 29.1674 19.274 28.7705 18.8068C28.4992 18.4853 28.1777 18.3094 27.8109 18.2793C27.4442 18.2491 26.997 18.3295 26.4594 18.5154C25.9219 18.7013 25.2537 18.9776 24.4548 19.3393C23.6209 19.7162 22.8823 19.9774 22.2493 20.1231C21.6163 20.2688 21.0436 20.2638 20.5361 20.103C20.0337 19.9473 19.5564 19.6056 19.1143 19.0831C18.6923 18.5857 18.4511 18.0281 18.3858 17.4151C18.3205 16.7972 18.4411 16.1591 18.7526 15.501C19.0641 14.8428 19.5715 14.2098 20.2799 13.612C20.8476 13.1296 21.4103 12.778 21.968 12.567C22.5256 12.3559 23.0532 12.2555 23.5506 12.2655C24.0479 12.2756 24.495 12.366 24.8869 12.5268C25.2788 12.6926 25.6003 12.9086 25.8415 13.1749C25.8967 13.2402 25.9269 13.3206 25.9319 13.421C25.9319 13.5215 25.8867 13.612 25.7862 13.6974L25.0527 14.3153C24.9874 14.3706 24.907 14.4108 24.8066 14.4309C24.7061 14.451 24.5955 14.4309 24.4699 14.3605C24.0931 14.029 23.6158 13.8933 23.028 13.9486C22.4402 14.0038 21.8524 14.2802 21.2646 14.7775C20.6667 15.285 20.2799 15.8125 20.1041 16.3551C19.9282 16.9027 20.0438 17.4151 20.4608 17.9025C20.727 18.214 21.0335 18.3999 21.3852 18.4601C21.7368 18.5204 22.1639 18.4652 22.6764 18.3044C23.1838 18.1386 23.8168 17.8874 24.5754 17.5508C25.4848 17.1288 26.2685 16.8324 26.9267 16.6565C27.5848 16.4857 28.1726 16.4706 28.6801 16.6163C29.1875 16.762 29.6698 17.0936 30.1119 17.6211C30.6043 18.1989 30.8705 18.8219 30.9157 19.4901C30.9609 20.1583 30.8002 20.8315 30.4334 21.5097C30.0717 22.188 29.5141 22.8461 28.7705 23.4791H28.7856Z" fill="white"/>
</svg>
