<svg width="121" height="121" viewBox="0 0 121 121" fill="none" xmlns="http://www.w3.org/2000/svg">
<path d="M35.2623 14.3425C35.1469 14.3949 35.0419 14.4054 34.937 14.3634C34.8321 14.3215 34.7534 14.248 34.7009 14.1326L34.3861 13.4872C34.3337 13.3718 34.3231 13.2669 34.3546 13.1567C34.3861 13.0517 34.4596 12.9678 34.575 12.9153L39.6959 10.4441C39.8113 10.3916 39.9215 10.3811 40.0317 10.4179C40.1419 10.4546 40.2258 10.5333 40.2783 10.6435L40.593 11.2888C40.6455 11.4043 40.656 11.5144 40.6193 11.6246C40.5826 11.7348 40.5039 11.8135 40.3937 11.8712L35.2728 14.3425H35.2623Z" fill="#F4F4F5"/>
<path d="M46.3511 15.7227C46.2147 15.7542 46.1045 15.7332 46.0101 15.6702C45.9209 15.6073 45.8579 15.5128 45.8317 15.3921L43.2083 3.34028C43.1768 3.20386 43.1926 3.08843 43.2503 2.99399C43.308 2.89955 43.4024 2.83659 43.5389 2.80511L47.731 1.89217C48.9955 1.61409 50.0607 1.58261 50.9211 1.79772C51.7816 2.01284 52.4689 2.44833 52.9883 3.11467C53.5078 3.78101 53.8908 4.65722 54.1374 5.73281C54.2686 6.28373 54.384 6.76643 54.4731 7.18618C54.5623 7.60592 54.6621 8.08338 54.767 8.62904C54.9874 9.76759 55.0031 10.7435 54.8142 11.5672C54.6253 12.3857 54.1951 13.0626 53.513 13.5925C52.8309 14.1224 51.876 14.5212 50.6325 14.7888L46.3511 15.7227ZM47.3952 13.8548L50.2023 13.2462C51.0523 13.0626 51.7029 12.795 52.1541 12.4539C52.6053 12.1129 52.8939 11.6564 53.0041 11.0898C53.1195 10.5231 53.088 9.81482 52.9201 8.96484C52.8624 8.59231 52.8047 8.26701 52.747 7.98893C52.6893 7.71085 52.6263 7.43802 52.5686 7.15994C52.5056 6.88186 52.4269 6.56705 52.3272 6.21552C52.0439 5.02975 51.5665 4.206 50.9001 3.74953C50.2338 3.29306 49.2631 3.20911 47.9829 3.48719L45.2703 4.08008L47.4005 13.8601L47.3952 13.8548Z" fill="#F4F4F5"/>
<path d="M57.458 13.4926C57.3583 13.4926 57.2691 13.4454 57.2009 13.3667C57.1274 13.288 57.0959 13.1988 57.1011 13.0991C57.1011 13.0361 57.1117 12.9679 57.1327 12.8945L62.4214 0.921295C62.4791 0.800619 62.5526 0.70093 62.6418 0.627475C62.731 0.559267 62.8674 0.527786 63.0458 0.533033L64.3312 0.595994C64.5044 0.606488 64.6355 0.648462 64.7195 0.727164C64.8034 0.805866 64.8664 0.910802 64.9136 1.04197L68.9641 13.4821C68.9851 13.5608 68.9956 13.629 68.9904 13.692C68.9904 13.7917 68.9432 13.8809 68.8645 13.9491C68.7858 14.0173 68.6966 14.054 68.5969 14.0488L67.6367 14.0015C67.4846 13.9963 67.3796 13.9491 67.3114 13.8704C67.2485 13.7917 67.2013 13.7182 67.1803 13.6552L66.2778 10.9217L60.0919 10.6121L58.9218 13.2408C58.9061 13.3037 58.8589 13.3719 58.7802 13.4401C58.7015 13.5083 58.586 13.5451 58.4339 13.5346L57.4737 13.4874L57.458 13.4926ZM60.7057 9.02234L65.8004 9.27418L63.5862 2.44811L60.7057 9.01709V9.02234Z" fill="#F4F4F5"/>
<path d="M72.7528 15.2924C72.6321 15.2609 72.5429 15.1927 72.4852 15.0931C72.4275 14.9934 72.417 14.8832 72.4537 14.7573L75.4392 4.05906L71.9448 3.08316C71.8241 3.05167 71.7349 2.98347 71.6772 2.88378C71.6195 2.78409 71.609 2.67391 71.6405 2.54798L71.8556 1.78195C71.8923 1.65078 71.9605 1.55109 72.0602 1.49863C72.1599 1.44091 72.2701 1.43042 72.3908 1.4619L81.1582 3.9069C81.2893 3.94363 81.3837 4.01184 81.4415 4.11153C81.4992 4.21121 81.5097 4.33189 81.473 4.46306L81.2578 5.22909C81.2264 5.34977 81.1581 5.43896 81.0532 5.49668C80.9483 5.55439 80.8329 5.56489 80.7017 5.52816L77.2283 4.5575L74.2429 15.2557C74.2114 15.3764 74.1432 15.4656 74.0435 15.5233C73.9438 15.581 73.8231 15.5915 73.6919 15.5548L72.7476 15.2924H72.7528Z" fill="#F4F4F5"/>
<path d="M77.9044 16.6407C77.8152 16.5935 77.7575 16.52 77.726 16.4151C77.6945 16.3101 77.705 16.2157 77.7522 16.1265C77.7837 16.0688 77.8205 16.0111 77.8677 15.9534L87.7946 7.42733C87.8995 7.33814 88.0097 7.28567 88.1199 7.25944C88.2353 7.2332 88.3665 7.25944 88.5239 7.34863L89.652 7.95726C89.8094 8.04121 89.9038 8.13565 89.9458 8.24583C89.9878 8.35601 89.9982 8.47669 89.9878 8.60786L88.2878 21.5779C88.2721 21.6566 88.2511 21.7248 88.2248 21.7773C88.1776 21.8665 88.1041 21.9242 87.9992 21.9557C87.8943 21.9872 87.7999 21.9767 87.7107 21.9295L86.8607 21.473C86.7295 21.3995 86.6508 21.3156 86.6245 21.2159C86.5983 21.1162 86.5879 21.0323 86.5983 20.964L86.9603 18.1098L81.5089 15.1663L79.3211 17.0342C79.2791 17.0814 79.2109 17.1234 79.1059 17.1549C79.001 17.1864 78.8855 17.1654 78.7544 17.0919L77.9044 16.6354V16.6407ZM82.7629 14.0016L87.2489 16.4256L88.1881 9.31618L82.7577 14.0068L82.7629 14.0016Z" fill="#F4F4F5"/>
<path d="M92.3319 25.6493C92.2689 25.5706 92.2375 25.4814 92.2428 25.3765C92.248 25.2715 92.29 25.1823 92.3687 25.1194C92.4159 25.0774 92.4736 25.0354 92.5365 24.9987L104.84 20.5442C104.966 20.5022 105.092 20.4865 105.202 20.5022C105.318 20.5179 105.433 20.5966 105.549 20.7278L106.388 21.6985C106.503 21.8296 106.561 21.9556 106.561 22.071C106.561 22.1864 106.53 22.3071 106.467 22.4278L100.281 33.955C100.239 34.0232 100.197 34.0809 100.15 34.1176C100.071 34.1806 99.9817 34.2121 99.8768 34.2068C99.7719 34.2016 99.6827 34.1596 99.6197 34.0809L98.9901 33.3516C98.8904 33.2362 98.8484 33.1312 98.8589 33.0263C98.8694 32.9266 98.8904 32.8426 98.9219 32.7849L100.27 30.2455L96.2145 25.5601L93.5072 26.5308C93.4495 26.5622 93.3708 26.5727 93.2659 26.5675C93.1609 26.5622 93.056 26.4993 92.9563 26.3839L92.3267 25.6545L92.3319 25.6493ZM97.8096 24.9043L101.147 28.7606L104.546 22.4435L97.8096 24.9043Z" fill="#F4F4F5"/>
<path d="M100.969 36.3951C100.911 36.2691 100.901 36.1537 100.943 36.054C100.985 35.9491 101.063 35.8704 101.179 35.8179L112.328 30.5396C112.454 30.4819 112.569 30.4662 112.674 30.5029C112.779 30.5396 112.863 30.6131 112.921 30.739L113.293 31.526C113.356 31.6625 113.377 31.7779 113.346 31.8776C113.314 31.9773 113.288 32.0402 113.257 32.0665L107.233 41.857L115.77 37.8169C115.896 37.7592 116.011 37.7435 116.116 37.7802C116.221 37.8117 116.305 37.8904 116.363 38.0163L116.751 38.8348C116.809 38.9607 116.819 39.0762 116.783 39.1863C116.741 39.2965 116.662 39.3805 116.536 39.4382L105.408 44.706C105.292 44.7584 105.177 44.7689 105.067 44.7322C104.956 44.6955 104.867 44.622 104.815 44.5066L104.426 43.6881C104.369 43.5622 104.358 43.452 104.395 43.3575C104.432 43.2631 104.458 43.2001 104.468 43.1634L110.413 33.4306L101.945 37.4392C101.829 37.4916 101.719 37.5021 101.609 37.4602C101.499 37.4234 101.415 37.3395 101.357 37.2136L100.969 36.3951Z" fill="#F4F4F5"/>
<path d="M105.755 47.0193C105.739 46.9197 105.76 46.8252 105.823 46.7413C105.886 46.6521 105.965 46.5996 106.065 46.5839C106.128 46.5734 106.196 46.5681 106.274 46.5681L119.108 49.1338C119.239 49.16 119.349 49.2125 119.439 49.286C119.528 49.3594 119.586 49.4853 119.617 49.6585L119.832 50.9229C119.864 51.0961 119.848 51.2325 119.785 51.3322C119.722 51.4319 119.638 51.5158 119.523 51.5893L108.258 58.2422C108.189 58.2789 108.121 58.3052 108.058 58.3157C107.959 58.3314 107.864 58.3104 107.78 58.2475C107.691 58.1845 107.639 58.1058 107.623 58.0061L107.46 57.0564C107.434 56.9095 107.455 56.7941 107.518 56.7102C107.581 56.6315 107.639 56.5737 107.696 56.537L110.168 55.0627L109.129 48.9554L106.311 48.3835C106.248 48.3835 106.169 48.352 106.086 48.2891C105.996 48.2261 105.944 48.1212 105.918 47.9743L105.755 47.0246V47.0193ZM110.823 49.223L111.679 54.2494L117.859 50.6081L110.818 49.223H110.823Z" fill="#F4F4F5"/>
<path d="M107.465 60.7715C107.476 60.635 107.523 60.5301 107.612 60.4619C107.701 60.3937 107.806 60.3622 107.932 60.3727L120.251 61.3119C120.377 61.3224 120.477 61.3696 120.556 61.4483C120.634 61.527 120.666 61.6372 120.655 61.7788L120.582 62.7757C120.571 62.9017 120.524 63.0013 120.435 63.0748C120.346 63.1483 120.241 63.185 120.115 63.1745L109.002 62.3298L108.525 68.5839C108.514 68.7203 108.467 68.8305 108.378 68.904C108.289 68.9774 108.179 69.0142 108.037 69.0037L107.281 68.946C107.155 68.9355 107.056 68.8882 106.982 68.799C106.909 68.7098 106.872 68.5997 106.883 68.458L107.47 60.7715H107.465Z" fill="#F4F4F5"/>
<path d="M105.697 72.7967C105.734 72.676 105.797 72.5868 105.902 72.5291C106.002 72.4714 106.112 72.4609 106.238 72.4976L110.524 73.7254L119.187 71.4692C119.229 71.4692 119.266 71.4692 119.308 71.4692C119.35 71.4692 119.392 71.4692 119.439 71.485C119.538 71.5112 119.612 71.5742 119.664 71.6686C119.717 71.7631 119.727 71.8575 119.701 71.9519L119.433 72.8964C119.402 73.0065 119.349 73.0957 119.271 73.1639C119.192 73.2322 119.098 73.2741 118.993 73.2794L112.093 75.1367L116.962 80.3625C117.041 80.4517 117.099 80.5409 117.13 80.6354C117.162 80.7298 117.162 80.8295 117.13 80.9397L116.868 81.8684C116.836 81.9786 116.773 82.0573 116.679 82.1097C116.584 82.1622 116.49 82.1727 116.396 82.1465C116.348 82.1307 116.306 82.115 116.275 82.094C116.243 82.073 116.212 82.0415 116.18 82.01L110.021 75.5303L105.734 74.3025C105.613 74.2658 105.524 74.1976 105.467 74.0979C105.409 73.9982 105.404 73.8775 105.44 73.7463L105.708 72.8019L105.697 72.7967Z" fill="#F4F4F5"/>
<path d="M100.921 83.6946C101.472 82.7449 102.075 82.0366 102.741 81.5644C103.408 81.0922 104.074 80.8194 104.735 80.7407C105.396 80.6672 105.989 80.7669 106.514 81.0397C106.603 81.0922 106.661 81.1709 106.687 81.2811C106.718 81.3913 106.703 81.4962 106.645 81.5959L106.162 82.4301C106.089 82.5613 106 82.64 105.895 82.6662C105.79 82.6925 105.69 82.6925 105.59 82.6662C105.291 82.5823 104.955 82.5665 104.578 82.6243C104.2 82.682 103.817 82.8551 103.423 83.1437C103.03 83.4323 102.657 83.8835 102.306 84.4921C101.765 85.4313 101.529 86.2131 101.608 86.8479C101.687 87.4828 102.002 87.9602 102.558 88.2803C102.941 88.5007 103.313 88.5636 103.686 88.4639C104.058 88.3642 104.473 88.1281 104.934 87.7556C105.396 87.3831 105.958 86.8794 106.619 86.2445C107.306 85.5834 107.941 85.0693 108.518 84.702C109.095 84.3347 109.657 84.1406 110.208 84.1196C110.758 84.0986 111.346 84.2665 111.965 84.6233C112.553 84.9643 112.988 85.426 113.266 86.0084C113.544 86.5908 113.649 87.2624 113.576 88.018C113.502 88.7735 113.219 89.571 112.736 90.4105C112.343 91.0873 111.913 91.6277 111.441 92.0265C110.968 92.4305 110.486 92.7138 109.987 92.8765C109.494 93.0391 109.022 93.1126 108.576 93.0863C108.13 93.0601 107.741 92.9604 107.411 92.782C107.332 92.7401 107.275 92.6666 107.238 92.5722C107.201 92.4777 107.217 92.3675 107.285 92.2469L107.789 91.3811C107.831 91.3024 107.899 91.2395 107.993 91.1818C108.088 91.1241 108.203 91.1083 108.345 91.1345C108.828 91.3287 109.352 91.2972 109.908 91.0349C110.465 90.7725 110.947 90.2951 111.351 89.6025C111.761 88.8942 111.96 88.2383 111.939 87.6402C111.923 87.0421 111.624 86.5751 111.047 86.2393C110.674 86.0242 110.307 85.9507 109.945 86.0137C109.578 86.0766 109.174 86.2813 108.733 86.6223C108.287 86.9633 107.757 87.4303 107.133 88.0284C106.388 88.763 105.722 89.3296 105.134 89.7284C104.546 90.1272 103.974 90.3475 103.423 90.3843C102.872 90.421 102.285 90.2583 101.66 89.9015C100.973 89.5028 100.49 88.9834 100.218 88.3433C99.9395 87.7031 99.8609 86.9843 99.9815 86.1868C100.102 85.3893 100.417 84.5498 100.926 83.6684L100.921 83.6946Z" fill="#F4F4F5"/>
<path d="M96.4998 90.3475C96.589 90.2425 96.6886 90.1848 96.8041 90.1848C96.9143 90.1848 97.0192 90.2215 97.1136 90.3002L106.505 98.3226C106.6 98.4065 106.658 98.501 106.668 98.6112C106.684 98.7213 106.642 98.8315 106.553 98.9365L105.902 99.6972C105.813 99.8022 105.713 99.8546 105.598 99.8599C105.488 99.8599 105.383 99.8232 105.288 99.7445L95.8964 91.7169C95.802 91.6329 95.7442 91.5385 95.7337 91.4283C95.718 91.3181 95.76 91.2079 95.8492 91.103L96.4998 90.3422V90.3475Z" fill="#F4F4F5"/>
<path d="M89.9288 96.5494C90.7787 95.8568 91.6025 95.4109 92.3895 95.2062C93.1817 95.0016 93.9005 94.9806 94.5459 95.1485C95.1913 95.3164 95.7107 95.6207 96.1042 96.0615C96.1672 96.1402 96.1934 96.2346 96.1829 96.35C96.1724 96.4655 96.12 96.5599 96.0308 96.6281L95.2805 97.2367C95.165 97.3312 95.0496 97.3732 94.9447 97.3627C94.8397 97.3522 94.7453 97.3154 94.6614 97.2525C94.4148 97.0636 94.1 96.9324 93.7274 96.8537C93.3549 96.775 92.9352 96.8013 92.4629 96.9324C91.996 97.0636 91.4818 97.3469 90.9361 97.7929C90.0966 98.475 89.5982 99.1256 89.446 99.7447C89.2939 100.364 89.4198 100.925 89.8238 101.424C90.1019 101.765 90.4324 101.959 90.8102 101.996C91.1932 102.038 91.6655 101.964 92.2269 101.78C92.7935 101.597 93.4966 101.324 94.3413 100.967C95.2228 100.595 95.994 100.338 96.6656 100.201C97.332 100.065 97.9301 100.086 98.4548 100.259C98.9795 100.432 99.4674 100.799 99.9186 101.355C100.349 101.885 100.59 102.468 100.643 103.113C100.695 103.759 100.553 104.425 100.212 105.102C99.8714 105.784 99.3258 106.429 98.5755 107.038C97.9668 107.531 97.3739 107.877 96.7863 108.087C96.1986 108.297 95.6478 108.386 95.1284 108.365C94.6089 108.344 94.1419 108.239 93.7379 108.061C93.3339 107.877 93.0034 107.646 92.7568 107.363C92.6991 107.295 92.6728 107.211 92.6676 107.106C92.6676 107.001 92.7201 106.907 92.825 106.823L93.6015 106.193C93.6697 106.135 93.7589 106.099 93.8639 106.078C93.9688 106.057 94.0842 106.083 94.2102 106.162C94.5932 106.513 95.0916 106.67 95.7055 106.623C96.3194 106.581 96.9384 106.303 97.5628 105.794C98.1977 105.28 98.6122 104.74 98.8115 104.173C99.0109 103.606 98.8955 103.066 98.4757 102.546C98.2082 102.216 97.8881 102.011 97.5261 101.943C97.1641 101.875 96.7129 101.917 96.1777 102.08C95.6425 102.237 94.9762 102.489 94.1787 102.825C93.2237 103.244 92.3948 103.538 91.7022 103.701C91.0096 103.863 90.3957 103.869 89.8711 103.701C89.3464 103.533 88.8532 103.176 88.3967 102.62C87.8982 102.006 87.6306 101.345 87.5992 100.652C87.5677 99.9598 87.7513 99.2568 88.1448 98.5537C88.5384 97.8506 89.1312 97.179 89.9235 96.5389L89.9288 96.5494Z" fill="#F4F4F5"/>
<path d="M86.6769 106.125C86.787 106.067 86.8972 106.062 87.0022 106.098C87.1071 106.14 87.1858 106.214 87.2436 106.324L87.5636 106.964C87.6213 107.074 87.6318 107.185 87.6003 107.295C87.5688 107.4 87.4954 107.484 87.3852 107.541L82.3011 110.086C82.1909 110.144 82.0754 110.154 81.9653 110.118C81.8551 110.081 81.7711 110.007 81.7187 109.892L81.3986 109.252C81.3409 109.142 81.3304 109.026 81.3671 108.916C81.4038 108.806 81.4773 108.722 81.5928 108.669L86.6769 106.125Z" fill="#F4F4F5"/>
<path d="M75.5689 104.897C75.7054 104.865 75.8156 104.881 75.91 104.944C76.0044 105.007 76.0621 105.101 76.0936 105.222L78.8796 117.237C78.9111 117.374 78.9007 117.489 78.8429 117.583C78.7852 117.678 78.6908 117.746 78.5596 117.778L74.3832 118.748C73.1187 119.042 72.0588 119.089 71.1983 118.885C70.3379 118.685 69.6453 118.255 69.1154 117.594C68.5854 116.933 68.1919 116.067 67.9296 114.992C67.7879 114.441 67.6725 113.958 67.5728 113.543C67.4732 113.129 67.3734 112.646 67.258 112.106C67.0219 110.972 66.9904 109.991 67.1688 109.168C67.3472 108.344 67.7722 107.662 68.4385 107.127C69.1101 106.591 70.0651 106.177 71.3033 105.888L75.5742 104.897H75.5689ZM74.551 106.78L71.7545 107.431C70.9098 107.625 70.2592 107.898 69.8132 108.249C69.362 108.601 69.0839 109.057 68.9789 109.624C68.874 110.191 68.9107 110.899 69.0944 111.749C69.1573 112.122 69.2151 112.447 69.2833 112.725C69.3463 113.003 69.4092 113.276 69.4774 113.554C69.5404 113.832 69.6296 114.142 69.7345 114.493C70.0336 115.679 70.5215 116.492 71.1931 116.938C71.8647 117.384 72.8406 117.458 74.1156 117.164L76.8229 116.534L74.5615 106.78H74.551Z" fill="#F4F4F5"/>
<path d="M64.4892 107.279C64.5888 107.279 64.678 107.321 64.7515 107.399C64.8249 107.478 64.8564 107.567 64.8564 107.667C64.8564 107.73 64.8459 107.798 64.8302 107.872L59.7041 119.913C59.6516 120.039 59.5781 120.133 59.4837 120.207C59.3945 120.28 59.2581 120.312 59.0849 120.306L57.7995 120.259C57.6211 120.254 57.4899 120.212 57.406 120.133C57.322 120.055 57.2538 119.95 57.2066 119.824L52.9934 107.441C52.9724 107.363 52.9619 107.294 52.9619 107.231C52.9619 107.132 53.0039 107.043 53.0826 106.969C53.1613 106.896 53.2505 106.864 53.3502 106.864L54.3156 106.901C54.4678 106.901 54.578 106.948 54.6409 107.027C54.7091 107.105 54.7511 107.174 54.7773 107.242L55.7165 109.96L61.9077 110.185L63.0463 107.541C63.062 107.478 63.1093 107.41 63.188 107.336C63.2667 107.263 63.382 107.231 63.5342 107.237L64.4944 107.273L64.4892 107.279ZM61.2991 111.791L56.2045 111.602L58.5078 118.397L61.2991 111.791Z" fill="#F4F4F5"/>
<path d="M49.1725 105.684C49.2932 105.715 49.3824 105.784 49.4401 105.883C49.4978 105.983 49.5136 106.093 49.4821 106.214L46.6436 116.949L50.1484 117.877C50.2691 117.909 50.3583 117.977 50.416 118.077C50.4737 118.176 50.4895 118.287 50.4528 118.407L50.2481 119.173C50.2114 119.304 50.1432 119.404 50.0435 119.462C49.9438 119.52 49.8336 119.535 49.713 119.499L40.9088 117.174C40.7777 117.138 40.678 117.069 40.6203 116.97C40.5626 116.87 40.5521 116.755 40.5888 116.618L40.7934 115.852C40.8249 115.731 40.8931 115.642 40.9928 115.585C41.0925 115.527 41.208 115.516 41.3444 115.553L44.8334 116.476L47.672 105.742C47.7034 105.621 47.7717 105.532 47.8713 105.474C47.971 105.416 48.0865 105.406 48.2229 105.437L49.1725 105.689V105.684Z" fill="#F4F4F5"/>
<path d="M44.0091 104.403C44.0983 104.451 44.1612 104.524 44.1927 104.624C44.2242 104.724 44.2189 104.823 44.1717 104.912C44.1455 104.97 44.1035 105.028 44.0615 105.086L34.2501 113.748C34.1451 113.837 34.0402 113.895 33.9248 113.921C33.8094 113.947 33.6782 113.921 33.5208 113.837L32.3822 113.244C32.2248 113.16 32.1251 113.066 32.0832 112.961C32.0412 112.851 32.0254 112.73 32.0411 112.599L33.5627 99.6079C33.5732 99.5292 33.5942 99.461 33.6257 99.4086C33.6729 99.3194 33.7464 99.2564 33.8513 99.2249C33.951 99.1934 34.0507 99.1987 34.1399 99.2459L34.9951 99.6919C35.1263 99.7601 35.2102 99.844 35.2365 99.9437C35.2627 100.043 35.2732 100.127 35.2679 100.196L34.9479 103.055L40.4412 105.925L42.6029 104.031C42.6449 103.979 42.7131 103.942 42.8181 103.91C42.9177 103.879 43.0384 103.9 43.1696 103.968L44.0248 104.414L44.0091 104.403ZM39.1873 107.106L34.6645 104.745L33.8198 111.87L39.1821 107.106H39.1873Z" fill="#F4F4F5"/>
<path d="M29.4559 95.5888C29.5241 95.6623 29.5556 95.7567 29.5451 95.8617C29.5399 95.9666 29.4978 96.0558 29.4244 96.124C29.3772 96.166 29.3195 96.208 29.2565 96.2499L17.0105 100.872C16.8846 100.92 16.7639 100.935 16.6485 100.92C16.533 100.904 16.4176 100.83 16.3022 100.699L15.4469 99.7391C15.3315 99.6079 15.2686 99.482 15.2686 99.3665C15.2686 99.2511 15.2948 99.1304 15.3578 99.0098L21.3916 87.4039C21.4336 87.3357 21.4755 87.2779 21.5227 87.236C21.5962 87.1678 21.6907 87.1415 21.7956 87.1468C21.9005 87.152 21.9897 87.194 22.0579 87.2674L22.698 87.9862C22.7977 88.1017 22.8449 88.2066 22.8344 88.3063C22.824 88.4112 22.803 88.4899 22.7715 88.5477L21.4598 91.1081L25.5785 95.7358L28.2754 94.7284C28.3331 94.6969 28.4118 94.6812 28.5167 94.6864C28.6216 94.6916 28.7265 94.7546 28.8262 94.8648L29.4664 95.5836L29.4559 95.5888ZM23.9887 96.4073L20.5993 92.5982L17.2833 98.9573L23.9887 96.4073Z" fill="#F4F4F5"/>
<path d="M20.6777 84.9643C20.7407 85.0903 20.7512 85.2057 20.7092 85.3054C20.6672 85.4103 20.5938 85.489 20.4784 85.5467L9.40239 90.9772C9.27647 91.0401 9.16102 91.0506 9.05609 91.0191C8.95115 90.9877 8.86721 90.9089 8.80425 90.783L8.42125 90.0013C8.35304 89.8648 8.33724 89.7494 8.36348 89.6497C8.39496 89.55 8.42121 89.4871 8.44744 89.4608L14.3343 79.5916L5.85556 83.7471C5.72964 83.81 5.61419 83.8205 5.50925 83.7891C5.40432 83.7576 5.32038 83.6789 5.25742 83.553L4.85866 82.7397C4.7957 82.6138 4.78517 82.4983 4.82189 82.3882C4.85862 82.278 4.94261 82.194 5.06329 82.1311L16.1235 76.7111C16.2337 76.6534 16.3491 76.6482 16.4646 76.6797C16.58 76.7164 16.6639 76.7898 16.7216 76.9L17.1204 77.7133C17.1834 77.8392 17.1938 77.9494 17.1571 78.0438C17.1204 78.1383 17.0942 78.2065 17.0837 78.238L11.2702 88.0495L19.6808 83.9255C19.7963 83.8678 19.9065 83.8625 20.0166 83.8992C20.1268 83.936 20.2108 84.0199 20.2737 84.1406L20.6725 84.9538L20.6777 84.9643Z" fill="#F4F4F5"/>
<path d="M15.7454 74.4026C15.7664 74.5023 15.7454 74.5967 15.6825 74.6859C15.6195 74.7751 15.5408 74.8276 15.4411 74.8433C15.3782 74.8538 15.31 74.8591 15.2313 74.8643L2.36613 72.4718C2.23496 72.4456 2.11952 72.3931 2.03033 72.3196C1.94113 72.2462 1.87818 72.1255 1.8467 71.9524L1.61581 70.6879C1.58433 70.5147 1.59486 70.3783 1.65783 70.2786C1.71554 70.1789 1.80474 70.0897 1.92017 70.0215L13.0905 63.2165C13.1587 63.1797 13.2269 63.1535 13.2899 63.143C13.3896 63.122 13.4841 63.143 13.5733 63.206C13.6625 63.2689 13.7149 63.3476 13.7307 63.4473L13.9038 64.397C13.93 64.5439 13.9143 64.6593 13.8514 64.7433C13.7884 64.8272 13.7307 64.8849 13.673 64.9217L11.2227 66.4275L12.3455 72.519L15.1736 73.0542C15.2365 73.0542 15.3152 73.0857 15.4044 73.1486C15.4936 73.2116 15.5513 73.3113 15.5775 73.4634L15.7507 74.4131L15.7454 74.4026ZM10.6456 72.2672L9.72213 67.2512L3.58861 70.9765L10.6456 72.2672Z" fill="#F4F4F5"/>
<path d="M13.8519 60.677C13.8414 60.8135 13.7942 60.9184 13.7102 60.9919C13.6263 61.0601 13.5161 61.0915 13.3902 61.0863L1.06021 60.315C0.934291 60.3045 0.834561 60.2626 0.755859 60.1839C0.677158 60.1052 0.645703 59.995 0.650949 59.8586L0.713908 58.8617C0.724402 58.7357 0.771633 58.636 0.855582 58.5573C0.944777 58.4786 1.04971 58.4472 1.17563 58.4524L12.2988 59.1502L12.6923 52.8908C12.7028 52.7544 12.75 52.6442 12.834 52.5708C12.9232 52.4921 13.0334 52.4606 13.1698 52.4711L13.9253 52.5183C14.0513 52.5235 14.1509 52.5708 14.2296 52.66C14.3083 52.7492 14.3399 52.8593 14.3294 52.9958L13.8466 60.6875L13.8519 60.677Z" fill="#F4F4F5"/>
<path d="M15.458 48.6305C15.4265 48.7512 15.3583 48.8404 15.2586 48.8981C15.1589 48.9558 15.0487 48.9663 14.9281 48.9348L10.6257 47.7648L1.99479 50.1416C1.95281 50.1416 1.91603 50.1416 1.87406 50.1468C1.83208 50.1468 1.79011 50.1468 1.74289 50.1311C1.64844 50.1048 1.56978 50.0471 1.51731 49.9527C1.46484 49.8582 1.44912 49.7638 1.47536 49.6694L1.73245 48.7197C1.76393 48.6095 1.81636 48.5203 1.89506 48.4521C1.97376 48.3839 2.06822 48.3419 2.17316 48.3314L9.04643 46.3796L4.10394 41.222C4.02524 41.1328 3.96755 41.0436 3.93082 40.9492C3.89409 40.8548 3.89409 40.7551 3.92557 40.6449L4.1774 39.7162C4.20888 39.606 4.26665 39.5273 4.36109 39.4748C4.45553 39.4224 4.54993 39.4066 4.64437 39.4329C4.69159 39.4434 4.73356 39.4644 4.76504 39.4853C4.79652 39.5063 4.82803 39.5378 4.85951 39.5693L11.1084 45.9651L15.4108 47.1352C15.5315 47.1666 15.6207 47.2348 15.6784 47.3345C15.7361 47.4342 15.7466 47.5497 15.7098 47.6861L15.4527 48.6357L15.458 48.6305Z" fill="#F4F4F5"/>
<path d="M20.0798 37.6697C19.5447 38.6247 18.9465 39.3435 18.2854 39.8262C17.6243 40.3089 16.9632 40.5922 16.3021 40.6761C15.641 40.7601 15.0482 40.6709 14.5183 40.3981C14.4291 40.3508 14.3713 40.2669 14.3398 40.1567C14.3083 40.0465 14.3189 39.9416 14.3766 39.8419L14.8488 39.0024C14.9223 38.8713 15.0115 38.7926 15.1111 38.7611C15.2161 38.7348 15.3157 38.7296 15.4154 38.7611C15.7145 38.845 16.0556 38.8503 16.4281 38.7873C16.8006 38.7243 17.1836 38.546 17.5719 38.2521C17.9601 37.9583 18.3274 37.5018 18.6737 36.888C19.2036 35.9435 19.424 35.1565 19.34 34.5217C19.2561 33.8868 18.9308 33.4146 18.3694 33.0998C17.9864 32.8847 17.6086 32.827 17.2413 32.9319C16.874 33.0368 16.4595 33.2782 16.0031 33.6559C15.5466 34.0337 14.9904 34.5479 14.3398 35.1933C13.6577 35.8648 13.0334 36.3895 12.4615 36.762C11.8896 37.1346 11.3282 37.3392 10.7773 37.3654C10.2264 37.3917 9.63874 37.2343 9.00913 36.8827C8.41624 36.5522 7.9755 36.0957 7.68693 35.5133C7.39835 34.9309 7.28816 34.2646 7.35112 33.5038C7.41409 32.7483 7.68694 31.9455 8.15915 31.1008C8.54216 30.4187 8.96712 29.873 9.43408 29.4638C9.90105 29.0545 10.3838 28.7659 10.8769 28.5928C11.3701 28.4197 11.8371 28.3462 12.2831 28.3619C12.7291 28.3829 13.1173 28.4774 13.4531 28.6505C13.5318 28.6925 13.5895 28.7607 13.6315 28.8551C13.6735 28.9496 13.6578 29.0598 13.5896 29.1804L13.1016 30.0514C13.0596 30.1301 12.9914 30.1983 12.9022 30.2508C12.813 30.3085 12.6924 30.3242 12.5507 30.3033C12.0628 30.1144 11.5433 30.1563 10.9871 30.4239C10.4362 30.6915 9.95876 31.1742 9.56525 31.8773C9.1665 32.5908 8.97764 33.2467 9.00387 33.8448C9.03011 34.443 9.32916 34.9047 9.91156 35.2352C10.2841 35.4451 10.6566 35.5133 11.0186 35.4451C11.3807 35.3769 11.7847 35.167 12.2254 34.8207C12.6661 34.4744 13.1908 33.997 13.8047 33.3884C14.5392 32.6433 15.2003 32.0714 15.7827 31.6622C16.3651 31.2529 16.9317 31.0273 17.4879 30.9801C18.044 30.9329 18.6264 31.0903 19.2561 31.4418C19.9486 31.8301 20.4366 32.3443 20.7199 32.9791C21.0033 33.614 21.0924 34.3328 20.9823 35.1303C20.8721 35.9278 20.5678 36.7725 20.0693 37.6645L20.0798 37.6697Z" fill="#F4F4F5"/>
<path d="M24.4139 30.954C24.3247 31.0589 24.225 31.1167 24.1148 31.1219C24.0046 31.1271 23.8997 31.0904 23.8 31.0117L14.3033 23.1153C14.2089 23.0366 14.1511 22.9422 14.1354 22.8267C14.1196 22.7166 14.1564 22.6064 14.2456 22.5014L14.8857 21.7302C14.9749 21.6252 15.0745 21.5675 15.1847 21.5623C15.2949 21.557 15.3999 21.5937 15.4943 21.6724L24.991 29.5689C25.0855 29.6476 25.1431 29.7472 25.1589 29.8574C25.1746 29.9676 25.1379 30.0778 25.0487 30.1827L24.4086 30.954H24.4139Z" fill="#F4F4F5"/>
<path d="M30.9043 24.6629C30.0648 25.3659 29.2463 25.8224 28.4593 26.0375C27.6722 26.2526 26.9535 26.2789 26.3081 26.1267C25.6627 25.9693 25.1381 25.6702 24.7393 25.2348C24.6764 25.1561 24.6501 25.0616 24.6606 24.9462C24.6711 24.8308 24.7183 24.7363 24.8075 24.6629L25.5473 24.0437C25.6627 23.9493 25.7729 23.9021 25.8831 23.9126C25.9933 23.9231 26.0825 23.9598 26.1664 24.0175C26.4183 24.2011 26.7331 24.3323 27.1056 24.4058C27.4781 24.4792 27.8978 24.4477 28.37 24.3113C28.837 24.1749 29.3407 23.8811 29.8864 23.4299C30.7154 22.7373 31.2086 22.0814 31.3503 21.4571C31.4972 20.8379 31.3607 20.2765 30.9515 19.7833C30.6682 19.4423 30.3376 19.2587 29.9546 19.2219C29.5716 19.1852 29.0994 19.2639 28.538 19.458C27.9766 19.6469 27.2735 19.9303 26.4393 20.3028C25.5631 20.691 24.7918 20.9534 24.1254 21.1003C23.4591 21.2472 22.8662 21.2367 22.3362 21.0636C21.8116 20.8957 21.3184 20.5336 20.8567 19.9827C20.4212 19.458 20.1746 18.8756 20.1116 18.2303C20.0487 17.5849 20.1851 16.9186 20.5156 16.2365C20.8462 15.5492 21.3814 14.8986 22.1264 14.2742C22.7246 13.7758 23.3174 13.419 23.8998 13.1986C24.4822 12.9835 25.0331 12.8838 25.5578 12.8996C26.0772 12.9153 26.5442 13.0097 26.9534 13.1881C27.3627 13.3613 27.6932 13.5921 27.9451 13.8755C28.0028 13.9437 28.0343 14.0276 28.0343 14.1326C28.0343 14.2375 27.9871 14.3319 27.8821 14.4211L27.1109 15.0612C27.0427 15.119 26.9587 15.1557 26.8538 15.1767C26.7488 15.1977 26.6334 15.1767 26.5075 15.098C26.1192 14.7517 25.6155 14.5995 25.0069 14.652C24.393 14.7045 23.7791 14.9878 23.16 15.502C22.5304 16.0266 22.1212 16.5723 21.9323 17.139C21.7434 17.7056 21.8588 18.246 22.289 18.7602C22.5619 19.0908 22.882 19.2849 23.2492 19.3479C23.6165 19.4108 24.0625 19.3636 24.5976 19.1957C25.1328 19.0278 25.7939 18.7707 26.5862 18.4244C27.5359 17.9942 28.3596 17.6899 29.0469 17.5115C29.7342 17.3331 30.3481 17.3278 30.878 17.4853C31.408 17.6427 31.9064 17.9942 32.3629 18.5451C32.8718 19.1537 33.1447 19.8096 33.1866 20.5022C33.2286 21.2 33.0555 21.903 32.6672 22.6061C32.2789 23.3144 31.6966 23.9913 30.9148 24.6471L30.9043 24.6629Z" fill="#F4F4F5"/>
<g filter="url(#filter0_b_493_883)">
<path d="M84.3078 35.0127H62.359C60.0219 35.0127 58.126 36.9086 58.126 39.241V74.6727C58.126 77.0098 60.0219 78.901 62.359 78.901H84.3078C86.6449 78.901 88.5409 77.0098 88.5409 74.6727V39.241C88.5409 36.9086 86.6449 35.0127 84.3078 35.0127ZM82.5996 75.86C82.426 76.0336 82.182 76.1416 81.9192 76.1416H64.7477C64.2174 76.1416 63.7857 75.7145 63.7857 75.1842C63.7857 74.9214 63.8936 74.6773 64.0672 74.5037C64.2409 74.3301 64.4802 74.2221 64.7477 74.2221H81.9192C82.4495 74.2221 82.8812 74.6539 82.8812 75.1842C82.8812 75.447 82.7732 75.691 82.5996 75.86Z" fill="url(#paint0_linear_493_883)"/>
<path d="M62.359 35.443H84.3078C86.4076 35.443 88.1106 37.1466 88.1106 39.241V74.6727C88.1106 76.7715 86.4079 78.4707 84.3078 78.4707H62.359C60.2589 78.4707 58.5563 76.7715 58.5563 74.6727V39.241C58.5563 37.1466 60.2592 35.443 62.359 35.443ZM63.763 74.1994L64.0672 74.5037L63.763 74.1994C63.5113 74.4511 63.3554 74.8035 63.3554 75.1842C63.3554 75.9548 63.9825 76.5718 64.7477 76.5718H81.9192C82.2988 76.5718 82.6504 76.4167 82.9019 76.1662C83.157 75.9168 83.3115 75.5627 83.3115 75.1842C83.3115 74.4162 82.6871 73.7918 81.9192 73.7918H64.7477C64.3613 73.7918 64.0138 73.9486 63.763 74.1994Z" stroke="url(#paint1_linear_493_883)" stroke-width="0.860581"/>
</g>
<path d="M82.8817 75.1843C82.8817 75.4471 82.7737 75.6912 82.6001 75.8601C82.4264 76.0338 82.1824 76.1417 81.9196 76.1417H64.7482C64.2179 76.1417 63.7861 75.7146 63.7861 75.1843C63.7861 74.9215 63.8941 74.6775 64.0677 74.5039C64.2413 74.3302 64.4807 74.2223 64.7482 74.2223H81.9196C82.4499 74.2223 82.8817 74.654 82.8817 75.1843Z" fill="#EEF0FB"/>
<g filter="url(#filter1_f_493_883)">
<path d="M55.3567 40.6157C43.6201 40.6157 44.3529 45.7054 44.3529 45.7054L44.366 50.9785H55.566V52.5616H39.9175C39.9175 52.5616 32.4072 51.7098 32.4072 63.552C32.4072 75.3945 38.9624 74.9745 38.9624 74.9745H42.8744V69.4791C42.8744 69.4791 42.6635 62.924 49.3249 62.924H60.4334C60.4334 62.924 66.6744 63.0248 66.6744 56.8922V46.7523C66.6744 46.7523 67.6223 40.6157 55.3567 40.6157ZM49.181 44.1618C49.4457 44.1615 49.7078 44.2135 49.9524 44.3146C50.1969 44.4158 50.4191 44.5642 50.6063 44.7514C50.7934 44.9385 50.9418 45.1607 51.043 45.4053C51.1442 45.6499 51.1961 45.912 51.1959 46.1766C51.1961 46.4413 51.1442 46.7034 51.043 46.948C50.9418 47.1925 50.7934 47.4147 50.6063 47.6019C50.4191 47.789 50.1969 47.9374 49.9524 48.0386C49.7078 48.1398 49.4457 48.1917 49.181 48.1915C48.9163 48.1917 48.6542 48.1398 48.4097 48.0386C48.1651 47.9374 47.9429 47.789 47.7558 47.6019C47.5686 47.4147 47.4202 47.1925 47.319 46.948C47.2179 46.7034 47.1659 46.4413 47.1661 46.1766C47.1659 45.912 47.2179 45.6499 47.319 45.4053C47.4202 45.1607 47.5686 44.9385 47.7558 44.7514C47.9429 44.5642 48.1651 44.4158 48.4097 44.3146C48.6542 44.2135 48.9163 44.1615 49.181 44.1618Z" fill="url(#paint2_linear_493_883)"/>
<path d="M55.6903 86.6076C67.4269 86.6076 66.6941 81.5179 66.6941 81.5179L66.6811 76.245H55.4809V74.6619H71.1294C71.1294 74.6619 78.6396 75.5136 78.6396 63.6711C78.6396 51.8288 72.0845 52.2488 72.0845 52.2488H68.1724V57.744C68.1724 57.744 68.3833 64.2991 61.7219 64.2991H50.6135C50.6135 64.2991 44.3724 64.1983 44.3724 70.3311V80.4712C44.3724 80.4712 43.4247 86.6076 55.6901 86.6076M61.8658 83.0619C61.6012 83.0621 61.3391 83.0102 61.0945 82.909C60.8499 82.8078 60.6277 82.6594 60.4406 82.4723C60.2534 82.2851 60.105 82.0629 60.0039 81.8184C59.9027 81.5738 59.8507 81.3117 59.851 81.047C59.8507 80.7823 59.9026 80.5202 60.0038 80.2756C60.105 80.031 60.2534 79.8088 60.4405 79.6216C60.6277 79.4345 60.8499 79.2861 61.0945 79.1849C61.339 79.0837 61.6012 79.0317 61.8658 79.032C62.1305 79.0317 62.3926 79.0837 62.6372 79.1848C62.8817 79.286 63.104 79.4344 63.2911 79.6216C63.4782 79.8087 63.6267 80.0309 63.7278 80.2755C63.829 80.5201 63.881 80.7822 63.8807 81.0468C63.881 81.3115 63.829 81.5736 63.7278 81.8182C63.6267 82.0627 63.4782 82.285 63.2911 82.4721C63.104 82.6592 62.8817 82.8076 62.6372 82.9088C62.3926 83.01 62.1305 83.0621 61.8658 83.0619Z" fill="url(#paint3_linear_493_883)"/>
</g>
<path d="M55.3567 40.6157C43.6201 40.6157 44.3529 45.7054 44.3529 45.7054L44.366 50.9785H55.566V52.5616H39.9175C39.9175 52.5616 32.4072 51.7098 32.4072 63.552C32.4072 75.3945 38.9624 74.9745 38.9624 74.9745H42.8744V69.4791C42.8744 69.4791 42.6635 62.924 49.3249 62.924H60.4334C60.4334 62.924 66.6744 63.0248 66.6744 56.8922V46.7523C66.6744 46.7523 67.6223 40.6157 55.3567 40.6157ZM49.181 44.1618C49.4457 44.1615 49.7078 44.2135 49.9524 44.3146C50.1969 44.4158 50.4191 44.5642 50.6063 44.7514C50.7934 44.9385 50.9418 45.1607 51.043 45.4053C51.1442 45.6499 51.1961 45.912 51.1959 46.1766C51.1961 46.4413 51.1442 46.7034 51.043 46.948C50.9418 47.1925 50.7934 47.4147 50.6063 47.6019C50.4191 47.789 50.1969 47.9374 49.9524 48.0386C49.7078 48.1398 49.4457 48.1917 49.181 48.1915C48.9163 48.1917 48.6542 48.1398 48.4097 48.0386C48.1651 47.9374 47.9429 47.789 47.7558 47.6019C47.5686 47.4147 47.4202 47.1925 47.319 46.948C47.2179 46.7034 47.1659 46.4413 47.1661 46.1766C47.1659 45.912 47.2179 45.6499 47.319 45.4053C47.4202 45.1607 47.5686 44.9385 47.7558 44.7514C47.9429 44.5642 48.1651 44.4158 48.4097 44.3146C48.6542 44.2135 48.9163 44.1615 49.181 44.1618Z" fill="url(#paint4_linear_493_883)"/>
<path d="M55.6903 86.6076C67.4269 86.6076 66.6941 81.5179 66.6941 81.5179L66.6811 76.245H55.4809V74.6619H71.1294C71.1294 74.6619 78.6396 75.5136 78.6396 63.6711C78.6396 51.8288 72.0845 52.2488 72.0845 52.2488H68.1724V57.744C68.1724 57.744 68.3833 64.2991 61.7219 64.2991H50.6135C50.6135 64.2991 44.3724 64.1983 44.3724 70.3311V80.4712C44.3724 80.4712 43.4247 86.6076 55.6901 86.6076M61.8658 83.0619C61.6012 83.0621 61.3391 83.0102 61.0945 82.909C60.8499 82.8078 60.6277 82.6594 60.4406 82.4723C60.2534 82.2851 60.105 82.0629 60.0039 81.8184C59.9027 81.5738 59.8507 81.3117 59.851 81.047C59.8507 80.7823 59.9026 80.5202 60.0038 80.2756C60.105 80.031 60.2534 79.8088 60.4405 79.6216C60.6277 79.4345 60.8499 79.2861 61.0945 79.1849C61.339 79.0837 61.6012 79.0317 61.8658 79.032C62.1305 79.0317 62.3926 79.0837 62.6372 79.1848C62.8817 79.286 63.104 79.4344 63.2911 79.6216C63.4782 79.8087 63.6267 80.0309 63.7278 80.2755C63.829 80.5201 63.881 80.7822 63.8807 81.0468C63.881 81.3115 63.829 81.5736 63.7278 81.8182C63.6267 82.0627 63.4782 82.285 63.2911 82.4721C63.104 82.6592 62.8817 82.8076 62.6372 82.9088C62.3926 83.01 62.1305 83.0621 61.8658 83.0619Z" fill="url(#paint5_linear_493_883)"/>
<defs>
<filter id="filter0_b_493_883" x="42.6355" y="19.5222" width="61.396" height="74.8692" filterUnits="userSpaceOnUse" color-interpolation-filters="sRGB">
<feFlood flood-opacity="0" result="BackgroundImageFix"/>
<feGaussianBlur in="BackgroundImageFix" stdDeviation="7.74523"/>
<feComposite in2="SourceAlpha" operator="in" result="effect1_backgroundBlur_493_883"/>
<feBlend mode="normal" in="SourceGraphic" in2="effect1_backgroundBlur_493_883" result="shape"/>
</filter>
<filter id="filter1_f_493_883" x="15.1956" y="23.4041" width="80.6557" height="80.4151" filterUnits="userSpaceOnUse" color-interpolation-filters="sRGB">
<feFlood flood-opacity="0" result="BackgroundImageFix"/>
<feBlend mode="normal" in="SourceGraphic" in2="BackgroundImageFix" result="shape"/>
<feGaussianBlur stdDeviation="8.60581" result="effect1_foregroundBlur_493_883"/>
</filter>
<linearGradient id="paint0_linear_493_883" x1="59.8431" y1="76.4233" x2="96.2971" y2="51.1604" gradientUnits="userSpaceOnUse">
<stop stop-color="white" stop-opacity="0.2"/>
<stop offset="1" stop-color="white" stop-opacity="0.49"/>
</linearGradient>
<linearGradient id="paint1_linear_493_883" x1="60.2729" y1="38.4644" x2="95.4492" y2="64.5295" gradientUnits="userSpaceOnUse">
<stop stop-color="white"/>
<stop offset="1" stop-color="white" stop-opacity="0"/>
</linearGradient>
<linearGradient id="paint2_linear_493_883" x1="32.41" y1="57.7923" x2="66.6918" y2="57.7923" gradientUnits="userSpaceOnUse">
<stop stop-color="#7C00FF"/>
<stop offset="1" stop-color="#2CF19A"/>
</linearGradient>
<linearGradient id="paint3_linear_493_883" x1="61.5001" y1="87.9911" x2="61.5001" y2="53.8099" gradientUnits="userSpaceOnUse">
<stop stop-color="#FF5C00"/>
<stop offset="0.52" stop-color="#FFCA40"/>
<stop offset="1" stop-color="#FFE0F9"/>
</linearGradient>
<linearGradient id="paint4_linear_493_883" x1="32.41" y1="57.7923" x2="66.6918" y2="57.7923" gradientUnits="userSpaceOnUse">
<stop stop-color="#7C00FF"/>
<stop offset="1" stop-color="#2CF19A"/>
</linearGradient>
<linearGradient id="paint5_linear_493_883" x1="61.5001" y1="87.9911" x2="61.5001" y2="53.8099" gradientUnits="userSpaceOnUse">
<stop stop-color="#FF5C00"/>
<stop offset="0.52" stop-color="#FFCA40"/>
<stop offset="1" stop-color="#FFE0F9"/>
</linearGradient>
</defs>
</svg>
