<svg width="116" height="115" viewBox="0 0 116 115" fill="none" xmlns="http://www.w3.org/2000/svg">
<path d="M33.9815 12.9624C33.8709 13.0126 33.7704 13.0227 33.6699 12.9825C33.5695 12.9423 33.4941 12.872 33.4439 12.7614L33.1475 12.1435C33.0972 12.0329 33.0821 11.9325 33.1173 11.827C33.1475 11.7265 33.2178 11.6461 33.3283 11.5959L38.2318 9.22953C38.3423 9.17929 38.4478 9.16925 38.5533 9.20441C38.6588 9.23958 38.7342 9.31494 38.7894 9.42045L39.0859 10.0384C39.1361 10.1489 39.1461 10.2544 39.111 10.3599C39.0758 10.4654 39.0004 10.5408 38.8949 10.5961L33.9915 12.9624H33.9815Z" fill="white"/>
<path d="M47.8877 13.3995C47.7571 13.4196 47.6515 13.3995 47.5661 13.3292C47.4807 13.2588 47.4305 13.1684 47.4154 13.0478L45.7072 1.36193C45.6871 1.2313 45.7072 1.12077 45.7675 1.03536C45.8278 0.949955 45.9233 0.894691 46.0539 0.874595L50.4198 0.236543C51.7662 0.0406062 52.8816 0.201375 53.7608 0.71885C54.64 1.23632 55.1725 2.11553 55.3534 3.35646C55.489 4.27586 55.3684 5.05961 54.9916 5.70269C54.6148 6.35079 54.0521 6.84314 53.2985 7.18477L56.75 11.5456C56.7953 11.6109 56.8254 11.6763 56.8304 11.7365C56.8455 11.832 56.8154 11.9224 56.75 12.0028C56.6847 12.0882 56.5993 12.1334 56.5039 12.1485L55.6448 12.2741C55.4438 12.3043 55.2831 12.2741 55.1725 12.1787C55.062 12.0832 54.9615 11.9877 54.8761 11.8923L51.6155 7.72737L48.4855 8.18456L49.1587 12.8016C49.1788 12.9222 49.1537 13.0277 49.0834 13.1131C49.0181 13.2036 48.9176 13.2538 48.787 13.2739L47.8726 13.4095L47.8877 13.3995ZM48.2745 6.65223L51.2286 6.22016C52.1229 6.08954 52.766 5.80317 53.1529 5.36608C53.5397 4.92396 53.6804 4.33615 53.5699 3.59762C53.4644 2.86913 53.1629 2.34664 52.6756 2.03012C52.1832 1.71361 51.4849 1.61815 50.5806 1.7538L47.6264 2.18587L48.2795 6.66228L48.2745 6.65223Z" fill="white"/>
<path d="M62.9497 12.46C62.8191 12.4349 62.7236 12.3796 62.6683 12.2892C62.6131 12.1988 62.593 12.0933 62.6131 11.9777L64.7332 0.362149C64.7583 0.231524 64.8136 0.136067 64.899 0.0707551C64.9844 0.0054427 65.0899 -0.0146534 65.2206 0.0104667L72.5707 1.35188C72.7013 1.377 72.7968 1.43227 72.8521 1.5227C72.9073 1.61313 72.9274 1.72366 72.9023 1.85428L72.7767 2.53253C72.7516 2.66315 72.7013 2.75861 72.6159 2.81387C72.5305 2.87416 72.425 2.88923 72.2944 2.86411L66.2454 1.75883L65.532 5.65747L71.1891 6.69242C71.3197 6.71754 71.4152 6.77281 71.4705 6.86324C71.5257 6.95367 71.5458 7.0642 71.5207 7.19483L71.4001 7.85297C71.38 7.97355 71.3247 8.06398 71.2393 8.12427C71.1539 8.18958 71.0484 8.20968 70.9178 8.18456L65.2607 7.14961L64.5222 11.1889L70.7118 12.3193C70.8424 12.3445 70.9379 12.3997 70.9932 12.4801C71.0534 12.5655 71.0685 12.671 71.0434 12.8016L70.9178 13.495C70.8977 13.6155 70.8424 13.706 70.757 13.7663C70.6716 13.8316 70.5661 13.8517 70.4355 13.8265L62.9447 12.46H62.9497Z" fill="white"/>
<path d="M80.1169 18.2427C79.1824 17.7152 78.4891 17.0972 78.0369 16.3888C77.5847 15.6804 77.3687 14.9118 77.3788 14.0878C77.3888 13.2639 77.6149 12.4148 78.052 11.5406C78.3032 11.0734 78.5745 10.576 78.8659 10.0586C79.1573 9.53605 79.4436 9.0437 79.72 8.57646C80.2425 7.7475 80.8504 7.1195 81.5387 6.68743C82.232 6.25536 83.0007 6.04938 83.8447 6.0745C84.6887 6.09962 85.573 6.37092 86.4974 6.89341C87.2309 7.30538 87.8137 7.77262 88.2407 8.29009C88.6678 8.80757 88.9692 9.32504 89.14 9.84252C89.3108 10.36 89.3862 10.8423 89.3661 11.2894C89.346 11.7316 89.2656 12.0883 89.13 12.3596C89.0847 12.46 89.0194 12.5203 88.924 12.5454C88.8285 12.5655 88.728 12.5454 88.6225 12.4902L87.6931 11.9677C87.5876 11.9074 87.5223 11.8471 87.5022 11.7768C87.4771 11.7064 87.4771 11.611 87.4921 11.4804C87.5524 11.1538 87.5474 10.7971 87.4771 10.4153C87.4118 10.0334 87.246 9.65161 86.9797 9.2748C86.7134 8.898 86.3014 8.55134 85.7438 8.23985C84.9048 7.7676 84.1009 7.61185 83.3373 7.77764C82.5736 7.94344 81.8803 8.53125 81.2523 9.55113C80.6946 10.4705 80.1671 11.405 79.6747 12.3545C79.1271 13.4297 78.9814 14.339 79.2376 15.0876C79.4939 15.8362 80.0415 16.4391 80.8705 16.9063C81.4281 17.2178 81.9808 17.3936 82.5384 17.4288C83.0911 17.464 83.6136 17.3384 84.1059 17.057C84.5983 16.7757 85.0304 16.2984 85.4021 15.6402L85.7739 14.9771L83.4076 13.6457C83.3021 13.5854 83.2368 13.505 83.2066 13.3945C83.1765 13.289 83.1966 13.1785 83.2619 13.0629L83.5432 12.5605C83.6086 12.445 83.694 12.3696 83.7995 12.3445C83.905 12.3143 84.0105 12.3294 84.116 12.3897L87.678 14.3943C87.7936 14.4596 87.8639 14.545 87.889 14.6455C87.9142 14.751 87.889 14.8565 87.8288 14.9771L86.9797 16.4893C86.4974 17.3534 85.8945 18.0015 85.1861 18.4487C84.4727 18.8908 83.6789 19.1018 82.8097 19.0717C81.9406 19.0465 81.0413 18.7702 80.1169 18.2527V18.2427Z" fill="white"/>
<path d="M92.1045 28.0848C91.4464 27.3161 91.0143 26.5374 90.8134 25.7486C90.6124 24.9598 90.6676 24.1761 90.9741 23.3923C91.2806 22.6136 91.8784 21.8399 92.7677 21.0813L98.3393 16.2984C98.4398 16.213 98.5453 16.1728 98.6508 16.1728C98.7563 16.1728 98.8518 16.2281 98.9422 16.3285L99.5451 17.0269C99.6305 17.1274 99.6707 17.2329 99.6607 17.3434C99.6506 17.4539 99.5953 17.5544 99.4949 17.6398L93.8981 22.4478C92.9988 23.2165 92.5165 23.9952 92.4512 24.789C92.3808 25.5778 92.6622 26.3414 93.2902 27.0699C93.9081 27.7934 94.6165 28.1802 95.4153 28.2405C96.2091 28.2958 97.0582 27.9391 97.9525 27.1704L103.549 22.3624C103.65 22.277 103.755 22.2368 103.866 22.2468C103.976 22.2569 104.072 22.3071 104.147 22.3976L104.76 23.111C104.84 23.2014 104.876 23.3019 104.866 23.4124C104.855 23.5229 104.805 23.6234 104.7 23.7088L99.1281 28.4917C98.2389 29.2554 97.3898 29.7276 96.5709 29.9135C95.752 30.0994 94.9732 30.0341 94.2247 29.7226C93.4761 29.4111 92.7727 28.8635 92.1045 28.0848Z" fill="white"/>
<path d="M98.6658 37.5751C98.6155 37.4495 98.6155 37.344 98.6607 37.2435C98.706 37.1481 98.7863 37.0777 98.8969 37.0325L109.879 32.6365C109.99 32.5913 110.095 32.5862 110.196 32.6264C110.296 32.6666 110.372 32.747 110.422 32.8676L110.779 33.7568C110.824 33.8674 110.824 33.9779 110.779 34.0784C110.733 34.1789 110.658 34.2542 110.548 34.2994L100.64 38.2684L102.871 43.8451C102.921 43.9657 102.921 44.0812 102.881 44.1817C102.836 44.2822 102.755 44.3575 102.63 44.4078L101.957 44.6791C101.846 44.7243 101.735 44.7243 101.635 44.6791C101.534 44.6339 101.459 44.5535 101.409 44.4279L98.6658 37.5801V37.5751Z" fill="white"/>
<path d="M102.629 49.1405C102.624 49.045 102.655 48.9596 102.725 48.8792C102.795 48.8039 102.876 48.7637 102.971 48.7587C103.031 48.7587 103.097 48.7587 103.172 48.7637L115.114 52.5719C115.235 52.6121 115.335 52.6724 115.416 52.7528C115.496 52.8332 115.536 52.9588 115.546 53.1245L115.617 54.3504C115.627 54.5162 115.596 54.6468 115.531 54.7373C115.466 54.8227 115.37 54.898 115.255 54.9533L103.83 60.0828C103.76 60.113 103.695 60.128 103.634 60.128C103.539 60.1331 103.453 60.1029 103.373 60.0326C103.298 59.9623 103.257 59.8819 103.252 59.7864L103.197 58.867C103.187 58.7213 103.217 58.6158 103.288 58.5455C103.358 58.4751 103.418 58.4249 103.479 58.3998L105.985 57.2593L105.644 51.336L103.021 50.492C102.961 50.4819 102.891 50.4467 102.815 50.3764C102.74 50.3061 102.695 50.2006 102.69 50.0599L102.634 49.1405H102.629ZM107.221 51.7781L107.503 56.6514L113.773 53.848L107.221 51.7781Z" fill="white"/>
<path d="M101.861 67.1918C101.891 67.0762 101.951 66.9858 102.047 66.9306C102.142 66.8703 102.248 66.8602 102.363 66.8853L112.698 69.3973L113.517 66.0212C113.547 65.9056 113.607 65.8152 113.703 65.76C113.798 65.6997 113.904 65.6896 114.019 65.7147L114.758 65.8956C114.888 65.9257 114.979 65.9911 115.039 66.0865C115.099 66.182 115.109 66.2875 115.084 66.403L113.029 74.8735C112.999 75.0042 112.934 75.0946 112.839 75.1549C112.743 75.2102 112.633 75.2252 112.502 75.1951L111.763 75.0142C111.648 74.9841 111.557 74.9238 111.502 74.8283C111.442 74.7329 111.432 74.6223 111.462 74.4917L112.276 71.1357L101.941 68.6287C101.826 68.5985 101.735 68.5382 101.68 68.4428C101.62 68.3473 101.61 68.2368 101.64 68.1062L101.861 67.1918Z" fill="white"/>
<path d="M96.0233 80.7416C96.5759 79.8624 97.1989 79.2093 97.8872 78.7722C98.5805 78.3401 99.3441 78.1492 100.183 78.2095C101.022 78.2647 101.932 78.5712 102.906 79.1289C103.363 79.4002 103.795 79.6664 104.212 79.9277C104.624 80.1889 105.051 80.4653 105.499 80.7567C106.413 81.3897 107.071 82.078 107.478 82.8215C107.885 83.5651 108.046 84.3539 107.965 85.1778C107.88 86.0017 107.579 86.8307 107.051 87.6697C106.534 88.4987 105.921 89.1267 105.212 89.5588C104.504 89.9908 103.725 90.1868 102.876 90.1516C102.022 90.1164 101.118 89.815 100.158 89.2573C99.6958 88.9961 99.2588 88.7348 98.8468 88.4736C98.4348 88.2123 98.0077 87.931 97.5707 87.6295C96.6412 87.0015 95.968 86.3183 95.556 85.5847C95.1441 84.8512 94.9833 84.0725 95.0737 83.2636C95.1642 82.4498 95.4807 81.6107 96.0283 80.7416H96.0233ZM97.3245 81.5605C96.8372 82.3342 96.6714 83.1179 96.8321 83.9117C96.9929 84.7005 97.5807 85.4491 98.6106 86.1474C99.0578 86.4589 99.4597 86.7252 99.8265 86.9513C100.188 87.1774 100.6 87.4235 101.062 87.6848C101.781 88.1068 102.434 88.3379 103.022 88.3731C103.61 88.4083 104.132 88.2927 104.589 88.0214C105.041 87.7501 105.433 87.3633 105.75 86.8508C106.071 86.3384 106.252 85.8209 106.297 85.2934C106.343 84.7658 106.222 84.2484 105.936 83.7309C105.649 83.2134 105.162 82.7211 104.474 82.2488C104.032 81.9574 103.63 81.6961 103.268 81.4701C102.906 81.244 102.489 80.9878 102.027 80.7114C100.952 80.0935 100.017 79.8825 99.2336 80.0885C98.4499 80.2944 97.8118 80.7818 97.3245 81.5605Z" fill="white"/>
<path d="M89.1299 89.6893C89.2354 89.609 89.3358 89.5738 89.4413 89.5889C89.5469 89.6039 89.6373 89.6592 89.7127 89.7547L97.0477 99.0089C97.1281 99.1144 97.1683 99.2199 97.1583 99.3254C97.1482 99.4309 97.093 99.5264 96.9925 99.6068L93.5359 102.35C92.4708 103.194 91.4259 103.616 90.401 103.611C89.3811 103.606 88.4818 103.109 87.7031 102.129C87.1253 101.4 86.8389 100.662 86.8389 99.9183C86.8389 99.1697 87.0801 98.4613 87.5624 97.7881L82.3927 95.7483C82.3173 95.7132 82.262 95.673 82.2268 95.6277C82.1666 95.5524 82.1465 95.462 82.1615 95.3564C82.1766 95.2509 82.2218 95.1655 82.3022 95.1103L82.9805 94.5727C83.1412 94.4471 83.2919 94.3918 83.4376 94.422C83.5833 94.4471 83.714 94.4772 83.8396 94.5174L88.748 96.4869L91.2299 94.5225L88.3311 90.865C88.2557 90.7695 88.2256 90.669 88.2356 90.5585C88.2507 90.448 88.3059 90.3525 88.4114 90.2721L89.1349 89.6994L89.1299 89.6893ZM92.1794 95.7182L89.8383 97.572C89.1299 98.1347 88.7179 98.7024 88.6023 99.2752C88.4868 99.8479 88.6626 100.431 89.1299 101.014C89.587 101.591 90.1095 101.893 90.6923 101.923C91.2751 101.953 91.9282 101.682 92.6467 101.114L94.9879 99.2601L92.1794 95.7182Z" fill="white"/>
<path d="M78.9261 103.023C79.0366 102.978 79.1421 102.983 79.2376 103.028C79.333 103.073 79.4034 103.154 79.4486 103.269L79.6948 103.912C79.74 104.023 79.74 104.128 79.6998 104.229C79.6596 104.329 79.5843 104.4 79.4737 104.445L74.3944 106.404C74.2839 106.449 74.1734 106.444 74.0729 106.404C73.9724 106.359 73.8971 106.279 73.8569 106.168L73.6107 105.525C73.5655 105.415 73.5705 105.304 73.6107 105.204C73.6559 105.103 73.7363 105.028 73.8468 104.987L78.9261 103.028V103.023Z" fill="white"/>
<path d="M58.7852 101.888C58.9158 101.893 59.0163 101.938 59.0866 102.023C59.1569 102.109 59.1871 102.209 59.177 102.33L58.4988 114.136C58.4938 114.257 58.4486 114.352 58.3732 114.428C58.2978 114.503 58.1923 114.533 58.0617 114.528L57.1021 114.473C56.9815 114.468 56.8861 114.423 56.8107 114.337C56.7353 114.252 56.7052 114.151 56.7102 114.031L57.3232 103.375L51.3295 103.028C51.1989 103.023 51.0934 102.973 51.018 102.892C50.9427 102.807 50.9125 102.702 50.9175 102.571L50.9577 101.847C50.9628 101.727 51.008 101.631 51.0934 101.556C51.1738 101.481 51.2843 101.451 51.4149 101.456L58.7801 101.878L58.7852 101.888Z" fill="white"/>
<path d="M45.3053 99.873C45.4309 99.9132 45.5163 99.9785 45.5615 100.079C45.6067 100.174 45.6117 100.28 45.5765 100.396L42.0245 111.68C41.9894 111.795 41.9241 111.88 41.8336 111.931C41.7432 111.981 41.6327 111.991 41.5071 111.951L40.5927 111.664C40.4671 111.624 40.3817 111.559 40.3365 111.458C40.2913 111.363 40.2863 111.257 40.3214 111.142L43.8734 99.858C43.9086 99.7424 43.9739 99.657 44.0643 99.6068C44.1547 99.5515 44.2653 99.5465 44.3909 99.5867L45.3053 99.873Z" fill="white"/>
<path d="M34.0871 94.4572C35.0215 95.0601 35.6797 95.7283 36.0716 96.4719C36.4634 97.2104 36.6141 97.9942 36.5287 98.8131C36.4433 99.632 36.1519 100.466 35.6546 101.305C35.3983 101.727 35.112 102.174 34.8055 102.651C34.499 103.129 34.1976 103.581 33.9062 104.008C33.3435 104.807 32.7105 105.415 31.9971 105.832C31.2837 106.249 30.51 106.429 29.676 106.379C28.842 106.329 27.9578 106.002 27.0233 105.4C26.3249 104.947 25.7723 104.455 25.3704 103.923C24.9685 103.39 24.6972 102.847 24.5565 102.3C24.4158 101.752 24.3857 101.215 24.461 100.697C24.5364 100.18 24.7022 99.7023 24.9584 99.2602C25.0087 99.1648 25.084 99.1045 25.1895 99.0844C25.295 99.0643 25.3905 99.0844 25.4859 99.1447L26.3199 99.6822C26.4104 99.7425 26.4757 99.8179 26.5058 99.9083C26.541 100.004 26.5259 100.124 26.4757 100.275C26.1391 101.174 26.1089 101.928 26.3903 102.526C26.6716 103.124 27.1639 103.646 27.8623 104.098C28.6812 104.626 29.48 104.817 30.2537 104.661C31.0274 104.505 31.7559 103.933 32.4392 102.943C33.0069 102.129 33.5545 101.28 34.0871 100.391C34.71 99.3557 34.9311 98.4564 34.7553 97.6877C34.5744 96.919 34.077 96.2709 33.2581 95.7384C32.5598 95.2862 31.8815 95.0551 31.2184 95.045C30.5602 95.035 29.887 95.3716 29.2037 96.0499C29.0882 96.1604 28.9827 96.2207 28.8822 96.2307C28.7817 96.2408 28.6913 96.2157 28.5958 96.1554L27.7618 95.6178C27.6714 95.5575 27.6111 95.4821 27.5809 95.3817C27.5508 95.2812 27.5709 95.1908 27.6412 95.1053C27.9376 94.6934 28.3044 94.3417 28.7516 94.0553C29.1937 93.7689 29.6961 93.573 30.2537 93.4776C30.8114 93.3821 31.4193 93.4022 32.0674 93.5529C32.7205 93.6986 33.3938 94.0001 34.0921 94.4522L34.0871 94.4572Z" fill="white"/>
<path d="M25.3751 87.534C25.4555 87.6395 25.4906 87.745 25.4755 87.8505C25.4605 87.956 25.4052 88.0465 25.3098 88.1218L16.0455 95.4519C15.94 95.5323 15.8345 95.5724 15.729 95.5624C15.6234 95.5524 15.528 95.4971 15.4476 95.3966L10.8104 89.5386C10.73 89.4331 10.6949 89.3276 10.71 89.2271C10.725 89.1266 10.7853 89.0261 10.8908 88.9458L11.4284 88.5187C11.5339 88.4383 11.6344 88.4032 11.7348 88.4132C11.8353 88.4233 11.9258 88.4836 12.0112 88.5891L15.8294 93.4121L18.9343 90.9554L15.3672 86.4438C15.2868 86.3383 15.2517 86.2328 15.2667 86.1323C15.2818 86.0318 15.3421 85.9313 15.4476 85.851L15.9701 85.434C16.0656 85.3586 16.1661 85.3234 16.2716 85.3335C16.3771 85.3435 16.4725 85.3988 16.5529 85.4993L20.1199 90.0108L23.3403 87.4637L19.4367 82.5301C19.3563 82.4246 19.3211 82.3241 19.3312 82.2236C19.3412 82.1231 19.4015 82.0277 19.507 81.9473L20.0597 81.5102C20.1551 81.4348 20.2556 81.4047 20.3611 81.4097C20.4666 81.4198 20.562 81.475 20.6424 81.5755L25.365 87.5441L25.3751 87.534Z" fill="white"/>
<path d="M17.4424 75.7779C17.4876 75.9035 17.4826 76.014 17.4324 76.1095C17.3821 76.2049 17.3017 76.2703 17.1862 76.3104L6.02783 80.1789C5.90223 80.2242 5.79168 80.2242 5.6912 80.1789C5.59072 80.1388 5.52039 80.0533 5.4802 79.9277L5.20891 79.144C5.1637 79.0083 5.15866 78.8928 5.19383 78.8024C5.23402 78.7119 5.2692 78.6567 5.29934 78.6315L12.0466 69.935L3.50073 72.8941C3.37513 72.9393 3.26461 72.9393 3.16413 72.8941C3.06867 72.8539 2.99835 72.7685 2.95313 72.6429L2.66676 71.824C2.62154 71.6984 2.62657 71.5879 2.67179 71.4874C2.72203 71.3869 2.80741 71.3166 2.93301 71.2713L14.0763 67.4079C14.1919 67.3677 14.3024 67.3727 14.4029 67.4179C14.5084 67.4631 14.5787 67.5435 14.6189 67.6591L14.9053 68.478C14.9505 68.6036 14.9455 68.7091 14.9053 68.7945C14.8651 68.8799 14.8299 68.9402 14.8149 68.9703L8.14796 77.6167L16.6235 74.6776C16.739 74.6374 16.8446 74.6425 16.945 74.6927C17.0455 74.7429 17.1159 74.8284 17.1611 74.954L17.4474 75.7729L17.4424 75.7779Z" fill="white"/>
<path d="M13.7596 56.8925C13.7445 57.9425 13.5636 58.8167 13.227 59.5251C12.8904 60.2334 12.4634 60.771 11.9459 61.1428C11.4284 61.5146 10.8859 61.7055 10.3181 61.7206C10.2227 61.7206 10.1373 61.6804 10.0569 61.6C9.98152 61.5196 9.94134 61.4241 9.94636 61.3186L9.96142 60.3942C9.96142 60.2485 10.0016 60.143 10.077 60.0727C10.1524 60.0023 10.2378 59.9571 10.3332 59.932C10.6246 59.8667 10.911 59.716 11.1973 59.4949C11.4837 59.2739 11.7249 58.9473 11.9208 58.5203C12.1167 58.0932 12.2172 57.5456 12.2273 56.8724C12.2423 55.8374 12.0715 55.0687 11.7148 54.5764C11.3581 54.084 10.8658 53.8278 10.2528 53.8178C9.8308 53.8127 9.48918 53.9333 9.2229 54.1895C8.96165 54.4458 8.72051 54.8376 8.5095 55.3601C8.29849 55.8877 8.06235 56.5709 7.80612 57.4099C7.53985 58.2841 7.24847 59.0126 6.93698 59.5853C6.62549 60.1581 6.24365 60.5851 5.79651 60.8615C5.34435 61.1378 4.77665 61.2684 4.08836 61.2583C3.44026 61.2483 2.85746 61.0624 2.35004 60.7057C1.84261 60.349 1.44571 59.8365 1.15431 59.1684C0.862921 58.5002 0.727269 57.7013 0.742341 56.7719C0.752389 56.0233 0.862935 55.3702 1.07394 54.8125C1.28495 54.2549 1.55622 53.7926 1.89283 53.4259C2.22944 53.0591 2.59118 52.7778 2.97301 52.5919C3.35484 52.406 3.72663 52.3106 4.08836 52.3005C4.17377 52.3005 4.25414 52.3357 4.3295 52.396C4.40486 52.4562 4.44504 52.5567 4.44002 52.6874L4.42496 53.6469C4.42496 53.7324 4.39983 53.8178 4.34959 53.9082C4.29935 53.9986 4.20892 54.0639 4.07327 54.1142C3.5759 54.1795 3.1589 54.4508 2.81224 54.9281C2.46558 55.4054 2.28974 56.0283 2.27466 56.802C2.25959 57.5858 2.40028 58.2238 2.6967 58.7162C2.99311 59.2085 3.45531 59.4597 4.09336 59.4698C4.50533 59.4748 4.84698 59.3693 5.11828 59.1432C5.3946 58.9171 5.63574 58.5604 5.85177 58.0681C6.06278 57.5757 6.29391 56.9377 6.53506 56.1439C6.81641 55.1843 7.1078 54.4006 7.41427 53.7876C7.72073 53.1797 8.0925 52.7275 8.53964 52.4412C8.98678 52.1548 9.54947 52.0141 10.2378 52.0242C10.9964 52.0342 11.6445 52.2452 12.172 52.6522C12.7046 53.0591 13.1015 53.6218 13.3728 54.3453C13.6441 55.0687 13.7697 55.9178 13.7546 56.8925H13.7596Z" fill="white"/>
<path d="M14.9803 45.91C14.9452 46.0407 14.8798 46.1261 14.7894 46.1763C14.694 46.2266 14.5884 46.2366 14.4729 46.2014L3.04826 43.1318C2.93271 43.1016 2.84729 43.0413 2.787 42.9509C2.73174 42.8605 2.71666 42.7499 2.75183 42.6243L3.00303 41.6999C3.0382 41.5743 3.10351 41.4839 3.19394 41.4336C3.28438 41.3834 3.39491 41.3733 3.51046 41.4085L14.9351 44.4782C15.0506 44.5083 15.1361 44.5686 15.1964 44.6591C15.2566 44.7495 15.2667 44.86 15.2315 44.9856L14.9803 45.91Z" fill="white"/>
<path d="M17.6331 37.9569C17.5678 38.0725 17.4774 38.1378 17.3769 38.1629C17.2714 38.183 17.1709 38.1629 17.0654 38.1026L6.91189 32.0688C6.79633 32.0035 6.72597 31.9181 6.69583 31.8125C6.66568 31.7121 6.6858 31.6015 6.75112 31.486L7.17815 30.7726C7.25351 30.647 7.33389 30.5716 7.42935 30.5415C7.5248 30.5113 7.59012 30.5013 7.62529 30.5113L18.6229 30.0592L10.8507 25.4371C10.7352 25.3717 10.6648 25.2863 10.6347 25.1808C10.6045 25.0804 10.6246 24.9698 10.6899 24.8543L11.1321 24.1057C11.1974 23.9901 11.2878 23.9198 11.3933 23.8947C11.4988 23.8696 11.6093 23.8897 11.7249 23.955L21.8634 29.9788C21.9689 30.0391 22.0342 30.1245 22.0694 30.235C22.1045 30.3455 22.0895 30.451 22.0241 30.5565L21.582 31.3051C21.5167 31.4207 21.4313 31.486 21.3359 31.5061C21.2404 31.5262 21.1751 31.5413 21.1399 31.5463L10.2277 32.0286L17.9396 36.6105C18.0451 36.6708 18.1104 36.7562 18.1355 36.8617C18.1607 36.9672 18.1406 37.0777 18.0753 37.1933L17.6331 37.9419V37.9569Z" fill="white"/>
<path d="M30.0976 22.5985C29.2686 23.2817 28.4396 23.6987 27.6157 23.8645C26.7918 24.0253 25.998 23.955 25.2343 23.6435C24.4707 23.332 23.7623 22.8145 23.1092 22.0911C22.7625 21.6891 22.4008 21.2571 22.0239 20.7949C21.6471 20.3326 21.2904 19.8905 20.9538 19.4635C20.371 18.6797 20.0043 17.8809 19.8536 17.0821C19.7028 16.2783 19.7883 15.4895 20.1199 14.7108C20.4514 13.932 21.0242 13.2086 21.8431 12.5354C22.4962 11.9978 23.1393 11.626 23.7773 11.415C24.4154 11.204 25.0082 11.1136 25.5508 11.1387C26.0984 11.1688 26.5707 11.2743 26.9777 11.4552C27.3846 11.6361 27.6861 11.842 27.887 12.0631C27.9674 12.1385 27.9975 12.2289 27.9825 12.3243C27.9674 12.4198 27.9172 12.5102 27.8217 12.5856L26.9977 13.2638C26.9023 13.3392 26.8219 13.3794 26.7465 13.3744C26.6762 13.3744 26.5808 13.3392 26.4652 13.2739C26.1839 13.098 25.8523 12.9775 25.4654 12.8971C25.0836 12.8217 24.6666 12.8368 24.2194 12.9473C23.7723 13.0579 23.3001 13.3141 22.8077 13.721C22.0641 14.334 21.6271 15.0222 21.5015 15.7959C21.3759 16.5696 21.6773 17.4288 22.3957 18.3833C23.0488 19.2374 23.7271 20.0664 24.4355 20.8752C25.2394 21.7796 26.0331 22.2418 26.8219 22.2769C27.6107 22.3071 28.3743 22.0207 29.1129 21.4178C29.6052 21.0109 29.972 20.5587 30.2031 20.0563C30.4392 19.5539 30.5095 19.0214 30.4241 18.4587C30.3387 17.896 30.0524 17.3233 29.5751 16.7354L29.0928 16.1476L26.9927 17.8658C26.8973 17.9412 26.7968 17.9764 26.6863 17.9663C26.5757 17.9563 26.4803 17.901 26.3949 17.7955L26.0281 17.3484C25.9427 17.2479 25.9075 17.1374 25.9176 17.0319C25.9276 16.9264 25.9779 16.8259 26.0733 16.7505L29.2334 14.1581C29.3339 14.0727 29.4394 14.0375 29.5449 14.0526C29.6504 14.0677 29.7459 14.128 29.8313 14.2284L30.9316 15.5699C31.5596 16.3335 31.9464 17.1273 32.1021 17.9563C32.2579 18.7802 32.1624 19.5941 31.8208 20.398C31.4792 21.2018 30.9014 21.9353 30.0775 22.6085L30.0976 22.5985Z" fill="white"/>
</svg>
