<svg width="132" height="133" viewBox="0 0 132 133" fill="none" xmlns="http://www.w3.org/2000/svg">
<path d="M56.6305 124.84C55.625 124.685 54.8148 124.431 54.1999 124.079C53.5786 123.732 53.1451 123.279 52.8995 122.721C52.6538 122.162 52.5917 121.489 52.7131 120.702C52.8129 120.054 53.0137 119.53 53.3155 119.13C53.6164 118.736 53.9775 118.435 54.3987 118.225C54.8199 118.015 55.2568 117.871 55.7093 117.792L53.1976 111.769L54.8567 112.025L57.0688 117.598L59.6162 117.991L60.404 112.879L61.8285 113.099L59.9404 125.35L56.6305 124.84ZM56.9042 123.621L58.7057 123.899L59.4302 119.198L57.4862 118.898C56.4862 118.744 55.7202 118.835 55.1881 119.17C54.6504 119.505 54.3204 120.069 54.1982 120.862C54.0699 121.694 54.2305 122.322 54.6798 122.746C55.1237 123.169 55.8651 123.461 56.9042 123.621Z" fill="white"/>
<path d="M43.1654 107.538L49.4752 110.334L44.4541 121.667L38.1442 118.871L38.6594 117.709L43.6515 119.92L45.276 116.254L40.5707 114.169L41.079 113.022L45.7843 115.107L47.6423 110.913L42.6502 108.701L43.1654 107.538Z" fill="white"/>
<path d="M31.3575 103.032C31.8116 102.454 32.3437 102.074 32.9539 101.892C33.5562 101.712 34.1989 101.717 34.882 101.909C35.5652 102.101 36.2556 102.471 36.9533 103.019C37.3222 103.309 37.657 103.601 37.958 103.895C38.2589 104.189 38.5209 104.478 38.744 104.761C38.9672 105.044 39.1447 105.317 39.2768 105.579L38.4228 106.665C38.1978 106.265 37.8924 105.817 37.5068 105.32C37.1176 104.827 36.6609 104.375 36.1365 103.962C35.6477 103.578 35.1837 103.318 34.7447 103.181C34.3022 103.049 33.8982 103.037 33.5328 103.145C33.1594 103.255 32.8365 103.482 32.5641 103.829C32.3021 104.162 32.1571 104.498 32.1292 104.835C32.0977 105.177 32.1814 105.574 32.3804 106.025C32.5715 106.477 32.8782 107.038 33.3006 107.708C33.5987 108.179 33.8373 108.626 34.0166 109.047C34.1925 109.473 34.2997 109.881 34.3384 110.27C34.377 110.66 34.3367 111.045 34.2172 111.426C34.0934 111.803 33.883 112.181 33.5861 112.558C33.1774 113.078 32.6971 113.42 32.145 113.582C31.5849 113.746 30.9948 113.742 30.3745 113.571C29.7462 113.401 29.1277 113.077 28.5189 112.598C27.9989 112.189 27.5574 111.763 27.1943 111.32C26.8267 110.873 26.5231 110.422 26.2835 109.968L27.4017 109.272C27.6376 109.695 27.9148 110.11 28.2335 110.519C28.5477 110.924 28.9137 111.291 29.3314 111.619C29.7492 111.947 30.1513 112.163 30.538 112.266C30.9167 112.369 31.269 112.369 31.5947 112.266C31.9204 112.162 32.2038 111.957 32.4448 111.651C32.7137 111.308 32.8662 110.968 32.9021 110.63C32.9336 110.288 32.8614 109.904 32.6856 109.478C32.5019 109.053 32.2229 108.539 31.8487 107.936C31.4396 107.277 31.1276 106.672 30.9128 106.122C30.6944 105.577 30.6135 105.053 30.6701 104.551C30.7232 104.054 30.9524 103.547 31.3575 103.032Z" fill="white"/>
<path d="M26.3459 91.8242L30.5533 97.2948L20.7278 104.852L16.5203 99.3811L17.5284 98.6058L20.8572 102.934L24.036 100.489L20.8985 96.4096L21.8932 95.6446L25.0307 99.724L28.6665 96.9276L25.3378 92.5996L26.3459 91.8242Z" fill="white"/>
<path d="M20.9405 80.2371L17.8863 83.1488L19.782 87.7413L23.9975 87.6431L24.5539 88.9911L11.1987 89.2572L10.7037 88.0581L20.3711 78.8578L20.9405 80.2371ZM16.8679 84.0369L13.8082 86.8684C13.7271 86.9386 13.5945 87.0544 13.4105 87.216C13.2243 87.3723 13.0314 87.5345 12.8317 87.7026C12.632 87.8706 12.4713 88.0072 12.3497 88.1125C12.5855 88.0763 12.8234 88.0454 13.0635 88.0196C13.2962 87.9908 13.5159 87.9674 13.7224 87.9494C13.9238 87.9336 14.0958 87.9207 14.2385 87.9107L18.4142 87.7831L16.8679 84.0369Z" fill="white"/>
<path d="M7.14973 73.6152C7.02817 72.605 7.05414 71.7565 7.22766 71.0695C7.39489 70.3776 7.71425 69.8382 8.18576 69.4512C8.65726 69.0643 9.28865 68.8232 10.0799 68.728C10.7309 68.6496 11.2894 68.702 11.7555 68.885C12.216 69.0687 12.6039 69.3351 12.9191 69.6843C13.2344 70.0335 13.491 70.4154 13.6889 70.8299L18.8132 66.7889L19.0137 68.4556L14.2416 72.0871L14.5496 74.646L19.6844 74.0281L19.8566 75.4591L7.54988 76.9402L7.14973 73.6152ZM8.39727 73.5504L8.61507 75.3602L13.3374 74.7919L13.1024 72.839C12.9815 71.8345 12.6879 71.1212 12.2215 70.6991C11.7544 70.2714 11.1224 70.1055 10.3255 70.2014C9.48939 70.302 8.92773 70.6258 8.64058 71.1727C8.35276 71.7141 8.27165 72.5066 8.39727 73.5504Z" fill="white"/>
<path d="M8.79218 55.8975C8.68867 56.5736 8.71275 57.2006 8.86444 57.7784C9.01139 58.3499 9.27648 58.8594 9.65969 59.3069C10.0382 59.7479 10.5221 60.1165 11.1115 60.4126C11.7009 60.7087 12.3839 60.9162 13.1605 61.0351C14.1885 61.1925 15.1069 61.1702 15.9155 60.968C16.7194 60.7594 17.3768 60.3683 17.8878 59.7947C18.3996 59.2155 18.7291 58.4454 18.8762 57.4844C18.9601 56.9368 18.9941 56.416 18.9783 55.9218C18.9577 55.4211 18.9126 54.9311 18.8431 54.4515L20.0835 54.6414C20.1827 55.1141 20.2337 55.6022 20.2367 56.1059C20.2452 56.6104 20.1977 57.2007 20.0942 57.8767C19.9034 59.1226 19.4869 60.1253 18.8445 60.8847C18.1975 61.6376 17.3697 62.1513 16.3613 62.4258C15.3538 62.6947 14.2075 62.7307 12.9224 62.534C11.995 62.392 11.1682 62.1339 10.4421 61.7597C9.71125 61.379 9.10455 60.8973 8.62196 60.3145C8.14023 59.7261 7.80412 59.0456 7.61362 58.2731C7.41838 57.4941 7.39305 56.6325 7.53762 55.6883C7.63258 55.0681 7.78557 54.4797 7.9966 53.923C8.20763 53.3664 8.46318 52.8737 8.76326 52.445L9.88284 53.1997C9.64417 53.5634 9.42465 53.9701 9.22429 54.4198C9.01919 54.863 8.87515 55.3556 8.79218 55.8975Z" fill="white"/>
<path d="M25.7922 42.0429L25.18 43.3477L19.8916 40.8663L17.1256 46.7611L22.414 49.2425L21.8018 50.5473L10.5802 45.282L11.1924 43.9771L15.9743 46.2209L18.7402 40.3261L13.9584 38.0823L14.5706 36.7775L25.7922 42.0429Z" fill="white"/>
<path d="M29.7352 28.2084C29.4708 27.9141 29.3552 27.6418 29.3886 27.3914C29.4182 27.1368 29.536 26.917 29.742 26.7318C29.9564 26.5391 30.1938 26.4397 30.4543 26.4336C30.711 26.4233 30.9716 26.5653 31.2361 26.8596C31.4968 27.1497 31.614 27.4281 31.5878 27.6949C31.5577 27.9574 31.4355 28.1851 31.2211 28.3777C31.0151 28.5629 30.7821 28.6545 30.522 28.6526C30.2582 28.6465 29.9959 28.4985 29.7352 28.2084Z" fill="white"/>
<path d="M42.494 12.3432L45.7946 11.149C47.251 10.622 48.4247 10.4438 49.3159 10.6142C50.2071 10.7847 50.8421 11.3934 51.221 12.4405C51.3844 12.8923 51.4438 13.3306 51.3992 13.7555C51.358 14.1732 51.2149 14.5586 50.97 14.9116C50.7251 15.2647 50.3771 15.574 49.9261 15.8393L49.955 15.9191C50.4941 15.8142 50.9988 15.7969 51.469 15.8672C51.9392 15.9375 52.3552 16.1236 52.7169 16.4255C53.0786 16.7274 53.3662 17.1733 53.5797 17.7633C53.8393 18.4808 53.8911 19.1473 53.7351 19.7628C53.5844 20.3763 53.2523 20.9203 52.7387 21.3946C52.2231 21.8637 51.5508 22.2482 50.7216 22.5482L46.7114 23.9992L42.494 12.3432ZM45.658 16.8517L47.8904 16.044C48.9055 15.6767 49.5465 15.2554 49.8134 14.7801C50.0856 14.303 50.1053 13.7428 49.8726 13.0997C49.6322 12.4353 49.2252 12.0416 48.6517 11.9185C48.0836 11.7935 47.2919 11.9146 46.2767 12.2819L44.2676 13.0089L45.658 16.8517ZM46.0705 17.9918L47.6485 22.3528L50.0721 21.4759C51.1086 21.1008 51.769 20.6335 52.0533 20.0738C52.3358 19.5087 52.352 18.8807 52.102 18.1898C51.9424 17.7486 51.7075 17.4068 51.3974 17.1644C51.0926 16.92 50.6924 16.7943 50.197 16.7872C49.7049 16.7729 49.0975 16.8965 48.3746 17.1581L46.0705 17.9918Z" fill="white"/>
<path d="M59.0864 20.5601L57.5004 8.26647L58.9299 8.08205L60.5159 20.3757L59.0864 20.5601Z" fill="white"/>
<path d="M67.6822 7.64607L71.1779 7.96353C72.7203 8.1036 73.859 8.4397 74.5939 8.97184C75.3288 9.50398 75.6459 10.3245 75.5452 11.4335C75.5017 11.9119 75.3697 12.3341 75.1492 12.7C74.9348 13.0608 74.6419 13.3492 74.2704 13.5652C73.8989 13.7812 73.4526 13.9138 72.9317 13.963L72.924 14.0474C73.4568 14.1809 73.9212 14.3792 74.3173 14.6422C74.7134 14.9051 75.0113 15.25 75.2109 15.6768C75.4105 16.1036 75.4819 16.6294 75.4252 17.2542C75.3562 18.0141 75.1206 18.6398 74.7184 19.1311C74.3219 19.6229 73.7904 19.9747 73.1242 20.1867C72.4584 20.393 71.6865 20.4562 70.8083 20.3765L66.5612 19.9908L67.6822 7.64607ZM68.6369 13.0706L71.0011 13.2853C72.0763 13.383 72.8354 13.2731 73.2786 12.9558C73.7273 12.639 73.9826 12.1401 74.0445 11.4589C74.1084 10.7553 73.9067 10.2262 73.4395 9.87158C72.9779 9.5175 72.2095 9.29164 71.1343 9.194L69.0065 9.00077L68.6369 13.0706ZM68.5272 14.2781L68.1078 18.8968L70.6747 19.1299C71.7723 19.2296 72.5686 19.0862 73.0634 18.6998C73.5587 18.3078 73.8396 17.7459 73.9061 17.0141C73.9485 16.5469 73.8807 16.1377 73.7025 15.7867C73.5301 15.4362 73.2209 15.1527 72.7752 14.9363C72.3356 14.7148 71.733 14.5692 70.9675 14.4997L68.5272 14.2781Z" fill="white"/>
<path d="M79.089 22.0117L83.3064 10.3558L84.6618 10.8462L80.8828 21.2903L86.057 23.1625L85.6186 24.3743L79.089 22.0117Z" fill="white"/>
<path d="M89.4779 26.6618L95.9669 16.1005L97.1949 16.855L90.706 27.4164L89.4779 26.6618Z" fill="white"/>
<path d="M107.614 34.0736C106.934 34.7443 106.229 35.2689 105.499 35.6474C104.772 36.022 104.04 36.2367 103.3 36.2914C102.568 36.3462 101.845 36.2292 101.132 35.9404C100.418 35.6516 99.7344 35.1751 99.0796 34.511C98.4049 33.8268 97.9243 33.1219 97.6376 32.3965C97.3549 31.675 97.2481 30.9469 97.3173 30.2119C97.3904 29.481 97.6233 28.7552 98.0161 28.0345C98.4129 27.3179 98.9513 26.6242 99.6315 25.9536C100.533 25.0646 101.471 24.4337 102.445 24.0609C103.419 23.6881 104.392 23.617 105.366 23.8477C106.344 24.0824 107.283 24.6566 108.184 25.5703C109.045 26.4437 109.582 27.3627 109.795 28.3275C110.012 29.2963 109.931 30.2689 109.552 31.2455C109.182 32.2221 108.536 33.1648 107.614 34.0736ZM100.685 27.0462C99.9364 27.7843 99.3935 28.5299 99.0565 29.2829C98.7194 30.036 98.6183 30.7787 98.753 31.511C98.8917 32.2474 99.2964 32.9557 99.967 33.636C100.642 34.3202 101.342 34.7328 102.069 34.8738C102.799 35.0189 103.541 34.9262 104.295 34.5958C105.049 34.2653 105.8 33.7311 106.548 32.9929C107.687 31.8698 108.341 30.7533 108.509 29.6434C108.684 28.5335 108.274 27.4734 107.278 26.4632C106.603 25.7789 105.901 25.3603 105.17 25.2073C104.44 25.0542 103.696 25.1369 102.938 25.4553C102.189 25.7738 101.438 26.3041 100.685 27.0462Z" fill="white"/>
<path d="M113.493 43.7527L115.451 47.6176L110.088 50.3341C109.598 49.8539 109.149 49.3305 108.741 48.7638C108.337 48.2023 107.943 47.5433 107.559 46.787C106.977 45.6374 106.715 44.5505 106.772 43.5264C106.833 42.5074 107.183 41.5791 107.823 40.7416C108.469 39.9015 109.376 39.1851 110.546 38.5925C111.69 38.0127 112.802 37.7313 113.882 37.7483C114.964 37.7705 115.955 38.0888 116.856 38.7034C117.764 39.3204 118.522 40.229 119.13 41.429C119.442 42.0442 119.679 42.6559 119.841 43.2643C120.011 43.8751 120.113 44.4699 120.146 45.0486L118.778 45.124C118.748 44.6262 118.67 44.0983 118.546 43.5403C118.424 42.9874 118.231 42.4487 117.965 41.9243C117.508 41.0218 116.929 40.3423 116.229 39.8859C115.531 39.4346 114.755 39.2099 113.901 39.2119C113.049 39.2189 112.157 39.4586 111.224 39.9312C110.301 40.3987 109.572 40.9548 109.037 41.5997C108.507 42.242 108.213 42.9741 108.154 43.796C108.095 44.6178 108.317 45.5254 108.821 46.5187C109.073 47.0179 109.318 47.4324 109.555 47.7623C109.797 48.0897 110.032 48.3791 110.261 48.6307L113.65 46.9142L112.343 44.3351L113.493 43.7527Z" fill="white"/>
<path d="M123.595 55.9909C123.779 56.9915 123.806 57.84 123.676 58.5365C123.552 59.2375 123.267 59.7957 122.821 60.2113C122.374 60.6269 121.759 60.9068 120.975 61.0512C120.33 61.1699 119.77 61.1525 119.293 60.9989C118.822 60.8442 118.418 60.6025 118.082 60.2736C117.745 59.9447 117.466 59.5796 117.242 59.1782L112.38 63.5307L112.076 61.8797L116.612 57.9579L116.145 55.4231L111.059 56.3598L110.798 54.9423L122.989 52.6973L123.595 55.9909ZM122.354 56.1333L122.024 54.3405L117.346 55.202L117.702 57.1364C117.886 58.1315 118.223 58.8251 118.715 59.2173C119.208 59.6151 119.849 59.7413 120.638 59.5959C121.466 59.4434 122.007 59.0852 122.259 58.5215C122.513 57.9633 122.544 57.1672 122.354 56.1333Z" fill="white"/>
<path d="M111.58 75.2315L115.634 74.0634L116.079 69.115L112.296 67.2515L112.427 65.799L124.389 71.7427L124.273 73.0347L111.446 76.7177L111.58 75.2315ZM116.948 73.7473L120.971 72.6529C121.075 72.6283 121.246 72.5869 121.484 72.5288C121.721 72.4764 121.968 72.4218 122.222 72.3653C122.477 72.3087 122.683 72.2619 122.839 72.2249C122.614 72.1479 122.388 72.0652 122.164 71.9769C121.944 71.8948 121.738 71.8139 121.547 71.7343C121.361 71.6552 121.203 71.587 121.072 71.5298L117.311 69.7108L116.948 73.7473Z" fill="white"/>
<path d="M120.782 87.3807C120.216 88.877 119.51 89.858 118.664 90.3236C117.82 90.7965 116.854 90.8271 115.765 90.4155C115.273 90.2297 114.836 89.971 114.454 89.6392C114.075 89.3148 113.784 88.9088 113.582 88.4214C113.385 87.936 113.299 87.3629 113.325 86.7021C113.355 86.0485 113.529 85.2988 113.849 84.4528L114.382 83.041L109.822 81.3178L110.331 79.9695L121.927 84.351L120.782 87.3807ZM119.68 86.8192L120.267 85.2647L115.54 83.4786L115.064 84.7396C114.784 85.4799 114.63 86.1258 114.603 86.6775C114.574 87.2344 114.69 87.7041 114.95 88.0865C115.216 88.4708 115.645 88.7749 116.237 88.9987C117.009 89.2904 117.675 89.2613 118.237 88.9114C118.803 88.5635 119.284 87.8661 119.68 86.8192Z" fill="white"/>
<path d="M99.5241 98.9407L100.394 97.7916L105.051 101.318L108.982 96.1267L104.325 92.6004L105.195 91.4513L115.077 98.9338L114.207 100.083L109.996 96.8944L106.065 102.086L110.276 105.274L109.406 106.423L99.5241 98.9407Z" fill="white"/>
<path d="M97.0725 108.924L98.1627 115.875L96.9214 116.806L95.6719 108.258L92.7876 104.412L93.9407 103.547L96.7843 107.339L104.688 110.981L103.426 111.928L97.0725 108.924Z" fill="white"/>
<path d="M80.4727 117.069C80.5768 117.45 80.5576 117.746 80.4153 117.954C80.2745 118.168 80.0705 118.312 79.8033 118.385C79.5252 118.461 79.2684 118.443 79.0329 118.331C78.7989 118.225 78.6299 117.981 78.5259 117.599C78.4233 117.223 78.4437 116.922 78.587 116.695C78.7318 116.474 78.9432 116.326 79.2213 116.25C79.4885 116.177 79.7379 116.2 79.9694 116.318C80.2024 116.442 80.3701 116.692 80.4727 117.069Z" fill="white"/>
<g filter="url(#filter0_f_388_638)">
<path d="M57.2155 45.9005C53.2191 43.9924 47.6332 43.0578 40.1548 43.0246C39.4495 43.015 38.7581 43.2207 38.1726 43.6141C37.6921 43.9389 37.2988 44.3768 37.0272 44.8893C36.7557 45.4017 36.6142 45.9731 36.6152 46.5531V78.199C36.6152 80.3382 38.1373 81.952 40.1548 81.952C48.0159 81.952 55.9014 82.6865 60.6245 87.1507C60.6891 87.2121 60.7703 87.2531 60.8581 87.2687C60.9458 87.2842 61.0362 87.2737 61.1179 87.2383C61.1997 87.203 61.2693 87.1444 61.3181 87.0698C61.3668 86.9952 61.3926 86.908 61.3922 86.8189V49.5307C61.3924 49.2791 61.3385 49.0305 61.2343 48.8015C61.1302 48.5725 60.978 48.3685 60.7882 48.2034C59.7063 47.2785 58.5046 46.5039 57.2155 45.9005ZM88.1512 43.6108C87.5655 43.2183 86.8741 43.0138 86.1691 43.0246C78.6907 43.0578 73.1048 43.988 69.1084 45.9005C67.8194 46.5028 66.6173 47.2759 65.5346 48.199C65.3452 48.3644 65.1934 48.5684 65.0894 48.7974C64.9855 49.0263 64.9317 49.2749 64.9317 49.5263V86.8167C64.9317 86.9023 64.9569 86.986 65.0043 87.0574C65.0516 87.1287 65.119 87.1844 65.1979 87.2176C65.2768 87.2508 65.3638 87.26 65.4479 87.244C65.532 87.2279 65.6094 87.1874 65.6706 87.1275C68.51 84.3069 73.493 81.9487 86.1735 81.9498C87.1123 81.9498 88.0126 81.5769 88.6764 80.9131C89.3402 80.2493 89.7131 79.349 89.7131 78.4102V46.5542C89.7144 45.9731 89.5726 45.4006 89.3002 44.8872C89.0278 44.3739 88.6332 43.9355 88.1512 43.6108Z" fill="url(#paint0_linear_388_638)"/>
</g>
<path d="M57.2155 45.9005C53.2191 43.9924 47.6332 43.0578 40.1548 43.0246C39.4495 43.015 38.7581 43.2207 38.1726 43.6141C37.6921 43.9389 37.2988 44.3768 37.0272 44.8893C36.7557 45.4017 36.6142 45.9731 36.6152 46.5531V78.199C36.6152 80.3382 38.1373 81.952 40.1548 81.952C48.0159 81.952 55.9014 82.6865 60.6245 87.1507C60.6891 87.2121 60.7703 87.2531 60.8581 87.2687C60.9458 87.2842 61.0362 87.2737 61.1179 87.2383C61.1997 87.203 61.2693 87.1444 61.3181 87.0698C61.3668 86.9952 61.3926 86.908 61.3922 86.8189V49.5307C61.3924 49.2791 61.3385 49.0305 61.2343 48.8015C61.1302 48.5725 60.978 48.3685 60.7882 48.2034C59.7063 47.2785 58.5046 46.5039 57.2155 45.9005ZM88.1512 43.6108C87.5655 43.2183 86.8741 43.0138 86.1691 43.0246C78.6907 43.0578 73.1048 43.988 69.1084 45.9005C67.8194 46.5028 66.6173 47.2759 65.5346 48.199C65.3452 48.3644 65.1934 48.5684 65.0894 48.7974C64.9855 49.0263 64.9317 49.2749 64.9317 49.5263V86.8167C64.9317 86.9023 64.9569 86.986 65.0043 87.0574C65.0516 87.1287 65.119 87.1844 65.1979 87.2176C65.2768 87.2508 65.3638 87.26 65.4479 87.244C65.532 87.2279 65.6094 87.1874 65.6706 87.1275C68.51 84.3069 73.493 81.9487 86.1735 81.9498C87.1123 81.9498 88.0126 81.5769 88.6764 80.9131C89.3402 80.2493 89.7131 79.349 89.7131 78.4102V46.5542C89.7144 45.9731 89.5726 45.4006 89.3002 44.8872C89.0278 44.3739 88.6332 43.9355 88.1512 43.6108Z" fill="url(#paint1_linear_388_638)"/>
<g filter="url(#filter1_b_388_638)">
<path d="M63.1275 55.3793C64.8973 48.3931 71.5815 44.8259 86.1347 44.7606C86.3673 44.7598 86.5979 44.8049 86.813 44.8936C87.0281 44.9822 87.2235 45.1125 87.388 45.277C87.5526 45.4415 87.6829 45.637 87.7715 45.8521C87.8601 46.0672 87.9053 46.2978 87.9044 46.5304V78.3865C87.9044 78.8558 87.718 79.306 87.3861 79.6379C87.0542 79.9698 86.604 80.1562 86.1347 80.1562C71.9764 80.1562 66.5067 83.0111 63.1275 87.2354M63.1275 55.3793C61.3577 48.3931 54.6735 44.8259 40.1204 44.7606C39.8877 44.7598 39.6572 44.8049 39.4421 44.8936C39.227 44.9822 39.0315 45.1125 38.867 45.277C38.7025 45.4415 38.5722 45.637 38.4835 45.8521C38.3949 46.0672 38.3497 46.2978 38.3506 46.5304V78.173C38.3506 79.2658 39.0275 80.1562 40.1204 80.1562C54.2786 80.1562 59.7683 83.0321 63.1275 87.2354M63.1275 55.3793V87.2354" stroke="url(#paint2_linear_388_638)" stroke-width="3.53956" stroke-linecap="round" stroke-linejoin="round"/>
</g>
<g filter="url(#filter2_b_388_638)">
<path d="M93.2002 85.2323L90.3847 82.4139C94.5109 76.7832 94.0346 68.8262 88.9465 63.7361C83.3305 58.1145 74.2254 58.1145 68.6094 63.7361C62.9935 69.3577 62.9935 78.4718 68.6094 84.0904C73.5488 89.0347 81.1916 89.6269 86.7802 85.8701L89.6717 88.7644C90.6456 89.7393 92.2263 89.7393 93.2002 88.7644C94.1741 87.7895 94.1741 86.2072 93.2002 85.2323Z" fill="url(#paint3_linear_388_638)"/>
<path d="M93.5073 84.9255L90.9514 82.367C94.9672 76.5869 94.4048 68.5825 89.2536 63.4293C83.4681 57.638 74.0879 57.638 68.3023 63.4293C62.5171 69.2203 62.517 78.6091 68.3023 84.3972C73.3036 89.4034 80.994 90.0784 86.7226 86.4266L89.3645 89.0712C90.508 90.2158 92.3638 90.2158 93.5073 89.0712C94.6506 87.9268 94.6506 86.0699 93.5073 84.9255Z" stroke="url(#paint4_linear_388_638)" stroke-width="0.868194"/>
</g>
<defs>
<filter id="filter0_f_388_638" x="19.2513" y="25.6603" width="87.8254" height="78.9792" filterUnits="userSpaceOnUse" color-interpolation-filters="sRGB">
<feFlood flood-opacity="0" result="BackgroundImageFix"/>
<feBlend mode="normal" in="SourceGraphic" in2="BackgroundImageFix" result="shape"/>
<feGaussianBlur stdDeviation="8.68194" result="effect1_foregroundBlur_388_638"/>
</filter>
<filter id="filter1_b_388_638" x="34.5901" y="40.9998" width="57.0748" height="49.9963" filterUnits="userSpaceOnUse" color-interpolation-filters="sRGB">
<feFlood flood-opacity="0" result="BackgroundImageFix"/>
<feGaussianBlur in="BackgroundImageFix" stdDeviation="0.995501"/>
<feComposite in2="SourceAlpha" operator="in" result="effect1_backgroundBlur_388_638"/>
<feBlend mode="normal" in="SourceGraphic" in2="effect1_backgroundBlur_388_638" result="shape"/>
</filter>
<filter id="filter2_b_388_638" x="61.5383" y="56.6607" width="35.2515" height="35.694" filterUnits="userSpaceOnUse" color-interpolation-filters="sRGB">
<feFlood flood-opacity="0" result="BackgroundImageFix"/>
<feGaussianBlur in="BackgroundImageFix" stdDeviation="0.995501"/>
<feComposite in2="SourceAlpha" operator="in" result="effect1_backgroundBlur_388_638"/>
<feBlend mode="normal" in="SourceGraphic" in2="effect1_backgroundBlur_388_638" result="shape"/>
</filter>
<linearGradient id="paint0_linear_388_638" x1="85.9165" y1="89.0341" x2="50.5309" y2="35.5532" gradientUnits="userSpaceOnUse">
<stop stop-color="#AA83FF"/>
<stop offset="1" stop-color="#FF3FA4"/>
</linearGradient>
<linearGradient id="paint1_linear_388_638" x1="85.9165" y1="89.0341" x2="50.5309" y2="35.5532" gradientUnits="userSpaceOnUse">
<stop stop-color="#AA83FF"/>
<stop offset="1" stop-color="#FF3FA4"/>
</linearGradient>
<linearGradient id="paint2_linear_388_638" x1="41.1482" y1="84.8374" x2="78.3838" y2="41.3959" gradientUnits="userSpaceOnUse">
<stop stop-color="white" stop-opacity="0.2"/>
<stop offset="1" stop-color="white" stop-opacity="0.49"/>
</linearGradient>
<linearGradient id="paint3_linear_388_638" x1="66.0648" y1="87.8033" x2="92.6529" y2="61.6076" gradientUnits="userSpaceOnUse">
<stop stop-color="white" stop-opacity="0.2"/>
<stop offset="1" stop-color="white" stop-opacity="0.49"/>
</linearGradient>
<linearGradient id="paint4_linear_388_638" x1="66.4822" y1="61.8774" x2="91.5611" y2="88.2968" gradientUnits="userSpaceOnUse">
<stop stop-color="white"/>
<stop offset="1" stop-color="white" stop-opacity="0"/>
</linearGradient>
</defs>
</svg>
