<svg width="116" height="115" viewBox="0 0 116 115" fill="none" xmlns="http://www.w3.org/2000/svg">
<path d="M34.0557 13.2947C33.9451 13.345 33.8447 13.355 33.7442 13.3148C33.6437 13.2746 33.5683 13.2043 33.5181 13.0938L33.2217 12.4758C33.1714 12.3653 33.1564 12.2648 33.1915 12.1593C33.2217 12.0588 33.292 11.9784 33.4025 11.9282L38.306 9.56187C38.4165 9.51163 38.522 9.50158 38.6275 9.53675C38.733 9.57192 38.8084 9.64728 38.8637 9.75278L39.1601 10.3707C39.2103 10.4813 39.2204 10.5868 39.1852 10.6923C39.15 10.7978 39.0747 10.8731 38.9692 10.9284L34.0657 13.2947H34.0557Z" fill="white"/>
<path d="M49.0373 13.5258C48.9067 13.5409 48.8012 13.5158 48.7158 13.4505C48.6354 13.3801 48.5851 13.2897 48.5701 13.1691L47.0327 1.4581C47.0176 1.32747 47.0327 1.21695 47.098 1.13154C47.1583 1.04613 47.2538 0.990865 47.3894 0.975793L54.7948 0.00615519C54.9255 -0.0139409 55.031 0.0162032 55.1164 0.0815156C55.2018 0.146828 55.247 0.247309 55.2671 0.382957L55.3575 1.06623C55.3726 1.19685 55.3525 1.30235 55.2922 1.38776C55.2319 1.46815 55.1314 1.51839 55.0008 1.53346L48.9017 2.33228L49.4141 6.26107L55.1164 5.51249C55.247 5.49742 55.3525 5.52254 55.4379 5.58785C55.5233 5.65316 55.5685 5.75364 55.5886 5.88929L55.674 6.55246C55.6891 6.67304 55.664 6.77352 55.6037 6.86395C55.5434 6.95439 55.4429 7.00463 55.3123 7.0197L49.61 7.76828L50.1426 11.8377L56.3824 11.0188C56.513 11.0038 56.6186 11.0238 56.6989 11.0841C56.7793 11.1444 56.8296 11.2449 56.8446 11.3755L56.9351 12.0739C56.9501 12.1944 56.9301 12.2949 56.8647 12.3854C56.8045 12.4708 56.704 12.526 56.5733 12.5411L49.0222 13.5308L49.0373 13.5258Z" fill="white"/>
<path d="M63.1651 12.6717C63.0697 12.6516 62.9943 12.5964 62.934 12.5109C62.8737 12.4255 62.8537 12.3351 62.8737 12.2396C62.8838 12.1944 62.9039 12.1492 62.929 12.114C62.9541 12.0789 62.9792 12.0487 62.9943 12.0286L68.2896 7.20557L65.637 0.870273C65.6169 0.789889 65.6169 0.709504 65.637 0.62912C65.6571 0.533663 65.7123 0.458303 65.7977 0.403038C65.8831 0.347774 65.9736 0.332702 66.069 0.352798L67.1291 0.583903C67.2447 0.609024 67.3351 0.65424 67.3954 0.724576C67.4557 0.794913 67.5009 0.880321 67.5411 0.985826L69.6863 6.08019L73.7457 2.33729C73.811 2.25188 73.8914 2.19159 73.9819 2.15642C74.0673 2.12126 74.1678 2.11623 74.2733 2.13633L75.2781 2.35739C75.3735 2.37748 75.4489 2.43275 75.5041 2.51815C75.5594 2.60356 75.5745 2.69399 75.5544 2.78945C75.5343 2.86984 75.4941 2.9452 75.4338 3.00548L70.4299 7.68788L73.2132 14.2593C73.2333 14.2895 73.2433 14.3246 73.2433 14.3698C73.2433 14.4151 73.2433 14.4603 73.2333 14.5055C73.2132 14.6009 73.1579 14.6763 73.0725 14.7316C72.9871 14.7868 72.8917 14.8019 72.7862 14.7818L71.706 14.5457C71.6005 14.5206 71.5151 14.4753 71.4498 14.4C71.3845 14.3246 71.3342 14.2392 71.294 14.1438L69.0081 8.84843L64.7377 12.7119C64.6623 12.7822 64.5819 12.8375 64.4965 12.8827C64.4111 12.9279 64.3156 12.938 64.2101 12.9129L63.1651 12.6868V12.6717Z" fill="white"/>
<path d="M79.3019 17.7008C79.1914 17.6304 79.1261 17.54 79.106 17.4345C79.0859 17.329 79.106 17.2285 79.1763 17.123L85.5619 7.18548C85.6322 7.07495 85.7227 7.00461 85.8231 6.97949C85.9286 6.95437 86.0342 6.97949 86.1447 7.04481L90.0082 9.52667C90.7567 10.009 91.3295 10.5516 91.7264 11.1494C92.1233 11.7473 92.3192 12.3853 92.3142 13.0636C92.3092 13.7418 92.073 14.4402 91.6108 15.1586C91.1486 15.877 90.611 16.3794 89.9981 16.6608C89.3902 16.9421 88.727 17.0275 88.0186 16.912C87.3103 16.7964 86.5818 16.505 85.8282 16.0227L83.1353 14.2895L80.6886 18.0926C80.6233 18.1931 80.5379 18.2584 80.4273 18.2785C80.3168 18.2986 80.2113 18.2785 80.0958 18.2082L79.2869 17.6907L79.3019 17.7008ZM83.9492 13.0134L86.5818 14.7064C87.3304 15.1888 88.0036 15.3847 88.5914 15.2892C89.1842 15.1938 89.6816 14.827 90.0936 14.189C90.4955 13.561 90.6261 12.9581 90.4854 12.3753C90.3397 11.7975 89.8826 11.26 89.1139 10.7626L86.4813 9.06949L83.9492 13.0083V13.0134Z" fill="white"/>
<path d="M91.8072 27.5177C91.7268 27.4122 91.6967 27.3067 91.7118 27.2012C91.7318 27.0957 91.7871 27.0053 91.8826 26.9349L101.267 19.7656C101.373 19.6852 101.478 19.6501 101.584 19.6601C101.689 19.6702 101.785 19.7254 101.865 19.8309L106.397 25.7693C106.477 25.8748 106.508 25.9803 106.492 26.0859C106.477 26.1914 106.412 26.2818 106.307 26.3622L105.759 26.7792C105.653 26.8596 105.548 26.8947 105.447 26.8796C105.347 26.8646 105.257 26.8043 105.176 26.6988L101.443 21.8104L98.2932 24.2169L101.785 28.7888C101.865 28.8943 101.895 28.9998 101.88 29.1053C101.86 29.2108 101.8 29.3012 101.694 29.3816L101.162 29.7886C101.066 29.8639 100.966 29.8941 100.861 29.884C100.755 29.874 100.66 29.8187 100.579 29.7132L97.0875 25.1413L93.8269 27.6333L97.6451 32.6372C97.7255 32.7427 97.7607 32.8482 97.7456 32.9487C97.7305 33.0492 97.6702 33.1396 97.5647 33.22L97.0021 33.647C96.9066 33.7224 96.8061 33.7525 96.7006 33.7425C96.5951 33.7324 96.4996 33.6772 96.4193 33.5717L91.7972 27.5227L91.8072 27.5177Z" fill="white"/>
<path d="M99.9359 40.4295C99.8957 40.3039 99.9058 40.1933 99.956 40.1029C100.006 40.0125 100.092 39.9472 100.207 39.912L111.491 36.4253C111.617 36.3851 111.727 36.3902 111.828 36.4354C111.923 36.4806 111.994 36.566 112.029 36.6966L113.33 40.9118C113.732 42.213 113.747 43.3384 113.37 44.2879C112.993 45.2375 112.21 45.8956 111.009 46.2674C110.12 46.5387 109.331 46.5437 108.633 46.2674C107.934 45.9911 107.361 45.5138 106.909 44.8205L103.136 48.9C103.076 48.9553 103.021 48.9904 102.96 49.0105C102.87 49.0407 102.775 49.0256 102.684 48.9703C102.594 48.9151 102.533 48.8447 102.503 48.7543L102.247 47.9253C102.187 47.7294 102.192 47.5686 102.267 47.443C102.342 47.3174 102.423 47.2069 102.503 47.1064L106.121 43.2429L105.186 40.2185L100.725 41.5951C100.609 41.6302 100.504 41.6202 100.403 41.5699C100.303 41.5197 100.237 41.4293 100.197 41.3037L99.9259 40.4245L99.9359 40.4295ZM106.663 39.7713L107.542 42.625C107.809 43.4891 108.19 44.0769 108.683 44.3934C109.175 44.7049 109.783 44.7552 110.496 44.5341C111.2 44.3181 111.672 43.9413 111.908 43.4087C112.144 42.8762 112.129 42.1678 111.863 41.2936L110.984 38.44L106.663 39.7764V39.7713Z" fill="white"/>
<path d="M103.071 56.3808C103.071 56.2501 103.106 56.1446 103.181 56.0693C103.257 55.9939 103.357 55.9588 103.478 55.9537L115.304 55.7628C115.425 55.7628 115.525 55.793 115.606 55.8683C115.686 55.9437 115.726 56.0391 115.726 56.1748L115.741 57.1344C115.741 57.265 115.706 57.3705 115.631 57.4459C115.555 57.5212 115.455 57.5564 115.334 57.5614L103.508 57.7523C103.387 57.7523 103.287 57.7172 103.206 57.6468C103.126 57.5765 103.086 57.476 103.086 57.3404L103.071 56.3808Z" fill="white"/>
<path d="M102.604 65.8109C102.639 65.6954 102.709 65.61 102.805 65.5597C102.905 65.5095 103.011 65.4994 103.126 65.5346L114.4 69.0615C114.526 69.1017 114.616 69.167 114.666 69.2675C114.717 69.3679 114.727 69.4734 114.691 69.589L114.42 70.4531C114.375 70.5938 114.31 70.6842 114.219 70.7295C114.129 70.7747 114.058 70.8048 114.003 70.8149L105.889 72.2769L111.712 78.1349C111.752 78.17 111.793 78.2354 111.843 78.3208C111.893 78.4062 111.893 78.5167 111.853 78.6574L111.587 79.5014C111.546 79.627 111.481 79.7174 111.381 79.7677C111.28 79.8179 111.17 79.8229 111.044 79.7878L99.77 76.2609C99.6545 76.2257 99.5691 76.1554 99.5188 76.06C99.4686 75.9595 99.4636 75.8489 99.4987 75.7233L99.765 74.8793C99.8002 74.7637 99.8705 74.6834 99.966 74.6281C100.066 74.5779 100.172 74.5678 100.288 74.603L108.778 77.2607L104.051 72.6185C103.95 72.5381 103.88 72.4376 103.85 72.3271C103.819 72.2166 103.819 72.091 103.865 71.9503L104.03 71.4127C104.076 71.262 104.146 71.1565 104.231 71.0962C104.322 71.0359 104.432 70.9957 104.563 70.9706L111.099 69.8302L102.604 67.1724C102.488 67.1373 102.408 67.0669 102.352 66.9715C102.302 66.871 102.292 66.7655 102.327 66.6499L102.594 65.8059L102.604 65.8109Z" fill="white"/>
<path d="M95.3086 82.8524C95.394 82.7469 95.4894 82.6966 95.5949 82.6866C95.7004 82.6815 95.8009 82.7117 95.8964 82.7921L105.065 90.2327C105.166 90.3181 105.226 90.4085 105.241 90.519C105.256 90.6245 105.221 90.73 105.141 90.8305L100.433 96.6282C100.348 96.7337 100.252 96.784 100.147 96.794C100.041 96.7991 99.9357 96.7639 99.8352 96.6785L99.3027 96.2464C99.1972 96.161 99.1419 96.0706 99.1318 95.9701C99.1218 95.8696 99.157 95.7641 99.2424 95.6636L103.116 90.8908L100.041 88.3939L96.4189 92.8602C96.3335 92.9657 96.238 93.016 96.1325 93.026C96.027 93.031 95.9215 92.9959 95.821 92.9105L95.3035 92.4884C95.2081 92.4131 95.1578 92.3227 95.1377 92.2171C95.1227 92.1116 95.1578 92.0061 95.2382 91.9057L98.8605 87.4393L95.6703 84.8519L91.7063 89.7403C91.6209 89.8408 91.5305 89.9011 91.43 89.9111C91.3295 89.9212 91.224 89.886 91.1235 89.8006L90.5759 89.3585C90.4805 89.2831 90.4302 89.1927 90.4101 89.0872C90.3951 88.9817 90.4302 88.8762 90.5156 88.7757L95.3136 82.8624L95.3086 82.8524Z" fill="white"/>
<path d="M84.693 93.8048C84.8085 93.7395 84.914 93.7194 85.0195 93.7495C85.125 93.7797 85.2054 93.85 85.2657 93.9505L91.2494 104.134C91.3147 104.25 91.3398 104.355 91.3147 104.461C91.2946 104.566 91.2242 104.652 91.1087 104.717L90.3902 105.139C90.2646 105.214 90.1541 105.239 90.0586 105.219C89.9632 105.199 89.9029 105.174 89.8728 105.149L80.0206 100.241L84.6026 108.038C84.6679 108.153 84.693 108.259 84.6679 108.364C84.6478 108.47 84.5774 108.555 84.4619 108.621L83.7133 109.063C83.5978 109.128 83.4872 109.148 83.3817 109.123C83.2762 109.093 83.1858 109.023 83.1205 108.912L77.1469 98.7434C77.0866 98.6379 77.0665 98.5324 77.0916 98.4169C77.1168 98.3013 77.1821 98.2159 77.2825 98.1556L78.0311 97.7135C78.1467 97.6482 78.2522 97.6281 78.3426 97.6582C78.4381 97.6884 78.4984 97.7035 78.5335 97.7135L88.3203 102.557L83.7736 94.8247C83.7133 94.7192 83.6982 94.6137 83.7234 94.5082C83.7535 94.4027 83.8238 94.3122 83.9344 94.2469L84.6829 93.8048H84.693Z" fill="white"/>
<path d="M66.6867 101.351C66.8073 101.331 66.9128 101.351 67.0032 101.416C67.0936 101.481 67.1489 101.572 67.169 101.687L69.0229 112.158L72.4442 111.55C72.5648 111.53 72.6653 111.55 72.7607 111.615C72.8512 111.68 72.9064 111.771 72.9265 111.886L73.0572 112.635C73.0772 112.765 73.0572 112.876 72.9969 112.966C72.9316 113.057 72.8411 113.112 72.7256 113.132L64.1395 114.649C64.0089 114.675 63.8983 114.649 63.8079 114.589C63.7175 114.524 63.6622 114.428 63.6371 114.298L63.5065 113.549C63.4864 113.429 63.5065 113.328 63.5718 113.238C63.6371 113.147 63.7326 113.092 63.8632 113.067L67.2644 112.464L65.4106 101.994C65.3905 101.873 65.4106 101.768 65.4759 101.677C65.5412 101.587 65.6367 101.532 65.7673 101.507L66.6917 101.341L66.6867 101.351Z" fill="white"/>
<path d="M57.1862 102.421C57.2817 102.436 57.3621 102.481 57.4224 102.567C57.4826 102.652 57.5078 102.737 57.4927 102.833C57.4827 102.893 57.4676 102.959 57.4475 103.029L51.3332 113.966C51.2679 114.077 51.1875 114.162 51.0971 114.222C51.0017 114.283 50.871 114.298 50.7052 114.278L49.4894 114.102C49.3236 114.077 49.203 114.021 49.1277 113.941C49.0523 113.856 49.0021 113.75 48.9719 113.625L46.2288 101.401C46.2138 101.326 46.2137 101.26 46.2238 101.2C46.2389 101.105 46.2841 101.024 46.3695 100.964C46.4499 100.904 46.5403 100.879 46.6358 100.894L47.5501 101.024C47.6958 101.044 47.7913 101.095 47.8466 101.175C47.9018 101.255 47.937 101.326 47.9521 101.391L48.57 104.074L54.4431 104.923L55.7946 102.521C55.8147 102.461 55.8649 102.406 55.9503 102.341C56.0357 102.275 56.1463 102.26 56.2869 102.28L57.2013 102.411L57.1862 102.421ZM53.6895 106.39L48.8564 105.692L50.3535 112.394L53.6895 106.39Z" fill="white"/>
<path d="M38.1856 103.551C38.2911 103.607 38.3615 103.682 38.3916 103.787C38.4217 103.888 38.4067 103.993 38.3564 104.104L38.0449 104.717C37.9897 104.822 37.9143 104.898 37.8138 104.933C37.7134 104.968 37.6079 104.963 37.5024 104.908L32.6441 102.456C32.5386 102.401 32.4633 102.32 32.4331 102.215C32.3979 102.109 32.408 102.004 32.4633 101.893L32.7747 101.28C32.83 101.175 32.9104 101.1 33.0159 101.069C33.1214 101.034 33.2269 101.044 33.3374 101.1L38.1957 103.551H38.1856Z" fill="white"/>
<path d="M29.2378 91.5892C29.3282 91.6847 29.3735 91.7851 29.3684 91.8906C29.3634 91.9961 29.3182 92.0916 29.2278 92.177L20.7522 100.401C20.6568 100.492 20.5563 100.542 20.4508 100.542C20.3453 100.542 20.2448 100.497 20.1544 100.401L17.2957 97.4573C16.4316 96.568 15.8689 95.719 15.6076 94.9101C15.3464 94.1062 15.3564 93.3225 15.6378 92.5639C15.9191 91.8052 16.4316 91.0516 17.1852 90.3031C17.567 89.9162 17.9036 89.5796 18.2 89.2932C18.4964 89.0068 18.8381 88.6853 19.2249 88.3236C20.0388 87.57 20.8276 87.0575 21.5862 86.7963C22.3449 86.535 23.1185 86.5451 23.8872 86.8314C24.6609 87.1178 25.4698 87.6956 26.3188 88.5698L29.2428 91.5792L29.2378 91.5892ZM27.188 91.6847L25.2739 89.7102C24.6961 89.1124 24.1485 88.7155 23.641 88.5195C23.1336 88.3236 22.6161 88.3236 22.0987 88.5195C21.5812 88.7104 21.0185 89.0923 20.4106 89.665C20.1343 89.9011 19.8982 90.1121 19.7022 90.298C19.5063 90.4889 19.3103 90.6748 19.1194 90.8657C18.9235 91.0567 18.7125 91.2777 18.4763 91.539C17.6524 92.3729 17.2254 93.1718 17.1952 93.9455C17.16 94.7192 17.5821 95.5532 18.4562 96.4525L20.3101 98.3616L27.188 91.6847Z" fill="white"/>
<path d="M18.803 78.5367C18.8583 78.6573 18.8633 78.7678 18.8181 78.8633C18.7729 78.9587 18.6975 79.0341 18.587 79.0843L7.77023 83.827C7.64966 83.8823 7.53913 83.8873 7.43865 83.8521C7.33817 83.817 7.26279 83.7416 7.20753 83.616L4.2082 76.7733C4.15293 76.6527 4.1479 76.5422 4.19311 76.4467C4.2333 76.3462 4.31872 76.2709 4.4393 76.2206L5.0673 75.9443C5.18788 75.889 5.29841 75.884 5.39386 75.9192C5.48932 75.9544 5.56468 76.0347 5.61492 76.1553L8.08172 81.7872L11.7091 80.1946L9.39801 74.9294C9.34275 74.8089 9.33773 74.6983 9.38294 74.6029C9.42816 74.5074 9.50854 74.4321 9.62911 74.3768L10.242 74.1105C10.3526 74.0603 10.4581 74.0553 10.5586 74.0904C10.659 74.1256 10.7344 74.201 10.7897 74.3266L13.1007 79.5917L16.8587 77.9439L14.3316 72.1813C14.2763 72.0607 14.2713 71.9502 14.3065 71.8547C14.3417 71.7593 14.422 71.6839 14.5426 71.6337L15.1907 71.3523C15.3012 71.3021 15.4068 71.2971 15.5072 71.3322C15.6077 71.3674 15.6831 71.4478 15.7383 71.5684L18.798 78.5417L18.803 78.5367Z" fill="white"/>
<path d="M13.9345 60.3899C14.0049 61.4349 13.8994 62.3242 13.623 63.0577C13.3467 63.7912 12.9649 64.3589 12.4776 64.7759C11.9902 65.1929 11.4677 65.424 10.905 65.4893C10.8096 65.4944 10.7192 65.4642 10.6337 65.3888C10.5483 65.3135 10.5031 65.2231 10.4981 65.1175L10.4378 64.1982C10.4278 64.0525 10.4579 63.9419 10.5232 63.8666C10.5885 63.7912 10.6739 63.7359 10.7644 63.7058C11.0457 63.6154 11.322 63.4445 11.5933 63.1984C11.8596 62.9522 12.0756 62.6055 12.2314 62.1684C12.3922 61.7314 12.4474 61.1737 12.4022 60.5005C12.3319 59.4655 12.1008 58.7169 11.6988 58.2547C11.3019 57.7925 10.7945 57.5815 10.1766 57.6217C9.75454 57.6518 9.42296 57.8026 9.18181 58.0789C8.94066 58.3552 8.73466 58.7622 8.56385 59.3098C8.39303 59.8574 8.21719 60.5557 8.0313 61.4098C7.83537 62.3041 7.60929 63.0527 7.34804 63.6505C7.08679 64.2484 6.74012 64.7006 6.31308 65.0171C5.88604 65.3286 5.32838 65.5094 4.64511 65.5546C3.99701 65.5999 3.40417 65.4642 2.8666 65.1477C2.32903 64.8312 1.89194 64.3539 1.54528 63.7108C1.19862 63.0677 0.997666 62.284 0.937378 61.3596C0.887137 60.616 0.942395 59.9529 1.10316 59.3801C1.26393 58.8074 1.50007 58.3251 1.80151 57.9282C2.10798 57.5313 2.44458 57.2248 2.81133 57.0088C3.17808 56.7927 3.53982 56.6621 3.90155 56.6269C3.98696 56.6219 4.06734 56.647 4.15275 56.7023C4.23314 56.7576 4.27835 56.853 4.2884 56.9836L4.35371 57.9382C4.35873 58.0236 4.34367 58.109 4.29845 58.2045C4.25826 58.2999 4.17285 58.3753 4.04222 58.4306C3.55489 58.5361 3.158 58.8425 2.85153 59.3449C2.54507 59.8473 2.41946 60.4854 2.4697 61.2541C2.51994 62.0378 2.71587 62.6608 3.04746 63.128C3.37905 63.5953 3.86639 63.8063 4.50444 63.7661C4.91139 63.741 5.24799 63.6003 5.49919 63.3541C5.75541 63.1079 5.96642 62.7311 6.14226 62.2237C6.31308 61.7163 6.48892 61.0581 6.66477 60.2493C6.86573 59.2696 7.09182 58.4607 7.34804 57.8277C7.60427 57.1947 7.94087 56.7174 8.35786 56.3908C8.77486 56.0643 9.32751 55.8834 10.0158 55.8382C10.7744 55.7879 11.4326 55.9437 11.9953 56.3054C12.558 56.6671 13.0051 57.1947 13.3316 57.893C13.6632 58.5913 13.8592 59.4253 13.9245 60.4L13.9345 60.3899Z" fill="white"/>
<path d="M14.5778 48.3273C14.5477 48.4579 14.4924 48.5483 14.397 48.6036C14.3015 48.6589 14.201 48.6739 14.0805 48.6438L2.52017 46.1318C2.40462 46.1067 2.31418 46.0514 2.24887 45.961C2.18858 45.8756 2.17352 45.765 2.19864 45.6344L2.40461 44.6999C2.43476 44.5693 2.49505 44.4789 2.58549 44.4236C2.67592 44.3684 2.78142 44.3533 2.902 44.3834L14.4623 46.8954C14.5778 46.9206 14.6683 46.9758 14.7286 47.0663C14.7888 47.1567 14.8089 47.2622 14.7788 47.3928L14.5728 48.3273H14.5778Z" fill="white"/>
<path d="M19.4762 35.6968C18.9537 36.6363 18.3357 37.3297 17.6273 37.7818C16.919 38.234 16.1503 38.455 15.3314 38.445C14.5074 38.4349 13.6584 38.2139 12.7842 37.7768C12.3169 37.5306 11.8196 37.2593 11.2971 36.9679C10.7746 36.6765 10.2822 36.3952 9.81497 36.1189C8.98601 35.6014 8.35298 34.9935 7.91589 34.3052C7.4788 33.6169 7.27283 32.8432 7.29795 31.9992C7.31804 31.1551 7.58933 30.2709 8.10681 29.3465C8.51878 28.6079 8.981 28.0252 9.49847 27.5981C10.0159 27.1711 10.5334 26.8646 11.0509 26.6938C11.5684 26.523 12.0507 26.4426 12.4928 26.4627C12.9349 26.4828 13.2966 26.5632 13.5629 26.6988C13.6634 26.739 13.7237 26.8093 13.7488 26.9048C13.7739 27.0003 13.7488 27.1007 13.6935 27.2062L13.171 28.1357C13.1107 28.2412 13.0505 28.3065 12.9801 28.3316C12.9098 28.3567 12.8143 28.3618 12.6837 28.3417C12.3571 28.2814 12.0004 28.2914 11.6186 28.3567C11.2368 28.4271 10.855 28.5929 10.4781 28.8591C10.1013 29.1254 9.75972 29.5374 9.44823 30.0951C8.97597 30.9391 8.82525 31.7429 8.99607 32.5016C9.16186 33.2652 9.75469 33.9585 10.7746 34.5815C11.694 35.1342 12.6284 35.6617 13.583 36.149C14.6581 36.6966 15.5725 36.8373 16.3161 36.5761C17.0596 36.3148 17.6675 35.7722 18.1298 34.9382C18.4412 34.3806 18.6121 33.8229 18.6472 33.2702C18.6824 32.7176 18.5568 32.1951 18.2704 31.7027C17.9841 31.2104 17.5118 30.7833 16.8486 30.4116L16.1855 30.0398L14.8641 32.4061C14.8038 32.5116 14.7234 32.5769 14.6179 32.6071C14.5124 32.6372 14.4019 32.6221 14.2864 32.5568L13.7789 32.2755C13.6634 32.2102 13.588 32.1248 13.5579 32.0193C13.5277 31.9138 13.5428 31.8082 13.5981 31.7027L15.5926 28.1357C15.6579 28.0201 15.7433 27.9498 15.8438 27.9247C15.9493 27.8996 16.0598 27.9247 16.1754 27.985L17.6927 28.829C18.5568 29.3113 19.2099 29.9092 19.6571 30.6176C20.0992 31.331 20.3102 32.1197 20.2901 32.9889C20.265 33.858 19.9937 34.7574 19.4762 35.6868V35.6968Z" fill="white"/>
<path d="M26.6255 25.6237C26.52 25.7091 26.4195 25.7443 26.314 25.7292C26.2085 25.7141 26.118 25.6588 26.0427 25.5684L18.5267 16.4548C18.4413 16.3543 18.4011 16.2488 18.4112 16.1433C18.4162 16.0378 18.4715 15.9424 18.572 15.857L19.215 15.3294C19.3256 15.239 19.4311 15.1938 19.5315 15.1988C19.632 15.2038 19.6973 15.2189 19.7275 15.239L30.2277 18.5348L24.4752 11.5564C24.3898 11.4559 24.3496 11.3504 24.3596 11.2449C24.3647 11.1394 24.4199 11.0439 24.5204 10.9585L25.1886 10.4059C25.2891 10.3205 25.3996 10.2853 25.5051 10.2954C25.6156 10.3054 25.7111 10.3607 25.7965 10.4662L33.2974 19.5647C33.3727 19.6602 33.4079 19.7606 33.4029 19.8762C33.3979 19.9917 33.3476 20.0872 33.2522 20.1626L32.584 20.7152C32.4835 20.8006 32.383 20.8358 32.2825 20.8207C32.182 20.8056 32.1218 20.8006 32.0866 20.7956L21.6567 17.5601L27.364 24.4832C27.4394 24.5737 27.4745 24.6792 27.4645 24.7897C27.4544 24.9002 27.3992 24.9957 27.2937 25.0811L26.6255 25.6337V25.6237Z" fill="white"/>
</svg>
