<svg width="116" height="115" viewBox="0 0 116 115" fill="none" xmlns="http://www.w3.org/2000/svg">
<path d="M33.3309 13.2238C33.2204 13.274 33.1199 13.2841 33.0194 13.2439C32.919 13.2037 32.8436 13.1334 32.7934 13.0228L32.4919 12.4049C32.4417 12.2944 32.4316 12.1939 32.4618 12.0884C32.4919 11.9879 32.5623 11.9075 32.6728 11.8573L37.5763 9.49095C37.6868 9.44071 37.7923 9.43066 37.8978 9.46583C38.0033 9.501 38.0837 9.57636 38.1339 9.68186L38.4353 10.2998C38.4856 10.4103 38.4957 10.5158 38.4605 10.6214C38.4253 10.7269 38.3499 10.8022 38.2444 10.8575L33.341 13.2238H33.3309Z" fill="white"/>
<path d="M43.947 14.5451C43.8164 14.5752 43.7109 14.5551 43.6204 14.4948C43.535 14.4345 43.4748 14.3441 43.4496 14.2286L40.9376 2.68837C40.9075 2.55774 40.9226 2.44722 40.9778 2.35678C41.0331 2.26635 41.1235 2.20606 41.2541 2.17592L45.2683 1.30174C46.4791 1.03546 47.499 1.00532 48.323 1.21131C49.1469 1.41729 49.805 1.83428 50.3024 2.47234C50.7998 3.11039 51.1666 3.9494 51.4027 4.97933C51.5283 5.50685 51.6388 5.96906 51.7242 6.37098C51.8096 6.7729 51.9051 7.23009 52.0056 7.75259C52.2166 8.8428 52.2316 9.77727 52.0508 10.566C51.8699 11.3498 51.4579 11.9979 50.8048 12.5053C50.1517 13.0127 49.2373 13.3946 48.0466 13.6508L43.947 14.5451ZM44.9468 12.7565L47.6347 12.1737C48.4486 11.9979 49.0715 11.7417 49.5036 11.4151C49.9357 11.0885 50.212 10.6515 50.3175 10.1089C50.428 9.56626 50.3979 8.88802 50.2371 8.07413C50.1818 7.71742 50.1266 7.40593 50.0713 7.13966C50.0161 6.87338 49.9557 6.61214 49.9005 6.34586C49.8402 6.07959 49.7648 5.77815 49.6694 5.44154C49.3981 4.30611 48.9409 3.51733 48.3029 3.08024C47.6648 2.64315 46.7353 2.56277 45.5095 2.82904L42.9121 3.39676L44.9518 12.7615L44.9468 12.7565Z" fill="white"/>
<path d="M54.5829 12.4099C54.4875 12.4099 54.4021 12.3647 54.3367 12.2893C54.2664 12.214 54.2362 12.1285 54.2413 12.0331C54.2413 11.9728 54.2513 11.9075 54.2714 11.8371L59.3356 0.372316C59.3909 0.256764 59.4613 0.161307 59.5467 0.0909708C59.6321 0.0256584 59.7627 -0.00448574 59.9335 0.000538289L61.1644 0.0608266C61.3302 0.0708747 61.4558 0.111067 61.5362 0.186427C61.6165 0.261788 61.6768 0.362268 61.722 0.487869L65.6006 12.3998C65.6207 12.4752 65.6307 12.5405 65.6257 12.6008C65.6257 12.6963 65.5805 12.7817 65.5052 12.847C65.4298 12.9123 65.3444 12.9475 65.2489 12.9424L64.3295 12.8972C64.1839 12.8922 64.0834 12.847 64.0181 12.7716C63.9578 12.6963 63.9126 12.6259 63.8925 12.5656L63.0283 9.94811L57.105 9.6517L55.9846 12.1687C55.9696 12.229 55.9243 12.2943 55.849 12.3596C55.7736 12.425 55.6631 12.4601 55.5174 12.4501L54.598 12.4049L54.5829 12.4099ZM57.6928 8.12942L62.5711 8.37057L60.451 1.83431L57.6928 8.12439V8.12942Z" fill="white"/>
<path d="M69.2278 14.1331C69.1122 14.103 69.0268 14.0377 68.9716 13.9422C68.9163 13.8468 68.9062 13.7413 68.9414 13.6207L71.8001 3.3767L68.4541 2.44223C68.3385 2.41209 68.2531 2.34678 68.1978 2.25132C68.1426 2.15586 68.1326 2.05036 68.1627 1.92978L68.3686 1.19627C68.4038 1.07067 68.4691 0.975216 68.5646 0.924976C68.66 0.869712 68.7656 0.859664 68.8811 0.889808L77.2763 3.231C77.4019 3.26617 77.4923 3.33149 77.5476 3.42694C77.6028 3.5224 77.6129 3.63795 77.5777 3.76355L77.3717 4.49706C77.3416 4.61261 77.2763 4.69802 77.1758 4.75329C77.0753 4.80855 76.9648 4.8186 76.8392 4.78343L73.5132 3.85398L70.6546 14.098C70.6245 14.2135 70.5591 14.2989 70.4637 14.3542C70.3682 14.4095 70.2527 14.4195 70.1271 14.3843L69.2228 14.1331H69.2278Z" fill="white"/>
<path d="M74.1612 15.4243C74.0758 15.3791 74.0205 15.3087 73.9904 15.2083C73.9602 15.1078 73.9703 15.0174 74.0155 14.9319C74.0456 14.8767 74.0808 14.8214 74.126 14.7662L83.6315 6.60211C83.7319 6.5167 83.8375 6.46646 83.943 6.44134C84.0535 6.41622 84.1791 6.44134 84.3298 6.52675L85.41 7.10953C85.5607 7.18992 85.6512 7.28035 85.6914 7.38585C85.7316 7.49136 85.7416 7.60691 85.7315 7.73251L84.1038 20.1519C84.0887 20.2273 84.0686 20.2926 84.0435 20.3428C83.9983 20.4282 83.9279 20.4835 83.8274 20.5136C83.7269 20.5438 83.6365 20.5337 83.5511 20.4885L82.7372 20.0514C82.6116 19.9811 82.5362 19.9007 82.5111 19.8053C82.486 19.7098 82.476 19.6294 82.486 19.5641L82.8327 16.831L77.6127 14.0125L75.5177 15.8011C75.4775 15.8463 75.4122 15.8865 75.3117 15.9167C75.2112 15.9468 75.1007 15.9267 74.9751 15.8564L74.1612 15.4193V15.4243ZM78.8134 12.8972L83.109 15.2183L84.0083 8.41076L78.8084 12.9022L78.8134 12.8972Z" fill="white"/>
<path d="M87.9775 24.0506C87.9172 23.9752 87.8871 23.8898 87.8921 23.7893C87.8972 23.6888 87.9374 23.6034 88.0127 23.5431C88.0579 23.503 88.1132 23.4628 88.1735 23.4276L99.9548 19.1622C100.075 19.122 100.196 19.1069 100.301 19.122C100.412 19.1371 100.523 19.2124 100.633 19.338L101.437 20.2675C101.547 20.3931 101.603 20.5137 101.603 20.6242C101.603 20.7347 101.573 20.8503 101.512 20.9658L95.5889 32.0036C95.5487 32.0689 95.5085 32.1242 95.4633 32.1594C95.388 32.2196 95.3025 32.2498 95.2021 32.2448C95.1016 32.2397 95.0162 32.1996 94.9559 32.1242L94.353 31.4258C94.2576 31.3153 94.2174 31.2148 94.2274 31.1144C94.2375 31.0189 94.2576 30.9385 94.2877 30.8833L95.5789 28.4516L91.6953 23.9652L89.1029 24.8946C89.0476 24.9248 88.9723 24.9348 88.8718 24.9298C88.7713 24.9248 88.6709 24.8645 88.5754 24.7539L87.9725 24.0556L87.9775 24.0506ZM93.2226 23.3372L96.4179 27.0298L99.6735 20.9809L93.2226 23.3372Z" fill="white"/>
<path d="M96.2468 34.3398C96.1915 34.2192 96.1815 34.1087 96.2217 34.0132C96.2619 33.9128 96.3373 33.8374 96.4478 33.7872L107.124 28.733C107.244 28.6777 107.355 28.6626 107.455 28.6978C107.556 28.733 107.636 28.8033 107.692 28.9239L108.048 29.6775C108.109 29.8081 108.129 29.9187 108.099 30.0141C108.068 30.1096 108.043 30.1699 108.013 30.195L102.246 39.5698L110.42 35.7013C110.54 35.646 110.651 35.631 110.751 35.6661C110.852 35.6963 110.932 35.7716 110.987 35.8922L111.359 36.676C111.414 36.7965 111.424 36.9071 111.389 37.0126C111.349 37.1181 111.274 37.1985 111.153 37.2537L100.497 42.2979C100.387 42.3481 100.276 42.3581 100.171 42.323C100.065 42.2878 99.9797 42.2175 99.9295 42.1069L99.5577 41.3232C99.5024 41.2026 99.4923 41.0971 99.5275 41.0067C99.5627 40.9163 99.5878 40.856 99.5979 40.8208L105.29 31.5012L97.1813 35.3396C97.0708 35.3898 96.9653 35.3999 96.8598 35.3597C96.7543 35.3245 96.6739 35.2441 96.6186 35.1235L96.2468 34.3398Z" fill="white"/>
<path d="M100.829 44.5134C100.814 44.4179 100.834 44.3275 100.894 44.2471C100.955 44.1617 101.03 44.1114 101.125 44.0964C101.186 44.0863 101.251 44.0813 101.326 44.0813L113.615 46.538C113.741 46.5632 113.846 46.6134 113.932 46.6837C114.017 46.7541 114.072 46.8747 114.102 47.0405L114.308 48.2512C114.339 48.417 114.324 48.5477 114.263 48.6431C114.203 48.7386 114.123 48.819 114.012 48.8893L103.225 55.2598C103.16 55.2949 103.095 55.32 103.035 55.3301C102.939 55.3452 102.849 55.3251 102.768 55.2648C102.683 55.2045 102.633 55.1291 102.618 55.0337L102.462 54.1243C102.437 53.9837 102.457 53.8731 102.517 53.7927C102.577 53.7174 102.633 53.6621 102.688 53.627L105.054 52.2152L104.059 46.3672L101.362 45.8196C101.301 45.8196 101.226 45.7895 101.145 45.7292C101.06 45.6689 101.01 45.5684 100.985 45.4277L100.829 44.5184V44.5134ZM105.682 46.6235L106.501 51.4365L112.419 47.9498L105.677 46.6235H105.682Z" fill="white"/>
<path d="M102.467 57.6814C102.477 57.5508 102.522 57.4503 102.607 57.385C102.693 57.3197 102.793 57.2896 102.914 57.2996L114.71 58.1989C114.831 58.209 114.926 58.2542 115.002 58.3295C115.077 58.4049 115.107 58.5104 115.097 58.6461L115.027 59.6006C115.017 59.7212 114.971 59.8167 114.886 59.887C114.801 59.9573 114.7 59.9925 114.58 59.9825L103.939 59.1736L103.481 65.1622C103.471 65.2928 103.426 65.3984 103.341 65.4687C103.255 65.539 103.15 65.5742 103.014 65.5641L102.291 65.5089C102.17 65.4988 102.075 65.4536 102.004 65.3682C101.934 65.2828 101.899 65.1773 101.909 65.0417L102.472 57.6814H102.467Z" fill="white"/>
<path d="M100.774 69.1965C100.809 69.0809 100.869 68.9955 100.97 68.9403C101.065 68.885 101.171 68.875 101.291 68.9101L105.396 70.0857L113.691 67.9254C113.731 67.9254 113.766 67.9254 113.806 67.9254C113.846 67.9254 113.887 67.9254 113.932 67.9405C114.027 67.9656 114.098 68.0259 114.148 68.1163C114.198 68.2068 114.208 68.2972 114.183 68.3876L113.927 69.292C113.897 69.3975 113.846 69.4829 113.771 69.5482C113.696 69.6135 113.605 69.6537 113.505 69.6587L106.898 71.4372L111.56 76.4411C111.636 76.5266 111.691 76.612 111.721 76.7024C111.751 76.7928 111.751 76.8883 111.721 76.9938L111.47 77.883C111.44 77.9885 111.38 78.0639 111.289 78.1141C111.199 78.1644 111.108 78.1744 111.018 78.1493C110.973 78.1342 110.932 78.1192 110.902 78.0991C110.872 78.079 110.842 78.0488 110.812 78.0187L104.914 71.814L100.809 70.6384C100.693 70.6032 100.608 70.5379 100.553 70.4425C100.498 70.347 100.492 70.2314 100.528 70.1058L100.784 69.2015L100.774 69.1965Z" fill="white"/>
<path d="M96.2017 79.6314C96.7292 78.7221 97.307 78.0438 97.945 77.5917C98.5831 77.1395 99.2212 76.8783 99.8542 76.8029C100.487 76.7326 101.055 76.828 101.557 77.0893C101.643 77.1395 101.698 77.2149 101.723 77.3204C101.753 77.4259 101.738 77.5264 101.683 77.6218L101.221 78.4206C101.15 78.5462 101.065 78.6216 100.964 78.6467C100.864 78.6718 100.769 78.6718 100.673 78.6467C100.387 78.5663 100.065 78.5513 99.7035 78.6065C99.3417 78.6618 98.975 78.8276 98.5982 79.1039C98.2214 79.3802 97.8647 79.8123 97.5281 80.3951C97.0106 81.2944 96.7845 82.043 96.8599 82.6509C96.9353 83.2588 97.2367 83.716 97.7692 84.0224C98.136 84.2334 98.4927 84.2937 98.8494 84.1983C99.2061 84.1028 99.603 83.8767 100.045 83.52C100.487 83.1633 101.025 82.681 101.658 82.0731C102.316 81.4401 102.924 80.9477 103.477 80.596C104.029 80.2444 104.567 80.0585 105.094 80.0384C105.622 80.0183 106.184 80.179 106.777 80.5207C107.34 80.8472 107.757 81.2894 108.023 81.847C108.29 82.4047 108.39 83.0478 108.32 83.7712C108.249 84.4947 107.978 85.2583 107.516 86.0622C107.139 86.7103 106.727 87.2278 106.275 87.6096C105.823 87.9964 105.361 88.2677 104.883 88.4235C104.411 88.5792 103.959 88.6496 103.532 88.6244C103.105 88.5993 102.733 88.5039 102.416 88.333C102.341 88.2929 102.286 88.2225 102.251 88.1321C102.216 88.0416 102.231 87.9361 102.296 87.8206L102.778 86.9916C102.818 86.9163 102.884 86.856 102.974 86.8007C103.065 86.7455 103.175 86.7304 103.311 86.7555C103.773 86.9414 104.275 86.9112 104.808 86.66C105.34 86.4088 105.803 85.9517 106.189 85.2885C106.581 84.6102 106.772 83.9822 106.752 83.4095C106.737 82.8368 106.451 82.3896 105.898 82.0681C105.541 81.8621 105.19 81.7918 104.843 81.852C104.491 81.9123 104.105 82.1083 103.683 82.4348C103.255 82.7614 102.748 83.2085 102.15 83.7813C101.437 84.4846 100.799 85.0272 100.236 85.4091C99.6733 85.7909 99.1257 86.0019 98.5982 86.0371C98.0707 86.0722 97.508 85.9165 96.9101 85.5749C96.252 85.193 95.7898 84.6956 95.5285 84.0827C95.2622 83.4698 95.1869 82.7815 95.3025 82.0178C95.418 81.2542 95.7194 80.4503 96.2067 79.6063L96.2017 79.6314Z" fill="white"/>
<path d="M91.9666 86.0018C92.052 85.9013 92.1475 85.8461 92.258 85.8461C92.3635 85.8461 92.464 85.8812 92.5544 85.9566L101.547 93.6383C101.638 93.7187 101.693 93.8092 101.703 93.9147C101.718 94.0202 101.678 94.1257 101.593 94.2262L100.97 94.9546C100.884 95.0551 100.789 95.1054 100.678 95.1104C100.573 95.1104 100.472 95.0752 100.382 94.9998L91.3889 87.3131C91.2984 87.2327 91.2431 87.1423 91.2331 87.0368C91.218 86.9313 91.2583 86.8258 91.3437 86.7253L91.9666 85.9968V86.0018Z" fill="white"/>
<path d="M85.6764 91.9402C86.4903 91.2771 87.279 90.85 88.0326 90.6541C88.7913 90.4582 89.4795 90.4381 90.0975 90.5988C90.7155 90.7596 91.2129 91.051 91.5897 91.473C91.65 91.5484 91.675 91.6388 91.665 91.7493C91.6549 91.8599 91.6047 91.9503 91.5193 92.0156L90.8009 92.5984C90.6903 92.6888 90.5798 92.729 90.4793 92.719C90.3789 92.7089 90.2885 92.6738 90.2081 92.6135C89.9719 92.4326 89.6705 92.307 89.3138 92.2316C88.9571 92.1563 88.5551 92.1814 88.103 92.307C87.6558 92.4326 87.1635 92.7039 86.641 93.1309C85.8371 93.7841 85.3599 94.407 85.2142 94.9999C85.0685 95.5927 85.189 96.1303 85.5759 96.6076C85.8421 96.9341 86.1587 97.12 86.5204 97.1552C86.8871 97.1954 87.3393 97.125 87.8769 96.9492C88.4195 96.7734 89.0927 96.5121 89.9016 96.1705C90.7457 95.8138 91.4842 95.5676 92.1272 95.437C92.7653 95.3064 93.338 95.3264 93.8404 95.4922C94.3428 95.658 94.81 96.0097 95.2421 96.5423C95.6541 97.0497 95.8852 97.6074 95.9354 98.2253C95.9857 98.8433 95.85 99.4813 95.5235 100.129C95.1969 100.783 94.6744 101.4 93.956 101.983C93.3732 102.456 92.8055 102.787 92.2428 102.988C91.6801 103.189 91.1526 103.274 90.6552 103.254C90.1578 103.234 89.7107 103.134 89.3238 102.963C88.937 102.787 88.6205 102.566 88.3844 102.295C88.3291 102.229 88.3039 102.149 88.2989 102.049C88.2989 101.948 88.3492 101.858 88.4497 101.777L89.1932 101.174C89.2585 101.119 89.3439 101.084 89.4444 101.064C89.5449 101.044 89.6554 101.069 89.776 101.144C90.1428 101.481 90.62 101.632 91.2079 101.586C91.7957 101.546 92.3885 101.28 92.9863 100.793C93.5942 100.3 93.9911 99.7828 94.182 99.2402C94.373 98.6976 94.2624 98.1801 93.8605 97.6827C93.6043 97.3662 93.2978 97.1703 92.9512 97.1049C92.6045 97.0396 92.1725 97.0798 91.66 97.2356C91.1476 97.3863 90.5095 97.6275 89.7458 97.949C88.8315 98.3509 88.0377 98.6323 87.3745 98.788C86.7113 98.9437 86.1235 98.9488 85.6211 98.788C85.1187 98.6272 84.6464 98.2856 84.2094 97.7531C83.7321 97.1652 83.4758 96.5322 83.4457 95.869C83.4155 95.2059 83.5914 94.5327 83.9682 93.8594C84.345 93.1862 84.9127 92.5431 85.6714 91.9302L85.6764 91.9402Z" fill="white"/>
<path d="M82.5614 101.109C82.6669 101.054 82.7724 101.049 82.8728 101.084C82.9733 101.124 83.0487 101.194 83.104 101.3L83.4105 101.913C83.4657 102.018 83.4757 102.124 83.4456 102.229C83.4155 102.33 83.3452 102.41 83.2397 102.466L78.3713 104.902C78.2658 104.957 78.1553 104.968 78.0498 104.932C77.9443 104.897 77.8639 104.827 77.8137 104.716L77.5072 104.103C77.452 103.998 77.4419 103.887 77.477 103.782C77.5122 103.676 77.5826 103.596 77.6931 103.546L82.5614 101.109Z" fill="white"/>
<path d="M71.9257 99.9335C72.0563 99.9034 72.1619 99.9185 72.2523 99.9787C72.3427 100.039 72.398 100.129 72.4281 100.245L75.0959 111.75C75.126 111.881 75.116 111.991 75.0607 112.082C75.0054 112.172 74.915 112.237 74.7894 112.268L70.7903 113.197C69.5795 113.478 68.5646 113.524 67.7407 113.328C66.9167 113.137 66.2536 112.725 65.7461 112.092C65.2387 111.459 64.8619 110.63 64.6107 109.6C64.4751 109.072 64.3646 108.61 64.2691 108.213C64.1737 107.816 64.0781 107.354 63.9676 106.837C63.7415 105.751 63.7114 104.812 63.8822 104.023C64.0531 103.234 64.46 102.581 65.098 102.069C65.7411 101.556 66.6555 101.159 67.8412 100.883L71.9308 99.9335H71.9257ZM70.951 101.737L68.2732 102.36C67.4644 102.546 66.8414 102.807 66.4144 103.144C65.9823 103.48 65.716 103.918 65.6155 104.46C65.515 105.003 65.5502 105.681 65.726 106.495C65.7863 106.852 65.8416 107.163 65.9069 107.429C65.9672 107.696 66.0275 107.957 66.0928 108.223C66.1531 108.489 66.2385 108.786 66.339 109.122C66.6254 110.258 67.0926 111.037 67.7356 111.464C68.3787 111.891 69.3132 111.961 70.5341 111.68L73.1265 111.077L70.9611 101.737H70.951Z" fill="white"/>
<path d="M61.3152 102.214C61.4106 102.214 61.496 102.255 61.5664 102.33C61.6367 102.405 61.6668 102.491 61.6668 102.586C61.6668 102.646 61.6568 102.712 61.6418 102.782L56.7333 114.312C56.683 114.433 56.6127 114.523 56.5222 114.594C56.4368 114.664 56.3062 114.694 56.1404 114.689L54.9095 114.644C54.7387 114.639 54.6131 114.599 54.5327 114.523C54.4524 114.448 54.387 114.347 54.3418 114.227L50.3075 102.37C50.2874 102.295 50.2773 102.229 50.2773 102.169C50.2773 102.074 50.3176 101.988 50.3929 101.918C50.4683 101.848 50.5537 101.818 50.6492 101.818L51.5736 101.853C51.7193 101.853 51.8248 101.898 51.8851 101.973C51.9504 102.049 51.9906 102.114 52.0157 102.179L52.915 104.782L58.8433 104.998L59.9336 102.466C59.9486 102.405 59.9939 102.34 60.0692 102.27C60.1446 102.199 60.2551 102.169 60.4008 102.174L61.3202 102.209L61.3152 102.214ZM58.2605 106.535L53.3822 106.354L55.5878 112.86L58.2605 106.535Z" fill="white"/>
<path d="M46.65 100.687C46.7655 100.717 46.8509 100.782 46.9062 100.878C46.9615 100.973 46.9766 101.079 46.9464 101.194L44.2284 111.474L47.5844 112.363C47.7 112.393 47.7854 112.458 47.8407 112.554C47.8959 112.649 47.911 112.755 47.8759 112.87L47.6799 113.604C47.6447 113.729 47.5794 113.825 47.484 113.88C47.3885 113.935 47.283 113.95 47.1675 113.915L38.7371 111.69C38.6115 111.654 38.5161 111.589 38.4608 111.494C38.4056 111.398 38.3955 111.288 38.4307 111.157L38.6266 110.424C38.6567 110.308 38.7221 110.223 38.8175 110.167C38.913 110.112 39.0235 110.102 39.1542 110.137L42.4951 111.021L45.2131 100.742C45.2432 100.627 45.3086 100.541 45.404 100.486C45.4995 100.431 45.61 100.421 45.7406 100.451L46.65 100.692V100.687Z" fill="white"/>
<path d="M41.7063 99.4612C41.7917 99.5065 41.852 99.5768 41.8821 99.6722C41.9123 99.7677 41.9072 99.8632 41.862 99.9486C41.8369 100.004 41.7967 100.059 41.7565 100.114L32.3616 108.409C32.2611 108.494 32.1606 108.55 32.0501 108.575C31.9396 108.6 31.814 108.575 31.6633 108.494L30.573 107.927C30.4223 107.846 30.3269 107.756 30.2867 107.655C30.2465 107.55 30.2314 107.434 30.2464 107.309L31.7034 94.8693C31.7135 94.7939 31.7336 94.7286 31.7637 94.6784C31.8089 94.5929 31.8793 94.5327 31.9798 94.5025C32.0752 94.4724 32.1707 94.4774 32.2561 94.5226L33.075 94.9497C33.2006 95.015 33.281 95.0954 33.3061 95.1908C33.3312 95.2863 33.3413 95.3666 33.3362 95.432L33.0298 98.1701L38.2899 100.918L40.3598 99.1045C40.4 99.0543 40.4653 99.0191 40.5658 98.989C40.6613 98.9588 40.7769 98.9789 40.9025 99.0442L41.7214 99.4713L41.7063 99.4612ZM37.0892 102.049L32.7585 99.7878L31.9496 106.61L37.0842 102.049H37.0892Z" fill="white"/>
<path d="M27.7696 91.0208C27.8349 91.0911 27.865 91.1816 27.855 91.2821C27.85 91.3825 27.8097 91.4679 27.7394 91.5333C27.6942 91.5734 27.6389 91.6136 27.5786 91.6538L15.8526 96.08C15.732 96.1252 15.6164 96.1403 15.5059 96.1252C15.3954 96.1101 15.2848 96.0398 15.1743 95.9142L14.3554 94.9948C14.2448 94.8692 14.1846 94.7486 14.1846 94.6381C14.1846 94.5276 14.2097 94.412 14.27 94.2965L20.0476 83.1833C20.0878 83.118 20.128 83.0627 20.1732 83.0226C20.2436 82.9572 20.334 82.9321 20.4345 82.9371C20.535 82.9422 20.6204 82.9824 20.6857 83.0527L21.2986 83.741C21.3941 83.8515 21.4393 83.952 21.4292 84.0475C21.4192 84.1479 21.3991 84.2233 21.369 84.2786L20.1129 86.7303L24.0568 91.1615L26.6392 90.1969C26.6944 90.1667 26.7698 90.1516 26.8702 90.1567C26.9707 90.1617 27.0712 90.222 27.1666 90.3275L27.7796 91.0158L27.7696 91.0208ZM22.5345 91.8046L19.289 88.1571L16.1138 94.2462L22.5345 91.8046Z" fill="white"/>
<path d="M19.3645 80.8471C19.4248 80.9677 19.4348 81.0783 19.3946 81.1737C19.3544 81.2742 19.2841 81.3495 19.1736 81.4048L8.56787 86.6047C8.44729 86.665 8.33674 86.675 8.23626 86.6449C8.13578 86.6147 8.05541 86.5394 7.99512 86.4188L7.62838 85.6702C7.56306 85.5396 7.54794 85.4291 7.57306 85.3336C7.6032 85.2381 7.62834 85.1779 7.65346 85.1527L13.2904 75.7025L5.17162 79.6816C5.05104 79.7419 4.9405 79.7519 4.84002 79.7218C4.73953 79.6916 4.65916 79.6163 4.59887 79.4957L4.21704 78.717C4.15675 78.5964 4.14667 78.4858 4.18184 78.3803C4.21701 78.2748 4.29743 78.1945 4.41299 78.1342L15.0036 72.9443C15.1091 72.8891 15.2197 72.8841 15.3302 72.9142C15.4407 72.9494 15.5211 73.0197 15.5764 73.1252L15.9582 73.9039C16.0185 74.0245 16.0285 74.13 15.9933 74.2204C15.9582 74.3109 15.9331 74.3762 15.9231 74.4063L10.3564 83.8013L18.4099 79.8524C18.5204 79.7971 18.626 79.7921 18.7315 79.8273C18.837 79.8624 18.9174 79.9428 18.9776 80.0584L19.3595 80.8371L19.3645 80.8471Z" fill="white"/>
<path d="M14.6419 70.7338C14.662 70.8293 14.6419 70.9197 14.5816 71.0051C14.5213 71.0905 14.446 71.1407 14.3505 71.1558C14.2902 71.1659 14.2249 71.1709 14.1495 71.1759L1.83061 68.885C1.70501 68.8598 1.59448 68.8096 1.50907 68.7393C1.42366 68.6689 1.36339 68.5534 1.33324 68.3876L1.11215 67.1768C1.08201 67.011 1.0921 66.8804 1.15238 66.7849C1.20765 66.6895 1.29306 66.6041 1.40358 66.5387L12.0997 60.0226C12.165 59.9874 12.2303 59.9623 12.2906 59.9522C12.3861 59.9321 12.4765 59.9522 12.5619 60.0125C12.6473 60.0728 12.6976 60.1482 12.7127 60.2436L12.8784 61.153C12.9036 61.2937 12.8885 61.4042 12.8282 61.4846C12.7679 61.5649 12.7127 61.6202 12.6574 61.6554L10.3112 63.0973L11.3863 68.9302L14.0943 69.4426C14.1546 69.4426 14.2299 69.4728 14.3153 69.5331C14.4007 69.5933 14.456 69.6888 14.4811 69.8345L14.6469 70.7438L14.6419 70.7338ZM9.75854 68.689L8.87431 63.8861L3.00119 67.4531L9.75854 68.689Z" fill="white"/>
<path d="M12.828 57.591C12.818 57.7216 12.7727 57.8221 12.6924 57.8925C12.612 57.9578 12.5065 57.9879 12.3859 57.9829L0.579436 57.2444C0.458859 57.2343 0.363363 57.1941 0.288003 57.1188C0.212642 57.0434 0.182523 56.9379 0.187547 56.8073L0.247833 55.8527C0.257881 55.7321 0.303107 55.6367 0.383491 55.5613C0.4689 55.486 0.569373 55.4558 0.68995 55.4608L11.3409 56.129L11.7177 50.1354C11.7277 50.0047 11.7729 49.8992 11.8533 49.8289C11.9387 49.7535 12.0442 49.7234 12.1749 49.7334L12.8984 49.7787C13.0189 49.7837 13.1144 49.8289 13.1897 49.9143C13.2651 49.9997 13.2953 50.1052 13.2852 50.2358L12.823 57.6011L12.828 57.591Z" fill="white"/>
<path d="M14.3653 46.0558C14.3351 46.1714 14.2698 46.2568 14.1744 46.312C14.0789 46.3673 13.9734 46.3773 13.8578 46.3472L9.73817 45.2268L1.47367 47.5027C1.43348 47.5027 1.39826 47.5027 1.35806 47.5078C1.31787 47.5078 1.27768 47.5078 1.23246 47.4927C1.14203 47.4676 1.0667 47.4123 1.01646 47.3219C0.966224 47.2314 0.951174 47.141 0.976294 47.0506L1.22247 46.1412C1.25261 46.0357 1.30282 45.9503 1.37818 45.885C1.45354 45.8197 1.54399 45.7795 1.64447 45.7694L8.22593 43.9005L3.49328 38.9619C3.41792 38.8765 3.36267 38.7911 3.3275 38.7006C3.29234 38.6102 3.29233 38.5147 3.32248 38.4092L3.56362 37.52C3.59376 37.4145 3.64908 37.3391 3.73951 37.2889C3.82994 37.2386 3.92033 37.2236 4.01077 37.2487C4.05598 37.2587 4.09616 37.2788 4.12631 37.2989C4.15645 37.319 4.18662 37.3492 4.21677 37.3793L10.2004 43.5036L14.3201 44.624C14.4356 44.6541 14.521 44.7194 14.5763 44.8149C14.6316 44.9103 14.6416 45.0209 14.6064 45.1515L14.3602 46.0608L14.3653 46.0558Z" fill="white"/>
<path d="M18.7916 35.5606C18.2792 36.475 17.7064 37.1633 17.0734 37.6255C16.4404 38.0877 15.8073 38.359 15.1743 38.4394C14.5413 38.5198 13.9736 38.4344 13.4662 38.1731C13.3808 38.1279 13.3254 38.0475 13.2953 37.942C13.2652 37.8365 13.2752 37.736 13.3305 37.6406L13.7827 36.8367C13.853 36.7111 13.9384 36.6358 14.0339 36.6056C14.1344 36.5805 14.2298 36.5755 14.3253 36.6056C14.6116 36.686 14.9382 36.691 15.2949 36.6307C15.6516 36.5704 16.0183 36.3996 16.3901 36.1183C16.7619 35.8369 17.1136 35.3998 17.4452 34.812C17.9526 33.9077 18.1636 33.1541 18.0832 32.5462C18.0028 31.9383 17.6914 31.4861 17.1538 31.1847C16.787 30.9787 16.4253 30.9234 16.0736 31.0239C15.7219 31.1244 15.325 31.3555 14.8879 31.7172C14.4509 32.079 13.9183 32.5713 13.2953 33.1893C12.6422 33.8323 12.0443 34.3347 11.4967 34.6915C10.9491 35.0482 10.4116 35.2441 9.88403 35.2692C9.35651 35.2943 8.79382 35.1436 8.19094 34.807C7.62322 34.4905 7.20119 34.0534 6.92487 33.4957C6.64855 32.9381 6.54304 32.3 6.60333 31.5715C6.66361 30.8481 6.92488 30.0794 7.37705 29.2705C7.7438 28.6174 8.15071 28.0949 8.59785 27.703C9.04499 27.3112 9.5072 27.0348 9.97946 26.869C10.4517 26.7032 10.8989 26.6329 11.3259 26.648C11.753 26.6681 12.1247 26.7585 12.4463 26.9243C12.5216 26.9645 12.5769 27.0298 12.6171 27.1202C12.6573 27.2107 12.6422 27.3162 12.5769 27.4317L12.1096 28.2657C12.0694 28.3411 12.0041 28.4064 11.9187 28.4566C11.8333 28.5119 11.7178 28.527 11.5822 28.5069C11.1149 28.326 10.6175 28.3662 10.0849 28.6224C9.55742 28.8787 9.10025 29.3409 8.72345 30.0141C8.34162 30.6974 8.16079 31.3254 8.18591 31.8981C8.21103 32.4708 8.49739 32.9129 9.05505 33.2295C9.41176 33.4304 9.76846 33.4957 10.1151 33.4304C10.4618 33.3651 10.8486 33.1641 11.2707 32.8326C11.6927 32.501 12.1951 32.0438 12.7829 31.461C13.4863 30.7476 14.1192 30.2 14.6769 29.8081C15.2346 29.4162 15.7772 29.2002 16.3097 29.155C16.8423 29.1098 17.3999 29.2605 18.0028 29.5971C18.666 29.9689 19.1332 30.4612 19.4045 31.0691C19.6758 31.677 19.7612 32.3653 19.6557 33.129C19.5502 33.8926 19.2588 34.7015 18.7816 35.5556L18.7916 35.5606Z" fill="white"/>
<path d="M22.9412 29.1298C22.8558 29.2303 22.7603 29.2856 22.6548 29.2906C22.5493 29.2956 22.4488 29.2605 22.3534 29.1851L13.2599 21.6239C13.1695 21.5486 13.1142 21.4581 13.0991 21.3476C13.084 21.2421 13.1192 21.1366 13.2046 21.0361L13.8176 20.2976C13.903 20.1971 13.9984 20.1418 14.1039 20.1368C14.2094 20.1318 14.3099 20.167 14.4004 20.2423L23.4938 27.8035C23.5843 27.8789 23.6395 27.9743 23.6546 28.0798C23.6697 28.1853 23.6345 28.2908 23.5491 28.3913L22.9362 29.1298H22.9412Z" fill="white"/>
<path d="M29.1564 23.1061C28.3525 23.7793 27.5688 24.2164 26.8152 24.4223C26.0616 24.6283 25.3733 24.6535 24.7553 24.5078C24.1374 24.357 23.635 24.0707 23.2531 23.6537C23.1929 23.5783 23.1677 23.4879 23.1778 23.3773C23.1878 23.2668 23.233 23.1764 23.3185 23.1061L24.0268 22.5132C24.1373 22.4228 24.2428 22.3776 24.3483 22.3876C24.4539 22.3977 24.5393 22.4328 24.6197 22.4881C24.8608 22.6639 25.1623 22.7895 25.519 22.8599C25.8757 22.9302 26.2776 22.9001 26.7297 22.7694C27.1769 22.6388 27.6592 22.3575 28.1817 21.9254C28.9755 21.2622 29.4478 20.6342 29.5834 20.0364C29.7241 19.4435 29.5934 18.906 29.2016 18.4337C28.9303 18.1071 28.6138 17.9313 28.247 17.8961C27.8802 17.861 27.4281 17.9363 26.8905 18.1222C26.353 18.3031 25.6797 18.5744 24.8809 18.9311C24.0419 19.3029 23.3034 19.5541 22.6653 19.6947C22.0273 19.8354 21.4595 19.8254 20.9521 19.6596C20.4497 19.4988 19.9775 19.1521 19.5353 18.6246C19.1184 18.1222 18.8822 17.5645 18.8219 16.9466C18.7616 16.3286 18.8923 15.6906 19.2088 15.0375C19.5253 14.3793 20.0378 13.7563 20.7512 13.1585C21.3239 12.6812 21.8916 12.3396 22.4493 12.1285C23.007 11.9226 23.5345 11.8271 24.0369 11.8422C24.5342 11.8573 24.9814 11.9477 25.3733 12.1185C25.7651 12.2843 26.0817 12.5054 26.3228 12.7766C26.3781 12.842 26.4082 12.9223 26.4082 13.0228C26.4082 13.1233 26.363 13.2137 26.2625 13.2991L25.524 13.9121C25.4587 13.9673 25.3783 14.0025 25.2778 14.0226C25.1774 14.0427 25.0668 14.0226 24.9462 13.9472C24.5745 13.6157 24.0922 13.47 23.5094 13.5202C22.9216 13.5704 22.3337 13.8417 21.7409 14.3341C21.138 14.8365 20.7462 15.359 20.5653 15.9016C20.3844 16.4442 20.4949 16.9617 20.9069 17.454C21.1681 17.7705 21.4747 17.9564 21.8263 18.0167C22.178 18.077 22.605 18.0318 23.1175 17.871C23.6299 17.7102 24.263 17.4641 25.0216 17.1325C25.931 16.7205 26.7197 16.4291 27.3778 16.2583C28.036 16.0875 28.6238 16.0825 29.1312 16.2332C29.6387 16.3839 30.116 16.7205 30.5531 17.248C31.0404 17.8308 31.3016 18.4588 31.3418 19.122C31.382 19.7902 31.2162 20.4634 30.8444 21.1366C30.4727 21.8149 29.915 22.463 29.1664 23.091L29.1564 23.1061Z" fill="white"/>
</svg>
