<svg width="120" height="121" viewBox="0 0 120 121" fill="none" xmlns="http://www.w3.org/2000/svg">
<path d="M34.7783 14.4371C34.6632 14.4895 34.5586 14.4999 34.4539 14.4581C34.3493 14.4162 34.2708 14.343 34.2185 14.2279L33.9045 13.5843C33.8522 13.4691 33.8417 13.3645 33.8731 13.2546C33.9045 13.15 33.9778 13.0662 34.0929 13.0139L39.1997 10.5494C39.3149 10.4971 39.4247 10.4866 39.5346 10.5233C39.6445 10.5599 39.7283 10.6384 39.7806 10.7483L40.0945 11.3919C40.1469 11.507 40.1573 11.6169 40.1207 11.7267C40.084 11.8366 40.0056 11.9151 39.8957 11.9727L34.7888 14.4371H34.7783Z" fill="#F4F4F5"/>
<path d="M46.8187 15.5046C46.6826 15.5307 46.5727 15.5098 46.4785 15.447C46.3843 15.3842 46.332 15.2848 46.3059 15.1645L43.9722 3.08796C43.9461 2.95192 43.9617 2.8368 44.0193 2.74262C44.0769 2.64843 44.1762 2.58564 44.3123 2.55948L45.1652 2.39727C45.3117 2.37111 45.4321 2.38158 45.5158 2.4339C45.6047 2.48623 45.657 2.53332 45.678 2.56471L53.6418 10.8111L51.8523 1.56531C51.8261 1.42927 51.8418 1.31416 51.8993 1.21997C51.9569 1.12579 52.0564 1.06823 52.1924 1.03684L53.0819 0.864165C53.2179 0.838003 53.3331 0.858933 53.4272 0.921722C53.5214 0.984512 53.5842 1.08916 53.6104 1.21997L55.9389 13.2808C55.965 13.4064 55.9388 13.5162 55.8812 13.6209C55.8237 13.7255 55.7243 13.7831 55.5987 13.8093L54.7092 13.9819C54.5731 14.0081 54.4633 13.9924 54.3848 13.9296C54.301 13.8668 54.2487 13.8302 54.2174 13.8093L46.2902 5.65186L48.064 14.8244C48.0901 14.9499 48.064 15.0598 48.0012 15.154C47.9384 15.2482 47.8337 15.311 47.7029 15.3371L46.8134 15.5098L46.8187 15.5046Z" fill="#F4F4F5"/>
<path d="M60.6691 13.6731C60.533 13.6627 60.4284 13.6103 60.3604 13.5214C60.2924 13.4324 60.2662 13.3278 60.2766 13.2022L61.3703 0.947797C61.3807 0.811753 61.4278 0.707104 61.5115 0.628617C61.5952 0.555363 61.7051 0.523968 61.8411 0.534433L69.5904 1.22512C69.7265 1.23558 69.8311 1.28791 69.8991 1.37686C69.9672 1.46581 69.9933 1.57569 69.9829 1.71697L69.9201 2.42858C69.9096 2.56463 69.8625 2.66928 69.7788 2.7373C69.6951 2.80532 69.5852 2.83148 69.4492 2.82102L63.0708 2.25068L62.7045 6.35816L68.6695 6.89187C68.8056 6.90233 68.9102 6.95466 68.9782 7.04361C69.0462 7.13256 69.0724 7.24244 69.062 7.38372L68.9992 8.07963C68.9887 8.20521 68.9416 8.30463 68.8579 8.37788C68.7742 8.45114 68.6643 8.48253 68.5282 8.47207L62.5632 7.93836L62.1813 12.1976L68.7114 12.7784C68.8474 12.7888 68.9521 12.8359 69.0201 12.9197C69.0881 13.0034 69.1143 13.1133 69.1038 13.2493L69.041 13.9818C69.0305 14.1074 68.9834 14.2068 68.8997 14.2801C68.816 14.3534 68.7061 14.3847 68.5701 14.3743L60.6691 13.6679V13.6731Z" fill="#F4F4F5"/>
<path d="M75.6084 16.4513C75.488 16.4095 75.4095 16.3362 75.3572 16.2316C75.3101 16.1269 75.3049 16.017 75.3467 15.8967L79.1455 5.49457L75.7496 4.25448C75.6293 4.21262 75.5508 4.13936 75.4985 4.03471C75.4514 3.93006 75.4462 3.82018 75.488 3.69984L75.7601 2.95683C75.8072 2.82602 75.8857 2.73706 75.9903 2.68997C76.095 2.64288 76.2049 2.63765 76.3252 2.67951L84.8541 5.79282C84.9849 5.83991 85.0738 5.9184 85.1209 6.02305C85.168 6.1277 85.168 6.24281 85.1209 6.37362L84.8489 7.11663C84.807 7.23698 84.7338 7.31546 84.6291 7.36779C84.5245 7.41488 84.4093 7.41488 84.2785 7.36779L80.8984 6.13293L77.0996 16.5351C77.0577 16.6554 76.9845 16.7339 76.8798 16.7862C76.7752 16.8333 76.6601 16.8333 76.5293 16.7862L75.6084 16.4513Z" fill="#F4F4F5"/>
<path d="M85.2312 20.988C85.1004 20.8886 85.0271 20.7787 85.0009 20.6479C84.98 20.5223 85.0009 20.381 85.069 20.2293L90.427 9.11555C90.4479 9.06846 90.4688 9.0266 90.4898 9.00044C90.5107 8.96904 90.5264 8.94811 90.5369 8.94288C90.5997 8.86439 90.6834 8.8173 90.7881 8.80161C90.8927 8.78591 90.9869 8.81207 91.0654 8.86963L91.845 9.46089C92.0543 9.61787 92.1119 9.79577 92.0124 9.98937L87.6799 18.9002L93.3258 14.8085C93.4252 14.7404 93.5403 14.6986 93.6711 14.6777C93.802 14.6567 93.938 14.7038 94.0792 14.8085L94.6339 15.2271C94.7856 15.3422 94.8641 15.4625 94.8798 15.5881C94.8955 15.7137 94.8798 15.834 94.8275 15.9387L92.4415 22.4949L99.8245 15.8916C99.9815 15.7451 100.175 15.7555 100.395 15.9177L101.174 16.509C101.253 16.5718 101.3 16.6503 101.316 16.7602C101.331 16.8701 101.305 16.959 101.248 17.0375C101.243 17.048 101.222 17.0637 101.195 17.0898C101.169 17.116 101.138 17.1474 101.106 17.1892L91.8712 25.3676C91.7403 25.4774 91.6148 25.535 91.484 25.5507C91.3531 25.5664 91.2276 25.5193 91.0968 25.4251L90.5107 24.9804C90.3694 24.8757 90.2857 24.7554 90.2596 24.6246C90.2334 24.4937 90.2439 24.3629 90.3014 24.2321L92.7659 17.1003L86.5916 21.4275C86.466 21.506 86.3405 21.5531 86.2149 21.5688C86.0841 21.5845 85.9533 21.5374 85.812 21.4275L85.226 20.9828L85.2312 20.988Z" fill="#F4F4F5"/>
<path d="M98.0718 33.7345C97.4492 32.8502 97.0725 31.9921 96.9312 31.1497C96.7899 30.3073 96.9207 29.4962 97.3131 28.7166C97.7056 27.9317 98.3649 27.1835 99.291 26.4719C99.7358 26.1422 100.165 25.8335 100.583 25.5405C100.997 25.2475 101.436 24.9492 101.897 24.6405C102.87 24.0179 103.796 23.662 104.68 23.5731C105.565 23.4841 106.381 23.6464 107.14 24.0545C107.898 24.4678 108.573 25.0905 109.165 25.9329C109.751 26.7649 110.106 27.6073 110.237 28.4602C110.368 29.3131 110.243 30.1398 109.866 30.9456C109.489 31.7514 108.835 32.4997 107.914 33.1956C107.475 33.5357 107.051 33.8496 106.632 34.1427C106.219 34.4357 105.774 34.7287 105.308 35.0269C104.33 35.6705 103.409 36.0368 102.535 36.1362C101.661 36.2356 100.85 36.0787 100.107 35.6653C99.3642 35.2519 98.684 34.6083 98.0718 33.7345ZM99.3799 32.8136C99.9293 33.5933 100.615 34.0694 101.436 34.2316C102.258 34.399 103.215 34.127 104.298 33.4258C104.775 33.1223 105.193 32.8398 105.559 32.5834C105.926 32.327 106.323 32.0287 106.763 31.6886C107.459 31.1706 107.94 30.6317 108.212 30.0823C108.484 29.5329 108.584 28.9835 108.505 28.434C108.427 27.8899 108.212 27.3614 107.851 26.8486C107.49 26.3358 107.066 25.9486 106.58 25.6922C106.093 25.4359 105.544 25.3417 104.932 25.4097C104.319 25.4777 103.65 25.7498 102.917 26.2155C102.457 26.5242 102.043 26.8068 101.682 27.0631C101.321 27.3195 100.908 27.6178 100.453 27.9527C99.4218 28.7375 98.8515 29.5486 98.7311 30.3858C98.6108 31.2229 98.8253 32.0287 99.3747 32.8084L99.3799 32.8136Z" fill="#F4F4F5"/>
<path d="M102.953 41.6562C102.911 41.5254 102.911 41.4103 102.968 41.3161C103.026 41.2219 103.109 41.1486 103.23 41.112L114.888 37.1981C115.019 37.1563 115.134 37.1563 115.238 37.1981C115.338 37.2452 115.411 37.329 115.458 37.4598L116.923 41.8184C117.373 43.1631 117.415 44.3352 117.049 45.3346C116.682 46.334 115.877 47.0404 114.642 47.4538C113.726 47.7625 112.899 47.7834 112.172 47.5165C111.44 47.2497 110.833 46.7631 110.341 46.0567L106.516 50.3996C106.458 50.4572 106.395 50.499 106.338 50.52C106.244 50.5514 106.144 50.5409 106.05 50.4886C105.951 50.4363 105.888 50.363 105.856 50.2636L105.569 49.4055C105.501 49.2014 105.506 49.034 105.579 48.9032C105.652 48.7723 105.731 48.652 105.815 48.5473L109.483 44.4346L108.436 41.3109L103.832 42.8597C103.711 42.9015 103.601 42.8963 103.497 42.844C103.392 42.7916 103.319 42.7027 103.277 42.5719L102.973 41.6614L102.953 41.6562ZM109.938 40.8033L110.927 43.7492C111.225 44.6439 111.638 45.2457 112.162 45.5596C112.685 45.8736 113.313 45.9102 114.051 45.659C114.778 45.4131 115.259 45.0102 115.489 44.4503C115.72 43.8905 115.688 43.1527 115.385 42.2475L114.396 39.3016L109.933 40.8033H109.938Z" fill="#F4F4F5"/>
<path d="M106.427 54.4128C106.422 54.2768 106.453 54.1669 106.532 54.0884C106.61 54.0099 106.71 53.9681 106.835 53.9576L119.121 53.3402C119.257 53.3349 119.372 53.3663 119.456 53.4343C119.54 53.5076 119.587 53.6122 119.592 53.7483L119.639 54.6901C119.645 54.8262 119.613 54.9413 119.535 55.025C119.456 55.1087 119.351 55.1558 119.21 55.1611L114.543 55.3965L119.613 60.179C119.665 60.2261 119.733 60.3098 119.812 60.4249C119.89 60.54 119.938 60.697 119.948 60.9011L120 61.9162C120 62.0156 119.974 62.1045 119.901 62.183C119.828 62.2615 119.744 62.3034 119.645 62.3086C119.545 62.3086 119.461 62.2929 119.399 62.2458L113.423 56.7203L107.505 63.2243C107.432 63.2923 107.348 63.3289 107.249 63.3342C107.149 63.3394 107.06 63.308 106.982 63.2347C106.903 63.1615 106.862 63.0778 106.856 62.9783L106.804 61.9266C106.794 61.7121 106.825 61.5499 106.903 61.4295C106.977 61.3144 107.04 61.2255 107.087 61.1731L112.105 55.5273L106.93 55.789C106.804 55.7942 106.699 55.7576 106.61 55.6843C106.527 55.6058 106.48 55.5012 106.474 55.3599L106.427 54.418V54.4128Z" fill="#F4F4F5"/>
<path d="M106.223 66.8663C106.244 66.7303 106.301 66.6309 106.39 66.5681C106.479 66.5053 106.589 66.4844 106.715 66.5053L118.896 68.3366C119.021 68.3576 119.116 68.4099 119.184 68.4936C119.252 68.5826 119.278 68.6925 119.257 68.8285L119.11 69.8174C119.09 69.9535 119.032 70.0529 118.943 70.1157C118.854 70.1785 118.744 70.1994 118.619 70.1785L106.437 68.3471C106.312 68.3262 106.218 68.2739 106.15 68.1901C106.082 68.1012 106.055 67.9913 106.076 67.8553L106.223 66.8663Z" fill="#F4F4F5"/>
<path d="M105.156 73.0144C105.208 72.8836 105.281 72.7999 105.386 72.758C105.49 72.7162 105.6 72.7214 105.715 72.7633L117.185 77.2056C117.316 77.2527 117.405 77.3312 117.452 77.4306C117.499 77.53 117.499 77.6451 117.452 77.776L117.138 78.5818C117.086 78.723 117.012 78.8172 116.918 78.8591C116.824 78.9009 116.761 78.9271 116.719 78.9219L105.501 81.2869L114.286 84.688C114.417 84.7404 114.506 84.8136 114.553 84.913C114.6 85.0124 114.6 85.1276 114.553 85.2584L114.229 86.1008C114.176 86.2316 114.103 86.3153 113.993 86.3624C113.889 86.4095 113.768 86.4095 113.643 86.3624L102.189 81.9253C102.074 81.8782 101.985 81.8049 101.932 81.6951C101.88 81.5852 101.875 81.4753 101.922 81.3602L102.246 80.5178C102.299 80.387 102.367 80.3085 102.466 80.2666C102.56 80.23 102.623 80.2038 102.66 80.1881L113.784 77.8073L105.072 74.4324C104.957 74.3853 104.873 74.3121 104.826 74.2074C104.779 74.1028 104.779 73.9824 104.826 73.8568L105.15 73.0144H105.156Z" fill="#F4F4F5"/>
<path d="M96.578 89.0203C97.2687 88.1412 98.017 87.5238 98.8175 87.1732C99.6181 86.8227 100.445 86.718 101.287 86.8645C102.135 87.011 102.972 87.3773 103.799 87.9633C104.238 88.293 104.704 88.654 105.196 89.036C105.682 89.418 106.148 89.7895 106.582 90.1505C107.352 90.8203 107.906 91.5423 108.241 92.3272C108.576 93.1121 108.665 93.9336 108.503 94.7969C108.346 95.6603 107.922 96.5289 107.242 97.3975C106.698 98.0881 106.127 98.6114 105.526 98.9724C104.924 99.3282 104.343 99.5585 103.783 99.6526C103.223 99.7468 102.716 99.7468 102.26 99.6526C101.805 99.5585 101.455 99.4224 101.198 99.2393C101.104 99.1765 101.047 99.098 101.041 98.9986C101.031 98.8992 101.067 98.7945 101.146 98.6951L101.831 97.8213C101.91 97.7219 101.983 97.6643 102.062 97.6538C102.135 97.6381 102.24 97.6538 102.365 97.6905C102.69 97.8003 103.056 97.8527 103.464 97.8474C103.872 97.837 104.285 97.7271 104.72 97.5178C105.149 97.3033 105.573 96.937 105.981 96.4138C106.603 95.6237 106.886 94.8231 106.839 94.0121C106.792 93.201 106.295 92.39 105.348 91.5842C104.495 90.8621 103.616 90.1714 102.71 89.5121C101.69 88.7744 100.78 88.4813 99.9687 88.6279C99.1576 88.7744 98.446 89.2401 97.8338 90.0197C97.4205 90.5429 97.1536 91.0871 97.0333 91.6522C96.9077 92.2173 96.9548 92.7772 97.1693 93.3266C97.3838 93.876 97.8024 94.3993 98.4251 94.8859L99.0477 95.3725L100.795 93.1487C100.874 93.0493 100.968 92.9917 101.083 92.9813C101.198 92.9656 101.308 93.0022 101.418 93.0911L101.894 93.4626C102.004 93.5464 102.067 93.6458 102.077 93.7609C102.093 93.876 102.056 93.9807 101.983 94.0801L99.3565 97.4288C99.2728 97.5387 99.1733 97.5963 99.0634 97.6068C98.9536 97.6172 98.8437 97.5754 98.7338 97.4916L97.3106 96.3771C96.4996 95.7388 95.924 95.0219 95.5838 94.2161C95.2385 93.4103 95.1548 92.5627 95.317 91.6731C95.4844 90.7784 95.9083 89.8993 96.5885 89.0308L96.578 89.0203Z" fill="#F4F4F5"/>
<path d="M93.9846 100.407C94.084 100.328 94.1887 100.302 94.2985 100.323C94.4084 100.344 94.5026 100.401 94.5759 100.501L95.0101 101.071C95.0886 101.17 95.1201 101.275 95.1096 101.385C95.0991 101.495 95.0415 101.589 94.9421 101.662L90.4265 105.09C90.3271 105.168 90.2172 105.194 90.1073 105.179C89.9922 105.163 89.8981 105.105 89.8196 105.006L89.3853 104.436C89.3068 104.336 89.2806 104.226 89.2963 104.111C89.312 103.996 89.3696 103.902 89.469 103.829L93.9846 100.401V100.407Z" fill="#F4F4F5"/>
<path d="M72.1556 105.173C73.2701 104.87 74.2486 104.828 75.0962 105.042C75.9439 105.257 76.6502 105.681 77.2258 106.319C77.8014 106.957 78.2409 107.763 78.5444 108.731C78.6909 109.223 78.8426 109.757 78.9944 110.327C79.1461 110.897 79.2927 111.442 79.4182 111.97C79.6485 112.959 79.6746 113.88 79.5019 114.717C79.324 115.56 78.9264 116.287 78.3037 116.894C77.6811 117.506 76.8124 117.961 75.6979 118.265C74.8607 118.49 74.0968 118.573 73.4061 118.516C72.7155 118.458 72.1032 118.291 71.58 118.014C71.0567 117.736 70.6224 117.391 70.2718 116.972C69.9265 116.554 69.6701 116.093 69.5079 115.591C69.4661 115.486 69.4766 115.387 69.5341 115.293C69.5917 115.199 69.6754 115.136 69.7853 115.11L70.7847 114.837C70.8946 114.806 70.994 114.811 71.0934 114.853C71.1876 114.89 71.2765 114.984 71.355 115.136C71.8155 116.025 72.3805 116.569 73.0346 116.768C73.6939 116.967 74.4422 116.951 75.2793 116.726C76.263 116.46 76.9642 115.973 77.3828 115.267C77.8014 114.56 77.8694 113.597 77.5764 112.373C77.3409 111.368 77.0688 110.353 76.7496 109.317C76.3834 108.114 75.8444 107.313 75.1223 106.921C74.4003 106.523 73.5526 106.46 72.5689 106.722C71.7317 106.947 71.0829 107.313 70.612 107.821C70.1463 108.323 69.937 109.077 69.9841 110.081C69.9893 110.249 69.9632 110.374 69.9004 110.453C69.8376 110.536 69.7539 110.589 69.644 110.62L68.6446 110.892C68.5347 110.924 68.4353 110.913 68.3359 110.871C68.2364 110.824 68.1841 110.746 68.1632 110.636C68.0481 110.118 68.0376 109.589 68.1213 109.045C68.2103 108.501 68.4091 107.978 68.7231 107.475C69.037 106.973 69.4766 106.523 70.0469 106.12C70.612 105.717 71.3184 105.403 72.1556 105.178V105.173Z" fill="#F4F4F5"/>
<path d="M58.9703 106.743C60.0482 106.769 60.9691 106.978 61.7278 107.365C62.4865 107.753 63.0621 108.339 63.4546 109.124C63.8522 109.903 64.0615 110.882 64.0824 112.049C64.0824 112.603 64.0772 113.132 64.0615 113.639C64.0458 114.147 64.0301 114.68 64.0039 115.23C63.9254 116.386 63.6638 117.344 63.2086 118.102C62.7534 118.861 62.1412 119.426 61.3616 119.793C60.5819 120.159 59.6767 120.326 58.6459 120.305C57.6308 120.279 56.7413 120.07 55.9774 119.667C55.2134 119.264 54.6221 118.673 54.2035 117.893C53.7849 117.108 53.5652 116.14 53.5547 114.984C53.5443 114.429 53.5443 113.901 53.5547 113.393C53.5652 112.886 53.5914 112.352 53.628 111.803C53.6908 110.636 53.9471 109.673 54.3867 108.909C54.8262 108.145 55.4331 107.59 56.2076 107.24C56.982 106.889 57.9029 106.722 58.9703 106.748V106.743ZM58.9337 108.344C57.9814 108.323 57.1913 108.59 56.5686 109.155C55.946 109.72 55.5954 110.646 55.5117 111.939C55.475 112.504 55.4489 113.006 55.4384 113.456C55.4279 113.901 55.4279 114.403 55.4384 114.953C55.4384 115.821 55.5849 116.527 55.8675 117.072C56.15 117.616 56.532 118.024 57.0186 118.286C57.5 118.547 58.0599 118.688 58.6878 118.704C59.3157 118.72 59.8755 118.605 60.3726 118.369C60.8697 118.129 61.2673 117.741 61.5761 117.213C61.8848 116.679 62.0679 115.983 62.1255 115.115C62.1517 114.565 62.1673 114.063 62.1778 113.618C62.1883 113.173 62.1935 112.666 62.1935 112.101C62.1726 110.808 61.8639 109.861 61.2621 109.27C60.6604 108.679 59.886 108.37 58.9285 108.349L58.9337 108.344Z" fill="#F4F4F5"/>
<path d="M49.6965 106C49.8274 106.042 49.9163 106.115 49.9634 106.214C50.0105 106.314 50.0105 106.424 49.9739 106.544L46.1071 118.223C46.0652 118.354 45.992 118.448 45.8978 118.5C45.8036 118.553 45.6885 118.558 45.5577 118.516L44.7362 118.244C44.5949 118.197 44.4955 118.129 44.4484 118.04C44.396 117.951 44.3751 117.888 44.3751 117.846L41.4554 106.759L38.4938 115.701C38.452 115.832 38.3787 115.926 38.2845 115.978C38.1851 116.031 38.0753 116.036 37.9445 115.994L37.0863 115.711C36.9555 115.67 36.8613 115.596 36.8142 115.492C36.7619 115.387 36.7567 115.272 36.8038 115.141L40.6653 103.483C40.7072 103.363 40.7752 103.274 40.8851 103.216C40.9898 103.159 41.1049 103.148 41.22 103.19L42.0781 103.473C42.2089 103.515 42.2978 103.583 42.3397 103.677C42.3815 103.771 42.413 103.834 42.4287 103.865L45.3588 114.853L48.2942 105.984C48.3361 105.864 48.4041 105.78 48.5088 105.728C48.6134 105.676 48.7286 105.67 48.8594 105.717L49.7175 106H49.6965Z" fill="#F4F4F5"/>
<path d="M36.7408 100.919C36.8506 100.998 36.9186 101.092 36.9291 101.207C36.9448 101.317 36.9135 101.421 36.8402 101.526L29.6979 111.541C29.6194 111.651 29.5252 111.719 29.4153 111.745C29.3054 111.766 29.1955 111.74 29.0857 111.661L28.3793 111.159C28.2589 111.07 28.1857 110.976 28.1647 110.876C28.1438 110.777 28.1386 110.709 28.149 110.667L28.6304 99.2133L23.1625 106.884C23.0841 106.994 22.9899 107.062 22.88 107.088C22.7701 107.109 22.6602 107.083 22.5503 106.999L21.8125 106.476C21.7027 106.398 21.6346 106.298 21.6137 106.183C21.5928 106.068 21.6242 105.958 21.7079 105.843L28.8345 95.8436C28.9078 95.739 29.002 95.6762 29.1223 95.6553C29.2427 95.6343 29.3473 95.6553 29.452 95.7285L30.1897 96.2518C30.2996 96.3303 30.3624 96.4244 30.3781 96.5239C30.3885 96.6233 30.399 96.6913 30.4043 96.7279L29.9595 108.093L35.3803 100.485C35.4536 100.38 35.5478 100.323 35.6629 100.302C35.778 100.281 35.8878 100.312 36.003 100.391L36.7408 100.914V100.919Z" fill="#F4F4F5"/>
<path d="M25.8623 92.1547C25.9512 92.2646 25.9827 92.3692 25.967 92.4791C25.9513 92.589 25.8937 92.6831 25.7943 92.7616L16.1614 100.411C16.0515 100.495 15.9416 100.537 15.8317 100.527C15.7218 100.516 15.6224 100.459 15.5387 100.354L10.7039 94.2581C10.6202 94.1482 10.5836 94.0384 10.5993 93.9337C10.615 93.8291 10.6777 93.7244 10.7876 93.6407L11.3475 93.1959C11.4573 93.107 11.562 93.0704 11.6666 93.0861C11.7713 93.0965 11.8655 93.1593 11.9544 93.2692L15.9363 98.2871L19.17 95.7232L15.4445 91.0297C15.3608 90.9198 15.3241 90.8099 15.3398 90.7053C15.3555 90.6006 15.4183 90.496 15.5282 90.4123L16.0724 89.978C16.1718 89.8995 16.2764 89.8629 16.3863 89.8733C16.4962 89.8838 16.5956 89.9413 16.6794 90.046L20.4049 94.7395L23.7537 92.0814L19.6776 86.9484C19.5938 86.8385 19.5572 86.7338 19.5677 86.6292C19.5782 86.5245 19.6409 86.4304 19.7456 86.3414L20.3211 85.8862C20.4206 85.8077 20.5252 85.7711 20.6351 85.7815C20.745 85.792 20.8444 85.8496 20.9281 85.9542L25.8571 92.1651L25.8623 92.1547Z" fill="#F4F4F5"/>
<path d="M17.2658 78.1942C17.7106 79.2617 17.8885 80.2244 17.7838 81.093C17.6844 81.9616 17.3548 82.7203 16.8001 83.3744C16.2455 84.0284 15.5025 84.5726 14.5816 85.0017C14.1106 85.211 13.6031 85.4307 13.0589 85.661C12.5147 85.8912 11.9915 86.1005 11.4892 86.2993C10.5369 86.6604 9.63167 86.8069 8.77355 86.7441C7.91543 86.6813 7.14623 86.383 6.45555 85.8441C5.77009 85.3104 5.19976 84.5098 4.755 83.4424C4.42012 82.6418 4.23702 81.8988 4.20563 81.2029C4.17423 80.507 4.25795 79.8843 4.46201 79.3297C4.66608 78.775 4.95381 78.2989 5.32008 77.896C5.69158 77.4931 6.11544 77.1844 6.59159 76.9542C6.69101 76.8966 6.7904 76.8966 6.88982 76.9385C6.98923 76.9856 7.06251 77.0588 7.1096 77.1635L7.51251 78.121C7.55437 78.2256 7.56486 78.3251 7.5387 78.4245C7.51254 78.5239 7.42877 78.6233 7.29796 78.7227C6.47647 79.2983 6.01082 79.9262 5.90094 80.6064C5.79106 81.2866 5.90088 82.0244 6.23576 82.825C6.62819 83.7616 7.20378 84.3947 7.95726 84.7191C8.71073 85.0435 9.67875 84.9807 10.8508 84.5255C11.8136 84.1645 12.7868 83.7563 13.7705 83.3011C14.9164 82.7831 15.6333 82.1395 15.9315 81.3704C16.2298 80.6064 16.1827 79.7535 15.7902 78.8169C15.4554 78.0163 15.0054 77.4198 14.4455 77.0222C13.8856 76.6245 13.1112 76.5146 12.1223 76.6978C11.9601 76.7239 11.8293 76.7135 11.7403 76.6611C11.6514 76.6088 11.5833 76.5303 11.5415 76.4309L11.1386 75.4734C11.0968 75.3687 11.0915 75.2641 11.1229 75.1647C11.1543 75.0652 11.2276 74.9972 11.3322 74.9658C11.8293 74.7827 12.3526 74.7042 12.902 74.7147C13.4514 74.7304 13.9955 74.8559 14.5345 75.1019C15.0734 75.3478 15.5757 75.7245 16.0519 76.2321C16.5228 76.7396 16.9309 77.3937 17.2658 78.1942Z" fill="#F4F4F5"/>
<path d="M13.9537 66.6935C13.9694 66.8191 13.9432 66.9238 13.87 67.0179C13.7967 67.1069 13.7025 67.1645 13.5769 67.1802L2.58354 68.5511L3.03352 72.1405C3.04922 72.2661 3.02311 72.3708 2.94985 72.4649C2.8766 72.5539 2.78238 72.6114 2.6568 72.6271L1.87193 72.7266C1.73589 72.7423 1.62076 72.7161 1.53181 72.6481C1.44286 72.5801 1.38534 72.4806 1.36964 72.355L0.244648 63.3448C0.228951 63.2087 0.255126 63.0936 0.323148 63.0047C0.39117 62.9157 0.495806 62.8581 0.637082 62.8424L1.42195 62.743C1.54753 62.7273 1.65741 62.7535 1.74636 62.8267C1.83531 62.9 1.8929 62.9994 1.9086 63.1407L2.35334 66.7092L13.3467 65.3383C13.4723 65.3226 13.5822 65.3488 13.6712 65.422C13.7601 65.4953 13.8176 65.5947 13.8333 65.736L13.9537 66.7092V66.6935Z" fill="#F4F4F5"/>
<path d="M13.6147 57.5317C13.6043 57.6677 13.5571 57.7724 13.4682 57.8404C13.3792 57.9084 13.2746 57.9398 13.149 57.9294L0.857988 57.0555C0.732409 57.0451 0.632951 57.0032 0.554464 56.9195C0.475978 56.841 0.444613 56.7311 0.455078 56.5898L0.52834 55.5957C0.538805 55.4596 0.585913 55.355 0.674865 55.287C0.763816 55.2189 0.868458 55.1876 0.994037 55.198L13.2851 56.0718C13.4107 56.0823 13.51 56.1242 13.5885 56.2079C13.667 56.2916 13.6984 56.3962 13.688 56.5375L13.62 57.5317H13.6147Z" fill="#F4F4F5"/>
<path d="M15.6132 47.2235C15.3097 48.2595 14.8702 49.0915 14.2946 49.7246C13.7243 50.3525 13.0074 50.7606 12.1493 50.9385C11.2912 51.1164 10.2971 51.0641 9.16161 50.7816C8.6279 50.635 8.11509 50.4938 7.62848 50.3473C7.14186 50.2008 6.63429 50.049 6.10581 49.8763C5.01223 49.4996 4.15415 48.9973 3.53672 48.3642C2.91929 47.731 2.53205 46.988 2.38554 46.1404C2.2338 45.2927 2.30707 44.3718 2.60009 43.3829C2.88788 42.4096 3.32217 41.6038 3.90821 40.9707C4.49424 40.3376 5.22157 39.919 6.08493 39.7149C6.94828 39.5108 7.94242 39.5579 9.06216 39.8457C9.60111 39.9765 10.1139 40.1178 10.6005 40.2591C11.0872 40.4056 11.5947 40.5626 12.118 40.7457C13.2272 41.112 14.0958 41.6091 14.7132 42.2265C15.3307 42.8439 15.7178 43.5817 15.8539 44.4189C15.9899 45.2561 15.9115 46.1927 15.608 47.213L15.6132 47.2235ZM14.0749 46.7683C14.347 45.8526 14.2894 45.0206 13.9074 44.2724C13.5255 43.5241 12.7197 42.9433 11.4953 42.53C10.9616 42.3468 10.4802 42.1899 10.0511 42.0643C9.62204 41.9387 9.14065 41.8079 8.60171 41.6771C7.76451 41.4573 7.04243 41.4102 6.4407 41.541C5.83897 41.6718 5.34715 41.9335 4.97041 42.3364C4.59367 42.734 4.31113 43.2364 4.13323 43.8381C3.95533 44.4398 3.91865 45.0102 4.01807 45.5543C4.12272 46.0933 4.38959 46.5851 4.82389 47.0194C5.25818 47.4537 5.88606 47.8148 6.70756 48.0973C7.23604 48.2647 7.71218 48.4113 8.13601 48.5368C8.56507 48.6624 9.05171 48.7985 9.59588 48.9502C10.8517 49.2694 11.8406 49.2118 12.5679 48.788C13.2953 48.3642 13.7976 47.6892 14.0644 46.7735L14.0749 46.7683Z" fill="#F4F4F5"/>
<path d="M18.7358 38.4959C18.6573 38.611 18.5684 38.679 18.4585 38.6947C18.3486 38.7104 18.244 38.6895 18.1341 38.6162L7.868 31.8402C7.75288 31.7617 7.67961 31.6728 7.65345 31.5629C7.62729 31.453 7.65346 31.3431 7.72671 31.228L8.20282 30.5059C8.28654 30.3804 8.3755 30.3071 8.47492 30.2809C8.57433 30.2548 8.64236 30.2495 8.67899 30.26L20.1433 30.3333L12.2842 25.1479C12.169 25.0746 12.0958 24.9805 12.0696 24.8706C12.0434 24.7607 12.0696 24.6508 12.1429 24.5357L12.64 23.7822C12.7185 23.6671 12.8126 23.5991 12.9225 23.5729C13.0376 23.552 13.1475 23.5729 13.2626 23.6514L23.513 30.417C23.6176 30.485 23.6857 30.5792 23.7118 30.6943C23.738 30.8094 23.7171 30.9193 23.649 31.0239L23.152 31.7774C23.0787 31.8925 22.9898 31.9606 22.8851 31.9763C22.7857 31.9919 22.7177 32.0024 22.681 32.0129L11.3057 31.9763L19.1021 37.1198C19.2067 37.1878 19.2695 37.282 19.2957 37.3918C19.3166 37.507 19.2957 37.6168 19.2172 37.732L18.7201 38.4854L18.7358 38.4959Z" fill="#F4F4F5"/>
<path d="M30.1166 24.9858C29.2847 25.6922 28.4736 26.1579 27.6888 26.3777C26.9039 26.5974 26.1871 26.6341 25.5435 26.4823C24.8946 26.3306 24.3714 26.0376 23.9737 25.6033C23.9109 25.5248 23.8796 25.4306 23.8901 25.3155C23.9005 25.2004 23.9476 25.1062 24.0313 25.0329L24.7638 24.4103C24.879 24.3108 24.9888 24.269 25.0935 24.2794C25.1981 24.2899 25.2923 24.3213 25.3761 24.3841C25.6272 24.5672 25.9412 24.6928 26.3127 24.7608C26.6842 24.8341 27.1027 24.7975 27.5684 24.6562C28.0341 24.5149 28.5364 24.2167 29.0701 23.7614C29.8916 23.0655 30.373 22.401 30.5143 21.7836C30.6556 21.1609 30.5143 20.6063 30.101 20.1196C29.8184 19.7848 29.4835 19.6016 29.1016 19.5702C28.7196 19.5388 28.2539 19.6226 27.694 19.8162C27.1341 20.0098 26.4382 20.2976 25.6063 20.6743C24.7377 21.0667 23.9685 21.3388 23.3092 21.4905C22.6499 21.6423 22.0535 21.6371 21.525 21.4696C21.0017 21.3074 20.5046 20.9516 20.0442 20.4074C19.6046 19.8894 19.3535 19.3086 19.2855 18.6703C19.2175 18.0267 19.343 17.3621 19.6674 16.6767C19.9918 15.9912 20.5203 15.3319 21.2581 14.7093C21.8494 14.207 22.4354 13.8407 23.0162 13.6209C23.597 13.4012 24.1464 13.2965 24.6645 13.307C25.1825 13.3175 25.6481 13.4116 26.0562 13.5791C26.4644 13.7517 26.7993 13.9767 27.0504 14.2541C27.108 14.3221 27.1394 14.4058 27.1446 14.5105C27.1446 14.6151 27.0975 14.7093 26.9929 14.7982L26.229 15.4418C26.1609 15.4994 26.0772 15.5412 25.9726 15.5622C25.8679 15.5831 25.7528 15.5622 25.622 15.4889C25.2295 15.1436 24.7325 15.0023 24.1203 15.0599C23.5081 15.1174 22.8959 15.4052 22.2837 15.9232C21.661 16.4517 21.2581 17.0011 21.075 17.5662C20.8919 18.1365 21.0122 18.6703 21.4465 19.1778C21.7238 19.5022 22.043 19.6958 22.4092 19.7586C22.7755 19.8214 23.2203 19.7638 23.754 19.5964C24.2825 19.4237 24.9417 19.1621 25.7318 18.8115C26.6789 18.372 27.4952 18.0633 28.1807 17.8802C28.8661 17.7023 29.4783 17.6866 30.0068 17.8383C30.5353 17.99 31.0376 18.3354 31.498 18.8848C32.0108 19.4865 32.2881 20.1353 32.3352 20.8313C32.3823 21.5272 32.2149 22.2283 31.8329 22.9347C31.4562 23.6411 30.8754 24.3265 30.101 24.9858H30.1166Z" fill="#F4F4F5"/>
<g filter="url(#filter0_f_493_923)">
<path d="M66.0426 82.266C68.0218 82.266 69.6262 80.6615 69.6262 78.6824C69.6262 76.7032 68.0218 75.0988 66.0426 75.0988C64.0634 75.0988 62.459 76.7032 62.459 78.6824C62.459 80.6615 64.0634 82.266 66.0426 82.266Z" fill="url(#paint0_linear_493_923)"/>
<path d="M66.0426 46.4298C68.0218 46.4298 69.6262 44.8254 69.6262 42.8462C69.6262 40.867 68.0218 39.2626 66.0426 39.2626C64.0634 39.2626 62.459 40.867 62.459 42.8462C62.459 44.8254 64.0634 46.4298 66.0426 46.4298Z" fill="url(#paint1_linear_493_923)"/>
<path d="M35.5817 64.348C37.5608 64.348 39.1653 62.7436 39.1653 60.7644C39.1653 58.7852 37.5608 57.1808 35.5817 57.1808C33.6025 57.1808 31.998 58.7852 31.998 60.7644C31.998 62.7436 33.6025 64.348 35.5817 64.348Z" fill="url(#paint2_linear_493_923)"/>
<path d="M78.5854 53.5971C77.0007 53.6019 75.4624 54.1321 74.2114 55.1049C72.9605 56.0776 72.0676 57.4379 71.6726 58.9726H63.9965C63.7427 57.9621 63.2699 57.0198 62.6114 56.2123C61.953 55.4049 61.125 54.7522 60.1863 54.3003C59.2475 53.8484 58.2208 53.6085 57.179 53.5976C56.1372 53.5866 55.1058 53.8048 54.1577 54.2368L48.4651 47.1233C49.4015 45.8936 49.9111 44.3919 49.9165 42.8463C49.9165 41.4288 49.4961 40.0431 48.7086 38.8644C47.921 37.6858 46.8017 36.7671 45.492 36.2247C44.1824 35.6822 42.7413 35.5402 41.351 35.8168C39.9607 36.0933 38.6836 36.776 37.6813 37.7783C36.6789 38.7807 35.9963 40.0577 35.7198 41.448C35.4432 42.8384 35.5851 44.2794 36.1276 45.5891C36.6701 46.8987 37.5887 48.0181 38.7674 48.8056C39.946 49.5932 41.3317 50.0135 42.7493 50.0135C43.7596 50.0112 44.7578 49.7931 45.6771 49.3739L51.3678 56.4873C50.4272 57.7147 49.9173 59.218 49.9173 60.7644C49.9173 62.3108 50.4272 63.814 51.3678 65.0414L45.6771 72.1549C44.7578 71.7356 43.7596 71.5175 42.7493 71.5152C41.3317 71.5152 39.946 71.9355 38.7674 72.7231C37.5887 73.5106 36.6701 74.63 36.1276 75.9396C35.5851 77.2493 35.4432 78.6904 35.7198 80.0807C35.9963 81.471 36.6789 82.7481 37.6813 83.7504C38.6836 84.7528 39.9607 85.4354 41.351 85.7119C42.7413 85.9885 44.1824 85.8465 45.492 85.3041C46.8017 84.7616 47.921 83.843 48.7086 82.6643C49.4961 81.4857 49.9165 80.1 49.9165 78.6824C49.9112 77.1368 49.4016 75.635 48.4651 74.4054L54.1559 67.2919C55.1041 67.7242 56.1357 67.9427 57.1777 67.9319C58.2197 67.9211 59.2466 67.6813 60.1856 67.2294C61.1246 66.7775 61.9527 66.1246 62.6113 65.317C63.2699 64.5094 63.7428 63.5669 63.9965 62.5562H71.6726C72.01 63.8509 72.7037 65.025 73.6749 65.9452C74.646 66.8655 75.8558 67.495 77.1667 67.7623C78.4777 68.0296 79.8373 67.9239 81.0913 67.4573C82.3452 66.9906 83.4432 66.1818 84.2605 65.1225C85.0778 64.0633 85.5817 62.796 85.7151 61.4648C85.8484 60.1335 85.6058 58.7915 85.0147 57.5912C84.4237 56.3909 83.5079 55.3804 82.3715 54.6744C81.235 53.9684 79.9233 53.5951 78.5854 53.5971ZM39.1656 42.8463C39.1656 42.1375 39.3758 41.4447 39.7696 40.8554C40.1634 40.266 40.723 39.8067 41.3779 39.5355C42.0327 39.2642 42.7532 39.1933 43.4484 39.3315C44.1435 39.4698 44.7821 39.8111 45.2833 40.3123C45.7844 40.8135 46.1257 41.452 46.264 42.1472C46.4023 42.8423 46.3313 43.5629 46.0601 44.2177C45.7888 44.8725 45.3295 45.4322 44.7402 45.826C44.1509 46.2197 43.458 46.4299 42.7493 46.4299C41.7991 46.429 40.8882 46.0511 40.2163 45.3793C39.5445 44.7074 39.1666 43.7964 39.1656 42.8463ZM42.7493 82.266C42.0405 82.266 41.3476 82.0559 40.7583 81.6621C40.169 81.2683 39.7097 80.7086 39.4384 80.0538C39.1672 79.399 39.0962 78.6784 39.2345 77.9833C39.3728 77.2881 39.7141 76.6496 40.2153 76.1484C40.7164 75.6472 41.355 75.3059 42.0501 75.1677C42.7453 75.0294 43.4658 75.1004 44.1206 75.3716C44.7755 75.6428 45.3351 76.1021 45.7289 76.6915C46.1227 77.2808 46.3329 77.9736 46.3329 78.6824C46.3319 79.6326 45.9541 80.5435 45.2822 81.2154C44.6104 81.8872 43.6994 82.2651 42.7493 82.266ZM57.0837 64.348C56.3749 64.348 55.6821 64.1378 55.0928 63.744C54.5034 63.3503 54.0441 62.7906 53.7729 62.1358C53.5016 61.4809 53.4307 60.7604 53.5689 60.0652C53.7072 59.3701 54.0485 58.7315 54.5497 58.2304C55.0509 57.7292 55.6894 57.3879 56.3846 57.2496C57.0797 57.1113 57.8003 57.1823 58.4551 57.4535C59.1099 57.7248 59.6696 58.1841 60.0634 58.7734C60.4571 59.3627 60.6673 60.0556 60.6673 60.7644C60.6664 61.7145 60.2885 62.6255 59.6167 63.2973C58.9448 63.9692 58.0338 64.347 57.0837 64.348ZM78.5854 64.348C77.8766 64.348 77.1837 64.1378 76.5944 63.744C76.0051 63.3503 75.5458 62.7906 75.2745 62.1358C75.0033 61.4809 74.9323 60.7604 75.0706 60.0652C75.2089 59.3701 75.5502 58.7315 76.0514 58.2304C76.5526 57.7292 77.1911 57.3879 77.8862 57.2496C78.5814 57.1113 79.3019 57.1823 79.9568 57.4535C80.6116 57.7248 81.1713 58.1841 81.565 58.7734C81.9588 59.3627 82.169 60.0556 82.169 60.7644C82.168 61.7145 81.7902 62.6255 81.1183 63.2973C80.4465 63.9692 79.5355 64.347 78.5854 64.348Z" fill="url(#paint3_linear_493_923)"/>
</g>
<path d="M66.0426 82.266C68.0218 82.266 69.6262 80.6615 69.6262 78.6824C69.6262 76.7032 68.0218 75.0988 66.0426 75.0988C64.0634 75.0988 62.459 76.7032 62.459 78.6824C62.459 80.6615 64.0634 82.266 66.0426 82.266Z" fill="url(#paint4_linear_493_923)"/>
<path d="M66.0426 46.4298C68.0218 46.4298 69.6262 44.8254 69.6262 42.8462C69.6262 40.867 68.0218 39.2626 66.0426 39.2626C64.0634 39.2626 62.459 40.867 62.459 42.8462C62.459 44.8254 64.0634 46.4298 66.0426 46.4298Z" fill="url(#paint5_linear_493_923)"/>
<path d="M35.5817 64.348C37.5608 64.348 39.1653 62.7436 39.1653 60.7644C39.1653 58.7852 37.5608 57.1808 35.5817 57.1808C33.6025 57.1808 31.998 58.7852 31.998 60.7644C31.998 62.7436 33.6025 64.348 35.5817 64.348Z" fill="url(#paint6_linear_493_923)"/>
<path d="M78.5854 53.5971C77.0007 53.6019 75.4624 54.1321 74.2114 55.1049C72.9605 56.0776 72.0676 57.4379 71.6726 58.9726H63.9965C63.7427 57.9621 63.2699 57.0198 62.6114 56.2123C61.953 55.4049 61.125 54.7522 60.1863 54.3003C59.2475 53.8484 58.2208 53.6085 57.179 53.5976C56.1372 53.5866 55.1058 53.8048 54.1577 54.2368L48.4651 47.1233C49.4015 45.8936 49.9111 44.3919 49.9165 42.8463C49.9165 41.4288 49.4961 40.0431 48.7086 38.8644C47.921 37.6858 46.8017 36.7671 45.492 36.2247C44.1824 35.6822 42.7413 35.5402 41.351 35.8168C39.9607 36.0933 38.6836 36.776 37.6813 37.7783C36.6789 38.7807 35.9963 40.0577 35.7198 41.448C35.4432 42.8384 35.5851 44.2794 36.1276 45.5891C36.6701 46.8987 37.5887 48.0181 38.7674 48.8056C39.946 49.5932 41.3317 50.0135 42.7493 50.0135C43.7596 50.0112 44.7578 49.7931 45.6771 49.3739L51.3678 56.4873C50.4272 57.7147 49.9173 59.218 49.9173 60.7644C49.9173 62.3108 50.4272 63.814 51.3678 65.0414L45.6771 72.1549C44.7578 71.7356 43.7596 71.5175 42.7493 71.5152C41.3317 71.5152 39.946 71.9355 38.7674 72.7231C37.5887 73.5106 36.6701 74.63 36.1276 75.9396C35.5851 77.2493 35.4432 78.6904 35.7198 80.0807C35.9963 81.471 36.6789 82.7481 37.6813 83.7504C38.6836 84.7528 39.9607 85.4354 41.351 85.7119C42.7413 85.9885 44.1824 85.8465 45.492 85.3041C46.8017 84.7616 47.921 83.843 48.7086 82.6643C49.4961 81.4857 49.9165 80.1 49.9165 78.6824C49.9112 77.1368 49.4016 75.635 48.4651 74.4054L54.1559 67.2919C55.1041 67.7242 56.1357 67.9427 57.1777 67.9319C58.2197 67.9211 59.2466 67.6813 60.1856 67.2294C61.1246 66.7775 61.9527 66.1246 62.6113 65.317C63.2699 64.5094 63.7428 63.5669 63.9965 62.5562H71.6726C72.01 63.8509 72.7037 65.025 73.6749 65.9452C74.646 66.8655 75.8558 67.495 77.1667 67.7623C78.4777 68.0296 79.8373 67.9239 81.0913 67.4573C82.3452 66.9906 83.4432 66.1818 84.2605 65.1225C85.0778 64.0633 85.5817 62.796 85.7151 61.4648C85.8484 60.1335 85.6058 58.7915 85.0147 57.5912C84.4237 56.3909 83.5079 55.3804 82.3715 54.6744C81.235 53.9684 79.9233 53.5951 78.5854 53.5971ZM39.1656 42.8463C39.1656 42.1375 39.3758 41.4447 39.7696 40.8554C40.1634 40.266 40.723 39.8067 41.3779 39.5355C42.0327 39.2642 42.7532 39.1933 43.4484 39.3315C44.1435 39.4698 44.7821 39.8111 45.2833 40.3123C45.7844 40.8135 46.1257 41.452 46.264 42.1472C46.4023 42.8423 46.3313 43.5629 46.0601 44.2177C45.7888 44.8725 45.3295 45.4322 44.7402 45.826C44.1509 46.2197 43.458 46.4299 42.7493 46.4299C41.7991 46.429 40.8882 46.0511 40.2163 45.3793C39.5445 44.7074 39.1666 43.7964 39.1656 42.8463ZM42.7493 82.266C42.0405 82.266 41.3476 82.0559 40.7583 81.6621C40.169 81.2683 39.7097 80.7086 39.4384 80.0538C39.1672 79.399 39.0962 78.6784 39.2345 77.9833C39.3728 77.2881 39.7141 76.6496 40.2153 76.1484C40.7164 75.6472 41.355 75.3059 42.0501 75.1677C42.7453 75.0294 43.4658 75.1004 44.1206 75.3716C44.7755 75.6428 45.3351 76.1021 45.7289 76.6915C46.1227 77.2808 46.3329 77.9736 46.3329 78.6824C46.3319 79.6326 45.9541 80.5435 45.2822 81.2154C44.6104 81.8872 43.6994 82.2651 42.7493 82.266ZM57.0837 64.348C56.3749 64.348 55.6821 64.1378 55.0928 63.744C54.5034 63.3503 54.0441 62.7906 53.7729 62.1358C53.5016 61.4809 53.4307 60.7604 53.5689 60.0652C53.7072 59.3701 54.0485 58.7315 54.5497 58.2304C55.0509 57.7292 55.6894 57.3879 56.3846 57.2496C57.0797 57.1113 57.8003 57.1823 58.4551 57.4535C59.1099 57.7248 59.6696 58.1841 60.0634 58.7734C60.4571 59.3627 60.6673 60.0556 60.6673 60.7644C60.6664 61.7145 60.2885 62.6255 59.6167 63.2973C58.9448 63.9692 58.0338 64.347 57.0837 64.348ZM78.5854 64.348C77.8766 64.348 77.1837 64.1378 76.5944 63.744C76.0051 63.3503 75.5458 62.7906 75.2745 62.1358C75.0033 61.4809 74.9323 60.7604 75.0706 60.0652C75.2089 59.3701 75.5502 58.7315 76.0514 58.2304C76.5526 57.7292 77.1911 57.3879 77.8862 57.2496C78.5814 57.1113 79.3019 57.1823 79.9568 57.4535C80.6116 57.7248 81.1713 58.1841 81.565 58.7734C81.9588 59.3627 82.169 60.0556 82.169 60.7644C82.168 61.7145 81.7902 62.6255 81.1183 63.2973C80.4465 63.9692 79.5355 64.347 78.5854 64.348Z" fill="url(#paint7_linear_493_923)"/>
<g filter="url(#filter1_b_493_923)">
<path d="M44.7233 50.6312C48.954 49.6327 51.5581 45.3254 50.5398 41.0107C49.5214 36.6959 45.2662 34.0076 41.0354 35.0062C36.8047 36.0047 34.2006 40.312 35.2189 44.6267C36.2373 48.9415 40.4925 51.6298 44.7233 50.6312Z" fill="url(#paint8_linear_493_923)"/>
<path d="M44.8221 51.05C49.2918 49.995 52.0297 45.4501 50.9585 40.9118C49.8874 36.3736 45.4063 33.5324 40.9366 34.5874C36.4668 35.6424 33.729 40.1873 34.8001 44.7256C35.8713 49.2638 40.3524 52.105 44.8221 51.05Z" stroke="url(#paint9_linear_493_923)" stroke-width="0.860581"/>
</g>
<g filter="url(#filter2_b_493_923)">
<path d="M44.7233 86.4674C48.954 85.4689 51.5581 81.1616 50.5398 76.8469C49.5214 72.5321 45.2662 69.8438 41.0354 70.8424C36.8047 71.8409 34.2006 76.1482 35.2189 80.4629C36.2373 84.7776 40.4925 87.4659 44.7233 86.4674Z" fill="url(#paint10_linear_493_923)"/>
<path d="M44.8221 86.8862C49.2918 85.8312 52.0297 81.2862 50.9585 76.748C49.8874 72.2098 45.4063 69.3686 40.9366 70.4236C36.4668 71.4785 33.729 76.0235 34.8001 80.5617C35.8713 85.1 40.3524 87.9411 44.8221 86.8862Z" stroke="url(#paint11_linear_493_923)" stroke-width="0.860581"/>
</g>
<g filter="url(#filter3_b_493_923)">
<path d="M80.8365 68.5492C85.0673 67.5506 87.6714 63.2434 86.653 58.9286C85.6347 54.6139 81.3794 51.9256 77.1487 52.9242C72.918 53.9227 70.3138 58.23 71.3322 62.5447C72.3506 66.8594 76.6058 69.5477 80.8365 68.5492Z" fill="url(#paint12_linear_493_923)"/>
<path d="M80.9354 68.968C85.4051 67.913 88.1429 63.368 87.0718 58.8298C86.0007 54.2916 81.5196 51.4504 77.0499 52.5054C72.5801 53.5603 69.8423 58.1053 70.9134 62.6435C71.9845 67.1818 76.4656 70.0229 80.9354 68.968Z" stroke="url(#paint13_linear_493_923)" stroke-width="0.860581"/>
</g>
<g filter="url(#filter4_b_493_923)">
<path d="M58.2311 68.5492C62.4618 67.5506 65.0659 63.2434 64.0476 58.9286C63.0292 54.6139 58.774 51.9256 54.5432 52.9242C50.3125 53.9227 47.7084 58.23 48.7267 62.5447C49.7451 66.8594 54.0003 69.5477 58.2311 68.5492Z" fill="url(#paint14_linear_493_923)"/>
<path d="M58.3299 68.968C62.7997 67.913 65.5375 63.368 64.4664 58.8298C63.3952 54.2916 58.9141 51.4504 54.4444 52.5054C49.9746 53.5603 47.2368 58.1053 48.3079 62.6435C49.3791 67.1818 53.8602 70.0229 58.3299 68.968Z" stroke="url(#paint15_linear_493_923)" stroke-width="0.860581"/>
</g>
<defs>
<filter id="filter0_f_493_923" x="14.7864" y="18.4674" width="88.1762" height="84.5938" filterUnits="userSpaceOnUse" color-interpolation-filters="sRGB">
<feFlood flood-opacity="0" result="BackgroundImageFix"/>
<feBlend mode="normal" in="SourceGraphic" in2="BackgroundImageFix" result="shape"/>
<feGaussianBlur stdDeviation="8.60581" result="effect1_foregroundBlur_493_923"/>
</filter>
<filter id="filter1_b_493_923" x="18.6472" y="18.4463" width="48.4643" height="48.7447" filterUnits="userSpaceOnUse" color-interpolation-filters="sRGB">
<feFlood flood-opacity="0" result="BackgroundImageFix"/>
<feGaussianBlur in="BackgroundImageFix" stdDeviation="7.74523"/>
<feComposite in2="SourceAlpha" operator="in" result="effect1_backgroundBlur_493_923"/>
<feBlend mode="normal" in="SourceGraphic" in2="effect1_backgroundBlur_493_923" result="shape"/>
</filter>
<filter id="filter2_b_493_923" x="18.6472" y="54.2825" width="48.4643" height="48.7447" filterUnits="userSpaceOnUse" color-interpolation-filters="sRGB">
<feFlood flood-opacity="0" result="BackgroundImageFix"/>
<feGaussianBlur in="BackgroundImageFix" stdDeviation="7.74523"/>
<feComposite in2="SourceAlpha" operator="in" result="effect1_backgroundBlur_493_923"/>
<feBlend mode="normal" in="SourceGraphic" in2="effect1_backgroundBlur_493_923" result="shape"/>
</filter>
<filter id="filter3_b_493_923" x="54.7605" y="36.3643" width="48.4643" height="48.7447" filterUnits="userSpaceOnUse" color-interpolation-filters="sRGB">
<feFlood flood-opacity="0" result="BackgroundImageFix"/>
<feGaussianBlur in="BackgroundImageFix" stdDeviation="7.74523"/>
<feComposite in2="SourceAlpha" operator="in" result="effect1_backgroundBlur_493_923"/>
<feBlend mode="normal" in="SourceGraphic" in2="effect1_backgroundBlur_493_923" result="shape"/>
</filter>
<filter id="filter4_b_493_923" x="32.155" y="36.3643" width="48.4643" height="48.7447" filterUnits="userSpaceOnUse" color-interpolation-filters="sRGB">
<feFlood flood-opacity="0" result="BackgroundImageFix"/>
<feGaussianBlur in="BackgroundImageFix" stdDeviation="7.74523"/>
<feComposite in2="SourceAlpha" operator="in" result="effect1_backgroundBlur_493_923"/>
<feBlend mode="normal" in="SourceGraphic" in2="effect1_backgroundBlur_493_923" result="shape"/>
</filter>
<linearGradient id="paint0_linear_493_923" x1="66.0431" y1="82.5546" x2="66.0431" y2="75.4248" gradientUnits="userSpaceOnUse">
<stop stop-color="#FF5C00"/>
<stop offset="0.52" stop-color="#FFCA40"/>
<stop offset="1" stop-color="#FFE0F9"/>
</linearGradient>
<linearGradient id="paint1_linear_493_923" x1="66.0431" y1="46.7184" x2="66.0431" y2="39.5886" gradientUnits="userSpaceOnUse">
<stop stop-color="#FF5C00"/>
<stop offset="0.52" stop-color="#FFCA40"/>
<stop offset="1" stop-color="#FFE0F9"/>
</linearGradient>
<linearGradient id="paint2_linear_493_923" x1="23.7157" y1="65.9825" x2="37.3977" y2="55.2857" gradientUnits="userSpaceOnUse">
<stop stop-color="#7C00FF"/>
<stop offset="0.52" stop-color="#FF6700"/>
<stop offset="1" stop-color="#FFD400"/>
</linearGradient>
<linearGradient id="paint3_linear_493_923" x1="82.1635" y1="87.8433" x2="39.7091" y2="34.3709" gradientUnits="userSpaceOnUse">
<stop stop-color="#AA83FF"/>
<stop offset="1" stop-color="#FF3FA4"/>
</linearGradient>
<linearGradient id="paint4_linear_493_923" x1="66.0431" y1="82.5546" x2="66.0431" y2="75.4248" gradientUnits="userSpaceOnUse">
<stop stop-color="#FF5C00"/>
<stop offset="0.52" stop-color="#FFCA40"/>
<stop offset="1" stop-color="#FFE0F9"/>
</linearGradient>
<linearGradient id="paint5_linear_493_923" x1="66.0431" y1="46.7184" x2="66.0431" y2="39.5886" gradientUnits="userSpaceOnUse">
<stop stop-color="#FF5C00"/>
<stop offset="0.52" stop-color="#FFCA40"/>
<stop offset="1" stop-color="#FFE0F9"/>
</linearGradient>
<linearGradient id="paint6_linear_493_923" x1="23.7157" y1="65.9825" x2="37.3977" y2="55.2857" gradientUnits="userSpaceOnUse">
<stop stop-color="#7C00FF"/>
<stop offset="0.52" stop-color="#FF6700"/>
<stop offset="1" stop-color="#FFD400"/>
</linearGradient>
<linearGradient id="paint7_linear_493_923" x1="82.1635" y1="87.8433" x2="39.7091" y2="34.3709" gradientUnits="userSpaceOnUse">
<stop stop-color="#AA83FF"/>
<stop offset="1" stop-color="#FF3FA4"/>
</linearGradient>
<linearGradient id="paint8_linear_493_923" x1="37.7196" y1="51.353" x2="48.3706" y2="34.4938" gradientUnits="userSpaceOnUse">
<stop stop-color="white" stop-opacity="0.2"/>
<stop offset="1" stop-color="white" stop-opacity="0.49"/>
</linearGradient>
<linearGradient id="paint9_linear_493_923" x1="34.7465" y1="37.7878" x2="51.0578" y2="48.4105" gradientUnits="userSpaceOnUse">
<stop stop-color="white"/>
<stop offset="1" stop-color="white" stop-opacity="0"/>
</linearGradient>
<linearGradient id="paint10_linear_493_923" x1="37.7196" y1="87.1892" x2="48.3706" y2="70.33" gradientUnits="userSpaceOnUse">
<stop stop-color="white" stop-opacity="0.2"/>
<stop offset="1" stop-color="white" stop-opacity="0.49"/>
</linearGradient>
<linearGradient id="paint11_linear_493_923" x1="34.7465" y1="73.624" x2="51.0578" y2="84.2466" gradientUnits="userSpaceOnUse">
<stop stop-color="white"/>
<stop offset="1" stop-color="white" stop-opacity="0"/>
</linearGradient>
<linearGradient id="paint12_linear_493_923" x1="73.8329" y1="69.2709" x2="84.4839" y2="52.4118" gradientUnits="userSpaceOnUse">
<stop stop-color="white" stop-opacity="0.2"/>
<stop offset="1" stop-color="white" stop-opacity="0.49"/>
</linearGradient>
<linearGradient id="paint13_linear_493_923" x1="70.8598" y1="55.7058" x2="87.1711" y2="66.3284" gradientUnits="userSpaceOnUse">
<stop stop-color="white"/>
<stop offset="1" stop-color="white" stop-opacity="0"/>
</linearGradient>
<linearGradient id="paint14_linear_493_923" x1="51.2274" y1="69.2709" x2="61.8784" y2="52.4118" gradientUnits="userSpaceOnUse">
<stop stop-color="white" stop-opacity="0.2"/>
<stop offset="1" stop-color="white" stop-opacity="0.49"/>
</linearGradient>
<linearGradient id="paint15_linear_493_923" x1="48.2543" y1="55.7058" x2="64.5656" y2="66.3284" gradientUnits="userSpaceOnUse">
<stop stop-color="white"/>
<stop offset="1" stop-color="white" stop-opacity="0"/>
</linearGradient>
</defs>
</svg>
